<svg width="192" height="50" viewBox="0 0 192 50" fill="none" xmlns="http://www.w3.org/2000/svg">
<path fill-rule="evenodd" clip-rule="evenodd" d="M6.66667 10H22.8475C22.6232 10.5135 22.5 11.0782 22.5 11.6667C22.5 12.2551 22.6232 12.8198 22.8475 13.3333H6.66667C4.82572 13.3333 3.33333 14.8257 3.33333 16.6667V30.8514C10.6687 28.9958 18.0685 30.9721 23.4302 35.5499C26.9724 33.2834 31.1484 32.7204 35 33.6712V25.4858C35.5135 25.7102 36.0782 25.8333 36.6667 25.8333C37.2551 25.8333 37.8198 25.7102 38.3333 25.4858V35.9417C38.3339 35.9668 38.3339 35.9919 38.3333 36.0171V43.3333C38.3333 47.0152 35.3486 50 31.6667 50H6.66667C2.98477 50 0 47.0152 0 43.3333V16.6667C0 12.9847 2.98477 10 6.66667 10Z" fill="white" fill-opacity="0.24"/>
<path fill-rule="evenodd" clip-rule="evenodd" d="M36.6667 0C37.4447 0 38.1193 0.538392 38.2918 1.29712L39.214 5.35245C39.6405 7.22817 41.1052 8.69283 42.9809 9.11933L47.0362 10.0415C47.7949 10.214 48.3333 10.8886 48.3333 11.6667C48.3333 12.4448 47.7949 13.1193 47.0362 13.2918L42.9809 14.214C41.1052 14.6405 39.6405 16.1052 39.214 17.9809L38.2918 22.0363C38.1193 22.7949 37.4447 23.3333 36.6667 23.3333C35.8886 23.3333 35.214 22.7949 35.0415 22.0363L34.1193 17.9809C33.6928 16.1052 32.2282 14.6405 30.3524 14.214L26.2971 13.2918C25.5384 13.1193 25 12.4448 25 11.6667C25 10.8886 25.5384 10.214 26.2971 10.0415L30.3524 9.11933C32.2282 8.69283 33.6928 7.22817 34.1193 5.35245L35.0415 1.29712C35.214 0.538392 35.8886 0 36.6667 0Z" fill="#FAC100"/>
<path fill-rule="evenodd" clip-rule="evenodd" d="M36.6667 0C37.4447 0 38.1193 0.538392 38.2918 1.29712L39.214 5.35245C39.6405 7.22817 41.1052 8.69283 42.9809 9.11933L47.0362 10.0415C47.7949 10.214 48.3333 10.8886 48.3333 11.6667C48.3333 12.4448 47.7949 13.1193 47.0362 13.2918L42.9809 14.214C41.1052 14.6405 39.6405 16.1052 39.214 17.9809L38.2918 22.0363C38.1193 22.7949 37.4447 23.3333 36.6667 23.3333C35.8886 23.3333 35.214 22.7949 35.0415 22.0363L34.1193 17.9809C33.6928 16.1052 32.2282 14.6405 30.3524 14.214L26.2971 13.2918C25.5384 13.1193 25 12.4448 25 11.6667C25 10.8886 25.5384 10.214 26.2971 10.0415L30.3524 9.11933C32.2282 8.69283 33.6928 7.22817 34.1193 5.35245L35.0415 1.29712C35.214 0.538392 35.8886 0 36.6667 0Z" fill="#FAC100"/>
<path fill-rule="evenodd" clip-rule="evenodd" d="M27.0833 16.6667C24.5742 16.6667 22.5 18.6965 22.5 21.25C22.5 23.8035 24.5742 25.8333 27.0833 25.8333C29.5926 25.8333 31.6667 23.8035 31.6667 21.25C31.6667 18.6965 29.5926 16.6667 27.0833 16.6667Z" fill="#FF9500"/>
<path fill-rule="evenodd" clip-rule="evenodd" d="M6.66667 10H22.8475C22.6232 10.5135 22.5 11.0782 22.5 11.6667C22.5 12.2551 22.6232 12.8198 22.8475 13.3333H6.66667C4.82572 13.3333 3.33333 14.8257 3.33333 16.6667V30.8514C10.6687 28.9958 18.0685 30.9721 23.4302 35.5499C26.9724 33.2834 31.1484 32.7204 35 33.6712V25.4858C35.5135 25.7102 36.0782 25.8333 36.6667 25.8333C37.2551 25.8333 37.8198 25.7102 38.3333 25.4858V35.9417C38.3339 35.9668 38.3339 35.9919 38.3333 36.0171V43.3333C38.3333 47.0152 35.3486 50 31.6667 50H6.66667C2.98477 50 0 47.0152 0 43.3333V16.6667C0 12.9847 2.98477 10 6.66667 10Z" fill="url(#paint0_linear_4756_342)"/>
<mask id="mask0_4756_342" style="mask-type:alpha" maskUnits="userSpaceOnUse" x="25" y="0" width="24" height="24">
<path fill-rule="evenodd" clip-rule="evenodd" d="M36.6667 0C37.4447 0 38.1193 0.538392 38.2918 1.29712L39.214 5.35245C39.6405 7.22817 41.1052 8.69283 42.9809 9.11933L47.0362 10.0415C47.7949 10.214 48.3333 10.8886 48.3333 11.6667C48.3333 12.4448 47.7949 13.1193 47.0362 13.2918L42.9809 14.214C41.1052 14.6405 39.6405 16.1052 39.214 17.9809L38.2918 22.0363C38.1193 22.7949 37.4447 23.3333 36.6667 23.3333C35.8886 23.3333 35.214 22.7949 35.0415 22.0363L34.1193 17.9809C33.6928 16.1052 32.2282 14.6405 30.3524 14.214L26.2971 13.2918C25.5384 13.1193 25 12.4448 25 11.6667C25 10.8886 25.5384 10.214 26.2971 10.0415L30.3524 9.11933C32.2282 8.69283 33.6928 7.22817 34.1193 5.35245L35.0415 1.29712C35.214 0.538392 35.8886 0 36.6667 0Z" fill="#FAC100"/>
</mask>
<g mask="url(#mask0_4756_342)">
<path d="M41.9444 16.1111C39.4311 16.1091 36.9891 15.2754 34.9993 13.74C33.0095 12.2047 31.5838 10.0539 30.9444 7.62329L27.9861 8.26385C27.8206 8.29965 27.6674 8.37824 27.5418 8.49177C27.4162 8.60531 27.3226 8.74981 27.2703 8.91085C27.218 9.07188 25.7985 9.001 25.8334 9.16667C25.8684 9.33234 21.6974 9.05589 24.5834 10L22.9167 12.9167L30.4656 19.0761C30.4484 19.2445 30.4758 19.4145 30.5449 19.569C30.6141 19.7236 30.7225 19.8573 30.8595 19.9568C30.9965 20.0564 31.1572 20.1182 31.3255 20.1362C31.4939 20.1542 31.664 20.1277 31.8189 20.0594L36.6667 25L41.5145 20.0594C41.6694 20.1277 41.8395 20.1542 42.0078 20.1362C42.1762 20.1182 42.3369 20.0564 42.4738 19.9568C42.6108 19.8573 42.7193 19.7236 42.7884 19.569C42.8575 19.4145 42.8849 19.2445 42.8678 19.0761L42.5645 16.08C42.3578 16.0911 42.1539 16.1111 41.9444 16.1111Z" fill="#FF9500"/>
</g>
<path d="M56.9023 37H52.3672L58.2734 19.5391H63.875L69.7695 37H65.2461L61.1445 23.9336H61.0039L56.9023 37ZM56.3164 30.1211H65.7969V33.332H56.3164V30.1211ZM75.1836 19.5391V37H70.9766V19.5391H75.1836ZM85.4258 37H80.8906L86.7969 19.5391H92.3984L98.293 37H93.7695L89.668 23.9336H89.5273L85.4258 37ZM84.8398 30.1211H94.3203V33.332H84.8398V30.1211ZM99.5 37V19.5391H103.707V33.5664H110.984V37H99.5ZM109.812 22.9727V19.5391H124.555V22.9727H119.258V37H115.109V22.9727H109.812ZM129.898 22.9727V19.5391H144.641V22.9727H139.344V37H135.195V22.9727H129.898ZM146.047 37V19.5391H158.223V22.9727H150.254V26.5H157.59V29.8516H150.254V33.5664H158.211V37H146.047ZM164.457 19.5391L167.645 25.0586H167.785L170.984 19.5391H175.719L170.445 28.2812L175.895 37H171.043L167.785 31.4336H167.645L164.363 37H159.57L164.973 28.2812L159.699 19.5391H164.457ZM176.68 22.9727V19.5391H191.422V22.9727H186.125V37H181.977V22.9727H176.68Z" fill="#1B1B1B"/>
<defs>
<linearGradient id="paint0_linear_4756_342" x1="0" y1="10" x2="42.4671" y2="15.0177" gradientUnits="userSpaceOnUse">
<stop stop-color="#6248FF"/>
<stop offset="0.595" stop-color="#D525FF"/>
<stop offset="1" stop-color="#FFCD57"/>
</linearGradient>
</defs>
</svg>
