
<svg fill="#000000" version="1.1" id="Icons" xmlns="http://www.w3.org/2000/svg"
     viewBox="0 0 32 32">
<g>
	<path d="M31,7.8c-0.7-3.4-3.3-6.1-6.8-6.8c-0.3-0.1-0.7,0-0.9,0.3l-2.5,2.5c3.4,1.4,6,4.1,7.4,7.4l2.5-2.5C30.9,8.5,31,8.1,31,7.8z
		"/>
    <path d="M19.2,5.4L4.3,20.3c-0.1,0.1-0.2,0.3-0.3,0.5l-2,8c-0.1,0.3,0,0.7,0.3,0.9C2.5,29.9,2.7,30,3,30c0.1,0,0.2,0,0.2,0l8-2
		c0.2,0,0.3-0.1,0.5-0.3l14.9-14.9C25.5,9.3,22.7,6.5,19.2,5.4z M21.7,11.7l-12,12C9.5,23.9,9.3,24,9,24s-0.5-0.1-0.7-0.3
		c-0.4-0.4-0.4-1,0-1.4l12-12c0.4-0.4,1-0.4,1.4,0S22.1,11.3,21.7,11.7z"/>
</g>
</svg>
