<?xml version="1.0" encoding="utf-8"?>
<!-- Generator: Adobe Illustrator 16.0.0, SVG Export Plug-In . SVG Version: 6.00 Build 0)  -->
<!DOCTYPE svg PUBLIC "-//W3C//DTD SVG 1.1//EN" "http://www.w3.org/Graphics/SVG/1.1/DTD/svg11.dtd">
<svg version="1.1" xmlns="http://www.w3.org/2000/svg" xmlns:xlink="http://www.w3.org/1999/xlink" x="0px" y="0px" width="40px"
	 height="40px" viewBox="0 0 40 40" enable-background="new 0 0 40 40" xml:space="preserve">
<g id="Hintergrund_Kopie">
	<g>
		<path fill-rule="evenodd" clip-rule="evenodd" fill="#FFFFFF" d="M6.253,39.5c-3.172,0-5.753-2.579-5.753-5.75V6.25
			c0-3.17,2.581-5.75,5.753-5.75h27.494c3.172,0,5.753,2.58,5.753,5.75v27.5c0,3.171-2.581,5.75-5.753,5.75H6.253z"/>
		<path fill="#CCCCCC" d="M33.747,1C36.644,1,39,3.355,39,6.25v27.5c0,2.895-2.356,5.25-5.253,5.25H6.253C3.356,39,1,36.645,1,33.75
			V6.25C1,3.355,3.356,1,6.253,1H33.747 M33.747,0H6.253C2.8,0,0,2.798,0,6.25v27.5C0,37.201,2.8,40,6.253,40h27.494
			C37.202,40,40,37.201,40,33.75V6.25C40,2.798,37.202,0,33.747,0L33.747,0z"/>
	</g>
</g>
<g id="Content">
	<g>
		<g>
			<path fill="#FF9900" d="M33.971,29.141c-4.418,1.875-9.225,2.779-13.592,2.779c-6.478,0-12.747-1.775-17.818-4.725
				c-0.444-0.262-0.774,0.195-0.405,0.529c4.699,4.244,10.91,6.795,17.81,6.795c4.919,0,10.634-1.551,14.578-4.457
				C35.197,29.578,34.637,28.857,33.971,29.141z"/>
			<path fill="#FF9900" d="M31.482,27.5c-0.35,0.242-0.287,0.58,0.098,0.533c1.271-0.148,4.1-0.49,4.604,0.154
				c0.504,0.646-0.562,3.309-1.039,4.494c-0.145,0.361,0.166,0.506,0.49,0.234c2.119-1.77,2.662-5.477,2.23-6.01
				S33.736,25.916,31.482,27.5z"/>
		</g>
		<path fill="#221F1F" d="M29.947,25.5c-0.777-1.076-1.605-1.951-1.605-3.943v-6.635c0-2.808,0.197-5.388-1.873-7.322
			c-1.635-1.569-4.342-2.12-6.412-2.12c-4.048,0-8.568,1.508-9.521,6.514c-0.095,0.533,0.288,0.814,0.634,0.893l4.132,0.443
			c0.383-0.018,0.665-0.396,0.737-0.778c0.352-1.725,1.802-2.557,3.424-2.557c0.875,0,1.866,0.323,2.388,1.108
			c0.594,0.874,0.516,2.071,0.516,3.083v0.551c-2.466,0.281-5.693,0.461-8.004,1.479c-2.666,1.15-4.538,3.502-4.538,6.957
			c0,4.424,2.789,6.633,6.369,6.633c3.029,0,4.682-0.711,7.017-3.094c0.779,1.119,1.031,1.664,2.443,2.836
			c0.316,0.17,0.723,0.15,1.006-0.1l0.012,0.012c0.85-0.756,2.395-2.102,3.264-2.826C30.281,26.346,30.221,25.883,29.947,25.5z
			 M21.57,23.586c-0.675,1.195-1.747,1.932-2.945,1.932c-1.635,0-2.586-1.244-2.586-3.082c0-3.628,3.251-4.287,6.328-4.287v0.922
			C22.367,20.729,22.41,22.113,21.57,23.586z"/>
	</g>
</g>
</svg>
