<svg xmlns="http://www.w3.org/2000/svg" viewBox="0 0 300 300" xmlns:v="https://vecta.io/nano"><path fill="#444" d="M234.3 17.4H101.7c-14.4 0-26.1 11.7-26.1 26.1v9.9h-9.9c-14.4 0-26.1 11.7-26.1 26.1v177c0 14.4 11.7 26.1 26.1 26.1h132.6c14.4 0 26.1-11.7 26.1-26.1v-9.9h9.9c14.4 0 26.1-11.7 26.1-26.1v-177c-.3-14.4-12-26.1-26.1-26.1zm-29.7 239.1c0 3.6-3 6.6-6.6 6.6H65.7c-3.6 0-6.6-3-6.6-6.6v-177c0-3.6 3-6.6 6.6-6.6h132.6c3.6 0 6.6 3 6.6 6.6v177h-.3zm36-36c0 3.6-3 6.6-6.6 6.6h-9.9V79.5c0-14.4-11.7-26.1-26.1-26.1H95.1v-9.9c0-3.6 3-6.6 6.6-6.6h132.6c3.6 0 6.6 3 6.6 6.6v177h-.3z"/></svg>