<?xml version="1.0" encoding="UTF-8"?>
<svg width="18px" height="18px" version="1.1" viewBox="0 0 1200 1200" xmlns="http://www.w3.org/2000/svg">
 <path d="m198 198c-222 222-222 582 0 804s582 222 804 0 222-582 0-804-582-222-804 0zm712.8 712.8c-171.6 171.6-451.2 171.6-622.8 0-171.6-171.6-171.6-451.2 0-622.8s451.2-171.6 622.8 0c172.8 172.8 172.8 451.2 0 622.8zm-375.6-553.2c0-48 39.602-86.398 87.602-86.398s86.398 39.602 85.199 87.602c0 48-39.602 87.602-86.398 86.398-48-0.003906-87.602-39.602-86.402-87.602zm210 499.2c-2.3984 7.1992-7.1992 15.602-12 20.398-31.199 32.398-69.602 50.398-114 51.602-21.602 0-42 0-63.602-3.6016-34.801-4.8008-79.199-48-72-93.602 4.8008-31.199 9.6016-62.398 14.398-93.602 9.6016-54 19.199-108 28.801-162 0-3.6016 1.1992-7.1992 1.1992-10.801 0-22.801-7.1992-31.199-30-33.602-9.6016-1.1992-19.199-2.3984-28.801-4.8008-10.801-3.6016-15.602-13.199-15.602-21.602 1.1992-9.6016 7.1992-15.602 19.199-18 6-1.1992 13.199-1.1992 19.199-1.1992h79.199 84c20.398 0 32.398 9.6016 32.398 30 0 16.801-2.3984 33.602-6 50.398-10.801 62.398-22.801 123.6-33.602 186-3.6016 20.398-8.3984 40.801-10.801 61.199-1.1992 9.6016 0 20.398 2.3984 30 3.6016 13.199 13.199 20.398 26.398 18 10.801-1.1992 21.602-4.8008 32.398-9.6016 8.3984-3.6016 15.602-9.6016 24-12 15.617-5.9883 26.418 3.6133 22.816 16.812z" fill="#aaa"/>
</svg>
