<?xml version="1.0" encoding="utf-8"?>
<!-- Generator: Adobe Illustrator 26.0.0, SVG Export Plug-In . SVG Version: 6.00 Build 0)  -->
<svg version="1.1" id="Layer_1" xmlns="http://www.w3.org/2000/svg" xmlns:xlink="http://www.w3.org/1999/xlink" x="0px" y="0px"
	 viewBox="0 0 24 24" width="16"  height="16" style="enable-background:new 0 0 24 24;" xml:space="preserve">
<style type="text/css">
	.st0{fill-rule:evenodd;clip-rule:evenodd;fill:#FFFFFF;}
	.st1{fill:none;stroke:#000000;stroke-width:1.4;stroke-linecap:round;stroke-linejoin:round;stroke-miterlimit:187.5;}
	.st2{fill-rule:evenodd;clip-rule:evenodd;}
	.st3{fill-rule:evenodd;clip-rule:evenodd;fill:none;stroke:#000000;stroke-width:2.2;stroke-linejoin:round;stroke-miterlimit:10;}
	.st4{fill:#FFFFFF;}
</style>
<path class="st0" d="M21.7,9.6c-0.1-0.4-0.6-0.5-0.9-0.3l-1.1,0.8c-0.3,0.2-0.5,0.6-0.4,1c0.3,0.8,0.4,1.6,0.4,2.4
	c0,4.7-4.3,8.5-9.2,7.5c-3-0.6-5.4-3-6-6c-1-4.8,2.7-9.1,7.4-9.2v2.3c0,0.6,0.7,0.9,1.2,0.6L18.2,5c0.4-0.3,0.4-0.9,0-1.2L13,0.2
	c-0.5-0.3-1.2,0-1.2,0.6V3C5.5,3.1,0.5,8.9,1.7,15.5c0.8,4.2,4.1,7.5,8.3,8.3c6.7,1.2,12.5-3.9,12.5-10.3
	C22.5,12.1,22.2,10.8,21.7,9.6z"/>
</svg>
