<svg xmlns="http://www.w3.org/2000/svg" xmlns:xlink="http://www.w3.org/1999/xlink" width="223.134px" height="37.202px" viewBox="0 0 173.5 27.2" xmlns:v="https://vecta.io/nano"><g fill="#333"><path d="M35.3 23.1v-21h8.2v2.2h-5.2v6.8h3.8v2.2h-3.8v7.5h5.2V23h-8.2zm12.6.2c-.8 0-1.5-.4-2.1-1.1s-.9-1.5-.9-2.4c0-.7.1-1.4.4-2s.5-1.1.8-1.4.7-.7 1.4-1.1l1.5-.8c.4-.2.9-.4 1.7-.7.1-.1.2-.1.3-.1v-1.1c0-.8-.1-1.3-.3-1.8s-.6-.6-1.2-.6c-.5 0-.9.2-1.1.5s-.3.8-.4 1.5v.4h-3c0-1.4.4-2.6 1.2-3.4s1.9-1.3 3.3-1.3 2.5.4 3.3 1.3 1.2 2 1.2 3.4v6.8c0 1.6.1 2.8.4 3.8h-3L51 21c-.2.3-.3.6-.4.7s-.2.4-.4.6l-.6.6c-.2.2-.4.3-.7.4s-.7 0-1 0zm1.5-2.5c.2 0 .4-.1.6-.2s.3-.2.5-.4.2-.3.4-.5c0 0 0-.1.1-.1v-4.1c-.1.1-.3.2-.6.4s-.5.3-.7.4-.4.3-.6.5l-.6.6c-.2.2-.2.4-.4.7s-.2.5-.2.8c0 1.3.5 1.9 1.5 1.9zm11 2.5c-1.2 0-2.2-.4-3-1.1s-1.3-1.7-1.5-2.9l2.2-.8c.5 1.5 1.3 2.2 2.2 2.2.5 0 .8-.1 1.1-.4s.4-.6.4-1.1c0-.7-.2-1.3-.8-1.7l-3-2.2c-.3-.2-.6-.4-.8-.6s-.5-.4-.7-.7-.4-.6-.5-1-.2-.8-.2-1.2c0-1.3.4-2.3 1.2-2.9s1.9-1 3.3-1c.6 0 1.2.1 1.8.3.5.2 1 .5 1.3.9l.9 1.2c.3.4.4 1 .5 1.5l-2.2.8-.3-.8c-.1-.2-.3-.4-.4-.7s-.4-.4-.7-.6-.5-.2-.8-.2c-.5 0-.8.1-1.1.4s-.4.6-.4 1.1.2.9.8 1.3l3 2.2c.3.3.6.5.9.8.2.2.5.5.7.9s.4.7.5 1.1.2.8.2 1.3c0 1.3-.4 2.3-1.2 2.9s-2 1-3.4 1zm6 3.5v-2.2c.6 0 1.1 0 1.4-.1s.6-.2.8-.4.3-.4.3-.7.1-.6.1-1L65.6 8.1h3l1.9 10.5.6-3.3.7-3.9.6-3.3h3l-3.8 15.8c-.2 1.1-.8 1.9-1.6 2.3s-1.9.7-3.4.7l-.2-.1zm14.3-3.7l4.5-21h3l4.5 21h-3l-1.1-5.2h-3.8l-1.1 5.2h-3zm4.5-7.5h3l-1.5-9-1.5 9z"/><use xlink:href="#B"/><use xlink:href="#B" x="10.1"/><path d="M122.1 21.9c-.7.9-1.8 1.4-3.5 1.4s-2.8-.5-3.5-1.4-1-2.3-1-4.1v-4.5c0-1.8.3-3.1 1-4.1s1.8-1.4 3.5-1.4 2.8.5 3.5 1.4 1 2.3 1 4.1v4.5c.1 1.8-.3 3.2-1 4.1zm-4-1.2c.2.1.3.1.6.1s.4 0 .6-.1.3-.1.4-.2a1.38 1.38 0 0 0 .3-.4c.1-.2.1-.3.2-.5s.1-.3.1-.6v-6.9c0-.3 0-.4-.1-.6s-.1-.3-.2-.5-.2-.3-.3-.4-.2-.2-.4-.2-.3-.1-.6-.1-.4 0-.6.1-.3.1-.4.2a1.38 1.38 0 0 0-.3.4c-.1.2-.1.3-.2.5s-.1.3-.1.6V19c0 .3 0 .4.1.6s.1.3.2.5a1.38 1.38 0 0 0 .3.4c.1.1.2.2.4.2zm7.5 2.4v-15h3v2c.3-.6.7-1.1 1.3-1.6s1.2-.7 1.9-.7h.5v3.3c-.6-.2-1.1-.3-1.7-.3s-1.1.2-1.5.6-.6.9-.6 1.5V23h-2.9zm11.5.2a2.52 2.52 0 0 1-1.7-.6c-.5-.4-.9-.9-1.1-1.5s-.5-1.3-.6-2-.2-1.4-.2-2.2v-2.7c0-.5 0-1 .1-1.4s.1-.9.2-1.3l.3-1.2a4.67 4.67 0 0 1 .5-1c.2-.3.4-.6.7-.8s.6-.4.9-.5a3.73 3.73 0 0 1 1.2-.2c.3 0 .6 0 .9.1s.6.2.8.4.5.4.6.5l.6.6V2.1h3v21h-3v-1.4a6.73 6.73 0 0 1-1.4 1.1c-.5.3-1.2.5-1.8.5zm.8-2.5c.7 0 1.5-.2 2.2-.5v-9.4c-.7-.4-1.4-.6-2.2-.6-.3 0-.5.1-.8.2s-.4.4-.5.6a2.39 2.39 0 0 0-.2.9c0 .3-.1.6-.1 1v4.2c0 .5 0 .9.1 1.3s.1.8.2 1.1.3.6.5.8.5.4.8.4zm8.2-15v-3h3v3h-3zm0 17.3v-15h3v15h-3zm13.5-1.2c-.7.9-1.8 1.4-3.5 1.4s-2.8-.5-3.5-1.4-1-2.3-1-4.1v-4.5c0-1.8.3-3.1 1-4.1s1.8-1.4 3.5-1.4 2.8.5 3.5 1.4 1 2.3 1 4.1v4.5c.1 1.8-.3 3.2-1 4.1zm-4-1.2c.2.1.3.1.6.1s.4 0 .6-.1.3-.1.4-.2.2-.2.3-.4.1-.3.2-.5.1-.3.1-.6v-6.9c0-.3 0-.4-.1-.6s-.1-.3-.2-.5-.2-.3-.3-.4-.2-.2-.4-.2-.3-.1-.6-.1-.4 0-.6.1-.3.1-.4.2-.2.2-.3.4-.1.3-.2.5-.1.3-.1.6V19c0 .3 0 .4.1.6s.1.3.2.5a1.38 1.38 0 0 0 .3.4c.1.1.2.2.4.2zm7.5 2.4v-15h3v1.6c.4-.4.8-.7 1.1-.9s.7-.4 1.2-.6 1-.3 1.6-.3 1.2.2 1.6.7a2.52 2.52 0 0 1 .6 1.7v12.8h-3V11.8c0-.5-.1-.9-.2-1.1s-.4-.4-.9-.4c-.3 0-.5.1-.8.2s-.4.2-.6.3-.3.2-.5.4v11.9h-3.1z"/></g><path d="M0 7.1v13.2h26.3V7.1H0zm24.7 11.5h-23V12h23v6.6zM0 .5h26.3v4.9H0V.5zm0 21.4h26.3v4.9H0v-4.9z" fill="#fd7d4e"/><defs ><path id="B" d="M98 23.3c-.7 0-1.4-.1-1.9-.4s-1-.6-1.3-.9-.6-.9-.8-1.5-.3-1.2-.4-1.8-.1-1.3-.1-2.1v-2l.1-2.1c0-.6.2-1.2.4-1.8a5.3 5.3 0 0 1 .8-1.5c.3-.4.7-.7 1.3-.9s1.2-.4 1.9-.4c1.6 0 2.7.4 3.4 1.3s1.1 2.1 1.1 3.8v.4h-3V13c0-.4 0-.7-.1-1s-.1-.6-.2-.8-.2-.5-.5-.6-.5-.2-.8-.2-.5.1-.8.3-.4.4-.5.8-.2.7-.2 1-.1.7-.1 1.2v4.4c0 .4 0 .8.1 1.1s.1.6.2.9.3.5.5.7.4.2.7.2.5-.1.7-.2a.78.78 0 0 0 .4-.4c.1-.2.2-.3.2-.6s.1-.5.1-.7v-1.2h3v.4c0 .8-.1 1.5-.3 2.1s-.4 1.1-.8 1.6-.8.8-1.4 1-.9.3-1.7.3z"/></defs></svg>