<svg width="223" height="144" fill="none" xmlns="http://www.w3.org/2000/svg"><path transform="translate(.44)" fill="#fff" d="M0 0H222.12V144H0z"/><path d="M213.723 19.726v-3.694l-3.057-.4a10.668 10.668 0 0 0-1.471-3.546l1.874-2.445-2.61-2.61-2.444 1.875a10.517 10.517 0 0 0-3.549-1.472l-.397-3.057h-3.693l-.4 3.057a10.527 10.527 0 0 0-3.546 1.472l-2.444-1.875-2.61 2.61 1.874 2.445a10.544 10.544 0 0 0-1.471 3.546l-3.056.4v3.694l3.056.4a10.545 10.545 0 0 0 1.471 3.546l-1.874 2.445 2.61 2.61 2.444-1.875a10.526 10.526 0 0 0 3.546 1.472l.4 3.053h3.693l.401-3.053a10.53 10.53 0 0 0 3.545-1.472l2.444 1.875 2.61-2.61-1.874-2.445a10.525 10.525 0 0 0 1.471-3.546l3.057-.4z" fill="#BEA0F2"/><path d="M31.817 4.377v69.84h7.2V4.377h-7.2z" fill="#271B3D"/><path d="M29.676 56.25c2.293 0 2.977-1.692 5.738-1.692 2.761 0 3.445 1.692 5.739 1.692 2.455 0 3.261-2.139 3.261-4.738 0-2.6-.806-4.738-3.261-4.738-2.294 0-2.978 1.692-5.739 1.692-2.761 0-3.445-1.692-5.738-1.692-2.455 0-3.262 2.139-3.262 4.738 0 2.6.806 4.738 3.262 4.738z" fill="#BEA0F2"/><path d="M113.48 108h-43.2v3.6h43.2V108zm16.92 7.2H70.28v3.6h60.12v-3.6z" fill="#271B3D"/><path d="M131.542 130.68h-61.2v9h61.2v-9z" fill="#BEA0F2"/><path d="M104.12 122.4H70.28v3.6h33.84v-3.6zm114.181-37.321V69.815h-25.599s2.746-5.609 2.746-11.876c0-6.268-4.05-12.575-11.858-12.575-7.808 0-11.858 6.509-11.858 12.575 0 6.066 2.746 11.876 2.746 11.876h-18.716V85.079c-9.328-5.278-20.246-3.492-20.246 7.47s10.918 12.748 20.246 7.47v15.264h18.716s-2.746 5.609-2.746 11.876c0 6.268 4.05 12.575 11.858 12.575 7.808 0 11.858-6.509 11.858-12.575 0-6.066-2.746-11.876-2.746-11.876h25.599v-15.264c-9.327 5.278-20.246 3.492-20.246-7.47s10.919-12.748 20.246-7.47z" fill="#271B3D"/><path d="M65.96 78.48H4.76v61.2h61.2v-61.2z" fill="#BEA0F2"/><path d="M24.143 83.052c5.544 1.944 6.89 8.553 6.89 8.553s2.913-6.12 11.78-6.098c-4.058 9.842-9.047 30.1-6.34 37.465 2.761 7.506 13.543 4.421 13.305 11.405H34.075l-4.169-4.165-.54.007.652 4.158h-6.523c-1.577-9.148-5.476-30.132.644-51.325h.004z" fill="#fff"/><path d="M53.36 4.377v69.84h7.2V4.377h-7.2z" fill="#271B3D"/><path d="M51.222 33.005c2.293 0 2.977-1.693 5.738-1.693 2.761 0 3.445 1.692 5.738 1.692 2.456 0 3.262-2.138 3.262-4.737 0-2.6-.806-4.738-3.262-4.738-2.293 0-2.977 1.692-5.738 1.692-2.761 0-3.445-1.692-5.738-1.692-2.456 0-3.262 2.139-3.262 4.738 0 2.6.806 4.738 3.262 4.738z" fill="#BEA0F2"/><path d="M91.999 45.72c11.432 0 20.7-9.268 20.7-20.7 0-11.432-9.268-20.7-20.7-20.7-11.432 0-20.7 9.268-20.7 20.7 0 11.432 9.267 20.7 20.7 20.7z" fill="#271B3D"/><path d="M91.999 45.72a20.624 20.624 0 0 0 14.605-6.034c-1.879-7.311-7.704-12.643-14.605-12.643-6.901 0-12.726 5.332-14.605 12.643a20.63 20.63 0 0 0 14.605 6.034zm0-21.06a7.441 7.441 0 1 0 0-14.883 7.441 7.441 0 0 0 0 14.883z" fill="#BEA0F2"/><path d="M26.933 89.568c7.154 10.566 6.297 30.351 1.188 30.549-5.85.227-2.757-21.265 8.673-27.831" stroke="#261B3C" stroke-miterlimit="10"/><path d="M10.273 4.377v69.84h7.2V4.377h-7.2z" fill="#271B3D"/><path d="M8.134 43.405c2.293 0 2.977-1.692 5.738-1.692 2.761 0 3.445 1.692 5.738 1.692 2.456 0 3.262-2.139 3.262-4.738 0-2.599-.806-4.737-3.262-4.737-2.293 0-2.977 1.692-5.738 1.692-2.761 0-3.445-1.692-5.738-1.692-2.456 0-3.262 2.138-3.262 4.737 0 2.6.806 4.738 3.262 4.738z" fill="#BEA0F2"/><path d="M24.787 85.59c-4.208 25.661-1.771 38.552.443 47.048m8.535-19.367s-2.437 10.515 5.883 16.099m178.031-96.92c-8.622 7.744-29.218 6.437-35.078-6.89" stroke="#271B3D" stroke-miterlimit="10"/><path d="M143.372 39.978l17.398 5.89 15.801-10.047 2.308-18.427-12.927-12.926-18.423 2.307-10.05 15.801 5.893 17.402z" fill="#BEA0F2"/><path d="M167.339 16.012l-18.888 18.883" stroke="#271B3D" stroke-miterlimit="10"/><path d="M119.6 69.84H71v8.64h48.6v-8.64z" fill="#271B3D"/><path d="M119.6 78.48H71v21.96h48.6V78.48z" fill="#BEA0F2"/><path d="M76.663 75.758a1.7 1.7 0 1 0 0-3.398 1.7 1.7 0 0 0 0 3.398zm6.067 0a1.7 1.7 0 1 0 0-3.398 1.7 1.7 0 0 0 0 3.398z" fill="#fff"/><path d="M71.36 60.48c0-1.968 1.52-3.57 3.41-3.6h72.032c1.912 0 3.463 1.613 3.463 3.6s-1.551 3.6-3.463 3.6h-72.04c-1.882 0-3.402-1.632-3.402-3.6z" fill="#BEA0F2"/><path d="M74.762 64.08h53.003v-7.2H74.77c-1.887.03-3.41 1.631-3.41 3.6 0 1.968 1.516 3.6 3.402 3.6z" fill="#271B3D"/><path d="M200.388 22.255a4.828 4.828 0 1 0 0-9.656 4.828 4.828 0 0 0 0 9.656z" fill="#fff"/></svg>