<svg width="17" height="16" viewBox="0 0 19 18" fill="none" xmlns="http://www.w3.org/2000/svg">
<g id="Group">
<g id="Group_2">
<g id="close_1_">
<path id="Vector" d="M2.20632 17.9907C1.76501 18.0167 1.33099 17.8683 0.995801 17.5768C0.334733 16.904 0.334733 15.8175 0.995801 15.1448L15.471 0.501071C16.1586 -0.149797 17.2375 -0.113616 17.8809 0.581954C18.4627 1.21095 18.4966 2.17774 17.9603 2.84684L3.39977 17.5768C3.06889 17.8641 2.64184 18.0122 2.20632 17.9907Z" fill="#DE3030"/>
<path id="Vector_2" d="M16.6647 17.9907C16.2174 17.9888 15.7887 17.8092 15.4712 17.4905L0.995907 2.84675C0.383462 2.12323 0.466727 1.03438 1.18192 0.414752C1.82025 -0.138251 2.76166 -0.138251 3.39993 0.414752L17.9604 15.0585C18.6478 15.7095 18.6834 16.801 18.0398 17.4964C18.0142 17.5241 17.9878 17.5508 17.9604 17.5767C17.6039 17.8904 17.1347 18.0403 16.6647 17.9907Z" fill="#DE3030"/>
</g>
</g>
</g>
</svg>
