<svg width="170" height="42" viewBox="0 0 269 42" fill="none" xmlns="http://www.w3.org/2000/svg">
<path d="M54.9108 35.1557V2.48904H67.6664V5.91127H59.5775V16.489H65.4886V19.9113H59.5775V31.5779H67.6664V35.0002H54.9108V35.1557Z" fill="#3A292C"/>
<path d="M74.5108 35.4665C73.8733 35.4419 73.2494 35.2756 72.6844 34.9796C72.1193 34.6836 71.6273 34.2655 71.2441 33.7554C70.3327 32.7264 69.834 31.3967 69.8441 30.0221C69.8096 28.9511 70.0226 27.8864 70.4664 26.911C70.7772 26.1304 71.1961 25.3974 71.7108 24.7332C72.3498 24.0602 73.0834 23.4839 73.8886 23.0221C74.9775 22.3998 75.5997 22.0887 76.2219 21.7776C77.0846 21.3707 77.9672 21.0073 78.8664 20.6887C78.9278 20.6299 79.0015 20.5856 79.0823 20.5587C79.1628 20.5318 79.2486 20.5231 79.333 20.5332V18.8221C79.3704 17.8666 79.2115 16.9137 78.8664 16.0221C78.5552 15.2443 77.933 15.0888 76.9997 15.0888C76.6727 15.0689 76.3457 15.1294 76.0474 15.2649C75.7492 15.4005 75.4886 15.607 75.2886 15.8665C74.9285 16.5954 74.7169 17.3886 74.6664 18.1998V18.8221H69.9997C69.9474 17.861 70.0854 16.8991 70.4057 15.9916C70.726 15.084 71.2224 14.2485 71.8664 13.5332C72.5415 12.8674 73.3441 12.3451 74.2263 11.9976C75.1086 11.6501 76.0519 11.4845 76.9997 11.511C77.9515 11.4489 78.9052 11.598 79.7927 11.9476C80.6801 12.2972 81.4792 12.8387 82.133 13.5332C83.4089 14.9924 84.077 16.8852 83.9997 18.8221V29.3998C83.9232 31.3899 84.1327 33.3805 84.6219 35.311H79.9552L79.333 31.8887C79.0219 32.3554 78.8664 32.8221 78.7108 32.9776C78.5218 33.3007 78.3141 33.6124 78.0886 33.911L77.1552 34.8443C76.851 35.1408 76.4762 35.3548 76.0664 35.4665C75.5507 35.5444 75.0263 35.5444 74.5108 35.4665ZM76.8441 31.5776C77.1747 31.5454 77.4937 31.4392 77.7775 31.2665C78.0726 31.1085 78.3362 30.8975 78.5552 30.6443C78.8664 30.3332 78.8664 30.1776 79.1775 29.8665C79.1775 29.8461 79.1815 29.8259 79.1893 29.8071C79.1971 29.7881 79.2086 29.771 79.223 29.7565C79.2375 29.7421 79.2546 29.7307 79.2734 29.7228C79.2924 29.715 79.3126 29.711 79.333 29.711V23.3332C79.0348 23.5594 78.7231 23.7672 78.3997 23.9554C78.0517 24.1881 77.6879 24.3961 77.3108 24.5776C76.963 24.7895 76.6484 25.0514 76.3775 25.3554L75.4441 26.2887C75.133 26.5998 75.133 26.911 74.8219 27.3776C74.5744 27.7427 74.4643 28.1836 74.5108 28.6221C74.5108 30.6443 75.2886 31.5776 76.8441 31.5776Z" fill="#3A292C"/>
<path d="M93.9554 35.4667C92.241 35.4967 90.5772 34.8866 89.2887 33.7556C88.0076 32.5707 87.182 30.9747 86.9554 29.2444L90.3775 28C91.1552 30.3333 92.3998 31.4222 93.7998 31.4222C94.1133 31.451 94.4294 31.4102 94.7256 31.3032C95.0217 31.196 95.2907 31.0251 95.5133 30.8025C95.7359 30.5797 95.9068 30.3108 96.014 30.0148C96.1212 29.7186 96.1618 29.4025 96.1332 29.0889C96.1758 28.5777 96.0834 28.0642 95.8648 27.6001C95.6464 27.1359 95.3098 26.7374 94.8887 26.4444L90.2221 23.0222C89.78 22.7492 89.3634 22.4369 88.9776 22.0889C88.5766 21.766 88.2115 21.4009 87.8887 21C87.5381 20.5324 87.2748 20.0055 87.111 19.4444C86.9316 18.8372 86.8271 18.2104 86.7998 17.5778C86.7295 16.7316 86.8622 15.8808 87.1869 15.0962C87.5115 14.3116 88.0188 13.6158 88.6665 13.0667C90.1616 12.0011 91.9646 11.4547 93.7998 11.5111C94.7522 11.5142 95.6978 11.6718 96.5997 11.9778C97.387 12.2552 98.0852 12.7387 98.6221 13.3778L100.022 15.2445C100.442 15.9592 100.707 16.7541 100.8 17.5778L97.3775 18.8222C97.2479 18.3982 97.092 17.9825 96.911 17.5778C96.6702 17.2349 96.4619 16.8703 96.2887 16.4889C96.1332 16.0222 95.6665 15.8667 95.1999 15.5556C94.8348 15.3081 94.3939 15.1979 93.9554 15.2445C93.6418 15.2158 93.3257 15.2564 93.0295 15.3635C92.7334 15.4707 92.4644 15.6416 92.2418 15.8643C92.0192 16.0869 91.8482 16.3559 91.7411 16.6521C91.6339 16.9481 91.5933 17.2642 91.6221 17.5778C91.6244 17.9965 91.7417 18.4064 91.9612 18.7631C92.1807 19.1196 92.4938 19.4091 92.8665 19.6L97.5332 23.0222C97.9999 23.4889 98.4664 23.8 98.933 24.2667C99.37 24.671 99.7377 25.1438 100.022 25.6667C100.345 26.206 100.606 26.78 100.8 27.3778C100.991 28.0355 101.095 28.7152 101.111 29.4C101.181 30.2462 101.048 31.097 100.724 31.8816C100.399 32.6662 99.8919 33.362 99.2443 33.9111C97.6904 34.9765 95.8386 35.5211 93.9554 35.4667Z" fill="#3A292C"/>
<path d="M103.289 40.9113V37.489C104.019 37.5338 104.751 37.4814 105.467 37.3335C105.923 37.2227 106.349 37.0099 106.711 36.7113C106.863 36.5742 106.983 36.4059 107.064 36.218C107.144 36.0299 107.183 35.8268 107.178 35.6224C107.178 35.1557 107.333 34.689 107.333 34.0668L102.045 11.8224H106.711C108.578 21.7779 109.511 27.2224 109.667 28.1557C109.978 26.4446 110.133 24.7335 110.6 23.0224C111.067 21.3113 111.222 19.1335 111.689 16.9557C112.156 14.7779 112.467 13.0668 112.622 11.8224H117.289L111.378 36.4002C111.274 37.1504 110.995 37.8656 110.562 38.4874C110.13 39.1092 109.556 39.6198 108.889 39.9779C107.235 40.749 105.424 41.1219 103.6 41.0668L103.289 40.9113Z" fill="#3A292C"/>
<path d="M125.534 35.1557L132.534 2.48904H137.2L144.2 35.1557H139.534L137.823 27.0668H131.911L130.2 35.1557H125.534ZM132.534 23.489H137.2L134.867 9.48904L132.534 23.489Z" fill="#3A292C"/>
<path d="M152.444 35.4665C151.422 35.5178 150.404 35.3035 149.489 34.8443C148.766 34.4523 148.088 33.9828 147.467 33.4443C146.897 32.7595 146.474 31.9654 146.222 31.111C145.941 30.1955 145.733 29.2592 145.6 28.311C145.463 27.2278 145.411 26.1355 145.444 25.0443V21.9332C145.444 20.6887 145.6 19.5998 145.6 18.6665C145.658 17.7061 145.868 16.761 146.222 15.8665C146.509 15.0269 146.929 14.2389 147.467 13.5332C147.975 12.8633 148.683 12.3728 149.489 12.1332C150.433 11.7626 151.431 11.5523 152.444 11.511C153.423 11.4057 154.413 11.5341 155.332 11.8856C156.252 12.2371 157.075 12.8018 157.733 13.5332C158.964 15.2496 159.567 17.3362 159.444 19.4443V20.0665H154.778V19.4443C154.812 18.9207 154.759 18.3952 154.622 17.8887C154.467 17.4221 154.467 16.9554 154.311 16.6443C154.156 16.3332 154 15.8665 153.533 15.711C153.14 15.5347 152.719 15.4294 152.289 15.3999C151.834 15.4143 151.397 15.5783 151.044 15.8665C150.833 16.0057 150.654 16.189 150.519 16.4036C150.385 16.6185 150.299 16.8597 150.267 17.111C150.103 17.6157 149.999 18.1376 149.956 18.6665C149.956 19.1332 149.8 19.7554 149.8 20.5332V27.3776C149.767 27.9526 149.82 28.5292 149.956 29.0887C150.111 29.5554 150.111 30.0221 150.267 30.4887C150.434 30.9095 150.701 31.2833 151.044 31.5776C151.191 31.7078 151.365 31.8035 151.553 31.8573C151.742 31.9111 151.94 31.9219 152.133 31.8887C152.517 31.8794 152.892 31.7722 153.222 31.5776C153.5 31.4554 153.722 31.2334 153.844 30.9554C154.04 30.6827 154.148 30.3574 154.156 30.0221C154.156 29.5554 154.311 29.2443 154.311 28.9332V27.0665H158.978V27.6887C158.998 28.7955 158.841 29.8986 158.511 30.9554C158.256 31.8556 157.833 32.6998 157.267 33.4443C156.721 34.1777 155.96 34.7217 155.089 34.9998C154.248 35.3321 153.348 35.4909 152.444 35.4665Z" fill="#3A292C"/>
<path d="M168.156 35.4665C167.134 35.5178 166.115 35.3035 165.2 34.8443C164.477 34.4523 163.8 33.9828 163.178 33.4443C162.608 32.7595 162.185 31.9654 161.933 31.111C161.652 30.1955 161.445 29.2592 161.311 28.311C161.174 27.2278 161.121 26.1355 161.156 25.0443V21.9332C161.156 20.6887 161.311 19.5998 161.311 18.6665C161.369 17.7061 161.579 16.761 161.933 15.8665C162.22 15.0269 162.64 14.2389 163.178 13.5332C163.686 12.8633 164.394 12.3728 165.2 12.1332C166.144 11.7626 167.143 11.5523 168.156 11.511C169.134 11.4057 170.125 11.5341 171.044 11.8856C171.964 12.2371 172.786 12.8018 173.444 13.5332C174.675 15.2496 175.278 17.3362 175.156 19.4443V20.0665H170.489V19.4443C170.523 18.9207 170.47 18.3952 170.333 17.8887C170.178 17.4221 170.178 16.9554 170.022 16.6443C169.867 16.3332 169.711 15.8665 169.244 15.711C168.851 15.5347 168.429 15.4294 168 15.3999C167.546 15.4143 167.109 15.5783 166.756 15.8665C166.544 16.0057 166.365 16.189 166.231 16.4036C166.096 16.6185 166.01 16.8597 165.978 17.111C165.814 17.6157 165.71 18.1376 165.667 18.6665C165.667 19.1332 165.511 19.7554 165.511 20.5332V27.3776C165.478 27.9526 165.531 28.5292 165.667 29.0887C165.822 29.5554 165.822 30.0221 165.978 30.4887C166.144 30.9095 166.412 31.2833 166.756 31.5776C166.902 31.7078 167.076 31.8035 167.264 31.8573C167.454 31.9111 167.652 31.9219 167.844 31.8887C168.229 31.8794 168.604 31.7722 168.933 31.5776C169.212 31.4554 169.434 31.2334 169.556 30.9554C169.752 30.6827 169.859 30.3574 169.867 30.0221C169.867 29.5554 170.022 29.2443 170.022 28.9332V27.0665H174.689V27.6887C174.709 28.7955 174.552 29.8986 174.222 30.9554C173.967 31.8556 173.544 32.6998 172.978 33.4443C172.432 34.1777 171.671 34.7217 170.8 34.9998C169.958 35.3321 169.059 35.4909 168.156 35.4665Z" fill="#3A292C"/>
<path d="M189.933 33.289C188.465 34.6853 186.516 35.4639 184.489 35.4639C182.462 35.4639 180.513 34.6853 179.044 33.289C177.853 31.3858 177.308 29.1491 177.489 26.9113V19.9113C177.33 17.6752 177.873 15.4452 179.044 13.5335C180.133 11.9779 181.844 11.3557 184.489 11.3557C185.505 11.2567 186.528 11.4028 187.476 11.7818C188.423 12.1607 189.266 12.7615 189.933 13.5335C191.125 15.4368 191.669 17.6734 191.489 19.9113V26.9113C191.746 29.1545 191.193 31.4158 189.933 33.289ZM183.711 31.4224C184.316 31.6297 184.973 31.6297 185.578 31.4224C185.889 31.2668 186.044 31.2668 186.2 31.1113C186.391 30.9339 186.55 30.7232 186.667 30.489C186.822 30.1779 186.822 30.0224 186.978 29.7113C187.118 29.4215 187.172 29.0976 187.133 28.7779V18.0446C187.172 17.7251 187.118 17.4011 186.978 17.1113C186.822 16.8002 186.822 16.6446 186.667 16.3335C186.55 16.0994 186.391 15.8886 186.2 15.7113C186.125 15.6164 186.032 15.5392 185.925 15.4854C185.816 15.4316 185.698 15.4025 185.578 15.4002C185.267 15.4002 185.111 15.2446 184.644 15.2446C184.324 15.206 184 15.26 183.711 15.4002C183.4 15.5557 183.244 15.5557 183.089 15.7113C182.896 15.8886 182.739 16.0994 182.622 16.3335C182.467 16.6446 182.467 16.8002 182.311 17.1113C182.171 17.4011 182.117 17.7251 182.156 18.0446V28.7779C182.117 29.0976 182.171 29.4215 182.311 29.7113C182.467 30.0224 182.467 30.1779 182.622 30.489C182.739 30.7232 182.896 30.9339 183.089 31.1113C183.164 31.2062 183.257 31.2833 183.364 31.3371C183.473 31.391 183.591 31.42 183.711 31.4224Z" fill="#3A292C"/>
<path d="M195.378 35.1557V11.8225H200.044V14.9336C200.533 13.9683 201.222 13.1194 202.067 12.4447C202.882 11.727 203.936 11.3388 205.022 11.3558H205.8V16.489C204.952 16.1838 204.058 16.026 203.156 16.0224C202.723 16.0118 202.294 16.089 201.892 16.2493C201.493 16.4097 201.127 16.65 200.822 16.9556C200.517 17.2609 200.276 17.6254 200.116 18.0266C199.956 18.4277 199.878 18.8572 199.889 19.289V35.0002H195.378V35.1557Z" fill="#3A292C"/>
<path d="M213.267 35.4668C212.301 35.4925 211.358 35.1601 210.622 34.5335C209.838 33.9377 209.244 33.1271 208.911 32.2002C208.508 31.1931 208.196 30.1518 207.978 29.089C207.79 27.9575 207.685 26.8136 207.667 25.6668V21.4668C207.636 20.7373 207.687 20.0066 207.822 19.289C207.978 18.6668 207.978 17.889 208.133 17.2668C208.289 16.6446 208.444 15.8668 208.6 15.4002C208.796 14.8523 209.057 14.3301 209.378 13.8446C209.655 13.3617 210.025 12.9387 210.467 12.6002C210.898 12.2824 211.369 12.021 211.867 11.8224C212.467 11.6172 213.099 11.5121 213.733 11.5113C214.205 11.486 214.678 11.5385 215.133 11.6668C215.589 11.7776 216.015 11.9903 216.378 12.289C216.689 12.6002 217.156 12.9113 217.311 13.0668L218.244 14.0002V2.48904H222.911V35.1557H218.244V32.9779C217.597 33.6422 216.865 34.2176 216.067 34.689C215.214 35.1809 214.25 35.4486 213.267 35.4668ZM214.511 31.5779C215.692 31.5432 216.854 31.279 217.933 30.8002V16.1779C216.897 15.563 215.715 15.2405 214.511 15.2446C214.08 15.2741 213.66 15.3795 213.267 15.5557C212.8 15.7113 212.644 16.1779 212.489 16.489C212.294 16.9311 212.189 17.4067 212.178 17.889C212.178 18.3557 212.022 18.8224 212.022 19.4446V25.9779C211.99 26.6558 212.042 27.3352 212.178 28.0002C212.333 28.6224 212.333 29.2446 212.489 29.7113C212.654 30.1779 212.92 30.6026 213.267 30.9557C213.589 31.3119 214.032 31.5341 214.511 31.5779Z" fill="#3A292C"/>
<path d="M227.267 8.24414V3.57747H231.933V8.24414H227.267ZM227.267 35.1552V11.8219H231.933V35.1552H227.267Z" fill="#3A292C"/>
<path d="M248.267 33.289C246.798 34.6853 244.849 35.4639 242.822 35.4639C240.795 35.4639 238.846 34.6853 237.378 33.289C236.186 31.3858 235.642 29.1491 235.822 26.9113V19.9113C235.664 17.6752 236.206 15.4452 237.378 13.5335C238.467 11.9779 240.178 11.3557 242.822 11.3557C243.838 11.2567 244.862 11.4028 245.809 11.7818C246.756 12.1607 247.599 12.7615 248.267 13.5335C249.458 15.4368 250.003 17.6734 249.822 19.9113V26.9113C250.079 29.1545 249.527 31.4158 248.267 33.289ZM242.044 31.4224C242.65 31.6297 243.306 31.6297 243.911 31.4224C244.222 31.2668 244.378 31.2668 244.533 31.1113C244.725 30.9339 244.883 30.7232 245 30.489C245.156 30.1779 245.156 30.0224 245.311 29.7113C245.451 29.4215 245.506 29.0976 245.467 28.7779V18.0446C245.506 17.7251 245.451 17.4011 245.311 17.1113C245.156 16.8002 245.156 16.6446 245 16.3335C244.883 16.0994 244.725 15.8886 244.533 15.7113C244.459 15.6164 244.365 15.5392 244.258 15.4854C244.149 15.4316 244.031 15.4025 243.911 15.4002C243.6 15.4002 243.444 15.2446 242.978 15.2446C242.657 15.206 242.334 15.26 242.044 15.4002C241.733 15.5557 241.578 15.5557 241.422 15.7113C241.229 15.8886 241.072 16.0994 240.956 16.3335C240.8 16.6446 240.8 16.8002 240.644 17.1113C240.504 17.4011 240.45 17.7251 240.489 18.0446V28.7779C240.45 29.0976 240.504 29.4215 240.644 29.7113C240.8 30.0224 240.8 30.1779 240.956 30.489C241.072 30.7232 241.229 30.9339 241.422 31.1113C241.497 31.2062 241.59 31.2833 241.698 31.3371C241.806 31.391 241.925 31.42 242.044 31.4224Z" fill="#3A292C"/>
<path d="M253.711 35.1556V11.8222H258.378V14.3111C258.902 13.7898 259.474 13.3209 260.089 12.9111C260.678 12.5379 261.304 12.2253 261.956 11.9778C262.746 11.6594 263.592 11.5008 264.444 11.5111C264.914 11.4926 265.382 11.5809 265.815 11.7695C266.246 11.9581 266.628 12.2421 266.933 12.6C267.56 13.3362 267.893 14.278 267.867 15.2444V35.1556H263.2V17.5778C263.217 16.9918 263.111 16.4088 262.889 15.8667C262.729 15.6509 262.516 15.4803 262.271 15.3712C262.026 15.2622 261.756 15.2185 261.489 15.2444C261.06 15.274 260.638 15.3793 260.244 15.5555C259.919 15.6792 259.605 15.8356 259.311 16.0222C259.016 16.1803 258.753 16.3912 258.533 16.6444V35.1556H253.711Z" fill="#3A292C"/>
<path d="M0 10.2668V30.8002H40.9111V10.2668H0ZM38.4222 28.1557H2.64444V17.889H38.4222V28.1557Z" fill="#FF5B2E"/>
<path d="M0 0H40.9111V7.62222H0V0Z" fill="#FF5B2E"/>
<path d="M0 33.2887H40.9111V40.911H0V33.2887Z" fill="#FF5B2E"/>
</svg>
