<svg xmlns="http://www.w3.org/2000/svg" xmlns:xlink="http://www.w3.org/1999/xlink" width="250" height="207" fill="none"><path fill="#fff" d="M0 0h250v207H0z"/><rect x="57.869" y="174.5" width="11" height="11" rx="5.5" fill="#ffd9f1" stroke="#f21197"/><path d="M77.506 176.514l-2.432 7.236h-1.705l3.188-8.531h1.09l-.141 1.295zm2.033 7.236l-2.443-7.236-.146-1.295h1.096l3.205 8.531H79.54zm-.111-3.17v1.272h-4.576v-1.272h4.576zm5.185 2.068c.219 0 .414-.043.586-.128a1.03 1.03 0 0 0 .41-.364c.105-.156.162-.338.17-.545h1.459a2.06 2.06 0 0 1-.363 1.155c-.234.34-.547.609-.937.808s-.82.293-1.301.293c-.488 0-.914-.082-1.277-.246s-.666-.392-.908-.685-.418-.633-.539-1.02a4.14 4.14 0 0 1-.176-1.242v-.188a4.27 4.27 0 0 1 .176-1.242 3.03 3.03 0 0 1 .539-1.019c.242-.293.545-.522.908-.686s.787-.246 1.272-.246c.512 0 .961.1 1.348.299s.695.48.914.844.338.791.346 1.283h-1.459a1.42 1.42 0 0 0-.152-.61 1.12 1.12 0 0 0-.398-.433c-.172-.11-.381-.164-.627-.164-.262 0-.481.054-.656.164a1.11 1.11 0 0 0-.404.451c-.097.191-.16.398-.199.633a4.8 4.8 0 0 0-.053.726v.188a4.96 4.96 0 0 0 .053.738c.039.234.105.445.199.633a1.09 1.09 0 0 0 .404.439c.172.109.398.164.668.164zm6.258 0c.219 0 .414-.043.586-.128a1.03 1.03 0 0 0 .41-.364 1.02 1.02 0 0 0 .17-.545h1.459a2.06 2.06 0 0 1-.363 1.155c-.234.34-.547.609-.937.808s-.82.293-1.301.293c-.488 0-.914-.082-1.277-.246s-.666-.392-.908-.685-.418-.633-.539-1.02a4.14 4.14 0 0 1-.176-1.242v-.188a4.27 4.27 0 0 1 .176-1.242 3.03 3.03 0 0 1 .539-1.019c.242-.293.545-.522.908-.686s.787-.246 1.272-.246c.512 0 .961.1 1.348.299s.695.48.914.844.338.791.346 1.283h-1.459a1.42 1.42 0 0 0-.152-.61 1.12 1.12 0 0 0-.398-.433c-.172-.11-.381-.164-.627-.164-.262 0-.48.054-.656.164s-.307.26-.404.451-.16.398-.199.633a4.81 4.81 0 0 0-.053.726v.188c0 .258.018.504.053.738s.106.445.199.633.232.33.404.439.398.164.668.164zm3.381-2.003v-.124c0-.464.066-.892.199-1.283a2.97 2.97 0 0 1 .58-1.025 2.61 2.61 0 0 1 .932-.674c.367-.164.785-.246 1.254-.246.477 0 .898.082 1.266.246a2.6 2.6 0 0 1 .938.674 2.97 2.97 0 0 1 .58 1.025c.133.391.199.819.199 1.283v.124c0 .46-.066.888-.199 1.283a3 3 0 0 1-.58 1.025 2.61 2.61 0 0 1-.932.674c-.367.16-.787.24-1.26.24s-.889-.08-1.26-.24a2.6 2.6 0 0 1-.938-.674c-.254-.293-.447-.635-.58-1.025s-.199-.823-.199-1.283zm1.547-.124v.124a3.53 3.53 0 0 0 .082.779c.055.242.139.455.252.638s.26.329.439.434a1.33 1.33 0 0 0 .656.152c.25 0 .465-.05.645-.152s.326-.25.439-.434a2.1 2.1 0 0 0 .258-.638 3.53 3.53 0 0 0 .082-.779v-.124a3.42 3.42 0 0 0-.082-.767 2 2 0 0 0-.258-.639 1.23 1.23 0 0 0-.445-.439c-.18-.11-.397-.164-.65-.164a1.21 1.21 0 0 0-.645.164 1.24 1.24 0 0 0-.439.439c-.113.187-.197.397-.252.639a3.42 3.42 0 0 0-.082.767zm7.072-1.816v5.045h-1.547v-6.34h1.465l.082 1.295zm1.928-1.336l-.024 1.442c-.086-.016-.183-.028-.293-.036l-.298-.011a1.81 1.81 0 0 0-.627.099c-.18.063-.33.155-.452.276s-.207.269-.269.445a1.9 1.9 0 0 0-.106.586l-.334-.041a4.82 4.82 0 0 1 .124-1.119c.082-.344.201-.645.357-.903a1.72 1.72 0 0 1 .586-.597c.238-.145.512-.217.82-.217.086 0 .178.008.276.023a1.23 1.23 0 0 1 .24.053zm4.535 5.033v-7.652h1.559v9h-1.407l-.152-1.348zm-4.072-1.746v-.123c0-.484.054-.924.164-1.318s.277-.74.492-1.026.475-.505.779-.662.658-.234 1.049-.234a2.05 2.05 0 0 1 .99.228c.285.153.528.37.727.651a3.46 3.46 0 0 1 .486 1.002c.121.383.209.805.264 1.265v.334c-.055.45-.143.862-.264 1.237s-.283.703-.486.984a2.13 2.13 0 0 1-.727.645c-.285.152-.619.228-1.002.228s-.734-.08-1.043-.24a2.3 2.3 0 0 1-.779-.674c-.211-.289-.373-.629-.486-1.019s-.164-.817-.164-1.278zm1.552-.123v.123c0 .274.024.53.071.768s.123.449.228.633.241.32.405.422.371.152.609.152c.305 0 .555-.067.75-.199s.353-.323.463-.557a2.5 2.5 0 0 0 .211-.803v-.92a2.63 2.63 0 0 0-.123-.65c-.063-.199-.153-.371-.27-.516a1.21 1.21 0 0 0-.422-.34c-.168-.082-.367-.123-.597-.123a1.12 1.12 0 0 0-.61.159 1.17 1.17 0 0 0-.41.427c-.105.184-.183.397-.234.639a4.12 4.12 0 0 0-.071.785zm7.12-3.123v6.34h-1.553v-6.34h1.553zm-1.659-1.658c0-.231.079-.422.235-.574s.375-.229.644-.229.483.076.639.229.24.343.24.574a.75.75 0 0 1-.24.568c-.156.153-.369.229-.639.229s-.484-.076-.644-.229a.76.76 0 0 1-.235-.568zm2.86 4.893v-.124c0-.464.066-.892.199-1.283a3 3 0 0 1 .58-1.025c.254-.289.565-.514.932-.674a3.11 3.11 0 0 1 1.254-.246c.476 0 .898.082 1.265.246s.684.385.938.674.447.631.58 1.025.199.819.199 1.283v.124c0 .46-.066.888-.199 1.283a3 3 0 0 1-.58 1.025c-.254.293-.565.514-.932.674s-.787.24-1.26.24-.888-.08-1.259-.24-.684-.385-.938-.674a3.01 3.01 0 0 1-.58-1.025c-.133-.39-.199-.823-.199-1.283zm1.547-.124v.124c0 .277.027.537.082.779a2.06 2.06 0 0 0 .252.638 1.25 1.25 0 0 0 .439.434 1.33 1.33 0 0 0 .656.152c.25 0 .465-.05.645-.152a1.25 1.25 0 0 0 .439-.434c.117-.183.203-.396.258-.638s.082-.502.082-.779v-.124c0-.273-.027-.529-.082-.767a2.01 2.01 0 0 0-.258-.639c-.113-.187-.261-.334-.445-.439a1.28 1.28 0 0 0-.65-.164c-.254 0-.465.054-.645.164a1.24 1.24 0 0 0-.439.439c-.114.184-.198.397-.252.639a3.49 3.49 0 0 0-.082.767zm7.043-1.757v4.986h-1.547v-6.34h1.453l.094 1.354zm-.246 1.588h-.458a4.19 4.19 0 0 1 .188-1.254 2.95 2.95 0 0 1 .51-.967 2.27 2.27 0 0 1 .791-.621c.304-.145.644-.217 1.019-.217a2.49 2.49 0 0 1 .826.129 1.56 1.56 0 0 1 .633.41c.18.188.317.434.41.738s.147.672.147 1.114v4.066h-1.559v-4.078c0-.289-.043-.518-.129-.686s-.203-.287-.363-.357-.349-.106-.58-.106a1.29 1.29 0 0 0-.627.147c-.176.094-.324.225-.445.392a1.85 1.85 0 0 0-.27.581c-.063.219-.093.455-.093.709zm10.148-5.133v8.531h-1.611v-8.531h1.611zm3.439 3.685v1.272h-3.861v-1.272h3.861zm.452-3.685v1.271h-4.313v-1.271h4.313zm3.421 1.295l-2.431 7.236h-1.705l3.187-8.531h1.09l-.141 1.295zm2.034 7.236l-2.444-7.236-.146-1.295h1.096l3.205 8.531h-1.711zm-.112-3.17v1.272h-4.576v-1.272h4.576zm7.172 1.969l2.274 1.805-1.032.896-2.238-1.793.996-.908zm2.315-3.281v.439c0 .645-.086 1.225-.258 1.74s-.418.948-.738 1.307-.694.635-1.131.826-.922.287-1.453.287-1.012-.096-1.454-.287a3.25 3.25 0 0 1-1.136-.826c-.321-.359-.569-.795-.744-1.307s-.264-1.095-.264-1.74v-.439c0-.649.086-1.229.258-1.741s.422-.947.738-1.306a3.2 3.2 0 0 1 1.137-.832c.441-.192.926-.287 1.453-.287s1.015.095 1.453.287a3.15 3.15 0 0 1 1.137.832c.32.359.566.795.738 1.306s.264 1.092.264 1.741zm-1.629.439v-.451c0-.465-.043-.873-.129-1.225s-.215-.654-.387-.896-.373-.424-.615-.545a1.79 1.79 0 0 0-.832-.188c-.309 0-.584.063-.826.188a1.64 1.64 0 0 0-.616.545 2.74 2.74 0 0 0-.386.896c-.086.352-.129.76-.129 1.225v.451a5.24 5.24 0 0 0 .129 1.225c.09.355.218.656.386.902s.379.426.622.551a1.81 1.81 0 0 0 .832.187c.312 0 .589-.062.832-.187s.445-.309.609-.551.295-.547.381-.902a5.24 5.24 0 0 0 .129-1.225zm10.465 1.828c0-.164-.026-.31-.077-.439s-.134-.252-.263-.358a2.28 2.28 0 0 0-.533-.316c-.23-.101-.52-.215-.879-.328a9.76 9.76 0 0 1-1.114-.422 4.39 4.39 0 0 1-.908-.545c-.258-.207-.459-.445-.603-.715s-.217-.59-.217-.949c0-.352.074-.672.222-.961a2.22 2.22 0 0 1 .645-.744c.277-.211.604-.373.979-.487s.796-.169 1.253-.169c.633 0 1.18.115 1.641.345s.824.543 1.078.938.381.838.381 1.33h-1.605a1.42 1.42 0 0 0-.17-.703c-.11-.203-.278-.364-.504-.481s-.504-.176-.844-.176c-.328 0-.602.049-.82.147s-.377.23-.487.398a1.04 1.04 0 0 0-.158.563c0 .156.037.297.111.422a1.27 1.27 0 0 0 .334.345 2.95 2.95 0 0 0 .551.299l.774.27c.468.14.879.297 1.23.469s.651.367.885.586.416.464.533.738a2.35 2.35 0 0 1 .182.931c0 .368-.072.696-.217.985a2.09 2.09 0 0 1-.621.738 2.88 2.88 0 0 1-.973.463 4.67 4.67 0 0 1-1.26.158c-.414 0-.824-.055-1.23-.164a3.73 3.73 0 0 1-1.096-.504 2.56 2.56 0 0 1-.785-.855c-.195-.348-.293-.754-.293-1.219h1.617c0 .27.043.5.129.691s.215.342.375.463a1.69 1.69 0 0 0 .574.258 2.91 2.91 0 0 0 .709.082c.329 0 .598-.045.809-.135s.375-.222.481-.386a1.02 1.02 0 0 0 .164-.563zm5.589 2.332c-.48 0-.912-.078-1.294-.234s-.709-.373-.979-.651a2.97 2.97 0 0 1-.615-.978 3.4 3.4 0 0 1-.211-1.207v-.235c0-.488.07-.931.211-1.33s.34-.748.597-1.037.567-.511.926-.668a2.96 2.96 0 0 1 1.19-.234c.449 0 .845.076 1.189.228s.631.36.861.633.405.602.522.985.176.799.176 1.259v.651h-4.969v-1.067h3.445v-.117c-.008-.246-.054-.47-.14-.674a1.09 1.09 0 0 0-.399-.492c-.18-.121-.412-.187-.697-.187a1.16 1.16 0 0 0-.604.152c-.168.098-.308.238-.421.422a2.05 2.05 0 0 0-.247.644 3.95 3.95 0 0 0-.082.832v.235a2.49 2.49 0 0 0 .106.738 1.77 1.77 0 0 0 .322.592c.145.164.317.293.516.387s.433.134.691.134c.324 0 .617-.062.879-.187s.496-.318.692-.568l.779.808a2.62 2.62 0 0 1-.539.563 2.76 2.76 0 0 1-.809.439c-.316.109-.681.164-1.096.164zm7.102-1.465v-2.923a1.29 1.29 0 0 0-.111-.557.81.81 0 0 0-.34-.363c-.153-.086-.346-.129-.58-.129-.207 0-.389.035-.545.105a.8.8 0 0 0-.352.299c-.082.125-.123.27-.123.434h-1.553c0-.262.063-.51.188-.745a1.99 1.99 0 0 1 .533-.632 2.64 2.64 0 0 1 .838-.44c.328-.105.695-.158 1.102-.158.48 0 .908.082 1.283.246a1.94 1.94 0 0 1 .89.727c.219.324.329.732.329 1.224v2.766c0 .316.019.588.058.814a2.07 2.07 0 0 0 .188.58v.1h-1.576a2.3 2.3 0 0 1-.17-.609c-.039-.25-.059-.496-.059-.739zm.217-2.513l.012.92h-.979c-.242 0-.455.025-.639.076a1.18 1.18 0 0 0-.451.211.86.86 0 0 0-.264.328c-.058.125-.087.267-.087.428s.035.296.105.421a.78.78 0 0 0 .316.299c.141.071.305.106.493.106.273 0 .511-.055.714-.164.204-.114.362-.25.475-.41s.174-.313.182-.458l.445.668a2.62 2.62 0 0 1-.246.51 2.27 2.27 0 0 1-.422.504c-.172.156-.379.285-.621.387s-.523.152-.844.152c-.41 0-.777-.082-1.101-.246a1.96 1.96 0 0 1-.768-.674c-.188-.285-.281-.609-.281-.972a2.02 2.02 0 0 1 .187-.891 1.7 1.7 0 0 1 .557-.65c.246-.18.551-.315.914-.405s.787-.14 1.26-.14h1.043zm4.283-1.184v5.045h-1.547v-6.34h1.465l.082 1.295zm1.928-1.336l-.024 1.442c-.086-.016-.183-.028-.293-.036l-.298-.011a1.81 1.81 0 0 0-.627.099 1.18 1.18 0 0 0-.452.276c-.117.121-.207.269-.269.445a1.9 1.9 0 0 0-.106.586l-.334-.041a4.82 4.82 0 0 1 .123-1.119c.082-.344.202-.645.358-.903a1.71 1.71 0 0 1 .586-.597c.238-.145.512-.217.82-.217a1.81 1.81 0 0 1 .275.023c.102.012.182.03.241.053zm3.334 5.279c.218 0 .414-.043.586-.128a1.03 1.03 0 0 0 .41-.364c.105-.156.162-.338.17-.545h1.459c-.008.43-.129.815-.364 1.155s-.546.609-.937.808a2.81 2.81 0 0 1-1.301.293c-.488 0-.914-.082-1.277-.246s-.666-.392-.908-.685a3.02 3.02 0 0 1-.539-1.02c-.118-.387-.176-.801-.176-1.242v-.188c0-.441.058-.855.176-1.242s.3-.726.539-1.019.545-.522.908-.686.787-.246 1.271-.246c.512 0 .961.1 1.348.299s.695.48.914.844.338.791.346 1.283h-1.459c-.008-.227-.059-.43-.153-.61a1.11 1.11 0 0 0-.398-.433c-.172-.11-.381-.164-.627-.164-.262 0-.48.054-.656.164s-.307.26-.405.451c-.093.187-.16.398-.199.633a4.39 4.39 0 0 0-.053.726v.188c0 .258.018.504.053.738s.106.445.199.633a1.15 1.15 0 0 0 .405.439c.176.11.398.164.668.164zm5.174-7.898v9h-1.553v-9h1.553zm-.247 5.602h-.457c0-.442.059-.848.176-1.219a3.01 3.01 0 0 1 .498-.967c.215-.277.471-.492.768-.645s.633-.228.996-.228c.312 0 .596.045.85.135a1.61 1.61 0 0 1 .662.416 1.89 1.89 0 0 1 .422.75c.101.304.152.676.152 1.113v4.043h-1.559v-4.055c0-.293-.043-.523-.129-.691a.77.77 0 0 0-.369-.369c-.156-.074-.349-.112-.58-.112-.25 0-.465.049-.644.147s-.329.225-.446.392a1.83 1.83 0 0 0-.258.581c-.054.218-.082.455-.082.709z" fill="#546069"/><rect x="19.5" y="16.5" width="211" height="147" rx="3.5" fill="#fff"/><rect x="19.5" y="16.5" width="211" height="147" rx="3.5" stroke="#bbc2c7"/><rect x="31.308" y="50.308" width="187.077" height="17.231" rx="1" fill="#718491"/><g fill="#fff"><use xlink:href="#B"/><rect x="54.692" y="56.461" width="130.462" height="4.923" rx="1.231"/></g><rect x="31.308" y="72.538" width="187.077" height="17.231" rx="1" fill="#718491"/><g fill="#fff"><use xlink:href="#B" y="22.231"/><rect x="54.692" y="78.692" width="130.462" height="4.923" rx="1.231"/></g><rect x="31.308" y="94.769" width="187.077" height="17.231" rx="1" fill="#718491"/><g fill="#fff"><use xlink:href="#B" y="44.462"/><rect x="54.692" y="100.923" width="130.462" height="4.923" rx="1.231"/></g><rect x="31.308" y="117" width="187.077" height="17.231" rx="1" fill="#718491"/><g fill="#fff"><use xlink:href="#B" y="66.693"/><rect x="54.692" y="123.154" width="130.462" height="4.923" rx="1.231"/></g><rect x="31.308" y="139.231" width="187.077" height="17.231" rx="1" fill="#718491"/><g fill="#fff"><path d="M45.725 147.627v1.564h-7.197v-1.564h7.197zm-2.755-2.943v7.644h-1.68v-7.644h1.68z"/><rect x="54.692" y="145.384" width="130.462" height="4.923" rx="1.231"/></g><path d="M194 181a4 4 0 1 0 8 0 4 4 0 1 0-8 0zm44 0v.75a.75.75 0 0 0 .75-.75H238zm0-146h.75a.75.75 0 0 0-.75-.75V35zm-37 0l7.5 4.33v-8.66L201 35zm-3 146.75h40v-1.5h-40v1.5zm40.75-.75V35h-1.5v146h1.5zM238 34.25h-30.25v1.5H238v-1.5z" fill="#f21197"/><path d="M196 27.75H54A1.25 1.25 0 0 0 52.75 29v12A1.25 1.25 0 0 0 54 42.25h142a1.25 1.25 0 0 0 1.25-1.25V29a1.25 1.25 0 0 0-1.25-1.25z" fill="#fff" stroke="#b8b5b4" stroke-width=".5"/><path d="M64.691 36.563a.92.92 0 0 0-.062-.352.67.67 0 0 0-.211-.281c-.099-.083-.237-.163-.414-.238a6.06 6.06 0 0 0-.664-.23 6.1 6.1 0 0 1-.762-.277c-.227-.104-.42-.223-.582-.355a1.4 1.4 0 0 1-.371-.457 1.3 1.3 0 0 1-.129-.59 1.38 1.38 0 0 1 .137-.613 1.43 1.43 0 0 1 .391-.488 1.92 1.92 0 0 1 .613-.328 2.52 2.52 0 0 1 .793-.117c.427 0 .789.082 1.086.246s.527.374.684.637.234.539.234.836h-.75c0-.213-.046-.402-.137-.566s-.229-.297-.414-.391-.419-.145-.703-.145c-.268 0-.49.04-.664.121s-.305.19-.391.328-.125.296-.125.473a.73.73 0 0 0 .074.328c.049.099.132.186.238.27a1.91 1.91 0 0 0 .414.23 5.28 5.28 0 0 0 .605.203c.323.091.602.193.836.305s.427.238.578.379.267.296.34.473a1.48 1.48 0 0 1 .113.594c0 .232-.047.441-.141.629a1.37 1.37 0 0 1-.402.48c-.174.133-.384.236-.629.309a2.91 2.91 0 0 1-.812.105 2.81 2.81 0 0 1-.777-.109 2.28 2.28 0 0 1-.691-.328 1.72 1.72 0 0 1-.496-.539 1.5 1.5 0 0 1-.184-.75h.75a1.06 1.06 0 0 0 .113.504 1 1 0 0 0 .309.344c.133.091.282.159.449.203s.345.063.527.063a1.8 1.8 0 0 0 .668-.109c.182-.073.32-.177.414-.312s.145-.296.145-.48zm3.364 1.515a2.08 2.08 0 0 1-.801-.148 1.81 1.81 0 0 1-.613-.426c-.172-.183-.3-.398-.391-.648a2.38 2.38 0 0 1-.137-.82v-.164a2.59 2.59 0 0 1 .152-.918c.101-.268.24-.5.414-.687a1.78 1.78 0 0 1 .594-.426 1.7 1.7 0 0 1 .688-.144c.302 0 .563.052.781.156s.402.25.543.438a1.9 1.9 0 0 1 .313.656c.068.252.102.523.102.82v.324h-3.156v-.59h2.434v-.055c-.011-.187-.05-.37-.117-.547s-.169-.323-.312-.437-.339-.172-.586-.172c-.164 0-.315.035-.453.105s-.257.169-.356.305-.176.301-.23.496-.082.421-.082.676v.164a1.91 1.91 0 0 0 .082.566 1.45 1.45 0 0 0 .246.461 1.18 1.18 0 0 0 .394.313 1.21 1.21 0 0 0 .531.113c.255 0 .471-.052.648-.156a1.6 1.6 0 0 0 .465-.418l.438.348a2.02 2.02 0 0 1-.348.395 1.66 1.66 0 0 1-.52.305 2.01 2.01 0 0 1-.723.117zm4.98-.801v-2.176a.88.88 0 0 0-.102-.434.69.69 0 0 0-.297-.289c-.133-.068-.297-.102-.492-.102-.182 0-.342.031-.48.094s-.242.145-.32.246a.54.54 0 0 0-.113.328h-.723c0-.151.039-.301.117-.449s.19-.283.336-.402a1.68 1.68 0 0 1 .531-.289 2.09 2.09 0 0 1 .695-.109c.307 0 .578.052.813.156a1.23 1.23 0 0 1 .555.473c.133.211.203.47.203.785v1.969a3.14 3.14 0 0 0 .035.449 1.63 1.63 0 0 0 .113.41V38h-.754a1.35 1.35 0 0 1-.086-.332 2.66 2.66 0 0 1-.031-.391zm.125-1.84l.008.508h-.731a2.69 2.69 0 0 0-.551.051c-.162.034-.297.079-.406.145s-.193.147-.25.246-.086.21-.086.34a.75.75 0 0 0 .09.363c.06.109.15.197.27.262a.98.98 0 0 0 .449.094 1.19 1.19 0 0 0 .586-.141 1.22 1.22 0 0 0 .402-.344.74.74 0 0 0 .164-.395l.309.348a1.05 1.05 0 0 1-.148.363c-.081.133-.189.261-.324.383a1.75 1.75 0 0 1-.477.301 1.55 1.55 0 0 1-.617.117c-.287 0-.538-.056-.754-.168s-.38-.262-.5-.449a1.19 1.19 0 0 1-.176-.637c0-.226.044-.426.133-.598a1.18 1.18 0 0 1 .383-.434 1.82 1.82 0 0 1 .602-.266c.234-.06.496-.09.785-.09h.84zm2.457-.999V38h-.723v-4.227h.703l.019.664zm1.32-.687l-.004.672a.98.98 0 0 0-.172-.023 1.83 1.83 0 0 0-.18-.008 1.16 1.16 0 0 0-.441.078.9.9 0 0 0-.324.219c-.088.094-.159.206-.211.336a1.55 1.55 0 0 0-.098.422l-.203.117a3.36 3.36 0 0 1 .074-.719 1.9 1.9 0 0 1 .238-.594c.106-.172.242-.31.406-.406s.365-.148.594-.148a.97.97 0 0 1 .18.019c.068.013.115.022.141.035zm2.282 3.733a1.09 1.09 0 0 0 .477-.105c.146-.07.266-.167.359-.289a.8.8 0 0 0 .16-.426h.688a1.29 1.29 0 0 1-.254.699 1.73 1.73 0 0 1-.605.52c-.25.133-.525.195-.824.195a1.93 1.93 0 0 1-.832-.168 1.65 1.65 0 0 1-.586-.461c-.154-.195-.27-.419-.348-.672a2.74 2.74 0 0 1-.113-.808v-.164c0-.284.038-.552.113-.805a2.05 2.05 0 0 1 .348-.676 1.65 1.65 0 0 1 .586-.461c.237-.112.514-.168.832-.168a1.78 1.78 0 0 1 .867.203 1.49 1.49 0 0 1 .582.547 1.58 1.58 0 0 1 .234.781h-.687a1.04 1.04 0 0 0-.148-.473c-.083-.141-.198-.253-.344-.336a.96.96 0 0 0-.504-.129c-.221 0-.408.044-.559.133a.98.98 0 0 0-.356.352 1.64 1.64 0 0 0-.187.488c-.037.177-.055.358-.055.543v.164a2.74 2.74 0 0 0 .055.547c.036.18.098.343.184.488a1.02 1.02 0 0 0 .355.352c.151.086.339.129.563.129zM82.438 32v6h-.723v-6h.723zm-.172 3.727l-.301-.012a2.54 2.54 0 0 1 .129-.801 2 2 0 0 1 .352-.645c.151-.182.331-.323.539-.422a1.59 1.59 0 0 1 .699-.152c.208 0 .396.029.563.086a1.02 1.02 0 0 1 .426.266 1.17 1.17 0 0 1 .273.477c.062.196.094.428.094.707V38h-.727v-2.777c0-.221-.033-.399-.098-.531a.6.6 0 0 0-.285-.293c-.125-.062-.279-.094-.461-.094a1.07 1.07 0 0 0-.492.113 1.17 1.17 0 0 0-.379.313 1.57 1.57 0 0 0-.246.457 1.67 1.67 0 0 0-.086.539zm7.027 1.836l1.176-3.789h.773l-1.695 4.879a2.69 2.69 0 0 1-.156.336c-.062.122-.143.238-.242.348a1.15 1.15 0 0 1-.359.266c-.138.07-.303.105-.496.105a1.31 1.31 0 0 1-.219-.023l-.187-.039-.004-.586.098.008.098.008a1.17 1.17 0 0 0 .418-.066c.115-.044.211-.113.289-.215a1.28 1.28 0 0 0 .207-.41l.301-.82zm-.863-3.789l1.098 3.281.188.762-.519.266-1.555-4.309h.789zm3.211 2.16v-.09a2.62 2.62 0 0 1 .133-.848 2.02 2.02 0 0 1 .383-.684c.167-.193.368-.346.606-.453a1.88 1.88 0 0 1 .797-.164 1.89 1.89 0 0 1 .801.164 1.7 1.7 0 0 1 .609.453 1.98 1.98 0 0 1 .387.684 2.62 2.62 0 0 1 .133.848v.09a2.61 2.61 0 0 1-.133.848 2.03 2.03 0 0 1-.387.684 1.77 1.77 0 0 1-.606.453c-.234.107-.5.16-.797.16a1.93 1.93 0 0 1-.801-.16 1.81 1.81 0 0 1-.609-.453 2.06 2.06 0 0 1-.383-.684 2.61 2.61 0 0 1-.133-.848zm.723-.09v.09a2.36 2.36 0 0 0 .074.598c.049.188.124.349.223.492s.228.256.379.34.327.121.527.121a1.07 1.07 0 0 0 .519-.121 1.09 1.09 0 0 0 .375-.34 1.58 1.58 0 0 0 .223-.492 2.3 2.3 0 0 0 .078-.598v-.09c0-.208-.026-.405-.078-.59a1.52 1.52 0 0 0-.227-.496c-.099-.146-.224-.26-.375-.344a1.05 1.05 0 0 0-.523-.125c-.198 0-.372.042-.523.125a1.1 1.1 0 0 0-.375.344c-.102.146-.173.309-.223.496a2.26 2.26 0 0 0-.074.59zm6.617 1.179v-3.25h.726V38h-.691l-.035-.977zm.137-.891l.301-.008c0 .281-.03.542-.09.781s-.151.443-.281.617a1.33 1.33 0 0 1-.512.41c-.211.096-.468.145-.77.145a1.71 1.71 0 0 1-.566-.09 1.13 1.13 0 0 1-.437-.277c-.122-.125-.217-.288-.285-.488a2.27 2.27 0 0 1-.098-.723v-2.727h.723v2.734c0 .19.021.348.063.473s.103.22.176.293a.65.65 0 0 0 .25.148c.094.029.19.043.289.043.307 0 .551-.059.73-.176a1 1 0 0 0 .387-.48c.081-.203.121-.428.121-.676zm2.413-1.694V38h-.722v-4.227h.703l.019.664zm1.321-.687l-.004.672a1.06 1.06 0 0 0-.172-.023 1.83 1.83 0 0 0-.18-.008c-.167 0-.314.026-.441.078s-.236.125-.325.219-.158.206-.21.336a1.61 1.61 0 0 0-.098.422l-.203.117a3.3 3.3 0 0 1 .074-.719 1.9 1.9 0 0 1 .238-.594 1.16 1.16 0 0 1 .407-.406c.166-.099.364-.148.593-.148a.97.97 0 0 1 .18.019c.068.013.115.022.141.035zm3.515-1.438V38h-.754v-5.687h.754zm2.383 2.559v.617h-2.547v-.617h2.547zm.387-2.559v.617h-2.934v-.617h2.934zm2.34.503L109.594 38h-.77l2.168-5.687h.496l-.011.504zM113.055 38l-1.887-5.184-.012-.504h.496L113.828 38h-.773zm-.098-2.105v.617h-3.195v-.617h3.195zm4.504 1.453l1.445 1.144-.508.469-1.421-1.129.484-.484zm1.426-2.371v.359c0 .427-.054.81-.16 1.148a2.48 2.48 0 0 1-.461.863c-.201.237-.442.418-.723.543s-.591.188-.938.188c-.335 0-.644-.062-.925-.187s-.521-.306-.727-.543-.361-.525-.473-.863-.168-.721-.168-1.148v-.359c0-.427.055-.809.165-1.145a2.53 2.53 0 0 1 .472-.863 2.02 2.02 0 0 1 .723-.547c.281-.125.59-.187.926-.187.346 0 .66.063.941.188s.522.307.723.547.354.525.461.863.164.718.164 1.145zm-.746.359v-.367a3.47 3.47 0 0 0-.106-.898c-.068-.26-.168-.479-.301-.656a1.3 1.3 0 0 0-.484-.402c-.19-.091-.408-.137-.652-.137-.232 0-.443.046-.633.137a1.35 1.35 0 0 0-.485.402 1.93 1.93 0 0 0-.312.656 3.34 3.34 0 0 0-.109.898v.367a3.4 3.4 0 0 0 .109.906c.073.26.177.481.312.66a1.33 1.33 0 0 0 .493.402c.19.091.401.137.632.137.245 0 .463-.046.653-.137a1.27 1.27 0 0 0 .48-.402c.13-.177.233-.4.301-.66s.102-.565.102-.906z" fill="#32383c"/><rect x="49.5" y="25.5" width="151" height="19" rx="1.5" stroke="#f21197"/><defs ><path id="B" d="M45.725 58.703v1.565h-7.197v-1.565h7.197zm-2.755-2.942v7.644h-1.68v-7.644h1.68z"/></defs></svg>