<svg xmlns="http://www.w3.org/2000/svg" xmlns:xlink="http://www.w3.org/1999/xlink" width="250" height="207" fill="none"><path fill="#fff" d="M0 0h250v207H0z"/><rect x="75" y="174.5" width="11" height="11" rx="5.5" fill="#ffd9f1" stroke="#f21197"/><path d="M94.707 177.264l-2.432 7.236H90.57l3.188-8.531h1.09l-.141 1.295zm2.033 7.236l-2.443-7.236-.146-1.295h1.096l3.205 8.531H96.74zm-.111-3.17v1.272h-4.576v-1.272h4.576zm2.66-3.17h1.559v6.809c0 .449-.082.83-.246 1.142a1.61 1.61 0 0 1-.698.709c-.305.16-.678.241-1.119.241-.137 0-.273-.008-.41-.024a2.91 2.91 0 0 1-.404-.076l.006-1.195.264.035a2.22 2.22 0 0 0 .27.017c.168 0 .309-.029.422-.088a.56.56 0 0 0 .264-.275c.063-.125.094-.287.094-.486v-6.809zm-.129-1.658c0-.231.078-.422.234-.574s.375-.229.645-.229.482.076.639.229.24.343.24.574a.75.75 0 0 1-.24.568c-.157.153-.369.229-.639.229s-.484-.076-.645-.229a.76.76 0 0 1-.234-.568zm6.615 6.65v-2.923a1.29 1.29 0 0 0-.111-.557.8.8 0 0 0-.34-.363c-.152-.086-.345-.129-.58-.129-.207 0-.389.035-.545.105a.8.8 0 0 0-.351.299c-.082.125-.123.27-.123.434h-1.553c0-.262.062-.51.187-.745a1.98 1.98 0 0 1 .534-.632c.234-.188.513-.334.837-.44s.696-.158 1.102-.158c.48 0 .908.082 1.283.246s.676.402.891.727.328.732.328 1.224v2.766c0 .316.02.588.059.814s.105.416.187.58v.1h-1.576c-.074-.16-.131-.363-.17-.609s-.059-.496-.059-.739zm.217-2.513l.012.92h-.979a2.39 2.39 0 0 0-.638.076c-.184.047-.334.117-.451.211s-.206.199-.264.328a.99.99 0 0 0-.088.428c0 .156.035.296.105.421a.81.81 0 0 0 .317.299c.14.071.305.106.492.106.273 0 .512-.055.715-.164.203-.114.361-.25.475-.41s.173-.313.181-.458l.445.668a2.51 2.51 0 0 1-.246.51 2.27 2.27 0 0 1-.422.504 2.14 2.14 0 0 1-.621.387c-.242.101-.523.152-.843.152-.411 0-.778-.082-1.102-.246a1.96 1.96 0 0 1-.768-.674c-.187-.285-.281-.609-.281-.972a2.02 2.02 0 0 1 .188-.891 1.7 1.7 0 0 1 .556-.65c.246-.18.551-.315.914-.405a5.16 5.16 0 0 1 1.26-.14h1.043zm3.949-2.479l1.131 2.016 1.149-2.016h1.681l-1.863 3.106 1.94 3.234h-1.682l-1.213-2.115-1.219 2.115h-1.681l1.933-3.234-1.851-3.106h1.675zm11.245 3.229h-2.198v-1.266h2.198c.359 0 .65-.059.873-.176a1.15 1.15 0 0 0 .498-.492c.105-.211.158-.451.158-.721 0-.261-.053-.505-.158-.732a1.28 1.28 0 0 0-.498-.551c-.223-.14-.514-.211-.873-.211h-1.67v7.26h-1.612v-8.531h3.282c.664 0 1.23.119 1.699.357s.832.561 1.078.979.375.886.375 1.418c0 .55-.125 1.025-.375 1.423s-.606.706-1.078.92-1.035.323-1.699.323zm7.722 1.763v-2.923a1.29 1.29 0 0 0-.111-.557c-.074-.156-.188-.277-.34-.363s-.346-.129-.58-.129c-.207 0-.389.035-.545.105s-.27.17-.352.299-.123.27-.123.434h-1.552c0-.262.062-.51.187-.745a1.99 1.99 0 0 1 .533-.632 2.64 2.64 0 0 1 .838-.44c.328-.105.696-.158 1.102-.158.48 0 .908.082 1.283.246s.676.402.891.727.328.732.328 1.224v2.766c0 .316.019.588.058.814s.106.416.188.58v.1h-1.576a2.3 2.3 0 0 1-.17-.609c-.039-.25-.059-.496-.059-.739zm.217-2.513l.012.92h-.979a2.39 2.39 0 0 0-.638.076c-.184.047-.334.117-.452.211a.85.85 0 0 0-.263.328.99.99 0 0 0-.088.428c0 .156.035.296.105.421s.18.225.317.299.304.106.492.106c.273 0 .512-.055.715-.164.203-.114.361-.25.474-.41s.174-.313.182-.458l.445.668a2.51 2.51 0 0 1-.246.51 2.27 2.27 0 0 1-.422.504c-.172.156-.379.285-.621.387s-.523.152-.844.152c-.41 0-.777-.082-1.101-.246a1.96 1.96 0 0 1-.768-.674c-.187-.285-.281-.609-.281-.972a2.02 2.02 0 0 1 .188-.891 1.7 1.7 0 0 1 .556-.65c.246-.18.551-.315.914-.405s.787-.14 1.26-.14h1.043zm6.768-2.479h1.406v6.147c0 .574-.125 1.06-.375 1.459s-.592.707-1.037.914-.963.316-1.553.316c-.254 0-.529-.035-.826-.105a3.39 3.39 0 0 1-.85-.334c-.269-.149-.494-.342-.674-.58l.698-.915c.211.247.449.432.714.557s.553.193.862.193.578-.058.797-.175.392-.282.509-.504c.122-.219.182-.488.182-.809v-4.717l.147-1.447zm-4.284 3.246v-.123c0-.484.059-.924.176-1.318s.285-.74.504-1.026.49-.505.803-.662.672-.234 1.066-.234c.418 0 .77.076 1.055.228s.527.37.715.651.34.615.445 1.002.193.805.252 1.265v.334c-.055.45-.143.862-.264 1.237s-.273.703-.468.984-.438.492-.727.645-.629.228-1.02.228-.742-.08-1.054-.24-.58-.385-.803-.674-.387-.629-.504-1.019a4.44 4.44 0 0 1-.176-1.278zm1.547-.123v.123c0 .274.028.53.082.768s.139.449.252.633.256.32.428.422.377.152.615.152c.321 0 .582-.067.785-.199s.364-.323.469-.557.18-.506.211-.803v-.92c-.019-.234-.062-.451-.129-.65a1.59 1.59 0 0 0-.264-.516 1.18 1.18 0 0 0-.433-.34c-.176-.082-.385-.123-.627-.123-.234 0-.44.053-.615.159s-.321.244-.434.427-.199.397-.258.639-.082.504-.082.785zm7.178-3.123v6.34h-1.553v-6.34h1.553zm-1.658-1.658c0-.231.078-.422.234-.574s.375-.229.645-.229.482.076.638.229.241.343.241.574-.08.416-.241.568-.369.229-.638.229-.485-.076-.645-.229a.76.76 0 0 1-.234-.568zm4.652 3.012v4.986h-1.547v-6.34h1.453l.094 1.354zm-.246 1.588h-.457a4.19 4.19 0 0 1 .187-1.254c.122-.375.292-.698.51-.967a2.29 2.29 0 0 1 .791-.621c.305-.145.645-.217 1.02-.217a2.49 2.49 0 0 1 .826.129c.246.086.457.223.633.41s.316.434.41.738.146.672.146 1.114v4.066h-1.558v-4.078c0-.289-.043-.518-.129-.686s-.203-.287-.363-.357a1.42 1.42 0 0 0-.58-.106c-.239 0-.448.049-.627.147s-.325.225-.446.392-.207.362-.269.581a2.55 2.55 0 0 0-.094.709zm8.924 2.05v-2.923a1.29 1.29 0 0 0-.111-.557.81.81 0 0 0-.34-.363c-.153-.086-.346-.129-.58-.129-.207 0-.389.035-.545.105a.8.8 0 0 0-.352.299c-.082.125-.123.27-.123.434h-1.553c0-.262.063-.51.188-.745a1.99 1.99 0 0 1 .533-.632c.234-.188.514-.334.838-.44a3.6 3.6 0 0 1 1.101-.158c.481 0 .909.082 1.284.246s.675.402.89.727.328.732.328 1.224v2.766c0 .316.02.588.059.814s.106.416.188.58v.1h-1.577c-.074-.16-.13-.363-.17-.609s-.058-.496-.058-.739zm.217-2.513l.011.92h-.978c-.242 0-.455.025-.639.076a1.18 1.18 0 0 0-.451.211.86.86 0 0 0-.264.328c-.058.125-.088.267-.088.428s.036.296.106.421.18.225.316.299c.141.071.305.106.493.106.273 0 .511-.055.714-.164.203-.114.362-.25.475-.41s.174-.313.182-.458l.445.668a2.62 2.62 0 0 1-.246.51 2.3 2.3 0 0 1-.422.504c-.172.156-.379.285-.621.387a2.18 2.18 0 0 1-.844.152c-.41 0-.777-.082-1.101-.246s-.581-.389-.768-.674-.281-.609-.281-.972a2.02 2.02 0 0 1 .187-.891 1.7 1.7 0 0 1 .557-.65c.246-.18.551-.315.914-.405s.787-.14 1.26-.14h1.043zm5.736-2.479v1.113h-3.633v-1.113h3.633zm-2.66-1.558h1.553v6.07c0 .187.025.332.076.433s.127.17.228.206.223.052.364.052a2.22 2.22 0 0 0 .281-.017l.217-.035.005 1.16c-.128.043-.275.078-.439.105s-.342.041-.545.041c-.348 0-.652-.058-.914-.176a1.3 1.3 0 0 1-.609-.58c-.145-.269-.217-.625-.217-1.066v-6.193zm5.332 1.558v6.34h-1.553v-6.34h1.553zm-1.658-1.658c0-.231.078-.422.234-.574s.375-.229.645-.229.482.076.638.229.24.343.24.574a.75.75 0 0 1-.24.568c-.156.153-.369.229-.638.229s-.485-.076-.645-.229a.76.76 0 0 1-.234-.568zm2.859 4.893v-.124c0-.464.066-.892.199-1.283s.326-.736.58-1.025.565-.514.932-.674.785-.246 1.254-.246c.476 0 .898.082 1.265.246s.684.385.938.674.447.631.58 1.025.199.819.199 1.283v.124c0 .46-.066.888-.199 1.283s-.326.732-.58 1.025-.564.514-.932.674-.787.24-1.259.24-.889-.08-1.26-.24-.684-.385-.938-.674-.447-.635-.58-1.025-.199-.823-.199-1.283zm1.547-.124v.124c0 .277.027.537.082.779s.139.455.252.638.26.329.439.434c.184.102.403.152.657.152s.464-.05.644-.152a1.26 1.26 0 0 0 .44-.434c.117-.183.203-.396.257-.638s.082-.502.082-.779v-.124c0-.273-.027-.529-.082-.767s-.14-.455-.257-.639-.262-.334-.446-.439-.396-.164-.65-.164-.465.054-.645.164-.326.252-.439.439-.197.397-.252.639-.082.494-.082.767zm7.043-1.757v4.986h-1.547v-6.34h1.453l.094 1.354zm-.246 1.588h-.457a4.19 4.19 0 0 1 .187-1.254 2.95 2.95 0 0 1 .51-.967 2.28 2.28 0 0 1 .791-.621c.305-.145.645-.217 1.02-.217.304 0 .58.043.826.129s.457.223.633.41.316.434.41.738.146.672.146 1.114v4.066h-1.558v-4.078c0-.289-.043-.518-.129-.686s-.203-.287-.364-.357-.349-.106-.58-.106a1.29 1.29 0 0 0-.627.147c-.175.094-.324.225-.445.392s-.207.362-.269.581a2.55 2.55 0 0 0-.094.709z" fill="#546069"/><rect x="19.5" y="16.5" width="211" height="147" rx="3.5" fill="#fff"/><rect x="19.5" y="16.5" width="211" height="147" rx="3.5" stroke="#bbc2c7"/><rect x="31" y="24" width="187.077" height="17.231" rx="1" fill="#718491"/><g fill="#fff"><use xlink:href="#B"/><rect x="54.385" y="30.154" width="130.462" height="4.923" rx="1.231"/></g><rect x="31" y="46.231" width="187.077" height="17.231" rx="1" fill="#718491"/><g fill="#fff"><use xlink:href="#B" y="22.231"/><rect x="54.385" y="52.384" width="130.462" height="4.923" rx="1.231"/></g><rect x="31" y="68.461" width="187.077" height="17.231" rx="1" fill="#718491"/><g fill="#fff"><use xlink:href="#B" y="44.461"/><rect x="54.385" y="74.615" width="130.462" height="4.923" rx="1.231"/></g><rect x="31" y="90.692" width="187.077" height="17.231" rx="1" fill="#718491"/><g fill="#fff"><use xlink:href="#B" y="66.692"/><rect x="54.385" y="96.846" width="130.462" height="4.923" rx="1.231"/></g><rect x="31" y="112.923" width="187.077" height="17.231" rx="1" fill="#718491"/><g fill="#fff"><use xlink:href="#B" y="88.923"/><rect x="54.385" y="119.077" width="130.462" height="4.923" rx="1.231"/></g><mask id="A" fill="#fff"><path d="M102 140.154a1 1 0 0 1 1-1h44a1 1 0 0 1 1 1v12a1 1 0 0 1-1 1h-44a1 1 0 0 1-1-1v-12z"/></mask><path d="M102 140.154a1 1 0 0 1 1-1h44a1 1 0 0 1 1 1v12a1 1 0 0 1-1 1h-44a1 1 0 0 1-1-1v-12z" fill="#ff5b2e" stroke="#ff5b2e" stroke-width="2.462" mask="url(#A)"/><path d="M110.141 148.376v.778h-2.856v-.778h2.856zm-2.582-4.91v5.688h-.981v-5.688h.981zm3.066 3.621v-.089c0-.305.044-.588.133-.848s.216-.491.383-.684.375-.346.617-.453.521-.164.828-.164.586.055.828.164a1.72 1.72 0 0 1 .621.453c.169.193.298.421.387.684a2.63 2.63 0 0 1 .133.848v.089a2.63 2.63 0 0 1-.133.848c-.089.26-.218.488-.387.684s-.375.343-.617.453a2.02 2.02 0 0 1-.824.16c-.31 0-.587-.053-.832-.16s-.448-.261-.617-.453a2.02 2.02 0 0 1-.387-.684c-.089-.26-.133-.543-.133-.848zm.941-.089v.089c0 .191.02.37.059.539s.1.318.184.446.19.228.32.301.285.109.465.109a.91.91 0 0 0 .453-.109c.13-.073.237-.174.32-.301s.145-.276.184-.446.062-.348.062-.539v-.089c0-.188-.021-.365-.062-.532a1.36 1.36 0 0 0-.188-.449.9.9 0 0 0-.32-.305c-.128-.075-.28-.113-.457-.113s-.331.038-.461.113-.233.175-.316.305a1.4 1.4 0 0 0-.184.449 2.33 2.33 0 0 0-.059.532zm6.161 1.308v-2.015a.87.87 0 0 0-.082-.391.58.58 0 0 0-.25-.254c-.11-.06-.248-.09-.415-.09a.94.94 0 0 0-.398.078.65.65 0 0 0-.262.211c-.062.089-.093.189-.093.301h-.938c0-.167.04-.328.121-.484s.198-.296.352-.418a1.73 1.73 0 0 1 .55-.289c.214-.071.454-.106.719-.106.318 0 .599.054.844.16a1.29 1.29 0 0 1 .582.485c.143.213.215.481.215.804v1.879a3.14 3.14 0 0 0 .039.52c.029.151.069.282.121.394v.063h-.965c-.044-.102-.079-.231-.105-.387a3.08 3.08 0 0 1-.035-.461zm.136-1.723l.008.583h-.676c-.174 0-.328.016-.461.05s-.243.078-.332.141a.61.61 0 0 0-.199.226.67.67 0 0 0-.066.301c0 .112.026.215.078.309s.127.163.226.215a.8.8 0 0 0 .368.078c.192 0 .36-.039.503-.117s.261-.179.344-.293.128-.228.133-.332l.305.418c-.032.106-.085.221-.16.343a1.68 1.68 0 0 1-.297.352c-.12.109-.265.199-.434.269s-.359.106-.578.106c-.276 0-.522-.055-.738-.164s-.386-.262-.508-.449a1.17 1.17 0 0 1-.184-.645 1.35 1.35 0 0 1 .125-.594c.086-.174.211-.32.375-.437s.37-.206.61-.266.513-.094.82-.094h.738zm4.371 1.696v-5.125h.946v6h-.856l-.09-.875zm-2.75-1.192v-.082c0-.32.038-.612.114-.875s.185-.493.328-.683a1.44 1.44 0 0 1 .523-.442c.206-.104.438-.156.696-.156s.479.05.671.149a1.4 1.4 0 0 1 .493.425c.135.183.243.401.324.657s.138.533.172.843v.262c-.034.302-.091.578-.172.828s-.189.466-.324.649-.301.323-.497.421-.417.149-.675.149a1.48 1.48 0 0 1-.692-.16c-.203-.107-.376-.257-.519-.449s-.253-.42-.328-.68a3.07 3.07 0 0 1-.114-.856zm.942-.082v.082a2.69 2.69 0 0 0 .051.539c.036.167.092.314.168.442a.86.86 0 0 0 .293.297c.122.07.268.105.437.105.214 0 .389-.047.527-.14a.97.97 0 0 0 .325-.379c.08-.162.135-.341.164-.539v-.707c-.016-.154-.049-.297-.098-.43s-.111-.249-.191-.348-.181-.179-.301-.234-.257-.086-.418-.086c-.172 0-.318.036-.438.109a.9.9 0 0 0-.297.301c-.075.128-.131.276-.168.445s-.054.351-.054.543zm6.222-3.539h.875l1.645 4.387 1.641-4.387h.875l-2.172 5.688h-.696l-2.168-5.688zm-.398 0h.832l.145 3.797v1.891h-.977v-5.688zm5 0h.836v5.688h-.981v-1.891l.145-3.797zm1.727 3.621v-.089a2.63 2.63 0 0 1 .132-.848 2.04 2.04 0 0 1 .383-.684c.169-.195.375-.346.617-.453s.521-.164.829-.164.585.055.828.164a1.74 1.74 0 0 1 .621.453 1.98 1.98 0 0 1 .386.684c.089.26.133.543.133.848v.089c0 .305-.044.588-.133.848s-.217.488-.386.684-.375.343-.617.453-.517.16-.825.16-.587-.053-.832-.16-.448-.261-.617-.453-.298-.424-.387-.684a2.63 2.63 0 0 1-.132-.848zm.941-.089v.089c0 .191.02.37.059.539s.1.318.183.446.19.228.32.301a.95.95 0 0 0 .465.109c.175 0 .326-.037.453-.109s.237-.174.321-.301.144-.276.183-.446.063-.348.063-.539v-.089c0-.188-.021-.365-.063-.532a1.36 1.36 0 0 0-.187-.449.9.9 0 0 0-.32-.305c-.128-.075-.28-.113-.457-.113s-.331.038-.461.113-.234.175-.317.305a1.42 1.42 0 0 0-.183.449 2.33 2.33 0 0 0-.059.532zm4.723-1.266v3.422h-.942v-4.227h.899l.043.805zm1.293-.832l-.008.875a1.92 1.92 0 0 0-.188-.024l-.195-.007a1.19 1.19 0 0 0-.426.07c-.122.044-.225.109-.308.195a.86.86 0 0 0-.188.305 1.38 1.38 0 0 0-.078.402l-.215.016a3.29 3.29 0 0 1 .078-.738c.052-.227.13-.426.235-.598s.239-.306.398-.402.348-.145.559-.145c.057 0 .118.005.183.016s.119.022.153.035zm2.375 4.332c-.313 0-.595-.051-.848-.152s-.464-.249-.641-.434-.308-.402-.402-.652a2.28 2.28 0 0 1-.141-.809v-.156c0-.331.049-.63.145-.899a2.03 2.03 0 0 1 .402-.687 1.73 1.73 0 0 1 .61-.442 1.9 1.9 0 0 1 .761-.152 1.93 1.93 0 0 1 .793.152c.227.102.414.245.563.43s.263.4.336.652.113.532.113.836v.403h-3.266v-.676h2.336v-.074c-.005-.169-.039-.328-.101-.477s-.153-.268-.278-.359-.291-.137-.5-.137a.85.85 0 0 0-.418.102c-.119.065-.22.16-.3.285s-.144.276-.188.453-.062.371-.062.59v.156a1.71 1.71 0 0 0 .074.516 1.23 1.23 0 0 0 .226.41 1.08 1.08 0 0 0 .36.277 1.13 1.13 0 0 0 .48.098c.227 0 .429-.046.606-.137a1.39 1.39 0 0 0 .461-.387l.496.481a1.94 1.94 0 0 1-.356.383 1.81 1.81 0 0 1-.535.293c-.208.075-.45.113-.726.113z" fill="#fff"/><rect x="98.5" y="136.654" width="53" height="19" rx="1.5" stroke="#f21197"/><path d="M176 181a4 4 0 1 0 8 0 4 4 0 1 0-8 0zm26 0v.75a.75.75 0 0 0 .75-.75H202zm0-34h.75a.75.75 0 0 0-.75-.75v.75zm-47 0l7.5 4.33v-8.66L155 147zm25 34.75h22v-1.5h-22v1.5zm22.75-.75v-34h-1.5v34h1.5zm-.75-34.75h-40.25v1.5H202v-1.5z" fill="#f21197"/><defs><path id="B" d="M45.418 32.396v1.565h-7.197v-1.565h7.197zm-2.755-2.942v7.644h-1.68v-7.644h1.68z"/></defs></svg>