<svg xmlns="http://www.w3.org/2000/svg" width="250" height="207" fill="none" xmlns:v="https://vecta.io/nano"><path fill="#fff" d="M0 0h250v207H0z"/><rect x="70" y="174.5" width="11" height="11" rx="5.5" fill="#ffd9f1" stroke="#f21197"/><path d="M89.707 177.264l-2.432 7.236H85.57l3.188-8.531h1.09l-.141 1.295zm2.033 7.236l-2.443-7.236-.146-1.295h1.096l3.205 8.531H91.74zm-.111-3.17v1.272h-4.576v-1.272h4.576zm5.186 2.068c.219 0 .414-.043.586-.128a1.03 1.03 0 0 0 .41-.364 1.02 1.02 0 0 0 .17-.545h1.459c-.008.43-.129.815-.363 1.155s-.547.609-.937.808-.82.293-1.301.293c-.488 0-.914-.082-1.277-.246s-.666-.392-.908-.685-.418-.633-.539-1.02-.176-.801-.176-1.242v-.188c0-.441.059-.855.176-1.242a3.03 3.03 0 0 1 .539-1.019c.242-.293.545-.522.908-.686s.787-.246 1.271-.246c.512 0 .961.1 1.348.299s.695.48.914.844.338.791.346 1.283h-1.459c-.008-.227-.059-.43-.152-.61a1.12 1.12 0 0 0-.398-.433c-.172-.11-.381-.164-.627-.164-.262 0-.48.054-.656.164a1.13 1.13 0 0 0-.404.451 2.21 2.21 0 0 0-.199.633 4.8 4.8 0 0 0-.053.726v.188a4.96 4.96 0 0 0 .053.738 2.23 2.23 0 0 0 .199.633c.098.184.232.33.404.439s.398.164.668.164zm6.258 0c.219 0 .414-.043.586-.128s.309-.208.41-.364a1.02 1.02 0 0 0 .17-.545h1.459a2.06 2.06 0 0 1-.363 1.155c-.234.339-.547.609-.938.808-.386.196-.82.293-1.3.293-.489 0-.914-.082-1.278-.246s-.666-.392-.908-.685-.418-.633-.539-1.02a4.27 4.27 0 0 1-.176-1.242v-.188a4.27 4.27 0 0 1 .176-1.242c.121-.387.301-.726.539-1.019s.545-.522.908-.686.787-.246 1.272-.246c.512 0 .961.1 1.348.299a2.22 2.22 0 0 1 .914.844c.222.363.337.791.345 1.283h-1.459c-.008-.227-.058-.43-.152-.61s-.227-.324-.398-.433-.381-.164-.627-.164c-.262 0-.481.054-.657.164s-.306.26-.404.451-.16.398-.199.633-.053.472-.053.726v.188c0 .258.018.504.053.738s.105.445.199.633.232.33.404.439.399.164.668.164zm3.381-2.003v-.124a3.99 3.99 0 0 1 .199-1.283 2.99 2.99 0 0 1 .58-1.025c.254-.289.565-.514.932-.674s.785-.246 1.254-.246c.477 0 .898.082 1.266.246a2.6 2.6 0 0 1 .937.674c.254.289.447.631.58 1.025s.199.819.199 1.283v.124c0 .46-.066.888-.199 1.283s-.326.732-.58 1.025-.564.514-.932.674-.787.24-1.259.24-.889-.08-1.26-.24-.684-.385-.938-.674-.447-.635-.58-1.025-.199-.823-.199-1.283zm1.547-.124v.124c0 .277.027.537.082.779s.139.455.252.638.26.329.439.434.403.152.657.152.465-.05.644-.152a1.26 1.26 0 0 0 .44-.434c.117-.183.203-.396.257-.638a3.51 3.51 0 0 0 .083-.779v-.124c0-.273-.028-.529-.083-.767s-.14-.455-.257-.639-.262-.334-.446-.439-.396-.164-.65-.164-.465.054-.645.164-.326.252-.439.439-.197.397-.252.639-.082.494-.082.767zm7.072-1.816v5.045h-1.547v-6.34h1.465l.082 1.295zm1.928-1.336l-.023 1.442c-.086-.016-.184-.028-.293-.036l-.299-.011c-.239 0-.447.033-.627.099s-.33.155-.451.276a1.21 1.21 0 0 0-.27.445 1.9 1.9 0 0 0-.105.586l-.334-.041a4.82 4.82 0 0 1 .123-1.119c.082-.344.201-.645.357-.903a1.72 1.72 0 0 1 .586-.597c.238-.145.512-.217.82-.217.086 0 .178.008.276.023s.181.03.24.053zm4.535 5.033V175.5h1.559v9h-1.406l-.153-1.348zm-4.072-1.746v-.123c0-.484.055-.924.164-1.318s.277-.74.492-1.026.475-.505.779-.662.659-.234 1.049-.234c.379 0 .709.076.991.228s.527.37.726.651a3.46 3.46 0 0 1 .486 1.002c.121.383.209.805.264 1.265v.334c-.055.45-.143.862-.264 1.237s-.283.703-.486.984-.441.492-.726.645-.62.228-1.002.228a2.23 2.23 0 0 1-1.043-.24c-.305-.16-.565-.385-.78-.674s-.373-.629-.486-1.019-.164-.817-.164-1.278zm1.553-.123v.123c0 .274.023.53.07.768s.123.449.228.633.241.32.405.422.371.152.609.152c.305 0 .555-.067.75-.199s.354-.323.463-.557.18-.506.211-.803v-.92a2.63 2.63 0 0 0-.123-.65c-.063-.199-.152-.371-.27-.516-.113-.144-.254-.257-.421-.34s-.368-.123-.598-.123c-.238 0-.442.053-.61.159a1.17 1.17 0 0 0-.41.427c-.105.184-.183.397-.234.639s-.07.504-.07.785zm7.119-3.123v6.34h-1.553v-6.34h1.553zm-1.658-1.658c0-.231.078-.422.234-.574s.375-.229.644-.229.483.076.639.229.24.343.24.574a.75.75 0 0 1-.24.568c-.156.153-.369.229-.639.229s-.484-.076-.644-.229a.76.76 0 0 1-.234-.568zm2.859 4.893v-.124c0-.464.066-.892.199-1.283s.326-.736.58-1.025.565-.514.932-.674.785-.246 1.254-.246c.476 0 .898.082 1.265.246s.684.385.938.674.447.631.58 1.025.199.819.199 1.283v.124c0 .46-.066.888-.199 1.283s-.326.732-.58 1.025-.565.514-.932.674-.787.24-1.26.24-.888-.08-1.259-.24-.684-.385-.938-.674-.447-.635-.58-1.025-.199-.823-.199-1.283zm1.547-.124v.124c0 .277.027.537.082.779s.139.455.252.638.26.329.439.434.403.152.656.152.465-.05.645-.152a1.25 1.25 0 0 0 .439-.434 1.95 1.95 0 0 0 .258-.638c.055-.242.082-.502.082-.779v-.124c0-.273-.027-.529-.082-.767s-.14-.455-.258-.639c-.113-.187-.261-.334-.445-.439s-.396-.164-.65-.164-.465.054-.645.164-.326.252-.439.439-.197.397-.252.639-.082.494-.082.767zm7.043-1.757v4.986h-1.547v-6.34h1.453l.094 1.354zm-.246 1.588h-.457a4.19 4.19 0 0 1 .187-1.254 2.95 2.95 0 0 1 .51-.967 2.28 2.28 0 0 1 .791-.621 2.34 2.34 0 0 1 1.019-.217c.305 0 .581.043.827.129s.457.223.632.41c.18.188.317.434.411.738s.146.672.146 1.114v4.066h-1.558v-4.078c0-.289-.043-.518-.129-.686a.72.72 0 0 0-.364-.357c-.156-.07-.349-.106-.58-.106a1.29 1.29 0 0 0-.627.147c-.176.094-.324.225-.445.392s-.207.362-.27.581-.093.455-.093.709zm11.806-.405h-2.179l-.012-1.136h1.869c.32 0 .588-.045.803-.135s.377-.221.486-.393.17-.381.17-.627c0-.273-.053-.496-.158-.668s-.262-.297-.481-.375-.496-.123-.832-.123h-1.324v7.26h-1.611v-8.531h2.935c.485 0 .916.047 1.295.14s.707.231.973.422a1.85 1.85 0 0 1 .603.721c.141.289.211.633.211 1.031a1.98 1.98 0 0 1-.246.973c-.16.293-.408.531-.744.715s-.754.289-1.265.316l-.493.41zm-.07 3.803h-2.584l.674-1.266h1.91c.32 0 .584-.052.791-.158s.367-.25.469-.433a1.3 1.3 0 0 0 .158-.645c0-.266-.047-.496-.141-.691s-.234-.346-.433-.452-.453-.158-.774-.158h-1.675l.011-1.136h2.133l.369.439c.492.004.893.102 1.201.293s.543.437.692.738.222.625.222.973c0 .547-.119 1.006-.357 1.377s-.578.65-1.031.838-.994.281-1.635.281zm4.025-3.105v-.124c0-.464.067-.892.2-1.283s.326-.736.58-1.025a2.61 2.61 0 0 1 .931-.674 3.05 3.05 0 0 1 1.254-.246c.477 0 .899.082 1.266.246a2.6 2.6 0 0 1 .937.674c.254.289.448.631.58 1.025s.2.819.2 1.283v.124c0 .46-.067.888-.2 1.283a3.03 3.03 0 0 1-.58 1.025 2.61 2.61 0 0 1-.931.674c-.367.16-.787.24-1.26.24s-.889-.08-1.26-.24a2.6 2.6 0 0 1-.937-.674 3.03 3.03 0 0 1-.58-1.025c-.133-.395-.2-.823-.2-1.283zm1.547-.124v.124c0 .277.028.537.082.779s.139.455.252.638a1.26 1.26 0 0 0 .44.434c.183.102.402.152.656.152s.465-.05.644-.152a1.25 1.25 0 0 0 .44-.434c.117-.183.203-.396.258-.638s.082-.502.082-.779v-.124c0-.273-.028-.529-.082-.767a2.01 2.01 0 0 0-.258-.639 1.23 1.23 0 0 0-.445-.439c-.18-.11-.397-.164-.651-.164s-.465.054-.644.164a1.25 1.25 0 0 0-.44.439c-.113.184-.197.397-.252.639s-.082.494-.082.767zm7.073-1.816v5.045h-1.547v-6.34h1.465l.082 1.295zm1.927-1.336l-.023 1.442c-.086-.016-.184-.028-.293-.036l-.299-.011c-.238 0-.447.033-.627.099s-.33.155-.451.276-.207.269-.27.445a1.93 1.93 0 0 0-.105.586l-.334-.041a4.82 4.82 0 0 1 .123-1.119c.082-.344.201-.645.357-.903s.352-.457.586-.597a1.55 1.55 0 0 1 .821-.217 1.82 1.82 0 0 1 .275.023c.102.012.182.03.24.053zm4.535 5.033V175.5h1.559v9h-1.406l-.153-1.348zm-4.072-1.746v-.123c0-.484.055-.924.164-1.318s.278-.74.492-1.026.475-.505.78-.662a2.29 2.29 0 0 1 1.049-.234c.378 0 .709.076.99.228s.527.37.726.651.366.615.487 1.002.209.805.263 1.265v.334c-.054.45-.142.862-.263 1.237s-.284.703-.487.984-.441.492-.726.645-.619.228-1.002.228a2.23 2.23 0 0 1-1.043-.24 2.28 2.28 0 0 1-.779-.674c-.211-.289-.373-.629-.487-1.019s-.164-.817-.164-1.278zm1.553-.123v.123c0 .274.023.53.07.768s.123.449.229.633.24.32.404.422.371.152.609.152c.305 0 .555-.067.75-.199a1.35 1.35 0 0 0 .463-.557c.11-.238.18-.506.211-.803v-.92a2.54 2.54 0 0 0-.123-.65c-.062-.199-.152-.371-.269-.516a1.22 1.22 0 0 0-.422-.34 1.35 1.35 0 0 0-.598-.123c-.238 0-.441.053-.609.159a1.16 1.16 0 0 0-.41.427c-.106.184-.184.397-.235.639s-.07.504-.07.785zm8.326 3.334c-.48 0-.912-.078-1.295-.234s-.709-.373-.978-.651a2.99 2.99 0 0 1-.616-.978c-.14-.375-.211-.777-.211-1.207v-.235c0-.488.071-.931.211-1.33s.34-.748.598-1.037.566-.511.926-.668.756-.234 1.189-.234c.45 0 .846.076 1.19.228s.631.36.861.633.404.602.522.985.175.799.175 1.259v.651h-4.968v-1.067h3.445v-.117c-.008-.246-.055-.47-.141-.674s-.218-.371-.398-.492-.412-.187-.697-.187a1.16 1.16 0 0 0-.604.152 1.21 1.21 0 0 0-.422.422 2.11 2.11 0 0 0-.246.644c-.055.25-.082.528-.082.832v.235c0 .265.035.512.106.738s.181.424.322.592a1.57 1.57 0 0 0 .515.387c.204.09.434.134.692.134.324 0 .617-.062.879-.187a1.96 1.96 0 0 0 .691-.568l.779.808a2.57 2.57 0 0 1-.539.563c-.222.179-.492.326-.808.439s-.682.164-1.096.164zm5.156-5.162v5.045h-1.547v-6.34h1.465l.082 1.295zm1.928-1.336l-.023 1.442c-.086-.016-.184-.028-.293-.036l-.299-.011c-.238 0-.447.033-.627.099s-.33.155-.451.276-.207.269-.27.445a1.93 1.93 0 0 0-.105.586l-.334-.041a4.82 4.82 0 0 1 .123-1.119c.082-.344.201-.645.357-.903a1.72 1.72 0 0 1 .586-.597c.238-.145.512-.217.82-.217.086 0 .178.008.276.023s.181.03.24.053z" fill="#546069"/><rect x="19.5" y="26.5" width="210.692" height="127" rx="3.5" fill="#fff"/><rect x="19.5" y="26.5" width="210.692" height="127" rx="3.5" stroke="#bbc2c7"/><rect x="31.808" y="38.808" width="186.077" height="77.769" rx=".5" fill="#fff" stroke="#546069"/><mask id="A" fill="#fff"><path d="M31.308 39.308a1 1 0 0 1 1-1h185.077a1 1 0 0 1 1 1v16.231H31.308V39.308z"/></mask><g fill="#718491"><path d="M31.308 39.308a1 1 0 0 1 1-1h185.077a1 1 0 0 1 1 1v16.231H31.308V39.308z" stroke="#718491" stroke-width="2.462" mask="url(#A)"/><rect x="31.308" y="124.462" width="187.077" height="17.231" rx="1"/></g><g fill="#fff"><path d="M45.725 132.857v1.565h-7.197v-1.565h7.197zm-2.755-2.942v7.644h-1.68v-7.644h1.68zm3.197-84.154v1.688h-7.762v-1.688h7.762z"/><rect x="54.692" y="44.462" width="130.462" height="4.923" rx="1.231"/><rect x="54.692" y="130.615" width="130.462" height="4.923" rx="1.231"/></g><g opacity=".8" fill="#8796a1"><rect x="38.016" y="62.308" width="173.538" height="3.692" rx="1.846"/><rect x="38.016" y="73.385" width="173.538" height="3.692" rx="1.846"/><rect x="38.016" y="84.461" width="173.538" height="3.692" rx="1.846"/><rect x="38.016" y="95.539" width="173.538" height="3.692" rx="1.846"/><rect x="38.016" y="106.615" width="104.615" height="3.692" rx="1.846"/></g><g fill="#f21197"><path fill-rule="evenodd" d="M35 55v58h179V55a1 1 0 0 1 1-1h5a1 1 0 0 1 1 1v64a1 1 0 0 1-1 1H29a1 1 0 0 1-1-1V55a1 1 0 0 1 1-1h5a1 1 0 0 1 1 1zm-6 0h5v58a1 1 0 0 0 1 1h179a1 1 0 0 0 1-1V55h5v64H29V55z"/><path d="M182 181a4 4 0 1 0 8 0 4 4 0 1 0-8 0zm56 0v.75a.75.75 0 0 0 .75-.75H238zm0-96h.75a.75.75 0 0 0-.75-.75V85zm-15 0l7.5 4.33v-8.66L223 85zm-37 96.75h52v-1.5h-52v1.5zm52.75-.75V85h-1.5v96h1.5zM238 84.25h-8.25v1.5H238v-1.5z"/></g></svg>