<svg xmlns="http://www.w3.org/2000/svg" width="250" height="207" fill="none"><path fill="#fff" d="M0 0h250v207H0z"/><rect x="69.5" y="181.5" width="11" height="11" rx="5.5" fill="#ffd9f1" stroke="#f21197"/><path d="M89.207 184.264l-2.432 7.236H85.07l3.188-8.531h1.09l-.141 1.295zm2.033 7.236l-2.443-7.236-.146-1.295h1.096l3.205 8.531H91.24zm-.111-3.17v1.272h-4.576v-1.272h4.576zm5.186 2.068c.219 0 .414-.043.586-.128a1.03 1.03 0 0 0 .41-.364 1.02 1.02 0 0 0 .17-.545h1.459c-.008.43-.129.815-.363 1.155s-.547.609-.937.808-.82.293-1.301.293c-.488 0-.914-.082-1.277-.246s-.666-.392-.908-.685-.418-.633-.539-1.02-.176-.801-.176-1.242v-.188c0-.441.059-.855.176-1.242a3.03 3.03 0 0 1 .539-1.019c.242-.293.545-.522.908-.686s.787-.246 1.271-.246c.512 0 .961.1 1.348.299s.695.48.914.844.338.791.346 1.283h-1.459c-.008-.227-.059-.43-.152-.61a1.12 1.12 0 0 0-.398-.433c-.172-.11-.381-.164-.627-.164-.262 0-.48.054-.656.164a1.13 1.13 0 0 0-.404.451 2.21 2.21 0 0 0-.199.633 4.8 4.8 0 0 0-.053.726v.188a4.96 4.96 0 0 0 .053.738 2.23 2.23 0 0 0 .199.633c.098.184.232.33.404.439s.398.164.668.164zm6.258 0c.219 0 .414-.043.586-.128s.309-.208.41-.364a1.02 1.02 0 0 0 .17-.545h1.459a2.06 2.06 0 0 1-.363 1.155c-.234.339-.547.609-.938.808-.386.196-.82.293-1.3.293-.489 0-.914-.082-1.278-.246s-.666-.392-.908-.685a3.04 3.04 0 0 1-.539-1.02c-.117-.387-.176-.801-.176-1.242v-.188c0-.441.059-.855.176-1.242s.301-.726.539-1.019.545-.522.908-.686.787-.246 1.272-.246c.512 0 .961.1 1.348.299a2.22 2.22 0 0 1 .914.844c.222.363.337.791.345 1.283h-1.459c-.008-.227-.058-.43-.152-.61s-.227-.324-.398-.433-.381-.164-.627-.164c-.262 0-.481.054-.657.164s-.306.26-.404.451-.16.398-.199.633-.053.472-.053.726v.188c0 .258.018.504.053.738s.105.445.199.633.232.33.404.439.399.164.668.164zm3.381-2.003v-.124a3.99 3.99 0 0 1 .199-1.283 2.99 2.99 0 0 1 .58-1.025c.254-.289.565-.514.932-.674s.785-.246 1.254-.246c.477 0 .898.082 1.266.246a2.6 2.6 0 0 1 .937.674c.254.289.447.631.58 1.025s.199.819.199 1.283v.124c0 .46-.066.888-.199 1.283s-.326.732-.58 1.025-.564.514-.932.674-.787.24-1.259.24-.889-.08-1.26-.24-.684-.385-.938-.674-.447-.635-.58-1.025-.199-.823-.199-1.283zm1.547-.124v.124c0 .277.027.537.082.779s.139.455.252.638.26.329.439.434.403.152.657.152.465-.05.644-.152a1.26 1.26 0 0 0 .44-.434c.117-.183.203-.396.257-.638a3.51 3.51 0 0 0 .083-.779v-.124c0-.273-.028-.529-.083-.767s-.14-.455-.257-.639-.262-.334-.446-.439-.396-.164-.65-.164-.465.054-.645.164-.326.252-.439.439-.197.397-.252.639-.082.494-.082.767zm7.072-1.816v5.045h-1.547v-6.34h1.465l.082 1.295zm1.928-1.336l-.023 1.442c-.086-.016-.184-.028-.293-.036l-.299-.011c-.239 0-.447.033-.627.099s-.33.155-.451.276a1.21 1.21 0 0 0-.27.445 1.9 1.9 0 0 0-.105.586l-.334-.041a4.82 4.82 0 0 1 .123-1.119c.082-.344.201-.645.357-.903a1.72 1.72 0 0 1 .586-.597c.238-.145.512-.217.82-.217.086 0 .178.008.276.023s.181.03.24.053zm4.535 5.033V182.5h1.559v9h-1.406l-.153-1.348zm-4.072-1.746v-.123c0-.484.055-.924.164-1.318s.277-.74.492-1.026.475-.505.779-.662.659-.234 1.049-.234c.379 0 .709.076.991.228s.527.37.726.651a3.46 3.46 0 0 1 .486 1.002c.121.383.209.805.264 1.265v.334c-.055.45-.143.862-.264 1.237s-.283.703-.486.984-.441.492-.726.645-.62.228-1.002.228a2.23 2.23 0 0 1-1.043-.24c-.305-.16-.565-.385-.78-.674s-.373-.629-.486-1.019-.164-.817-.164-1.278zm1.553-.123v.123c0 .274.023.53.07.768s.123.449.228.633.241.32.405.422.371.152.609.152c.305 0 .555-.067.75-.199s.354-.323.463-.557.18-.506.211-.803v-.92a2.63 2.63 0 0 0-.123-.65c-.063-.199-.152-.371-.27-.516-.113-.144-.254-.257-.421-.34s-.368-.123-.598-.123c-.238 0-.442.053-.61.159a1.17 1.17 0 0 0-.41.427c-.105.184-.183.397-.234.639s-.07.504-.07.785zm7.119-3.123v6.34h-1.553v-6.34h1.553zm-1.658-1.658c0-.231.078-.422.234-.574s.375-.229.644-.229.483.076.639.229.24.343.24.574a.75.75 0 0 1-.24.568c-.156.153-.369.229-.639.229s-.484-.076-.644-.229a.76.76 0 0 1-.234-.568zm2.859 4.893v-.124c0-.464.066-.892.199-1.283s.326-.736.58-1.025.565-.514.932-.674.785-.246 1.254-.246c.476 0 .898.082 1.265.246s.684.385.938.674.447.631.58 1.025.199.819.199 1.283v.124c0 .46-.066.888-.199 1.283s-.326.732-.58 1.025-.565.514-.932.674-.787.24-1.26.24-.888-.08-1.259-.24-.684-.385-.938-.674-.447-.635-.58-1.025-.199-.823-.199-1.283zm1.547-.124v.124c0 .277.027.537.082.779s.139.455.252.638.26.329.439.434.403.152.656.152.465-.05.645-.152a1.25 1.25 0 0 0 .439-.434 1.95 1.95 0 0 0 .258-.638c.055-.242.082-.502.082-.779v-.124c0-.273-.027-.529-.082-.767s-.14-.455-.258-.639c-.113-.187-.261-.334-.445-.439s-.396-.164-.65-.164-.465.054-.645.164-.326.252-.439.439-.197.397-.252.639-.082.494-.082.767zm7.043-1.757v4.986h-1.547v-6.34h1.453l.094 1.354zm-.246 1.588h-.457a4.19 4.19 0 0 1 .187-1.254 2.95 2.95 0 0 1 .51-.967 2.28 2.28 0 0 1 .791-.621 2.34 2.34 0 0 1 1.019-.217c.305 0 .581.043.827.129s.457.223.632.41c.18.188.317.434.411.738s.146.672.146 1.114v4.066h-1.558v-4.078c0-.289-.043-.518-.129-.686a.72.72 0 0 0-.364-.357c-.156-.07-.349-.106-.58-.106a1.29 1.29 0 0 0-.627.147c-.176.094-.324.225-.445.392s-.207.362-.27.581-.093.455-.093.709zm9.24-5.133h1.394l2.332 6.422 2.327-6.422h1.4l-3.17 8.531h-1.119l-3.164-8.531zm-.703 0h1.365l.246 5.9v2.631h-1.611v-8.531zm7.488 0h1.371v8.531h-1.611v-2.631l.24-5.9zm6.387 7.183v-2.923c0-.215-.037-.401-.112-.557s-.187-.277-.339-.363-.346-.129-.58-.129c-.207 0-.389.035-.545.105a.8.8 0 0 0-.352.299c-.082.125-.123.27-.123.434h-1.553c0-.262.063-.51.188-.745a1.99 1.99 0 0 1 .533-.632c.234-.188.514-.334.838-.44a3.6 3.6 0 0 1 1.101-.158c.481 0 .909.082 1.284.246s.675.402.89.727.328.732.328 1.224v2.766c0 .316.02.588.059.814s.105.416.187.58v.1h-1.576c-.074-.16-.131-.363-.17-.609s-.058-.496-.058-.739zm.217-2.513l.011.92h-.978c-.242 0-.455.025-.639.076a1.18 1.18 0 0 0-.451.211.86.86 0 0 0-.264.328c-.058.125-.088.267-.088.428s.036.296.106.421.18.225.316.299a1.08 1.08 0 0 0 .492.106c.274 0 .512-.055.715-.164.203-.114.362-.25.475-.41s.174-.313.182-.458l.445.668a2.62 2.62 0 0 1-.246.51 2.3 2.3 0 0 1-.422.504c-.172.156-.379.285-.621.387a2.18 2.18 0 0 1-.844.152 2.41 2.41 0 0 1-1.102-.246 1.95 1.95 0 0 1-.767-.674c-.188-.285-.281-.609-.281-.972a2.02 2.02 0 0 1 .187-.891 1.7 1.7 0 0 1 .557-.65c.246-.18.551-.315.914-.405s.787-.14 1.26-.14h1.043zm4.283-1.184v5.045h-1.547v-6.34h1.465l.082 1.295zm1.928-1.336l-.024 1.442c-.086-.016-.184-.028-.293-.036l-.299-.011c-.238 0-.447.033-.627.099s-.33.155-.451.276-.207.269-.269.445a1.9 1.9 0 0 0-.106.586l-.334-.041a4.82 4.82 0 0 1 .123-1.119c.082-.344.201-.645.358-.903a1.71 1.71 0 0 1 .586-.597c.238-.145.511-.217.82-.217a1.81 1.81 0 0 1 .275.023c.102.012.182.03.241.053zm4.763.041h1.406v6.147c0 .574-.125 1.06-.375 1.459s-.591.707-1.037.914-.963.316-1.552.316c-.254 0-.53-.035-.827-.105a3.37 3.37 0 0 1-.849-.334c-.27-.149-.494-.342-.674-.58l.697-.915a2.13 2.13 0 0 0 .715.557c.266.129.553.193.861.193.313 0 .579-.058.797-.175a1.16 1.16 0 0 0 .51-.504c.121-.219.182-.488.182-.809v-4.717l.146-1.447zm-4.283 3.246v-.123c0-.484.059-.924.176-1.318s.285-.74.504-1.026a2.34 2.34 0 0 1 .802-.662c.317-.156.672-.234 1.067-.234.418 0 .769.076 1.055.228s.527.37.714.651.34.615.446 1.002.193.805.252 1.265v.334c-.055.45-.143.862-.264 1.237a3.56 3.56 0 0 1-.469.984c-.195.277-.437.492-.726.645s-.629.228-1.02.228-.742-.08-1.055-.24-.58-.385-.802-.674-.387-.629-.504-1.019a4.44 4.44 0 0 1-.176-1.278zm1.547-.123v.123c0 .274.027.53.082.768s.139.449.252.633a1.27 1.27 0 0 0 .428.422 1.19 1.19 0 0 0 .615.152c.32 0 .582-.067.785-.199a1.29 1.29 0 0 0 .469-.557c.109-.238.179-.506.211-.803v-.92c-.02-.234-.063-.451-.129-.65a1.63 1.63 0 0 0-.264-.516c-.113-.144-.258-.257-.434-.34s-.384-.123-.626-.123a1.17 1.17 0 0 0-.616.159 1.23 1.23 0 0 0-.433.427c-.114.184-.199.397-.258.639a3.54 3.54 0 0 0-.082.785zm7.178-3.123v6.34h-1.553v-6.34h1.553zm-1.659-1.658c0-.231.079-.422.235-.574s.375-.229.644-.229.483.076.639.229.24.343.24.574a.75.75 0 0 1-.24.568c-.156.153-.369.229-.639.229s-.484-.076-.644-.229a.76.76 0 0 1-.235-.568zm4.653 3.012v4.986h-1.547v-6.34h1.453l.094 1.354zm-.246 1.588h-.457a4.19 4.19 0 0 1 .187-1.254 2.95 2.95 0 0 1 .51-.967 2.28 2.28 0 0 1 .791-.621 2.34 2.34 0 0 1 1.019-.217c.305 0 .581.043.827.129s.457.223.632.41.317.434.411.738.146.672.146 1.114v4.066h-1.559v-4.078c0-.289-.042-.518-.128-.686a.72.72 0 0 0-.364-.357c-.156-.07-.349-.106-.58-.106a1.29 1.29 0 0 0-.627.147c-.176.094-.324.225-.445.392s-.207.362-.27.581-.093.455-.093.709z" fill="#546069"/><rect x="19.5" y="14.5" width="211" height="155" rx="3.5" fill="#fff"/><rect x="19.5" y="14.5" width="211" height="155" rx="3.5" stroke="#bbc2c7"/><rect x="31.5" y="22.5" width="186" height="56" rx=".5" fill="#fff" stroke="#718491"/><mask id="A" fill="#fff"><path d="M31 23a1 1 0 0 1 1-1h185a1 1 0 0 1 1 1v16.231H31V23z"/></mask><path d="M31 23a1 1 0 0 1 1-1h185a1 1 0 0 1 1 1v16.231H31V23z" fill="#718491" stroke="#718491" stroke-width="2.462" mask="url(#A)"/><g fill="#fff"><path d="M46.167 28.992v1.688h-7.762v-1.688h7.762z"/><rect x="54.692" y="28.15" width="130.462" height="4.923" rx="1.231"/></g><g opacity=".8" fill="#8796a1"><rect x="38.016" y="46.308" width="173.538" height="3.692" rx="1.846"/><rect x="38.016" y="57.385" width="173.538" height="3.692" rx="1.846"/><rect x="38.016" y="68.461" width="104.615" height="3.692" rx="1.846"/></g><rect x="31.5" y="89.5" width="186" height="45" rx=".5" fill="#fff" stroke="#718491"/><mask id="B" fill="#fff"><path d="M31 90a1 1 0 0 1 1-1h185a1 1 0 0 1 1 1v16.231H31V90z"/></mask><path d="M31 90a1 1 0 0 1 1-1h185a1 1 0 0 1 1 1v16.231H31V90z" fill="#718491" stroke="#718491" stroke-width="2.462" mask="url(#B)"/><g fill="#fff"><path d="M46.167 95.992v1.688h-7.762v-1.688h7.762z"/><rect x="54.692" y="95.15" width="130.462" height="4.923" rx="1.231"/></g><g opacity=".8" fill="#8796a1"><rect x="38.016" y="113.308" width="173.538" height="3.692" rx="1.846"/><rect x="38.016" y="124.385" width="104.615" height="3.692" rx="1.846"/></g><rect x="31" y="145" width="187" height="17.231" rx="1" fill="#718491"/><g fill="#fff"><path d="M45.418 153.396v1.565h-7.197v-1.565h7.197zm-2.755-2.942v7.644h-1.68v-7.644h1.68z"/><rect x="54.385" y="151.154" width="130.462" height="4.923" rx="1.231"/></g><path d="M31.5 80.5h186v7h-186zm0 56h186v7h-186z" fill="#ffd9f1" stroke="#f21197"/><path d="M219 84l7.5 4.33v-3.58h11.75v53.5H226.5v-3.58L219 139l7.5 4.33v-3.58h11.75v47.5h-48.32a4 4 0 1 0 0 1.5H239a.75.75 0 0 0 .75-.75V84a.75.75 0 0 0-.75-.75h-12.5v-3.58L219 84z" fill="#f21197"/></svg>