<svg xmlns="http://www.w3.org/2000/svg" width="16" height="16" fill="#444d54" ><path d="M0 2a2 2 0 0 1 2-2h12a2 2 0 0 1 2 2v8a.67.67 0 0 1-.667.667.67.67 0 0 1-.667-.667V2a.67.67 0 0 0-.667-.667H2c-.368 0-.667.298-.667.667v12c0 .368.298.667.667.667h8c.368 0 .667.298.667.667S10.368 16 10 16H2a2 2 0 0 1-2-2V2zm4 1.667C4 3.298 4.298 3 4.667 3h6.667c.368 0 .667.298.667.667s-.299.667-.667.667H4.667c-.368 0-.667-.298-.667-.667zM4 6c0-.368.298-.667.667-.667h6.667c.368 0 .667.298.667.667s-.299.667-.667.667H4.667C4.298 6.667 4 6.368 4 6zm.667 1.667c-.368 0-.667.298-.667.667S4.298 9 4.667 9h2c.368 0 .667-.298.667-.667s-.298-.667-.667-.667h-2zm9.574 4.598l-3.09-3.106c-.035-.035-.077-.06-.125-.075l-1.93-.603c-.115-.036-.245-.003-.335.086a.34.34 0 0 0-.102.232c-.001.034.004.069.014.102l.594 1.933c.015.047.04.09.075.125l3.09 3.106 1.809-1.8zm-1.48 2.138l1.81-1.801.788.792c.396.398.312 1.124-.188 1.621s-1.226.578-1.622.179l-.788-.792z"/></svg>