<svg xmlns="http://www.w3.org/2000/svg" width="250" height="207" fill="none" ><path fill="#fff" d="M0 0h250v207H0z"/><rect x="63" y="174.5" width="11" height="11" rx="5.5" fill="#ffd9f1" stroke="#f21197"/><path d="M81.863 184.5h-1.84l.012-1.266h1.828c.496 0 .912-.109 1.248-.328s.59-.541.762-.955.258-.918.258-1.5v-.439c0-.45-.049-.846-.147-1.19s-.242-.633-.434-.867-.42-.412-.697-.533-.596-.182-.955-.182h-1.91v-1.271h1.91c.57 0 1.09.095 1.559.287a3.48 3.48 0 0 1 1.225.826 3.58 3.58 0 0 1 .797 1.277c.188.496.281 1.051.281 1.664v.428c0 .61-.094 1.164-.281 1.664s-.449.922-.797 1.278a3.52 3.52 0 0 1-1.23.82c-.477.191-1.006.287-1.588.287zm-.937-8.531v8.531h-1.611v-8.531h1.611zm8.936 8.648c-.48 0-.912-.078-1.295-.234a2.83 2.83 0 0 1-.978-.651c-.266-.281-.471-.607-.615-.978s-.211-.777-.211-1.207v-.235c0-.488.07-.931.211-1.33a3.05 3.05 0 0 1 .598-1.037 2.64 2.64 0 0 1 .926-.668c.359-.156.756-.234 1.189-.234.449 0 .846.076 1.189.228a2.31 2.31 0 0 1 .861.633c.231.274.404.602.522.985a4.25 4.25 0 0 1 .176 1.259v.651h-4.969v-1.067h3.445v-.117c-.008-.246-.055-.47-.141-.674s-.219-.371-.398-.492-.412-.187-.697-.187a1.16 1.16 0 0 0-.603.152 1.21 1.21 0 0 0-.422.422c-.109.18-.191.394-.246.644a3.91 3.91 0 0 0-.082.832v.235a2.48 2.48 0 0 0 .105.738c.074.227.182.424.322.592a1.58 1.58 0 0 0 .516.387 1.69 1.69 0 0 0 .691.134c.324 0 .617-.062.879-.187s.496-.318.691-.568l.779.808a2.6 2.6 0 0 1-.539.563 2.76 2.76 0 0 1-.809.439 3.36 3.36 0 0 1-1.096.164zm7.096-1.851c0-.133-.035-.252-.105-.358s-.203-.201-.398-.287-.473-.174-.844-.252c-.328-.07-.631-.158-.908-.264s-.516-.232-.715-.38a1.73 1.73 0 0 1-.469-.534c-.109-.207-.164-.445-.164-.714 0-.262.057-.508.17-.739s.277-.439.492-.615a2.36 2.36 0 0 1 .785-.422c.309-.105.656-.158 1.043-.158.539 0 1.002.088 1.389.264s.689.418.897.726.311.649.311 1.031h-1.547c0-.168-.039-.32-.117-.457a.81.81 0 0 0-.346-.328c-.156-.086-.353-.129-.592-.129a1.27 1.27 0 0 0-.545.106c-.145.07-.254.162-.328.275s-.111.239-.111.375c0 .102.02.194.059.276a.66.66 0 0 0 .205.216c.094.067.221.127.381.182s.365.108.604.158a5.89 5.89 0 0 1 1.236.375c.355.153.633.356.832.61s.299.578.299.972a1.66 1.66 0 0 1-.182.774c-.121.23-.297.431-.527.603a2.68 2.68 0 0 1-.826.405c-.32.093-.682.14-1.084.14-.582 0-1.074-.103-1.477-.31s-.707-.477-.914-.797-.311-.66-.311-1.008h1.483c.012.246.078.443.199.592a1.03 1.03 0 0 0 .457.322c.188.063.385.094.592.094.234 0 .432-.031.592-.094s.281-.154.363-.264a.64.64 0 0 0 .123-.386zm5.291.632c.219 0 .414-.043.586-.128s.309-.208.41-.364a1.02 1.02 0 0 0 .17-.545h1.459a2.06 2.06 0 0 1-.363 1.155c-.235.339-.547.609-.938.808s-.82.293-1.301.293c-.488 0-.914-.082-1.277-.246s-.666-.392-.908-.685-.418-.633-.539-1.02-.176-.801-.176-1.242v-.188c0-.441.059-.855.176-1.242a3.03 3.03 0 0 1 .539-1.019c.242-.293.545-.522.908-.686s.787-.246 1.272-.246c.511 0 .961.1 1.347.299.391.199.696.48.914.844s.338.791.346 1.283h-1.459a1.42 1.42 0 0 0-.152-.61 1.12 1.12 0 0 0-.399-.433c-.172-.11-.381-.164-.627-.164-.261 0-.48.054-.656.164s-.307.26-.404.451-.16.398-.199.633-.053.472-.053.726v.188c0 .258.017.504.053.738s.105.445.199.633a1.14 1.14 0 0 0 .404.439c.176.11.399.164.668.164zm5.203-3.943v5.045h-1.547v-6.34h1.465l.082 1.295zm1.928-1.336l-.024 1.442c-.085-.016-.183-.028-.293-.036l-.298-.011a1.81 1.81 0 0 0-.627.099c-.18.063-.33.155-.451.276a1.21 1.21 0 0 0-.27.445 1.9 1.9 0 0 0-.105.586l-.334-.041a4.82 4.82 0 0 1 .123-1.119c.082-.344.201-.645.357-.903a1.72 1.72 0 0 1 .586-.597c.238-.145.512-.217.82-.217.086 0 .178.008.276.023s.181.03.24.053zm2.49.041v6.34h-1.553v-6.34h1.553zm-1.658-1.658c0-.231.078-.422.234-.574s.375-.229.645-.229.482.076.639.229.24.343.24.574a.75.75 0 0 1-.24.568c-.157.153-.37.229-.639.229s-.485-.076-.645-.229a.76.76 0 0 1-.234-.568zm4.682 2.877v7.559h-1.553v-8.778h1.435l.118 1.219zm4.072 1.887v.123c0 .461-.055.888-.164 1.283s-.262.732-.469 1.025a2.23 2.23 0 0 1-.773.68c-.305.16-.657.24-1.055.24a2.21 2.21 0 0 1-1.02-.222 2.11 2.11 0 0 1-.732-.645c-.199-.277-.359-.6-.481-.967s-.205-.775-.263-1.213v-.392c.058-.465.146-.887.263-1.266a3.51 3.51 0 0 1 .481-.99c.199-.281.441-.498.727-.651s.626-.228 1.013-.228c.403 0 .756.076 1.061.228a2.15 2.15 0 0 1 .779.657c.211.285.369.625.475 1.019a5.13 5.13 0 0 1 .158 1.319zm-1.553.123v-.123c0-.282-.025-.541-.076-.78s-.129-.453-.234-.632c-.106-.184-.243-.327-.411-.428s-.371-.153-.609-.153-.443.039-.615.118a1.07 1.07 0 0 0-.422.334 1.69 1.69 0 0 0-.258.515c-.058.196-.098.412-.117.651v.972c.035.289.103.549.205.78s.25.414.445.55c.2.137.457.205.774.205.238 0 .441-.052.609-.158a1.21 1.21 0 0 0 .41-.433 2.13 2.13 0 0 0 .229-.645c.047-.242.07-.5.07-.773zm5.684-3.229v1.113h-3.633v-1.113h3.633zm-2.66-1.558h1.552v6.07a1 1 0 0 0 .076.433c.051.102.127.17.229.206s.223.052.363.052c.102 0 .196-.006.282-.017l.216-.035.006 1.16c-.129.043-.275.078-.439.105s-.342.041-.545.041c-.348 0-.653-.058-.914-.176s-.465-.314-.61-.58-.216-.625-.216-1.066v-6.193zm5.332 1.558v6.34h-1.553v-6.34h1.553zm-1.659-1.658c0-.231.079-.422.235-.574s.375-.229.644-.229.483.076.639.229.24.343.24.574a.75.75 0 0 1-.24.568c-.156.153-.369.229-.639.229s-.484-.076-.644-.229a.76.76 0 0 1-.235-.568zm2.86 4.893v-.124c0-.464.066-.892.199-1.283s.326-.736.58-1.025.564-.514.932-.674.785-.246 1.254-.246c.476 0 .898.082 1.265.246s.684.385.938.674.447.631.58 1.025.199.819.199 1.283v.124c0 .46-.066.888-.199 1.283s-.326.732-.58 1.025-.565.514-.932.674-.787.24-1.26.24c-.468 0-.888-.08-1.259-.24s-.684-.385-.938-.674-.447-.635-.58-1.025-.199-.823-.199-1.283zm1.547-.124v.124c0 .277.027.537.082.779s.138.455.252.638a1.25 1.25 0 0 0 .439.434 1.33 1.33 0 0 0 .656.152c.25 0 .465-.05.645-.152a1.25 1.25 0 0 0 .439-.434c.117-.183.203-.396.258-.638s.082-.502.082-.779v-.124c0-.273-.027-.529-.082-.767a2.01 2.01 0 0 0-.258-.639c-.113-.187-.261-.334-.445-.439s-.396-.164-.65-.164-.465.054-.645.164a1.24 1.24 0 0 0-.439.439c-.114.184-.198.397-.252.639s-.082.494-.082.767zm7.043-1.757v4.986h-1.547v-6.34h1.453l.094 1.354zm-.247 1.588h-.457a4.19 4.19 0 0 1 .188-1.254 2.95 2.95 0 0 1 .51-.967 2.27 2.27 0 0 1 .791-.621c.304-.145.644-.217 1.019-.217a2.49 2.49 0 0 1 .826.129 1.56 1.56 0 0 1 .633.41c.18.188.317.434.41.738.098.301.147.672.147 1.114v4.066h-1.559v-4.078c0-.289-.043-.518-.129-.686s-.203-.287-.363-.357-.349-.106-.58-.106a1.29 1.29 0 0 0-.627.147c-.176.094-.324.225-.445.392s-.207.362-.27.581-.094.455-.094.709zm11.819.287h-2.197v-1.266h2.197c.359 0 .65-.059.873-.176a1.15 1.15 0 0 0 .498-.492c.105-.211.158-.451.158-.721 0-.261-.053-.505-.158-.732a1.28 1.28 0 0 0-.498-.551c-.223-.14-.514-.211-.873-.211h-1.67v7.26h-1.611v-8.531h3.281c.664 0 1.23.119 1.699.357s.832.561 1.078.979.375.886.375 1.418c0 .55-.125 1.025-.375 1.423s-.605.706-1.078.92-1.035.323-1.699.323zm7.723 1.763v-2.923a1.29 1.29 0 0 0-.112-.557.8.8 0 0 0-.34-.363c-.152-.086-.345-.129-.58-.129-.207 0-.388.035-.545.105a.8.8 0 0 0-.351.299c-.082.125-.123.27-.123.434h-1.553a1.55 1.55 0 0 1 .188-.745c.124-.238.302-.449.533-.632s.513-.334.838-.44a3.6 3.6 0 0 1 1.101-.158c.481 0 .908.082 1.283.246s.676.402.891.727.328.732.328 1.224v2.766c0 .316.02.588.059.814s.105.416.187.58v.1h-1.576c-.074-.16-.131-.363-.17-.609s-.058-.496-.058-.739zm.216-2.513l.012.92h-.978c-.243 0-.456.025-.639.076s-.334.117-.451.211a.85.85 0 0 0-.264.328.99.99 0 0 0-.088.428c0 .156.035.296.106.421a.8.8 0 0 0 .316.299 1.08 1.08 0 0 0 .492.106c.274 0 .512-.055.715-.164.203-.114.361-.25.475-.41s.173-.313.181-.458l.446.668a2.57 2.57 0 0 1-.247.51c-.109.18-.25.348-.421.504s-.379.285-.621.387-.524.152-.844.152c-.41 0-.778-.082-1.102-.246a1.95 1.95 0 0 1-.767-.674c-.188-.285-.282-.609-.282-.972a2.02 2.02 0 0 1 .188-.891c.125-.258.31-.475.557-.65s.55-.315.914-.405.787-.14 1.259-.14h1.043zm6.539 2.513V175.5h1.559v9h-1.406l-.153-1.348zm-4.072-1.746v-.123c0-.484.055-.924.164-1.318s.278-.74.492-1.026.475-.505.78-.662.658-.234 1.048-.234c.379 0 .709.076.991.228s.527.37.726.651.366.615.487 1.002.209.805.263 1.265v.334c-.054.45-.142.862-.263 1.237s-.284.703-.487.984-.441.492-.726.645-.619.228-1.002.228a2.23 2.23 0 0 1-1.043-.24 2.28 2.28 0 0 1-.779-.674c-.211-.289-.374-.629-.487-1.019s-.164-.817-.164-1.278zm1.553-.123v.123c0 .274.023.53.07.768s.123.449.229.633.24.32.404.422.371.152.609.152c.305 0 .555-.067.75-.199a1.35 1.35 0 0 0 .463-.557c.11-.238.18-.506.211-.803v-.92a2.54 2.54 0 0 0-.123-.65c-.062-.199-.152-.371-.269-.516a1.22 1.22 0 0 0-.422-.34 1.35 1.35 0 0 0-.598-.123c-.238 0-.441.053-.609.159a1.16 1.16 0 0 0-.41.427c-.106.184-.184.397-.235.639s-.07.504-.07.785zm9.281 1.869V175.5h1.559v9h-1.407l-.152-1.348zm-4.072-1.746v-.123c0-.484.055-.924.164-1.318s.277-.74.492-1.026.475-.505.779-.662.659-.234 1.049-.234a2.05 2.05 0 0 1 .99.228c.286.153.528.37.727.651a3.46 3.46 0 0 1 .486 1.002c.121.383.209.805.264 1.265v.334c-.055.45-.143.862-.264 1.237s-.283.703-.486.984a2.12 2.12 0 0 1-.727.645c-.285.152-.619.228-1.002.228s-.734-.08-1.042-.24-.565-.385-.78-.674-.373-.629-.486-1.019-.164-.817-.164-1.278zm1.553-.123v.123c0 .274.023.53.07.768s.123.449.228.633.241.32.405.422.371.152.609.152c.305 0 .555-.067.75-.199s.354-.323.463-.557.18-.506.211-.803v-.92a2.63 2.63 0 0 0-.123-.65c-.063-.199-.153-.371-.27-.516a1.21 1.21 0 0 0-.422-.34c-.168-.082-.367-.123-.597-.123-.238 0-.442.053-.61.159a1.17 1.17 0 0 0-.41.427c-.105.184-.183.397-.234.639s-.07.504-.07.785zm7.119-3.123v6.34h-1.553v-6.34h1.553zm-1.659-1.658c0-.231.079-.422.235-.574s.375-.229.644-.229.483.076.639.229.24.343.24.574a.75.75 0 0 1-.24.568c-.156.153-.369.229-.639.229s-.484-.076-.644-.229a.76.76 0 0 1-.235-.568zm4.653 3.012v4.986h-1.547v-6.34h1.453l.094 1.354zm-.246 1.588h-.457a4.19 4.19 0 0 1 .187-1.254 2.95 2.95 0 0 1 .51-.967 2.28 2.28 0 0 1 .791-.621c.305-.145.645-.217 1.02-.217.304 0 .58.043.826.129s.457.223.633.41.316.434.41.738.146.672.146 1.114v4.066h-1.558v-4.078c0-.289-.043-.518-.129-.686s-.203-.287-.364-.357-.349-.106-.58-.106a1.29 1.29 0 0 0-.627.147c-.175.094-.324.225-.445.392s-.207.362-.27.581-.093.455-.093.709zm9.463-2.942h1.406v6.147c0 .574-.125 1.06-.375 1.459s-.592.707-1.037.914-.963.316-1.553.316c-.254 0-.529-.035-.826-.105a3.39 3.39 0 0 1-.85-.334c-.269-.149-.494-.342-.674-.58l.698-.915a2.13 2.13 0 0 0 .715.557 1.94 1.94 0 0 0 .861.193c.312 0 .578-.058.797-.175a1.17 1.17 0 0 0 .51-.504c.121-.219.181-.488.181-.809v-4.717l.147-1.447zm-4.284 3.246v-.123c0-.484.059-.924.176-1.318s.285-.74.504-1.026.49-.505.803-.662.672-.234 1.066-.234c.418 0 .77.076 1.055.228s.527.37.715.651.34.615.445 1.002.193.805.252 1.265v.334c-.055.45-.143.862-.264 1.237s-.273.703-.468.984-.438.492-.727.645-.629.228-1.019.228a2.28 2.28 0 0 1-1.055-.24c-.313-.16-.58-.385-.803-.674s-.387-.629-.504-1.019a4.44 4.44 0 0 1-.176-1.278zm1.547-.123v.123c0 .274.028.53.082.768s.139.449.252.633.256.32.428.422.377.152.615.152c.321 0 .582-.067.785-.199s.364-.323.469-.557c.11-.238.18-.506.211-.803v-.92c-.019-.234-.062-.451-.129-.65a1.61 1.61 0 0 0-.263-.516 1.19 1.19 0 0 0-.434-.34c-.176-.082-.385-.123-.627-.123-.234 0-.439.053-.615.159s-.321.244-.434.427-.199.397-.258.639c-.054.242-.082.504-.082.785z" fill="#546069"/><rect x="19.5" y="26.5" width="211" height="136" rx="3.5" fill="#fff"/><rect x="19.5" y="26.5" width="211" height="136" rx="3.5" stroke="#bbc2c7"/><rect x="31.81" y="39" width="186" height="87" rx=".5" fill="#fff" stroke="#718491"/><mask id="A" fill="#fff"><path d="M31.618 39.808a1 1 0 0 1 1-1h185.077a1 1 0 0 1 1 1v16.231H31.618V39.808z"/></mask><path d="M31.618 39.808a1 1 0 0 1 1-1h185.077a1 1 0 0 1 1 1v16.231H31.618V39.808z" fill="#718491" stroke="#718491" stroke-width="2.462" mask="url(#A)"/><g fill="#fff"><path d="M46.477 46.261v1.688h-7.762v-1.688h7.762z"/><rect x="55.002" y="44.961" width="130.462" height="4.923" rx="1.231"/></g><rect x="31.618" y="132.962" width="187.077" height="17.231" rx="1" fill="#718491"/><g fill="#fff"><path d="M46.035 141.357v1.565h-7.197v-1.565h7.197zm-2.755-2.942v7.644H41.6v-7.644h1.68z"/><rect x="55.002" y="139.115" width="130.462" height="4.923" rx="1.231"/></g><g opacity=".8" fill="#8796a1"><path d="M42.81 68.654c0-1.02.827-1.846 1.846-1.846h160.308c1.02 0 1.846.827 1.846 1.846s-.826 1.846-1.846 1.846H44.656c-1.02 0-1.846-.826-1.846-1.846zm0 11.077c0-1.02.827-1.846 1.846-1.846h160.308c1.02 0 1.846.827 1.846 1.846s-.826 1.846-1.846 1.846H44.656c-1.02 0-1.846-.827-1.846-1.846zm1.846 9.23c-1.02 0-1.846.827-1.846 1.846s.827 1.846 1.846 1.846h160.308c1.02 0 1.846-.826 1.846-1.846s-.826-1.846-1.846-1.846H44.656zm-1.846 12.923c0-1.019.827-1.846 1.846-1.846h160.308c1.02 0 1.846.827 1.846 1.846s-.826 1.847-1.846 1.847H44.656c-1.02 0-1.846-.827-1.846-1.847zm1.846 9.231c-1.02 0-1.846.827-1.846 1.846a1.85 1.85 0 0 0 1.846 1.847h100.923c1.02 0 1.846-.827 1.846-1.847s-.826-1.846-1.846-1.846H44.656z"/></g><path d="M43.81 58h163v7h-163zm0 59h163v7h-163zm165-59h7v66h-7zm-175 0h7v66h-7z" fill="#ffd9f1" stroke="#f21197"/><path d="M192 181a4 4 0 1 0 8 0 4 4 0 1 0-8 0zm46 0v.75a.75.75 0 0 0 .75-.75H238zm0-96h.75a.75.75 0 0 0-.75-.75V85zm-22 0l7.5 4.33v-8.66L216 85zm-20 96.75h42v-1.5h-42v1.5zm42.75-.75V85h-1.5v96h1.5zM238 84.25h-15.25v1.5H238v-1.5z" fill="#f21197"/></svg>