<svg xmlns="http://www.w3.org/2000/svg" xmlns:xlink="http://www.w3.org/1999/xlink" width="250" height="207" fill="none" ><path fill="#fff" d="M0 0h250v207H0z"/><rect x="44" y="174.5" width="11" height="11" rx="5.5" fill="#ffd9f1" stroke="#f21197"/><path d="M65.969 183.234v1.266h-4.535v-1.266h4.535zm-4.043-7.265v8.531h-1.611v-8.531h1.611zm3.451 3.521v1.237h-3.943v-1.237h3.943zm.574-3.521v1.271h-4.518v-1.271h4.518zm2.232 2.191l1.131 2.016 1.148-2.016h1.682l-1.863 3.106 1.939 3.234h-1.682l-1.213-2.115-1.219 2.115h-1.682l1.934-3.234-1.852-3.106h1.676zm6.404 1.219v7.559h-1.553v-8.778h1.435l.117 1.219zm4.072 1.887v.123a4.79 4.79 0 0 1-.164 1.283c-.105.39-.262.732-.469 1.025s-.465.516-.773.68-.656.24-1.055.24c-.391 0-.73-.074-1.02-.222a2.11 2.11 0 0 1-.732-.645c-.199-.277-.359-.6-.48-.967a7.19 7.19 0 0 1-.264-1.213v-.392c.059-.465.146-.887.264-1.266s.281-.713.48-.99.441-.498.727-.651.627-.228 1.014-.228c.402 0 .756.076 1.061.228s.568.372.779.657.369.625.475 1.019a5.11 5.11 0 0 1 .158 1.319zm-1.553.123v-.123c0-.282-.025-.541-.076-.78a2.08 2.08 0 0 0-.234-.632 1.16 1.16 0 0 0-.41-.428c-.168-.102-.371-.153-.609-.153s-.443.039-.615.118-.312.189-.422.334-.195.316-.258.515-.098.412-.117.651v.972a2.76 2.76 0 0 0 .205.78 1.29 1.29 0 0 0 .445.55c.199.137.457.205.773.205.238 0 .441-.052.609-.158s.305-.25.41-.433a2.14 2.14 0 0 0 .228-.645c.047-.242.07-.5.07-.773zm6.176 1.763v-2.923c0-.215-.037-.401-.111-.557s-.187-.277-.34-.363-.346-.129-.58-.129c-.207 0-.389.035-.545.105a.8.8 0 0 0-.351.299c-.082.125-.123.27-.123.434H79.68c0-.262.063-.51.188-.745s.303-.449.533-.632a2.63 2.63 0 0 1 .838-.44c.328-.105.695-.158 1.102-.158.481 0 .908.082 1.283.246s.676.402.891.727.328.732.328 1.224v2.766a4.86 4.86 0 0 0 .059.814c.043.223.105.416.188.58v.1h-1.576c-.074-.16-.131-.363-.17-.609s-.059-.496-.059-.739zm.217-2.513l.012.92h-.979c-.242 0-.455.025-.639.076s-.334.117-.451.211-.205.199-.264.328-.088.267-.088.428.035.296.105.421.18.225.316.299.305.106.492.106a1.49 1.49 0 0 0 .715-.164c.203-.114.361-.25.475-.41a.89.89 0 0 0 .182-.458l.445.668c-.055.161-.137.331-.246.51s-.25.348-.422.504-.379.285-.621.387-.523.152-.844.152c-.41 0-.777-.082-1.102-.246s-.58-.389-.768-.674-.281-.609-.281-.972a2.02 2.02 0 0 1 .188-.891 1.7 1.7 0 0 1 .557-.65c.246-.18.551-.315.914-.405s.787-.14 1.26-.14H83.5zm4.254-1.125v4.986h-1.547v-6.34h1.453l.094 1.354zm-.246 1.588h-.457c.004-.461.066-.879.188-1.254s.291-.698.51-.967a2.28 2.28 0 0 1 .791-.621c.305-.145.644-.217 1.019-.217.305 0 .58.043.826.129s.457.223.633.41.316.434.41.738.147.672.147 1.114v4.066h-1.559v-4.078c0-.289-.043-.518-.129-.686s-.203-.287-.363-.357-.35-.106-.58-.106a1.29 1.29 0 0 0-.627.147c-.176.094-.324.225-.445.392s-.207.362-.269.581-.094.455-.094.709zm9.234 2.05V175.5h1.559v9h-1.406l-.152-1.348zm-4.072-1.746v-.123c0-.484.055-.924.164-1.318s.277-.74.492-1.026.475-.505.779-.662.658-.234 1.049-.234c.379 0 .709.076.99.228s.527.37.727.651.365.615.486 1.002.209.805.264 1.265v.334c-.055.45-.143.862-.264 1.237s-.283.703-.486.984-.441.492-.727.645-.619.228-1.002.228-.734-.08-1.043-.24-.564-.385-.779-.674a3.25 3.25 0 0 1-.486-1.019 4.73 4.73 0 0 1-.164-1.278zm1.553-.123v.123a3.97 3.97 0 0 0 .07.768c.047.238.123.449.228.633a1.21 1.21 0 0 0 .404.422c.168.101.371.152.609.152.305 0 .555-.067.75-.199s.353-.323.463-.557.18-.506.211-.803v-.92c-.016-.234-.057-.451-.123-.65a1.55 1.55 0 0 0-.269-.516 1.21 1.21 0 0 0-.422-.34c-.168-.082-.367-.123-.598-.123-.238 0-.441.053-.609.159s-.305.244-.41.427-.183.397-.234.639a4.13 4.13 0 0 0-.07.785zm9.146-5.314l-3.223 9.263h-1.177l3.222-9.263h1.178zm6.012 5.724h1.611a3.31 3.31 0 0 1-.474 1.518 2.85 2.85 0 0 1-1.143 1.031c-.488.25-1.08.375-1.775.375-.536 0-1.018-.094-1.448-.281a3.12 3.12 0 0 1-1.095-.815c-.301-.355-.532-.781-.692-1.277s-.24-1.06-.24-1.682v-.65c0-.621.082-1.182.246-1.682s.399-.925.703-1.277.678-.629 1.108-.82.918-.287 1.453-.287c.695 0 1.283.129 1.763.386s.854.604 1.12 1.049.425.957.48 1.535h-1.611c-.032-.359-.11-.664-.235-.914a1.23 1.23 0 0 0-.55-.568c-.243-.133-.565-.199-.967-.199-.313 0-.588.058-.826.176s-.43.293-.586.527-.274.519-.352.867a5.44 5.44 0 0 0-.117 1.195v.662c0 .434.035.823.105 1.167s.18.634.329.873.339.419.574.544.513.188.838.188c.394 0 .714-.063.961-.188a1.27 1.27 0 0 0 .568-.55c.133-.242.217-.543.252-.903zm2.467-.298v-.124c0-.464.066-.892.199-1.283s.326-.736.58-1.025.564-.514.932-.674.785-.246 1.253-.246c.477 0 .899.082 1.266.246s.684.385.938.674.447.631.58 1.025.199.819.199 1.283v.124c0 .46-.066.888-.199 1.283s-.326.732-.58 1.025-.565.514-.932.674-.787.24-1.26.24-.888-.08-1.26-.24a2.6 2.6 0 0 1-.937-.674c-.254-.293-.447-.635-.58-1.025s-.199-.823-.199-1.283zm1.547-.124v.124c0 .277.027.537.082.779s.138.455.252.638a1.25 1.25 0 0 0 .439.434 1.33 1.33 0 0 0 .656.152c.25 0 .465-.05.645-.152s.326-.25.439-.434.203-.396.258-.638.082-.502.082-.779v-.124c0-.273-.027-.529-.082-.767a2.01 2.01 0 0 0-.258-.639 1.23 1.23 0 0 0-.445-.439c-.18-.11-.397-.164-.651-.164s-.464.054-.644.164a1.24 1.24 0 0 0-.439.439c-.114.184-.198.397-.252.639s-.082.494-.082.767zm7.166-5.771v9h-1.553v-9h1.553zm3.117 0v9h-1.553v-9h1.553zm4.968 7.652v-2.923a1.29 1.29 0 0 0-.111-.557.8.8 0 0 0-.34-.363c-.152-.086-.345-.129-.58-.129-.207 0-.388.035-.545.105a.8.8 0 0 0-.351.299c-.082.125-.123.27-.123.434h-1.553c0-.262.062-.51.187-.745a1.98 1.98 0 0 1 .534-.632c.234-.188.513-.334.838-.44a3.6 3.6 0 0 1 1.101-.158c.481 0 .908.082 1.283.246s.676.402.891.727.328.732.328 1.224v2.766c0 .316.02.588.059.814s.105.416.187.58v.1h-1.576c-.074-.16-.131-.363-.17-.609s-.059-.496-.059-.739zm.217-2.513l.012.92h-.979a2.39 2.39 0 0 0-.638.076c-.184.047-.334.117-.451.211a.85.85 0 0 0-.264.328.99.99 0 0 0-.088.428c0 .156.035.296.106.421a.8.8 0 0 0 .316.299 1.08 1.08 0 0 0 .492.106c.274 0 .512-.055.715-.164.203-.114.361-.25.475-.41s.173-.313.181-.458l.446.668a2.57 2.57 0 0 1-.247.51c-.109.18-.25.348-.421.504a2.16 2.16 0 0 1-.622.387c-.242.101-.523.152-.843.152-.41 0-.778-.082-1.102-.246a1.95 1.95 0 0 1-.767-.674c-.188-.285-.282-.609-.282-.972a2.02 2.02 0 0 1 .188-.891 1.7 1.7 0 0 1 .556-.65c.247-.18.551-.315.915-.405s.787-.14 1.259-.14h1.043zm4.283-1.26v7.559h-1.552v-8.778h1.435l.117 1.219zm4.073 1.887v.123c0 .461-.055.888-.164 1.283s-.262.732-.469 1.025-.465.516-.774.68-.656.24-1.054.24a2.21 2.21 0 0 1-1.02-.222 2.11 2.11 0 0 1-.732-.645c-.199-.277-.36-.6-.481-.967s-.205-.775-.263-1.213v-.392c.058-.465.146-.887.263-1.266s.282-.713.481-.99.441-.498.726-.651.627-.228 1.014-.228a2.35 2.35 0 0 1 1.061.228 2.15 2.15 0 0 1 .779.657c.211.285.369.625.475 1.019a5.13 5.13 0 0 1 .158 1.319zm-1.553.123v-.123c0-.282-.025-.541-.076-.78a2.07 2.07 0 0 0-.235-.632c-.105-.184-.242-.327-.41-.428s-.371-.153-.609-.153-.443.039-.615.118a1.07 1.07 0 0 0-.422.334 1.67 1.67 0 0 0-.258.515 3.11 3.11 0 0 0-.117.651v.972c.035.289.103.549.205.78s.25.414.445.55.457.205.774.205c.238 0 .441-.052.609-.158a1.21 1.21 0 0 0 .41-.433 2.13 2.13 0 0 0 .229-.645c.047-.242.07-.5.07-.773zm6.17 1.377c0-.133-.035-.252-.106-.358s-.203-.201-.398-.287-.473-.174-.844-.252a6.11 6.11 0 0 1-.908-.264 2.94 2.94 0 0 1-.715-.38c-.199-.153-.355-.33-.469-.534a1.51 1.51 0 0 1-.164-.714 1.66 1.66 0 0 1 .17-.739 1.82 1.82 0 0 1 .493-.615c.214-.18.476-.32.785-.422s.656-.158 1.043-.158c.539 0 1.002.088 1.388.264.391.175.69.418.897.726s.31.649.31 1.031h-1.547c0-.168-.039-.32-.117-.457s-.189-.246-.345-.328-.354-.129-.592-.129a1.27 1.27 0 0 0-.545.106.79.79 0 0 0-.328.275c-.074.114-.112.239-.112.375 0 .102.02.194.059.276a.66.66 0 0 0 .205.216c.094.067.221.127.381.182s.365.108.603.158c.473.094.885.219 1.237.375s.633.356.832.61.299.578.299.972c0 .282-.061.539-.182.774a1.8 1.8 0 0 1-.527.603 2.68 2.68 0 0 1-.827.405 3.88 3.88 0 0 1-1.083.14c-.583 0-1.075-.103-1.477-.31s-.707-.477-.914-.797-.311-.66-.311-1.008h1.483c.011.246.078.443.199.592s.273.256.457.322a1.85 1.85 0 0 0 .592.094 1.63 1.63 0 0 0 .592-.094c.16-.066.281-.154.363-.264a.64.64 0 0 0 .123-.386zm5.537 1.851c-.48 0-.912-.078-1.295-.234s-.709-.373-.978-.651a2.99 2.99 0 0 1-.616-.978c-.14-.375-.211-.777-.211-1.207v-.235c0-.488.071-.931.211-1.33s.34-.748.598-1.037.566-.511.926-.668.756-.234 1.189-.234c.449 0 .846.076 1.19.228s.631.36.861.633.404.602.522.985.175.799.175 1.259v.651h-4.968v-1.067h3.445v-.117c-.008-.246-.055-.47-.141-.674a1.08 1.08 0 0 0-.398-.492c-.18-.125-.412-.187-.697-.187a1.16 1.16 0 0 0-.604.152 1.21 1.21 0 0 0-.422.422 2.11 2.11 0 0 0-.246.644c-.055.25-.082.528-.082.832v.235c0 .265.035.512.106.738s.181.424.322.592a1.57 1.57 0 0 0 .515.387c.204.09.434.134.692.134.324 0 .617-.062.879-.187a1.96 1.96 0 0 0 .691-.568l.779.808a2.57 2.57 0 0 1-.539.563c-.222.179-.492.326-.808.439s-.682.164-1.096.164zm10.107-7.353l-2.431 7.236h-1.705l3.187-8.531h1.09l-.141 1.295zm2.034 7.236l-2.444-7.236-.146-1.295h1.096l3.205 8.531h-1.711zm-.112-3.17v1.272h-4.576v-1.272h4.576zm4.225-5.83v9h-1.553v-9h1.553zm3.117 0v9h-1.553v-9h1.553zm7.852 5.197h-2.18l-.012-1.136h1.869c.321 0 .588-.045.803-.135s.377-.221.486-.393.17-.381.17-.627c0-.273-.052-.496-.158-.668s-.262-.297-.48-.375-.496-.123-.832-.123h-1.324v7.26h-1.612v-8.531h2.936c.484 0 .916.047 1.295.14s.707.231.972.422a1.86 1.86 0 0 1 .604.721c.14.289.211.633.211 1.031a1.98 1.98 0 0 1-.246.973c-.16.293-.409.531-.744.715s-.754.289-1.266.316l-.492.41zm-.071 3.803h-2.584l.674-1.266h1.91c.321 0 .584-.052.791-.158s.368-.25.469-.433a1.29 1.29 0 0 0 .158-.645 1.59 1.59 0 0 0-.14-.691c-.09-.196-.235-.346-.434-.452s-.453-.158-.773-.158h-1.676l.012-1.136h2.132l.37.439c.492.004.892.102 1.201.293s.543.437.691.738a2.16 2.16 0 0 1 .223.973c0 .547-.119 1.006-.358 1.377s-.578.65-1.031.838-.994.281-1.635.281zm8.075-1.506v-4.834h1.558v6.34h-1.465l-.093-1.506zm.199-1.312l.48-.012c0 .426-.047.818-.14 1.178a2.67 2.67 0 0 1-.44.937c-.195.262-.443.467-.744.615s-.656.217-1.066.217c-.313 0-.598-.043-.856-.129a1.74 1.74 0 0 1-.668-.416c-.183-.191-.326-.435-.427-.732s-.153-.662-.153-1.084v-4.096h1.547v4.108c0 .211.023.386.07.527a.97.97 0 0 0 .205.346.82.82 0 0 0 .311.187c.121.035.25.053.387.053.375 0 .67-.074.884-.223a1.25 1.25 0 0 0 .469-.609 2.52 2.52 0 0 0 .141-.867zm5.73-3.522v1.113h-3.633v-1.113h3.633zm-2.66-1.558h1.553v6.07c0 .187.025.332.076.433s.127.17.229.206.222.052.363.052a2.22 2.22 0 0 0 .281-.017l.217-.035.006 1.16c-.129.043-.276.078-.44.105s-.342.041-.545.041c-.347 0-.652-.058-.914-.176s-.465-.314-.609-.58-.217-.625-.217-1.066v-6.193zm6.692 1.558v1.113h-3.633v-1.113h3.633zm-2.661-1.558h1.553v6.07a1 1 0 0 0 .076.433c.051.102.127.17.229.206s.222.052.363.052a2.21 2.21 0 0 0 .281-.017l.217-.035.006 1.16c-.129.043-.275.078-.439.105a3.2 3.2 0 0 1-.545.041c-.348 0-.653-.058-.914-.176s-.465-.314-.61-.58-.217-.625-.217-1.066v-6.193zm3.264 4.793v-.124c0-.464.066-.892.199-1.283s.326-.736.58-1.025.565-.514.932-.674.785-.246 1.254-.246c.476 0 .898.082 1.266.246a2.6 2.6 0 0 1 .937.674c.254.289.447.631.58 1.025s.199.819.199 1.283v.124c0 .46-.066.888-.199 1.283s-.326.732-.58 1.025-.564.514-.932.674-.787.24-1.259.24-.889-.08-1.26-.24-.684-.385-.938-.674-.447-.635-.58-1.025-.199-.823-.199-1.283zm1.547-.124v.124c0 .277.027.537.082.779s.139.455.252.638.26.329.439.434.403.152.657.152.464-.05.644-.152a1.26 1.26 0 0 0 .44-.434c.117-.183.203-.396.257-.638s.082-.502.082-.779v-.124c0-.273-.027-.529-.082-.767s-.14-.455-.257-.639-.262-.334-.446-.439-.396-.164-.65-.164-.465.054-.645.164-.326.252-.439.439-.197.397-.252.639-.082.494-.082.767zm7.043-1.757v4.986h-1.547v-6.34h1.453l.094 1.354zm-.246 1.588h-.457a4.19 4.19 0 0 1 .187-1.254 2.95 2.95 0 0 1 .51-.967 2.28 2.28 0 0 1 .791-.621c.305-.145.645-.217 1.02-.217.304 0 .58.043.826.129s.457.223.633.41.316.434.41.738.146.672.146 1.114v4.066h-1.558v-4.078c0-.289-.043-.518-.129-.686s-.203-.287-.364-.357-.349-.106-.58-.106a1.29 1.29 0 0 0-.627.147c-.175.094-.324.225-.445.392s-.207.362-.269.581a2.55 2.55 0 0 0-.094.709z" fill="#546069"/><rect x="19.5" y="16.5" width="211" height="147" rx="3.5" fill="#fff"/><rect x="19.5" y="16.5" width="211" height="147" rx="3.5" stroke="#bbc2c7"/><rect x="31.308" y="50.308" width="187.077" height="17.231" rx="1" fill="#718491"/><g fill="#fff"><use xlink:href="#B"/><rect x="54.692" y="56.461" width="130.462" height="4.923" rx="1.231"/></g><rect x="31.308" y="72.538" width="187.077" height="17.231" rx="1" fill="#718491"/><g fill="#fff"><use xlink:href="#B" y="22.231"/><rect x="54.692" y="78.692" width="130.462" height="4.923" rx="1.231"/></g><rect x="31.308" y="94.769" width="187.077" height="17.231" rx="1" fill="#718491"/><g fill="#fff"><use xlink:href="#B" y="44.462"/><rect x="54.692" y="100.923" width="130.462" height="4.923" rx="1.231"/></g><rect x="31.308" y="117" width="187.077" height="17.231" rx="1" fill="#718491"/><g fill="#fff"><use xlink:href="#B" y="66.693"/><rect x="54.692" y="123.154" width="130.462" height="4.923" rx="1.231"/></g><rect x="31.308" y="139.231" width="187.077" height="17.231" rx="1" fill="#718491"/><g fill="#fff"><path d="M45.725 147.627v1.564h-7.197v-1.564h7.197zm-2.755-2.943v7.644h-1.68v-7.644h1.68z"/><rect x="54.692" y="145.384" width="130.462" height="4.923" rx="1.231"/></g><path d="M207 181a4 4 0 1 0 8 0 4 4 0 1 0-8 0zm31 0v.75a.75.75 0 0 0 .75-.75H238zm0-146h.75a.75.75 0 0 0-.75-.75V35zm-15 0l7.5 4.33v-8.66L223 35zm-12 146.75h27v-1.5h-27v1.5zm27.75-.75V35h-1.5v146h1.5zM238 34.25h-8.25v1.5H238v-1.5z" fill="#f21197"/><mask id="A" fill="#fff"><path d="M173 28a1 1 0 0 1 1-1h44a1 1 0 0 1 1 1v12a1 1 0 0 1-1 1h-44a1 1 0 0 1-1-1V28z"/></mask><path d="M173 28a1 1 0 0 1 1-1h44a1 1 0 0 1 1 1v12a1 1 0 0 1-1 1h-44a1 1 0 0 1-1-1V28z" fill="#ff5b2e" stroke="#ff5b2e" stroke-width="2.462" mask="url(#A)"/><path d="M181.301 36.223V37h-3.02v-.777h3.02zm-2.742-4.91V37h-.981v-5.687h.981zm2.347 2.375v.766h-2.625v-.766h2.625zm.375-2.375v.781h-3v-.781h3zm1.446 1.461l.804 1.402.821-1.402h1.035l-1.282 2.074L185.438 37h-1.036l-.859-1.461-.859 1.461h-1.039l1.328-2.152-1.278-2.074h1.032zm4.25.813v5.039h-.942v-5.852h.867l.075.813zm2.753 1.262v.082a3.19 3.19 0 0 1-.109.856c-.07.26-.176.488-.316.684a1.46 1.46 0 0 1-.512.449 1.49 1.49 0 0 1-.703.16c-.263 0-.494-.048-.692-.145s-.36-.238-.496-.418a2.3 2.3 0 0 1-.328-.633c-.081-.245-.138-.513-.172-.805v-.316c.034-.31.091-.591.172-.844s.193-.47.328-.652.301-.323.496-.422.424-.148.684-.148c.266 0 .501.052.707.156s.379.247.52.438.246.414.316.68.105.556.105.879zm-.941.082v-.082c0-.195-.018-.376-.055-.543s-.093-.318-.172-.445a.84.84 0 0 0-.3-.297.82.82 0 0 0-.434-.109.99.99 0 0 0-.43.086.82.82 0 0 0-.3.23 1.08 1.08 0 0 0-.188.348c-.044.13-.075.272-.094.426v.758c.032.188.085.359.161.516a.93.93 0 0 0 .32.375c.141.091.32.137.539.137a.82.82 0 0 0 .434-.109c.119-.073.217-.173.292-.301s.136-.28.172-.449a2.52 2.52 0 0 0 .055-.539zm4.125 1.223v-2.016a.86.86 0 0 0-.082-.391c-.055-.109-.138-.194-.25-.254s-.247-.09-.414-.09c-.154 0-.286.026-.398.078s-.2.122-.262.211-.094.189-.094.301h-.937a1.04 1.04 0 0 1 .121-.484c.08-.156.198-.296.351-.418s.337-.219.551-.289.453-.105.719-.105c.317 0 .599.053.843.16s.442.268.583.484.214.482.214.805v1.879c0 .193.013.366.039.52a1.65 1.65 0 0 0 .122.395V37h-.965a1.63 1.63 0 0 1-.106-.387 3.22 3.22 0 0 1-.035-.461zm.137-1.723l.008.582h-.676c-.175 0-.328.017-.461.051a.94.94 0 0 0-.332.141c-.089.063-.155.138-.199.227s-.067.189-.067.301.026.215.078.309a.55.55 0 0 0 .227.215c.101.052.224.078.367.078.193 0 .361-.039.504-.117a1.04 1.04 0 0 0 .344-.293c.083-.117.127-.228.133-.332l.304.418a1.4 1.4 0 0 1-.16.344c-.075.122-.174.239-.297.352a1.48 1.48 0 0 1-.433.27c-.167.07-.36.105-.579.105-.276 0-.522-.055-.738-.164a1.32 1.32 0 0 1-.508-.449c-.122-.19-.183-.405-.183-.644 0-.224.041-.422.125-.594s.211-.32.375-.437.37-.206.609-.266a3.26 3.26 0 0 1 .82-.094h.739zm2.726-.754V37h-.941v-4.227h.887l.054.902zm-.168 1.055l-.304-.004c.002-.299.044-.574.125-.824a2.04 2.04 0 0 1 .343-.644 1.52 1.52 0 0 1 .532-.414c.205-.099.435-.148.687-.148.203 0 .387.029.551.086a1 1 0 0 1 .426.27c.12.125.211.288.273.488s.094.441.094.73V37h-.945v-2.734c0-.203-.03-.363-.09-.48s-.142-.205-.254-.254-.246-.078-.41-.078-.306.034-.434.102-.236.16-.324.277-.152.253-.199.406-.071.318-.071.492zm6.266 1.395V31h.945v6h-.855l-.09-.875zm-2.75-1.191v-.082c0-.32.038-.612.113-.875s.185-.493.328-.684.318-.34.524-.441.437-.156.695-.156.479.049.672.148a1.39 1.39 0 0 1 .492.426c.136.182.244.401.324.656s.138.534.172.844v.262c-.034.302-.091.578-.172.828a2.19 2.19 0 0 1-.324.648 1.4 1.4 0 0 1-.496.422c-.193.099-.418.148-.676.148a1.48 1.48 0 0 1-.691-.16 1.54 1.54 0 0 1-.52-.449 2.13 2.13 0 0 1-.328-.68 3.11 3.11 0 0 1-.113-.855zm.941-.082v.082c0 .193.017.372.051.539s.093.314.168.441.173.224.293.297.268.105.438.105c.213 0 .389-.047.527-.141a.96.96 0 0 0 .324-.379c.081-.162.136-.341.164-.539v-.707a1.72 1.72 0 0 0-.097-.43 1.15 1.15 0 0 0-.192-.348.81.81 0 0 0-.301-.234.94.94 0 0 0-.418-.086c-.171 0-.317.037-.437.109s-.219.173-.297.301a1.51 1.51 0 0 0-.168.445c-.036.169-.055.35-.055.543zm8.039-2.781L206.406 37h-1.027l2.141-5.687h.656l-.071.758zm1.422 4.93l-1.703-4.93-.074-.758h.66L210.559 37h-1.032zm-.082-2.109v.777h-3.093v-.777h3.093zM212.109 31v6h-.945v-6h.945zm2.039 0v6h-.945v-6h.945z" fill="#fff"/><rect x="169.5" y="24.5" width="53" height="19" rx="1.5" stroke="#f21197"/><defs><path id="B" d="M45.725 58.703v1.565h-7.197v-1.565h7.197zm-2.755-2.942v7.644h-1.68v-7.644h1.68z"/></defs></svg>