<svg xmlns="http://www.w3.org/2000/svg" width="250" height="162" fill="none"><style><![CDATA[.O{fill:#fff}.P{stroke:#f21197}.Q{fill:#718491}.R{stroke-width:.505}.S{stroke:#718491}.T{stroke-width:2}.U{stroke-width:1.244}]]></style><path d="M0 0h250v162H0z" class="O"/><rect x="81.5" y="131.5" width="11" height="11" rx="5.5" fill="#ffd9f1" class="P"/><path d="M99.531 132.969v8.531H97.92v-8.531h1.611zm4.225 7.429c.219 0 .414-.043.586-.128a1.03 1.03 0 0 0 .41-.364c.105-.156.162-.338.17-.545h1.459a2.06 2.06 0 0 1-.363 1.155c-.235.339-.547.609-.938.808s-.82.293-1.301.293c-.488 0-.914-.082-1.277-.246s-.666-.392-.908-.685a3.02 3.02 0 0 1-.539-1.02 4.27 4.27 0 0 1-.176-1.242v-.188a4.27 4.27 0 0 1 .176-1.242c.121-.387.3-.726.539-1.019s.545-.522.908-.686.787-.246 1.271-.246c.512 0 .961.1 1.348.299s.695.48.914.844.338.791.346 1.283h-1.459a1.42 1.42 0 0 0-.152-.61 1.12 1.12 0 0 0-.399-.433c-.172-.11-.381-.164-.627-.164-.262 0-.48.054-.656.164s-.307.26-.404.451-.161.398-.2.633-.052.472-.052.726v.188a4.99 4.99 0 0 0 .052.738c.039.234.106.445.2.633a1.14 1.14 0 0 0 .404.439c.176.11.398.164.668.164zm3.381-2.003v-.124c0-.464.066-.892.199-1.283s.326-.736.58-1.025.564-.514.932-.674.785-.246 1.254-.246c.476 0 .898.082 1.265.246s.684.385.938.674.447.631.58 1.025.199.819.199 1.283v.124c0 .46-.066.888-.199 1.283s-.326.732-.58 1.025-.565.514-.932.674-.787.24-1.26.24-.888-.08-1.259-.24-.684-.385-.938-.674-.447-.635-.58-1.025-.199-.823-.199-1.283zm1.547-.124v.124c0 .277.027.537.082.779s.138.455.252.638a1.25 1.25 0 0 0 .439.434 1.33 1.33 0 0 0 .656.152c.25 0 .465-.05.645-.152a1.25 1.25 0 0 0 .439-.434c.117-.183.203-.396.258-.638s.082-.502.082-.779v-.124c0-.273-.027-.529-.082-.767a2.01 2.01 0 0 0-.258-.639c-.113-.187-.261-.334-.445-.439s-.397-.164-.65-.164-.465.054-.645.164a1.24 1.24 0 0 0-.439.439c-.114.184-.198.397-.252.639s-.082.494-.082.767zm7.043-1.757v4.986h-1.547v-6.34h1.453l.094 1.354zm-.247 1.588h-.457a4.19 4.19 0 0 1 .188-1.254 2.95 2.95 0 0 1 .51-.967 2.27 2.27 0 0 1 .791-.621c.304-.145.644-.217 1.019-.217a2.49 2.49 0 0 1 .826.129 1.56 1.56 0 0 1 .633.41c.18.188.317.434.41.738s.147.672.147 1.114v4.066h-1.559v-4.078c0-.289-.043-.518-.129-.686s-.203-.287-.363-.357-.35-.106-.58-.106a1.29 1.29 0 0 0-.627.147c-.176.094-.324.225-.445.392s-.207.362-.27.581-.094.455-.094.709zm11.819.287h-2.197v-1.266h2.197c.359 0 .65-.059.873-.176a1.15 1.15 0 0 0 .498-.492c.105-.211.158-.451.158-.721 0-.261-.053-.505-.158-.732a1.28 1.28 0 0 0-.498-.551c-.223-.14-.514-.211-.873-.211h-1.67v7.26h-1.611v-8.531h3.281c.664 0 1.23.119 1.699.357s.832.561 1.078.979.375.886.375 1.418c0 .55-.125 1.025-.375 1.423s-.605.706-1.078.92-1.035.323-1.699.323zm3.943.006v-.124a3.99 3.99 0 0 1 .199-1.283 2.99 2.99 0 0 1 .58-1.025c.254-.289.565-.514.932-.674s.785-.246 1.254-.246c.477 0 .898.082 1.266.246a2.6 2.6 0 0 1 .937.674c.254.289.447.631.58 1.025s.199.819.199 1.283v.124c0 .46-.066.888-.199 1.283s-.326.732-.58 1.025a2.61 2.61 0 0 1-.931.674c-.368.16-.788.24-1.26.24s-.889-.08-1.26-.24-.684-.385-.938-.674-.447-.635-.58-1.025-.199-.823-.199-1.283zm1.547-.124v.124c0 .277.027.537.082.779s.139.455.252.638.26.329.439.434.403.152.657.152.465-.05.644-.152a1.26 1.26 0 0 0 .44-.434c.117-.183.203-.396.258-.638s.082-.502.082-.779v-.124c0-.273-.028-.529-.082-.767a2.01 2.01 0 0 0-.258-.639c-.114-.187-.262-.334-.446-.439s-.396-.164-.65-.164-.465.054-.645.164-.326.252-.439.439-.197.397-.252.639-.082.494-.082.767zm9.012 1.495c0-.133-.035-.252-.106-.358s-.203-.201-.398-.287-.473-.174-.844-.252a6.11 6.11 0 0 1-.908-.264 2.94 2.94 0 0 1-.715-.38c-.199-.153-.355-.33-.469-.534a1.51 1.51 0 0 1-.164-.714 1.66 1.66 0 0 1 .17-.739c.113-.234.278-.439.492-.615s.477-.32.786-.422.656-.158 1.043-.158c.539 0 1.001.088 1.388.264s.69.418.897.726.31.649.31 1.031h-1.547c0-.168-.039-.32-.117-.457s-.189-.246-.346-.328-.353-.129-.591-.129a1.27 1.27 0 0 0-.545.106.79.79 0 0 0-.328.275.67.67 0 0 0-.112.375c0 .102.02.194.059.276a.66.66 0 0 0 .205.216c.094.067.221.127.381.182s.365.108.603.158c.473.094.885.219 1.237.375s.632.356.832.61.298.578.298.972c0 .282-.06.539-.181.774a1.8 1.8 0 0 1-.527.603 2.68 2.68 0 0 1-.827.405c-.32.093-.681.14-1.084.14-.582 0-1.074-.103-1.476-.31s-.707-.477-.914-.797-.311-.66-.311-1.008h1.483c.011.246.078.443.199.592s.273.256.457.322.385.094.592.094a1.62 1.62 0 0 0 .591-.094c.161-.066.282-.154.364-.264a.64.64 0 0 0 .123-.386zm4.33-4.606v6.34h-1.553v-6.34h1.553zm-1.658-1.658c0-.231.078-.422.234-.574s.375-.229.645-.229.482.076.638.229.24.343.24.574a.75.75 0 0 1-.24.568c-.156.153-.369.229-.638.229s-.485-.076-.645-.229a.76.76 0 0 1-.234-.568zm6.134 1.658v1.113h-3.632v-1.113h3.632zm-2.66-1.558h1.553v6.07c0 .187.025.332.076.433s.127.17.229.206.222.052.363.052a2.21 2.21 0 0 0 .281-.017l.217-.035.006 1.16c-.129.043-.276.078-.44.105a3.18 3.18 0 0 1-.544.041 2.21 2.21 0 0 1-.915-.176 1.31 1.31 0 0 1-.609-.58c-.144-.269-.217-.625-.217-1.066v-6.193zm5.332 1.558v6.34h-1.552v-6.34h1.552zm-1.658-1.658c0-.231.078-.422.234-.574.161-.153.375-.229.645-.229s.482.076.639.229.24.343.24.574a.75.75 0 0 1-.24.568c-.157.153-.369.229-.639.229s-.484-.076-.645-.229a.76.76 0 0 1-.234-.568zm2.859 4.893v-.124c0-.464.067-.892.2-1.283s.326-.736.58-1.025a2.61 2.61 0 0 1 .931-.674 3.05 3.05 0 0 1 1.254-.246c.477 0 .899.082 1.266.246a2.59 2.59 0 0 1 .937.674c.254.289.448.631.581 1.025a3.99 3.99 0 0 1 .199 1.283v.124c0 .46-.067.888-.199 1.283a3.05 3.05 0 0 1-.581 1.025 2.6 2.6 0 0 1-.931.674c-.367.16-.787.24-1.26.24s-.889-.08-1.26-.24a2.6 2.6 0 0 1-.937-.674 3.03 3.03 0 0 1-.58-1.025c-.133-.395-.2-.823-.2-1.283zm1.547-.124v.124c0 .277.028.537.082.779s.139.455.252.638a1.26 1.26 0 0 0 .44.434c.183.102.402.152.656.152s.465-.05.645-.152.326-.25.439-.434.203-.396.258-.638.082-.502.082-.779v-.124c0-.273-.027-.529-.082-.767a2.01 2.01 0 0 0-.258-.639 1.23 1.23 0 0 0-.445-.439c-.18-.11-.397-.164-.651-.164s-.465.054-.644.164a1.25 1.25 0 0 0-.44.439c-.113.184-.197.397-.252.639s-.082.494-.082.767zm7.043-1.757v4.986h-1.547v-6.34h1.454l.093 1.354zm-.246 1.588h-.457a4.19 4.19 0 0 1 .188-1.254c.121-.375.291-.698.509-.967a2.29 2.29 0 0 1 .791-.621c.305-.145.645-.217 1.02-.217a2.49 2.49 0 0 1 .826.129c.246.086.457.223.633.41s.316.434.41.738.147.672.147 1.114v4.066h-1.559v-4.078c0-.289-.043-.518-.129-.686s-.203-.287-.363-.357-.35-.106-.58-.106c-.239 0-.448.049-.627.147s-.324.225-.445.392-.208.362-.27.581a2.55 2.55 0 0 0-.094.709z" fill="#546069"/><rect x="129.253" y="19.253" width="106.645" height="78.341" rx="1.769" class="O"/><g class="R"><rect x="129.253" y="19.253" width="106.645" height="78.341" rx="1.769" stroke="#bbc2c7"/><rect x="135.318" y="25.318" width="94.009" height="28.304" rx=".253" stroke="#8796a1" class="O"/></g><mask id="A" class="O"><path d="M135.065 25.571c0-.279.226-.505.505-.505h93.504c.279 0 .506.226.506.505v8.087h-94.515v-8.087z"/></mask><path d="M135.065 25.571c0-.279.226-.505.505-.505h93.504c.279 0 .506.226.506.505v8.087h-94.515v-8.087z" mask="url(#A)" class="S U"/><rect x="138" y="27.942" width="65.939" height="2.488" rx=".622" class="Q"/><path d="M220.692 26.076h4.977v6.221h-4.977z" class="O"/><path d="M225.093 28.599v.853h-3.924v-.853h3.924z" class="Q"/><mask id="B" class="O"><rect x="219.2" y="27" width="8" height="4" rx=".5"/></mask><rect x="219.2" y="27" width="8" height="4" rx=".5" mask="url(#B)" class="P T"/><g opacity=".8" fill="#8796a1"><rect x="138.611" y="37.351" width="87.711" height="1.866" rx=".933"/><rect x="138.611" y="42.95" width="87.711" height="1.866" rx=".933"/><rect x="138.611" y="48.548" width="52.875" height="1.866" rx=".933"/></g><rect x="135.318" y="58.171" width="94.009" height="8.203" rx=".253" class="O R S"/><g class="Q"><rect x="138" y="60.766" width="65.939" height="2.488" rx=".622"/><path d="M224.548 61.602v.791h-3.638v-.791h3.638zm-1.392-1.487v3.863h-.85v-3.863h.85z"/></g><mask id="C" class="O"><rect x="218.565" y="58.765" width="8" height="6.5" rx=".5"/></mask><rect x="218.565" y="58.765" width="8" height="6.5" rx=".5" mask="url(#C)" class="P T"/><rect x="135.318" y="70.923" width="94.009" height="8.203" rx=".253" class="O R S"/><g class="Q"><rect x="138" y="73.821" width="65.939" height="2.488" rx=".622"/><path d="M224.548 74.657v.791h-3.638v-.791h3.638zm-1.392-1.487v3.864h-.85V73.17h.85z"/></g><mask id="D" class="O"><rect x="218.565" y="71.765" width="8" height="6.5" rx=".5"/></mask><rect x="218.565" y="71.765" width="8" height="6.5" rx=".5" mask="url(#D)" class="P T"/><rect x="135.318" y="83.675" width="94.009" height="8.203" rx=".253" class="O R S"/><g class="Q"><rect x="138" y="86.521" width="65.939" height="2.488" rx=".622"/><path d="M224.548 87.357v.791h-3.638v-.791h3.638zm-1.392-1.487v3.864h-.85V85.87h.85z"/></g><mask id="E" class="O"><rect x="218.565" y="84.465" width="8" height="6.5" rx=".5"/></mask><rect x="218.565" y="84.465" width="8" height="6.5" rx=".5" mask="url(#E)" class="P T"/><rect x="14.253" y="19.253" width="106.645" height="78.341" rx="1.769" class="O"/><g class="R"><rect x="14.253" y="19.253" width="106.645" height="78.341" rx="1.769" stroke="#bbc2c7"/><rect x="20.318" y="25.318" width="94.009" height="28.304" rx=".253" stroke="#8796a1" class="O"/></g><mask id="F" class="O"><path d="M20.065 25.571c0-.279.226-.505.505-.505h93.504c.279 0 .506.226.506.505v8.087H20.065v-8.087z"/></mask><path d="M20.065 25.571c0-.279.226-.505.505-.505h93.504c.279 0 .506.226.506.505v8.087H20.065v-8.087z" mask="url(#F)" class="S U"/><path d="M23 26.076h4.977v6.221H23z" class="O"/><g class="Q"><path d="M27.4 28.599v.853h-3.923v-.853H27.4z"/><rect x="31.977" y="27.942" width="65.939" height="2.488" rx=".622"/></g><mask id="G" class="O"><rect x="21.5" y="27" width="8" height="4" rx=".5"/></mask><rect x="21.5" y="27" width="8" height="4" rx=".5" mask="url(#G)" class="P T"/><g opacity=".8" fill="#8796a1"><rect x="23.611" y="37.351" width="87.711" height="1.866" rx=".933"/><rect x="23.611" y="42.95" width="87.711" height="1.866" rx=".933"/><rect x="23.611" y="48.548" width="52.875" height="1.866" rx=".933"/></g><rect x="20.318" y="58.171" width="94.009" height="8.203" rx=".253" class="O R S"/><g class="Q"><path d="M26.878 61.602v.791H23.24v-.791h3.638zm-1.392-1.487v3.863h-.849v-3.863h.849z"/><rect x="32" y="60.766" width="65.939" height="2.488" rx=".622"/></g><mask id="H" class="O"><rect x="21.065" y="58.765" width="8" height="6.5" rx=".5"/></mask><rect x="21.065" y="58.765" width="8" height="6.5" rx=".5" mask="url(#H)" class="P T"/><rect x="20.318" y="70.923" width="94.009" height="8.203" rx=".253" class="O R S"/><g class="Q"><path d="M26.878 74.354v.791H23.24v-.791h3.638zm-1.392-1.487v3.864h-.849v-3.864h.849z"/><rect x="32" y="73.519" width="65.939" height="2.488" rx=".622"/></g><mask id="I" class="O"><rect x="21.065" y="71.517" width="8" height="6.5" rx=".5"/></mask><rect x="21.065" y="71.517" width="8" height="6.5" rx=".5" mask="url(#I)" class="P T"/><rect x="20.318" y="83.675" width="94.009" height="8.203" rx=".253" class="O R S"/><g class="Q"><path d="M26.878 87.106v.791H23.24v-.791h3.638zm-1.392-1.487v3.864h-.849v-3.864h.849z"/><rect x="32" y="86.271" width="65.939" height="2.488" rx=".622"/></g><mask id="J" class="O"><rect x="21.065" y="84.27" width="8" height="6.5" rx=".5"/></mask><rect x="21.065" y="84.27" width="8" height="6.5" rx=".5" mask="url(#J)" class="P T"/><path d="M64.229 113.734V115H59.94v-1.266h4.289zm-3.803-7.265V115h-1.611v-8.531h1.611zm7.611 8.648c-.48 0-.912-.078-1.295-.234a2.83 2.83 0 0 1-.978-.651 2.97 2.97 0 0 1-.615-.978 3.41 3.41 0 0 1-.211-1.207v-.235a3.98 3.98 0 0 1 .211-1.33c.141-.402.34-.748.598-1.037a2.64 2.64 0 0 1 .926-.668c.359-.156.756-.234 1.189-.234.449 0 .846.076 1.189.228a2.31 2.31 0 0 1 .861.633c.231.274.404.602.522.985a4.25 4.25 0 0 1 .176 1.259v.651h-4.969v-1.067h3.445v-.117c-.008-.246-.055-.47-.141-.674s-.219-.371-.398-.492-.412-.187-.697-.187a1.16 1.16 0 0 0-.603.152 1.21 1.21 0 0 0-.422.422 2.09 2.09 0 0 0-.246.644c-.055.25-.082.528-.082.832v.235c0 .265.035.512.106.738a1.73 1.73 0 0 0 .322.592c.14.168.316.293.516.387a1.69 1.69 0 0 0 .691.134c.324 0 .617-.062.879-.187s.496-.318.691-.568l.779.808a2.6 2.6 0 0 1-.539.563 2.76 2.76 0 0 1-.809.439 3.36 3.36 0 0 1-1.096.164zm5.637-.117h-1.559v-6.926c0-.476.092-.877.275-1.201s.445-.576.785-.744.74-.252 1.201-.252a3.15 3.15 0 0 1 .434.029 3.88 3.88 0 0 1 .416.082l-.029 1.178c-.074-.02-.156-.033-.246-.041a3.12 3.12 0 0 0-.287-.012c-.211 0-.391.037-.539.112a.77.77 0 0 0-.34.328c-.078.145-.111.314-.111.521V115zm1.283-6.34v1.113H71.16v-1.113h3.797zm3.955 0v1.113h-3.633v-1.113h3.633zm-2.66-1.558h1.553v6.07c0 .187.025.332.076.433a.4.4 0 0 0 .228.206 1.12 1.12 0 0 0 .363.052 2.22 2.22 0 0 0 .281-.017l.217-.035.006 1.16a2.85 2.85 0 0 1-.44.105 3.19 3.19 0 0 1-.545.041c-.348 0-.652-.058-.914-.176s-.465-.314-.609-.58-.217-.625-.217-1.066v-6.193zm91.562-.633h3.1c.648 0 1.205.097 1.67.293s.822.484 1.072.867.375.853.375 1.412c0 .441-.078.824-.234 1.148a2.23 2.23 0 0 1-.662.815 3.25 3.25 0 0 1-.996.516l-.504.257h-2.737l-.011-1.271h2.045c.332 0 .607-.059.826-.176s.383-.279.492-.486.17-.444.17-.709a1.57 1.57 0 0 0-.164-.739 1.12 1.12 0 0 0-.498-.486c-.223-.113-.504-.17-.844-.17h-1.488V115h-1.612v-8.531zm4.817 8.531l-1.975-3.82 1.705-.006 1.998 3.744V115h-1.728zm4.336-6.34V115h-1.553v-6.34h1.553zm-1.658-1.658c0-.231.078-.422.234-.574s.375-.229.645-.229.482.076.638.229.24.343.24.574a.75.75 0 0 1-.24.568c-.156.153-.369.229-.638.229s-.485-.076-.645-.229a.76.76 0 0 1-.234-.568zm7.166 1.658h1.406v6.147c0 .574-.125 1.06-.375 1.459s-.592.707-1.037.914-.963.316-1.553.316c-.254 0-.529-.035-.826-.105a3.39 3.39 0 0 1-.85-.334c-.269-.149-.494-.342-.674-.58l.698-.915a2.13 2.13 0 0 0 .715.557 1.94 1.94 0 0 0 .861.193c.312 0 .578-.058.797-.175s.392-.282.509-.504c.122-.219.182-.488.182-.809v-4.717l.147-1.447zm-4.284 3.246v-.123c0-.484.059-.924.176-1.318.117-.399.285-.74.504-1.026s.49-.505.803-.662.672-.234 1.066-.234c.418 0 .77.076 1.055.228a1.97 1.97 0 0 1 .715.651c.188.281.34.615.445 1.002a9.34 9.34 0 0 1 .252 1.265v.334c-.055.45-.143.862-.264 1.237s-.273.703-.468.984a2.02 2.02 0 0 1-.727.645c-.289.153-.629.228-1.019.228a2.28 2.28 0 0 1-1.055-.24c-.313-.16-.58-.385-.803-.674s-.387-.629-.504-1.019a4.44 4.44 0 0 1-.176-1.278zm1.547-.123v.123c0 .274.028.53.082.768a2.08 2.08 0 0 0 .252.633c.113.184.256.32.428.422s.377.152.615.152c.321 0 .582-.067.785-.199s.364-.323.469-.557c.11-.238.18-.506.211-.803v-.92c-.019-.234-.062-.451-.129-.65a1.61 1.61 0 0 0-.263-.516 1.19 1.19 0 0 0-.434-.34c-.176-.082-.385-.123-.627-.123-.234 0-.439.053-.615.159-.176.101-.321.244-.434.427s-.199.397-.258.639-.082.504-.082.785zm7.055-5.783v9h-1.553v-9h1.553zm-.246 5.602h-.457c0-.442.058-.848.176-1.219a3.01 3.01 0 0 1 .498-.967c.215-.277.47-.492.767-.645s.633-.228.996-.228a2.53 2.53 0 0 1 .85.135 1.6 1.6 0 0 1 .662.416c.184.191.324.441.422.75s.152.676.152 1.113V115h-1.558v-4.055c0-.293-.043-.523-.129-.691a.77.77 0 0 0-.369-.369c-.157-.074-.35-.112-.58-.112a1.33 1.33 0 0 0-.645.147c-.18.094-.328.225-.445.392a1.91 1.91 0 0 0-.258.581c-.055.218-.082.455-.082.709zm8.432-2.942v1.113h-3.633v-1.113h3.633zm-2.661-1.558h1.553v6.07c0 .187.025.332.076.433a.4.4 0 0 0 .229.206 1.09 1.09 0 0 0 .363.052 2.21 2.21 0 0 0 .281-.017l.217-.035.006 1.16c-.129.043-.275.078-.439.105a3.2 3.2 0 0 1-.545.041c-.348 0-.653-.058-.914-.176s-.465-.314-.61-.58-.217-.625-.217-1.066v-6.193z" fill="#546069"/><path d="M52.333 111.5A2.67 2.67 0 0 0 55 114.167a2.67 2.67 0 0 0 2.667-2.667A2.67 2.67 0 0 0 55 108.833a2.67 2.67 0 0 0-2.667 2.667zm-26.833 0H25a.5.5 0 0 0 .5.5v-.5zm0-20.5l-2.887 5h5.774L25.5 91zM55 111H25.5v1H55v-1zm-29 .5v-16h-1v16h1zm170.333 0a2.67 2.67 0 0 0 2.667 2.667 2.67 2.67 0 0 0 2.667-2.667 2.67 2.67 0 0 0-2.667-2.667 2.67 2.67 0 0 0-2.667 2.667zm26.167 0v.5a.5.5 0 0 0 .5-.5h-.5zm0-20.5l-2.887 5h5.774l-2.887-5zM199 112h23.5v-1H199v1zm24-.5v-16h-1v16h1z" fill="#f21197"/></svg>