<svg xmlns="http://www.w3.org/2000/svg" width="250" height="207" fill="none" ><path fill="#fff" d="M0 0h250v207H0z"/><rect x="60.5" y="174.5" width="11" height="11" rx="5.5" fill="#ffd9f1" stroke="#f21197"/><path d="M78.426 175.969v8.531h-1.611v-8.531h1.611zm3.439 3.685v1.272h-3.861v-1.272h3.861zm.451-3.685v1.271h-4.312v-1.271h4.313zm2.619 2.191v6.34h-1.553v-6.34h1.553zm-1.658-1.658c0-.231.078-.422.234-.574s.375-.229.644-.229.483.076.639.229.24.343.24.574a.75.75 0 0 1-.24.568c-.156.153-.369.229-.639.229s-.484-.076-.644-.229a.76.76 0 0 1-.234-.568zm4.348 1.658l1.131 2.016 1.148-2.016h1.682l-1.863 3.106 1.939 3.234h-1.682l-1.213-2.115-1.219 2.115h-1.682l1.934-3.234-1.852-3.106h1.676zm7.588 6.457c-.481 0-.912-.078-1.295-.234a2.83 2.83 0 0 1-.979-.651c-.266-.281-.471-.607-.615-.978a3.41 3.41 0 0 1-.211-1.207v-.235a3.98 3.98 0 0 1 .211-1.33 3.05 3.05 0 0 1 .598-1.037 2.64 2.64 0 0 1 .926-.668c.359-.156.756-.234 1.189-.234.449 0 .846.076 1.19.228a2.31 2.31 0 0 1 .861.633c.23.274.404.602.521.985a4.25 4.25 0 0 1 .176 1.259v.651h-4.969v-1.067h3.445v-.117c-.008-.246-.055-.47-.141-.674s-.219-.371-.398-.492-.412-.187-.697-.187a1.16 1.16 0 0 0-.604.152 1.21 1.21 0 0 0-.422.422 2.09 2.09 0 0 0-.246.644c-.055.25-.082.528-.082.832v.235a2.48 2.48 0 0 0 .105.738c.074.227.182.424.322.592s.316.293.516.387a1.69 1.69 0 0 0 .691.134c.324 0 .617-.062.879-.187s.496-.318.691-.568l.779.808a2.6 2.6 0 0 1-.539.563c-.223.179-.492.326-.809.439a3.36 3.36 0 0 1-1.096.164zm7.412-1.465V175.5h1.559v9h-1.407l-.152-1.348zm-4.072-1.746v-.123c0-.484.055-.924.164-1.318s.277-.74.492-1.026.475-.505.779-.662a2.29 2.29 0 0 1 1.049-.234 2.05 2.05 0 0 1 .99.228c.285.153.528.37.727.651a3.46 3.46 0 0 1 .486 1.002c.121.383.209.805.264 1.265v.334c-.055.45-.143.862-.264 1.237s-.283.703-.486.984a2.13 2.13 0 0 1-.727.645c-.285.152-.619.228-1.002.228s-.734-.08-1.043-.24-.564-.385-.779-.674a3.25 3.25 0 0 1-.486-1.019 4.73 4.73 0 0 1-.164-1.278zm1.552-.123v.123c0 .274.024.53.071.768s.123.449.228.633.241.32.405.422.371.152.609.152c.305 0 .555-.067.75-.199s.353-.323.463-.557.18-.506.211-.803v-.92a2.63 2.63 0 0 0-.123-.65c-.063-.199-.153-.371-.27-.516a1.21 1.21 0 0 0-.422-.34c-.168-.082-.367-.123-.597-.123a1.12 1.12 0 0 0-.61.159 1.17 1.17 0 0 0-.41.427c-.105.184-.183.397-.234.639a4.12 4.12 0 0 0-.071.785zm13.577.41h1.611c-.043.571-.201 1.077-.475 1.518s-.654.781-1.142 1.031-1.08.375-1.776.375c-.535 0-1.017-.094-1.447-.281s-.791-.463-1.096-.815c-.3-.355-.531-.781-.691-1.277s-.24-1.06-.24-1.682v-.65c0-.621.082-1.182.246-1.682s.398-.925.703-1.277a3.15 3.15 0 0 1 1.107-.82c.434-.192.918-.287 1.454-.287.695 0 1.283.129 1.763.386s.854.604 1.119 1.049.426.957.481 1.535h-1.611c-.032-.359-.11-.664-.235-.914a1.23 1.23 0 0 0-.551-.568c-.242-.133-.564-.199-.966-.199-.313 0-.588.058-.827.176a1.52 1.52 0 0 0-.586.527c-.156.23-.273.519-.351.867a5.44 5.44 0 0 0-.117 1.195v.662c0 .434.035.823.105 1.167s.18.634.328.873a1.51 1.51 0 0 0 .574.544 1.76 1.76 0 0 0 .838.188c.395 0 .715-.063.961-.188a1.27 1.27 0 0 0 .569-.55c.132-.242.216-.543.252-.903zm2.466-.298v-.124c0-.464.067-.892.2-1.283s.326-.736.58-1.025a2.61 2.61 0 0 1 .931-.674 3.05 3.05 0 0 1 1.254-.246c.477 0 .899.082 1.266.246a2.6 2.6 0 0 1 .937.674c.254.289.448.631.58 1.025s.2.819.2 1.283v.124c0 .46-.067.888-.2 1.283a3.03 3.03 0 0 1-.58 1.025 2.61 2.61 0 0 1-.931.674c-.367.16-.787.24-1.26.24s-.889-.08-1.26-.24a2.6 2.6 0 0 1-.937-.674 3.03 3.03 0 0 1-.58-1.025c-.133-.395-.2-.823-.2-1.283zm1.547-.124v.124c0 .277.028.537.082.779s.139.455.252.638a1.26 1.26 0 0 0 .44.434c.183.102.402.152.656.152s.465-.05.645-.152.326-.25.439-.434.203-.396.258-.638.082-.502.082-.779v-.124c0-.273-.028-.529-.082-.767a2.01 2.01 0 0 0-.258-.639 1.23 1.23 0 0 0-.445-.439c-.18-.11-.397-.164-.651-.164s-.465.054-.644.164a1.25 1.25 0 0 0-.44.439c-.113.184-.197.397-.252.639s-.082.494-.082.767zm7.043-1.757v4.986h-1.547v-6.34h1.454l.093 1.354zm-.246 1.588h-.457a4.19 4.19 0 0 1 .188-1.254c.121-.375.291-.698.509-.967a2.29 2.29 0 0 1 .791-.621c.305-.145.645-.217 1.02-.217a2.49 2.49 0 0 1 .826.129c.246.086.457.223.633.41s.316.434.41.738.147.672.147 1.114v4.066H127v-4.078c0-.289-.043-.518-.129-.686s-.203-.287-.363-.357-.35-.106-.58-.106c-.239 0-.448.049-.627.147s-.324.225-.446.392-.207.362-.269.581a2.55 2.55 0 0 0-.094.709zm8.432-2.942v1.113h-3.633v-1.113h3.633zm-2.66-1.558h1.552v6.07c0 .187.026.332.077.433s.127.17.228.206.223.052.363.052c.102 0 .196-.006.282-.017l.216-.035.006 1.16c-.129.043-.275.078-.439.105s-.342.041-.545.041c-.348 0-.652-.058-.914-.176s-.465-.314-.61-.58-.216-.625-.216-1.066v-6.193zm6.539 8.015c-.481 0-.912-.078-1.295-.234s-.709-.373-.979-.651c-.265-.281-.47-.607-.615-.978a3.4 3.4 0 0 1-.211-1.207v-.235c0-.488.07-.931.211-1.33s.34-.748.598-1.037.566-.511.926-.668a2.95 2.95 0 0 1 1.189-.234c.449 0 .846.076 1.189.228s.631.36.862.633a2.77 2.77 0 0 1 .521.985c.117.379.176.799.176 1.259v.651h-4.969v-1.067h3.446v-.117c-.008-.246-.055-.47-.141-.674s-.219-.371-.399-.492-.412-.187-.697-.187a1.16 1.16 0 0 0-.603.152 1.21 1.21 0 0 0-.422.422 2.06 2.06 0 0 0-.246.644c-.055.25-.082.528-.082.832v.235a2.49 2.49 0 0 0 .105.738 1.77 1.77 0 0 0 .322.592c.145.164.317.293.516.387a1.69 1.69 0 0 0 .691.134 2.01 2.01 0 0 0 .879-.187c.266-.129.496-.318.692-.568l.779.808c-.133.195-.312.383-.539.563a2.76 2.76 0 0 1-.809.439c-.316.109-.681.164-1.095.164zm5.127-5.103v4.986h-1.547v-6.34h1.453l.094 1.354zm-.246 1.588h-.457c.003-.461.066-.879.187-1.254a2.95 2.95 0 0 1 .51-.967 2.27 2.27 0 0 1 .791-.621 2.34 2.34 0 0 1 1.019-.217 2.5 2.5 0 0 1 .827.129c.246.086.457.223.632.41s.317.434.411.738.146.672.146 1.114v4.066h-1.559v-4.078c0-.289-.043-.518-.129-.686s-.203-.287-.363-.357-.349-.106-.58-.106a1.29 1.29 0 0 0-.627.147c-.176.094-.324.225-.445.392s-.207.362-.27.581-.093.455-.093.709zm8.431-2.942v1.113h-3.633v-1.113h3.633zm-2.66-1.558h1.553v6.07c0 .187.025.332.076.433s.127.17.228.206.223.052.364.052a2.22 2.22 0 0 0 .281-.017l.217-.035.006 1.16c-.129.043-.276.078-.44.105s-.342.041-.545.041c-.347 0-.652-.058-.914-.176s-.465-.314-.609-.58-.217-.625-.217-1.066v-6.193zm12.457 2.888v1.266h-4.488v-1.266h4.488zm-4.049-3.521v8.531h-1.611v-8.531h1.611zm5.244 0v8.531h-1.611v-8.531h1.611zm4.372 8.648a3.4 3.4 0 0 1-1.295-.234c-.383-.156-.709-.373-.979-.651a2.97 2.97 0 0 1-.615-.978 3.4 3.4 0 0 1-.211-1.207v-.235c0-.488.07-.931.211-1.33s.34-.748.598-1.037.566-.511.925-.668a2.96 2.96 0 0 1 1.19-.234c.449 0 .845.076 1.189.228s.631.36.862.633a2.77 2.77 0 0 1 .521.985c.117.379.176.799.176 1.259v.651h-4.969v-1.067h3.445v-.117c-.007-.246-.054-.47-.14-.674s-.219-.371-.399-.492-.412-.187-.697-.187c-.23 0-.432.05-.603.152a1.21 1.21 0 0 0-.422.422 2.06 2.06 0 0 0-.246.644c-.055.25-.082.528-.082.832v.235a2.49 2.49 0 0 0 .105.738 1.77 1.77 0 0 0 .322.592c.145.164.317.293.516.387s.433.134.691.134c.324 0 .617-.062.879-.187s.496-.318.692-.568l.779.808a2.62 2.62 0 0 1-.539.563 2.76 2.76 0 0 1-.809.439c-.316.109-.681.164-1.095.164zm5.25-6.457v6.34h-1.553v-6.34h1.553zm-1.659-1.658c0-.231.078-.422.235-.574s.375-.229.644-.229.483.076.639.229.24.343.24.574a.75.75 0 0 1-.24.568c-.156.153-.369.229-.639.229s-.484-.076-.644-.229-.235-.341-.235-.568zm7.166 1.658h1.407v6.147c0 .574-.125 1.06-.375 1.459s-.592.707-1.038.914-.962.316-1.552.316c-.254 0-.53-.035-.826-.105s-.577-.182-.85-.334-.494-.342-.674-.58l.697-.915c.211.247.45.432.715.557s.553.193.862.193.578-.058.796-.175a1.16 1.16 0 0 0 .51-.504c.121-.219.182-.488.182-.809v-4.717l.146-1.447zm-4.283 3.246v-.123c0-.484.059-.924.176-1.318s.285-.74.504-1.026.49-.505.803-.662.671-.234 1.066-.234c.418 0 .769.076 1.055.228s.527.37.714.651c.192.281.34.615.446 1.002s.193.805.252 1.265v.334c-.055.45-.143.862-.264 1.237a3.56 3.56 0 0 1-.469.984c-.195.277-.437.492-.726.645s-.629.228-1.02.228-.742-.08-1.054-.24a2.36 2.36 0 0 1-.803-.674c-.219-.289-.387-.629-.504-1.019a4.44 4.44 0 0 1-.176-1.278zm1.547-.123v.123c0 .274.027.53.082.768s.139.449.252.633a1.27 1.27 0 0 0 .428.422c.172.101.377.152.615.152.32 0 .582-.067.785-.199a1.29 1.29 0 0 0 .469-.557c.109-.238.18-.506.211-.803v-.92c-.02-.234-.063-.451-.129-.65a1.63 1.63 0 0 0-.264-.516c-.113-.144-.258-.257-.433-.34s-.385-.123-.627-.123a1.17 1.17 0 0 0-.616.159 1.23 1.23 0 0 0-.433.427c-.113.184-.199.397-.258.639a3.54 3.54 0 0 0-.082.785zm7.055-5.783v9h-1.553v-9h1.553zm-.246 5.602h-.457c0-.442.058-.848.175-1.219a3.05 3.05 0 0 1 .498-.967c.215-.277.471-.492.768-.645s.633-.228.996-.228a2.53 2.53 0 0 1 .85.135 1.61 1.61 0 0 1 .662.416 1.89 1.89 0 0 1 .422.75c.101.304.152.676.152 1.113v4.043h-1.559v-4.055c0-.293-.043-.523-.128-.691s-.209-.295-.37-.369-.349-.112-.58-.112c-.25 0-.465.049-.644.147s-.328.225-.446.392a1.91 1.91 0 0 0-.257.581c-.055.218-.082.455-.082.709zm8.431-2.942v1.113h-3.633v-1.113h3.633zm-2.66-1.558h1.553v6.07c0 .187.025.332.076.433s.127.17.229.206.222.052.363.052a2.22 2.22 0 0 0 .281-.017l.217-.035.006 1.16c-.129.043-.276.078-.44.105s-.342.041-.545.041c-.347 0-.652-.058-.914-.176s-.465-.314-.609-.58-.217-.625-.217-1.066v-6.193z" fill="#546069"/><rect x="19.5" y="26.5" width="210.692" height="127" rx="3.5" fill="#fff"/><rect x="19.5" y="26.5" width="210.692" height="127" rx="3.5" stroke="#bbc2c7"/><rect x="31.808" y="38.808" width="186.077" height="77.769" rx=".5" fill="#fff" stroke="#718491"/><mask id="A" fill="#fff"><path d="M31.308 39.308a1 1 0 0 1 1-1h185.077a1 1 0 0 1 1 1v16.231H31.308V39.308z"/></mask><g fill="#718491"><path d="M31.308 39.308a1 1 0 0 1 1-1h185.077a1 1 0 0 1 1 1v16.231H31.308V39.308z" stroke="#718491" stroke-width="2.462" mask="url(#A)"/><rect x="31.308" y="124.462" width="187.077" height="17.231" rx="1"/></g><g fill="#fff"><path d="M45.725 132.857v1.565h-7.197v-1.565h7.197zm-2.755-2.942v7.644h-1.68v-7.644h1.68zm3.197-84.154v1.688h-7.762v-1.688h7.762z"/><rect x="54.692" y="44.462" width="130.462" height="4.923" rx="1.231"/><rect x="54.692" y="130.615" width="130.462" height="4.923" rx="1.231"/></g><g opacity=".8" fill="#718491"><rect x="38.016" y="62.308" width="173.538" height="3.692" rx="1.846"/><rect x="38.016" y="73.385" width="173.538" height="3.692" rx="1.846"/><rect x="38.016" y="84.461" width="173.538" height="3.692" rx="1.846"/><rect x="38.016" y="95.539" width="173.538" height="3.692" rx="1.846"/><rect x="38.016" y="106.615" width="104.615" height="3.692" rx="1.846"/></g><rect x="34.75" y="57.75" width="179.5" height="55.5" rx="1.25" stroke="#f21197" stroke-width="1.5"/><g fill="#f21197"><path fill-rule="evenodd" d="M216 68.5l4.33-7.5 4.33 7.5h-3.58V102h3.58l-4.33 7.5L216 102h3.58V68.5H216z"/><path d="M192 181a4 4 0 1 0 8 0 4 4 0 1 0-8 0zm46 0v.75a.75.75 0 0 0 .75-.75H238zm0-96h.75a.75.75 0 0 0-.75-.75V85zm-15 0l7.5 4.33v-8.66L223 85zm-27 96.75h42v-1.5h-42v1.5zm42.75-.75V85h-1.5v96h1.5zM238 84.25h-8.25v1.5H238v-1.5z"/></g></svg>