<svg xmlns="http://www.w3.org/2000/svg" xmlns:xlink="http://www.w3.org/1999/xlink" width="120" height="80" fill="none"><g clip-path="url(#A)"><path d="M4 79.5C2.1 79.5.5 77.9.5 76V4C.5 2.1 2.1.5 4 .5h112c1.9 0 3.5 1.6 3.5 3.5v72c0 1.9-1.6 3.5-3.5 3.5H4z" fill="#fff"/><path d="M116 1c1.7 0 3 1.3 3 3v72c0 1.7-1.3 3-3 3H4c-1.7 0-3-1.3-3-3V4c0-1.7 1.3-3 3-3h112zm0-1H4C1.8 0 0 1.8 0 4v72c0 2.2 1.8 4 4 4h112c2.2 0 4-1.8 4-4V4c0-2.2-1.8-4-4-4z" fill="#ccc"/><path d="M29.13 67.09h-9.9c-.54 0-.9-.36-.9-.9V13.81c0-.54.36-.9.9-.9h9.9c.54 0 .9.36.9.9v52.47c0 .45-.45.81-.9.81z" fill="#718491"/><path d="M25.53 33.61v28.26c0 .54-.36.9-.9.9h-.9c-.54 0-.9-.36-.9-.9V33.61c0-.54.36-.9.9-.9h.9c.45 0 .9.36.9.9z" fill="#fff"/><path d="M25.71 17.32l-3.06 2.97 2.97 2.97" stroke="#fff" stroke-width="1.567" stroke-miterlimit="10" stroke-linecap="round" stroke-linejoin="round"/><path d="M100.77 67.09h-9.9c-.54 0-.9-.36-.9-.9V13.81c0-.54.36-.9.9-.9h9.9c.54 0 .9.36.9.9v52.47c0 .45-.36.81-.9.81z" fill="#718491"/><path d="M97.17 33.61v28.26c0 .54-.36.9-.9.9h-.9c-.54 0-.9-.36-.9-.9V33.61c0-.54.36-.9.9-.9h.9c.54 0 .9.36.9.9z" fill="#fff"/><path d="M94.29 23.26l3.06-2.97-2.97-2.97" stroke="#fff" stroke-width="1.567" stroke-miterlimit="10" stroke-linecap="round" stroke-linejoin="round"/><path d="M28.95 66.55a.39.39 0 0 1-.36-.36V13.81a.39.39 0 0 1 .36-.36h53.64a.39.39 0 0 1 .36.36v52.38a.39.39 0 0 1-.36.36H28.95z" fill="#fff"/><path d="M82.41 13.99v52.02H29.13V13.99h53.28zm.18-1.08H28.95c-.54 0-.9.36-.9.9v52.38c0 .54.36.9.9.9h53.64c.54 0 .9-.36.9-.9V13.81c0-.54-.36-.9-.9-.9z" fill="#718491"/><g fill="#8796a1"><path d="M76.65 20.65H35.61a.71.71 0 0 1-.72-.72.71.71 0 0 1 .72-.72h41.04a.71.71 0 0 1 .72.72.71.71 0 0 1-.72.72z"/><use xlink:href="#B"/><path d="M76.65 33.79H35.61a.72.72 0 1 1 0-1.44h41.04a.72.72 0 1 1 0 1.44zm0 6.57H35.61a.72.72 0 1 1 0-1.44h41.04a.71.71 0 0 1 .72.72c0 .36-.36.72-.72.72zm0 6.57H35.61a.72.72 0 1 1 0-1.44h41.04a.71.71 0 0 1 .72.72c0 .36-.36.72-.72.72zm0 6.48H35.61c-.36 0-.72-.27-.72-.63a.71.71 0 0 1 .72-.72h41.04a.71.71 0 0 1 .72.72c0 .36-.36.63-.72.63zM63.6 59.98H35.61a.71.71 0 0 1-.72-.72c0-.36.27-.63.72-.63H63.6c.36 0 .72.27.72.63 0 .45-.27.72-.72.72z"/></g></g><defs><clipPath id="A"><path fill="#fff" d="M0 0h120v80H0z"/></clipPath><path id="B" d="M76.65 27.22H35.61c-.36 0-.72-.27-.72-.63a.71.71 0 0 1 .72-.72h41.04a.71.71 0 0 1 .72.72c0 .36-.36.63-.72.63z"/></defs></svg>