<svg xmlns="http://www.w3.org/2000/svg" xmlns:xlink="http://www.w3.org/1999/xlink" width="173.504" height="27.24" xmlns:v="https://vecta.io/nano"><g fill="#fff"><path d="M35.334 23.084v-21h8.25v2.25h-5.25v6.75h3.75v2.25h-3.75v7.5h5.25v2.25h-8.25zm12.574.211c-.836 0-1.545-.361-2.127-1.084s-.873-1.537-.873-2.443c0-.727.123-1.387.369-1.98s.506-1.068.779-1.424.73-.723 1.371-1.102l1.453-.779 1.711-.691.316-.129v-1.078c0-.758-.105-1.346-.316-1.764s-.605-.627-1.184-.627c-.516 0-.885.178-1.107.533s-.35.846-.381 1.471a4.56 4.56 0 0 0-.012.387h-3c.016-1.438.418-2.582 1.207-3.434s1.887-1.277 3.293-1.277c1.398 0 2.498.432 3.299 1.295s1.201 2.002 1.201 3.416v6.75c0 1.563.129 2.813.387 3.75h-2.988l-.398-2.25-.381.727a6.68 6.68 0 0 1-.428.639c-.188.254-.375.449-.563.586s-.422.256-.703.357-.589.151-.925.151zm1.5-2.461c.211 0 .416-.063.615-.188s.35-.246.451-.363l.375-.469c.023-.039.043-.066.059-.082v-4.148l-.621.398-.691.439c-.171.113-.379.27-.621.469s-.43.391-.563.574-.25.408-.352.674a2.3 2.3 0 0 0-.152.832c0 1.243.5 1.864 1.5 1.864zm11.016 2.461c-1.234 0-2.225-.367-2.971-1.102s-1.256-1.688-1.529-2.859l2.25-.75c.539 1.5 1.289 2.25 2.25 2.25.477 0 .846-.131 1.107-.393s.393-.631.393-1.107c0-.695-.25-1.273-.75-1.734l-3-2.25c-.336-.227-.617-.439-.844-.639s-.457-.443-.691-.732-.412-.613-.533-.973-.182-.75-.182-1.172c0-1.281.408-2.262 1.225-2.941s1.908-1.02 3.275-1.02c.648 0 1.234.104 1.758.311s.963.498 1.318.873.648.791.879 1.248.412.967.545 1.529l-2.25.75a7.19 7.19 0 0 0-.328-.768c-.109-.215-.256-.447-.439-.697s-.4-.443-.65-.58a1.7 1.7 0 0 0-.832-.205c-.477 0-.846.131-1.107.393s-.393.631-.393 1.107c0 .469.25.891.75 1.266l3 2.25c.336.266.623.521.861.768a7 7 0 0 1 .697.855 3.74 3.74 0 0 1 .516 1.084c.118.398.176.824.176 1.277 0 1.281-.408 2.262-1.225 2.941s-1.909 1.02-3.276 1.02zm5.941 3.539v-2.25c.594 0 1.068-.039 1.424-.117s.623-.217.803-.416a1.41 1.41 0 0 0 .346-.656c.051-.238.076-.568.076-.99l-3.398-14.32h3l1.887 10.5.557-3.334.703-3.867.604-3.299h3l-3.75 15.75c-.25 1.086-.777 1.857-1.582 2.314s-1.926.686-3.363.686h-.307zm14.297-3.75l4.5-21h3l4.5 21h-3l-1.125-5.25h-3.75l-1.125 5.25h-3zm4.5-7.5h3l-1.5-9-1.5 9z"/><use xlink:href="#B"/><use xlink:href="#B" x="10.113"/><use xlink:href="#C"/><path d="M125.627 23.084v-15h3v2.004c.305-.594.748-1.111 1.33-1.553a3.13 3.13 0 0 1 1.939-.662 14.92 14.92 0 0 1 .48.047v3.316a4.5 4.5 0 0 0-1.664-.328c-.625 0-1.129.188-1.512.563s-.574.871-.574 1.488v10.125h-2.999zm11.508.211c-.664 0-1.244-.188-1.74-.563s-.879-.883-1.148-1.523-.471-1.307-.604-1.998-.215-1.436-.246-2.232v-2.695l.07-1.4.158-1.307c.074-.453.168-.854.281-1.201s.264-.684.451-1.008.406-.592.656-.803.551-.379.902-.504.742-.188 1.172-.188c.336 0 .65.045.943.135a2.86 2.86 0 0 1 .838.422l.639.51.627.633V2.096h3v20.988h-3v-1.359c-.453.469-.914.848-1.383 1.137s-1.007.433-1.616.433zm.75-2.461c.727 0 1.477-.156 2.25-.469v-9.434c-.672-.398-1.422-.598-2.25-.598-.297 0-.547.072-.75.217s-.355.355-.457.633-.176.563-.223.855-.074.639-.082 1.037v4.16l.082 1.336c.047.391.123.768.229 1.131s.26.643.463.838.449.294.738.294zm8.179-15v-3h3v3h-3zm0 17.25v-15h3v15h-3z"/><use xlink:href="#C" x="37.488"/><path d="M163.115 23.084v-15h3v1.617l1.09-.932c.281-.215.67-.418 1.166-.609a4.38 4.38 0 0 1 1.588-.287c.641 0 1.16.234 1.559.703s.598 1.043.598 1.723v12.785h-3v-11.25c0-.523-.074-.904-.223-1.143s-.449-.357-.902-.357c-.258 0-.514.053-.768.158s-.443.203-.568.293l-.539.428v11.871h-3.001zM0 7.072v13.167h26.333V7.072H0zm24.688 11.521H1.646V12.01h23.042v6.583zM0 .488h26.333v4.937H0V.488zm0 21.396h26.333v4.937H0v-4.937z"/></g><defs ><path id="B" d="M97.971 23.295c-.727 0-1.357-.121-1.893-.363s-.963-.559-1.283-.949-.578-.889-.773-1.494a9.79 9.79 0 0 1-.404-1.816 21.13 21.13 0 0 1-.135-2.115v-1.957l.135-2.109c.074-.609.211-1.217.41-1.822s.457-1.102.773-1.488.742-.701 1.277-.943 1.166-.363 1.893-.363c1.578 0 2.711.426 3.398 1.277s1.055 2.113 1.102 3.785v.398h-3v-.422c-.008-.375-.033-.703-.076-.984s-.113-.563-.211-.844-.25-.498-.457-.65-.459-.229-.756-.229-.547.088-.75.264-.357.428-.463.756-.182.666-.229 1.014-.074.748-.082 1.201v4.383l.094 1.131a4.96 4.96 0 0 0 .229.938c.106.301.26.533.463.697s.449.246.738.246c.266 0 .494-.051.686-.152s.338-.227.439-.375.182-.348.24-.598a4.49 4.49 0 0 0 .111-.697l.023-.814v-.363h3v.387c-.023.789-.121 1.486-.293 2.092s-.432 1.135-.779 1.588-.809.799-1.383 1.037-1.255.353-2.044.353z"/><path id="C" d="M122.123 21.889c-.695.938-1.848 1.406-3.457 1.406s-2.762-.469-3.457-1.406-1.043-2.289-1.043-4.055v-4.5c0-1.766.348-3.117 1.043-4.055s1.848-1.406 3.457-1.406 2.762.469 3.457 1.406 1.043 2.289 1.043 4.055v4.5c0 1.766-.348 3.118-1.043 4.055zm-4.014-1.148c.16.063.346.094.557.094a1.52 1.52 0 0 0 .557-.094c.161-.063.293-.139.398-.229s.193-.223.264-.398l.164-.463c.039-.133.066-.324.082-.574l.029-.592.006-.65v-4.5l-.006-.65-.029-.592a2.73 2.73 0 0 0-.082-.574 5.38 5.38 0 0 0-.164-.463c-.07-.176-.158-.309-.264-.398s-.238-.166-.398-.229-.346-.094-.557-.094a1.52 1.52 0 0 0-.557.094c-.161.063-.293.139-.398.229s-.193.223-.264.398l-.164.463c-.039.133-.066.324-.082.574l-.029.592-.006.65v4.5l.006.65.029.592a2.73 2.73 0 0 0 .082.574 5.38 5.38 0 0 0 .164.463c.07.176.158.309.264.398s.238.166.398.229z"/></defs></svg>