<svg xmlns="http://www.w3.org/2000/svg" width="250" height="207" fill="none" ><path fill="#fff" d="M0 0h250v207H0z"/><rect x="46" y="181.5" width="11" height="11" rx="5.5" fill="#ffd9f1" stroke="#f21197"/><path d="M63.018 182.969h1.394l2.332 6.422 2.326-6.422h1.4l-3.17 8.531h-1.119l-3.164-8.531zm-.703 0h1.365l.246 5.9v2.631h-1.611v-8.531zm7.488 0h1.371v8.531h-1.611v-2.631l.24-5.9zm6.668 7.025v-4.834h1.559v6.34h-1.465l-.094-1.506zm.199-1.312l.481-.012c0 .426-.047.818-.141 1.178a2.66 2.66 0 0 1-.439.937 2.03 2.03 0 0 1-.744.615c-.301.145-.656.217-1.066.217a2.69 2.69 0 0 1-.855-.129c-.258-.09-.481-.228-.668-.416s-.326-.435-.428-.732-.152-.662-.152-1.084v-4.096h1.547v4.108a1.69 1.69 0 0 0 .07.527c.051.141.119.256.205.346s.193.148.311.187.25.053.387.053c.375 0 .67-.074.885-.223a1.25 1.25 0 0 0 .469-.609c.094-.258.141-.547.141-.867zm4.371-6.182v9h-1.553v-9h1.553zm4.477 2.66v1.113h-3.633v-1.113h3.633zm-2.66-1.558h1.553v6.07c0 .187.025.332.076.433s.127.17.228.206a1.12 1.12 0 0 0 .363.052 2.22 2.22 0 0 0 .281-.017l.217-.035.006 1.16c-.129.043-.275.078-.439.105s-.342.041-.545.041c-.348 0-.652-.058-.914-.176s-.465-.314-.609-.58-.217-.625-.217-1.066v-6.193zm5.332 1.558v6.34h-1.553v-6.34h1.553zm-1.658-1.658c0-.231.078-.422.234-.574s.375-.229.645-.229.482.076.639.229.24.343.24.574a.75.75 0 0 1-.24.568c-.156.153-.369.229-.639.229s-.484-.076-.645-.229a.76.76 0 0 1-.234-.568zm4.682 2.877v7.559H89.66v-8.778h1.435l.117 1.219zm4.072 1.887v.123a4.79 4.79 0 0 1-.164 1.283c-.105.39-.262.732-.469 1.025s-.465.516-.773.68-.656.24-1.055.24c-.391 0-.73-.074-1.02-.222a2.11 2.11 0 0 1-.732-.645c-.199-.277-.359-.6-.48-.967a7.19 7.19 0 0 1-.264-1.213v-.392c.059-.465.146-.887.264-1.266s.281-.713.48-.99.441-.498.727-.651.627-.228 1.014-.228c.402 0 .756.076 1.061.228s.568.372.779.657.369.625.475 1.019a5.11 5.11 0 0 1 .158 1.319zm-1.553.123v-.123c0-.282-.025-.541-.076-.78a2.08 2.08 0 0 0-.234-.632 1.16 1.16 0 0 0-.41-.428c-.168-.102-.371-.153-.609-.153s-.443.039-.615.118-.312.189-.422.334-.195.316-.258.515-.098.412-.117.651v.972a2.76 2.76 0 0 0 .205.78 1.29 1.29 0 0 0 .445.55c.199.137.457.205.773.205.238 0 .441-.052.609-.158s.305-.25.41-.433a2.14 2.14 0 0 0 .228-.645c.047-.242.07-.5.07-.773zm4.324-5.889v9h-1.553v-9h1.553zm4.324 9.117c-.481 0-.912-.078-1.295-.234s-.709-.373-.979-.651a2.99 2.99 0 0 1-.615-.978 3.41 3.41 0 0 1-.211-1.207v-.235a3.98 3.98 0 0 1 .211-1.33c.141-.402.34-.748.598-1.037s.566-.511.926-.668a2.95 2.95 0 0 1 1.189-.234c.449 0 .846.076 1.19.228a2.32 2.32 0 0 1 .861.633 2.77 2.77 0 0 1 .521.985c.118.379.176.799.176 1.259v.651h-4.969v-1.067h3.446v-.117c-.008-.246-.055-.47-.141-.674a1.08 1.08 0 0 0-.398-.492c-.18-.125-.412-.187-.698-.187a1.16 1.16 0 0 0-.603.152 1.21 1.21 0 0 0-.422.422 2.11 2.11 0 0 0-.246.644c-.055.25-.082.528-.082.832v.235a2.49 2.49 0 0 0 .105.738c.075.227.182.424.323.592a1.57 1.57 0 0 0 .515.387c.203.09.434.134.692.134.324 0 .617-.062.879-.187a1.96 1.96 0 0 0 .691-.568l.779.808c-.133.195-.312.383-.539.563s-.492.326-.808.439-.682.164-1.096.164zm13.623-4.599v.439c0 .645-.086 1.225-.258 1.74s-.416.948-.732 1.307-.694.635-1.131.826-.924.287-1.459.287c-.528 0-1.012-.096-1.453-.287s-.817-.467-1.137-.826-.568-.795-.744-1.307-.264-1.095-.264-1.74v-.439c0-.649.088-1.229.264-1.741s.422-.947.738-1.306.693-.641 1.131-.832.926-.287 1.453-.287c.535 0 1.022.095 1.459.287s.815.468 1.131.832.566.795.738 1.306.264 1.092.264 1.741zm-1.629.439v-.451c0-.465-.043-.873-.129-1.225s-.213-.654-.381-.896-.375-.424-.621-.545a1.81 1.81 0 0 0-.832-.188 1.79 1.79 0 0 0-.832.188 1.65 1.65 0 0 0-.609.545c-.168.242-.297.541-.387.896s-.129.76-.129 1.225v.451a5.24 5.24 0 0 0 .129 1.225c.09.355.219.656.387.902a1.74 1.74 0 0 0 .621.551c.242.125.519.187.832.187s.59-.062.832-.187.445-.309.609-.551.295-.547.381-.902a5.24 5.24 0 0 0 .129-1.225zm4.424-1.078v7.559h-1.553v-8.778h1.436l.117 1.219zm4.072 1.887v.123c0 .461-.055.888-.164 1.283s-.262.732-.469 1.025a2.23 2.23 0 0 1-.773.68c-.305.16-.656.24-1.055.24-.39 0-.73-.074-1.019-.222a2.11 2.11 0 0 1-.733-.645c-.199-.277-.359-.6-.48-.967a7.25 7.25 0 0 1-.264-1.213v-.392a7.5 7.5 0 0 1 .264-1.266c.121-.383.281-.713.48-.99s.442-.498.727-.651.627-.228 1.013-.228c.403 0 .756.076 1.061.228a2.14 2.14 0 0 1 .779.657c.211.285.369.625.475 1.019a5.13 5.13 0 0 1 .158 1.319zm-1.553.123v-.123c0-.282-.025-.541-.076-.78s-.129-.453-.234-.632c-.106-.184-.242-.327-.41-.428s-.371-.153-.61-.153-.443.039-.615.118-.312.189-.422.334a1.69 1.69 0 0 0-.258.515c-.058.196-.097.412-.117.651v.972a2.77 2.77 0 0 0 .205.78 1.29 1.29 0 0 0 .446.55c.199.137.457.205.773.205.238 0 .441-.052.609-.158s.305-.25.411-.433.181-.403.228-.645.07-.5.07-.773zm5.532 3.228c-.481 0-.912-.078-1.295-.234s-.709-.373-.979-.651c-.265-.281-.471-.607-.615-.978a3.4 3.4 0 0 1-.211-1.207v-.235c0-.488.07-.931.211-1.33s.34-.748.598-1.037.566-.511.925-.668a2.96 2.96 0 0 1 1.19-.234c.449 0 .846.076 1.189.228s.631.36.862.633a2.77 2.77 0 0 1 .521.985c.117.379.176.799.176 1.259v.651h-4.969v-1.067h3.445v-.117c-.007-.246-.054-.47-.14-.674s-.219-.371-.399-.492-.412-.187-.697-.187c-.23 0-.432.05-.603.152a1.21 1.21 0 0 0-.422.422 2.06 2.06 0 0 0-.246.644c-.055.25-.082.528-.082.832v.235a2.49 2.49 0 0 0 .105.738 1.77 1.77 0 0 0 .322.592c.145.164.317.293.516.387a1.69 1.69 0 0 0 .691.134 2.01 2.01 0 0 0 .879-.187c.266-.129.496-.318.692-.568l.779.808a2.62 2.62 0 0 1-.539.563 2.76 2.76 0 0 1-.809.439c-.316.109-.681.164-1.095.164zm5.127-5.103v4.986h-1.547v-6.34h1.453l.094 1.354zm-.247 1.588h-.457a4.19 4.19 0 0 1 .188-1.254 2.95 2.95 0 0 1 .51-.967 2.27 2.27 0 0 1 .791-.621c.304-.145.644-.217 1.019-.217a2.49 2.49 0 0 1 .826.129 1.56 1.56 0 0 1 .633.41c.18.188.317.434.41.738s.147.672.147 1.114v4.066h-1.559v-4.078c0-.289-.043-.518-.129-.686s-.203-.287-.363-.357-.35-.106-.58-.106a1.29 1.29 0 0 0-.627.147c-.176.094-.324.225-.445.392s-.207.362-.27.581-.094.455-.094.709zm7.073-2.942v6.34h-1.553v-6.34h1.553zm-1.658-1.658c0-.231.078-.422.234-.574s.375-.229.644-.229.483.076.639.229.24.343.24.574a.75.75 0 0 1-.24.568c-.156.153-.369.229-.639.229s-.484-.076-.644-.229a.76.76 0 0 1-.234-.568zm4.652 3.012v4.986h-1.547v-6.34h1.453l.094 1.354zm-.246 1.588h-.457a4.19 4.19 0 0 1 .187-1.254 2.95 2.95 0 0 1 .51-.967 2.28 2.28 0 0 1 .791-.621c.305-.145.645-.217 1.02-.217.304 0 .58.043.826.129s.457.223.633.41.316.434.41.738.146.672.146 1.114v4.066h-1.558v-4.078c0-.289-.043-.518-.129-.686s-.203-.287-.364-.357-.349-.106-.58-.106a1.29 1.29 0 0 0-.627.147c-.175.094-.324.225-.445.392s-.207.362-.269.581a2.55 2.55 0 0 0-.094.709zm9.463-2.942h1.406v6.147c0 .574-.125 1.06-.375 1.459s-.592.707-1.037.914-.963.316-1.553.316c-.254 0-.529-.035-.826-.105a3.39 3.39 0 0 1-.85-.334c-.269-.149-.494-.342-.674-.58l.698-.915a2.13 2.13 0 0 0 .715.557 1.94 1.94 0 0 0 .861.193c.312 0 .578-.058.797-.175a1.17 1.17 0 0 0 .51-.504c.121-.219.181-.488.181-.809v-4.717l.147-1.447zm-4.284 3.246v-.123c0-.484.059-.924.176-1.318s.285-.74.504-1.026.49-.505.803-.662.672-.234 1.066-.234c.418 0 .77.076 1.055.228s.527.37.715.651.34.615.445 1.002c.11.383.194.805.252 1.265v.334c-.055.45-.142.862-.264 1.237-.117.375-.273.703-.468.984s-.438.492-.727.645-.629.228-1.019.228a2.28 2.28 0 0 1-1.055-.24c-.313-.16-.58-.385-.803-.674s-.387-.629-.504-1.019a4.44 4.44 0 0 1-.176-1.278zm1.547-.123v.123c0 .274.028.53.082.768s.139.449.252.633.256.32.428.422.377.152.615.152c.321 0 .582-.067.785-.199s.364-.323.469-.557c.11-.238.18-.506.211-.803v-.92c-.019-.234-.062-.451-.129-.65a1.61 1.61 0 0 0-.263-.516 1.19 1.19 0 0 0-.434-.34c-.176-.082-.385-.123-.627-.123-.234 0-.439.053-.615.159s-.321.244-.434.427-.199.397-.258.639-.082.504-.082.785zm12.012-5.314v8.531h-1.605v-8.531h1.605zm2.649 0v1.271h-6.874v-1.271h6.874zm-.235 5.426v-.124a3.99 3.99 0 0 1 .199-1.283 2.99 2.99 0 0 1 .58-1.025c.254-.289.565-.514.932-.674s.785-.246 1.254-.246c.477 0 .898.082 1.266.246a2.6 2.6 0 0 1 .937.674c.254.289.447.631.58 1.025s.199.819.199 1.283v.124c0 .46-.066.888-.199 1.283s-.326.732-.58 1.025-.564.514-.932.674-.787.24-1.259.24-.889-.08-1.26-.24-.684-.385-.938-.674-.447-.635-.58-1.025-.199-.823-.199-1.283zm1.547-.124v.124c0 .277.027.537.082.779s.139.455.252.638.26.329.439.434.403.152.657.152.465-.05.644-.152a1.26 1.26 0 0 0 .44-.434c.117-.183.203-.396.257-.638a3.51 3.51 0 0 0 .083-.779v-.124c0-.273-.028-.529-.083-.767s-.14-.455-.257-.639-.262-.334-.446-.439-.396-.164-.65-.164-.465.054-.645.164-.326.252-.439.439-.197.397-.252.639-.082.494-.082.767zm9.557-3.111h1.406v6.147c0 .574-.125 1.06-.375 1.459s-.592.707-1.037.914-.963.316-1.553.316c-.254 0-.529-.035-.826-.105a3.39 3.39 0 0 1-.85-.334c-.269-.149-.494-.342-.674-.58l.698-.915a2.13 2.13 0 0 0 .715.557 1.94 1.94 0 0 0 .861.193c.312 0 .578-.058.797-.175a1.17 1.17 0 0 0 .51-.504c.121-.219.181-.488.181-.809v-4.717l.147-1.447zm-4.284 3.246v-.123c0-.484.059-.924.176-1.318s.285-.74.504-1.026.49-.505.803-.662.672-.234 1.066-.234c.418 0 .77.076 1.055.228s.527.37.715.651.34.615.445 1.002.193.805.252 1.265v.334c-.055.45-.143.862-.264 1.237s-.273.703-.468.984-.438.492-.727.645-.629.228-1.019.228a2.28 2.28 0 0 1-1.055-.24c-.313-.16-.58-.385-.803-.674s-.387-.629-.504-1.019a4.44 4.44 0 0 1-.176-1.278zm1.547-.123v.123c0 .274.028.53.082.768s.139.449.252.633.256.32.428.422.377.152.615.152c.321 0 .582-.067.785-.199s.364-.323.469-.557c.11-.238.18-.506.211-.803v-.92c-.019-.234-.062-.451-.129-.65a1.61 1.61 0 0 0-.263-.516 1.19 1.19 0 0 0-.434-.34c-.176-.082-.385-.123-.627-.123-.234 0-.439.053-.615.159s-.321.244-.434.427-.199.397-.258.639c-.054.242-.082.504-.082.785zm8.385 3.334c-.48 0-.912-.078-1.295-.234s-.709-.373-.978-.651a2.99 2.99 0 0 1-.616-.978c-.14-.375-.211-.777-.211-1.207v-.235c0-.488.071-.931.211-1.33s.34-.748.598-1.037.566-.511.926-.668.756-.234 1.189-.234c.45 0 .846.076 1.19.228s.631.36.861.633.404.602.522.985.175.799.175 1.259v.651h-4.968v-1.067h3.445v-.117c-.008-.246-.055-.47-.141-.674s-.218-.371-.398-.492-.412-.187-.697-.187a1.16 1.16 0 0 0-.604.152 1.21 1.21 0 0 0-.422.422 2.11 2.11 0 0 0-.246.644c-.055.25-.082.528-.082.832v.235c0 .265.035.512.106.738s.181.424.322.592a1.57 1.57 0 0 0 .515.387c.204.09.434.134.692.134.324 0 .617-.062.879-.187a1.96 1.96 0 0 0 .691-.568l.779.808a2.57 2.57 0 0 1-.539.563c-.222.179-.492.326-.808.439s-.682.164-1.096.164zm6.609-6.457v1.113h-3.632v-1.113h3.632zm-2.66-1.558h1.553v6.07c0 .187.025.332.076.433s.127.17.229.206.222.052.363.052a2.21 2.21 0 0 0 .281-.017l.217-.035.006 1.16a2.85 2.85 0 0 1-.44.105 3.18 3.18 0 0 1-.544.041 2.21 2.21 0 0 1-.915-.176 1.31 1.31 0 0 1-.609-.58c-.144-.269-.217-.625-.217-1.066v-6.193zm5.209-1.102v9h-1.552v-9h1.552zm-.246 5.602h-.457c0-.442.059-.848.176-1.219a3.01 3.01 0 0 1 .498-.967c.215-.277.471-.492.768-.645s.632-.228.996-.228a2.53 2.53 0 0 1 .849.135c.258.086.479.224.662.416s.325.441.422.75.153.676.153 1.113v4.043h-1.559v-4.055c0-.293-.043-.523-.129-.691a.77.77 0 0 0-.369-.369 1.35 1.35 0 0 0-.58-.112 1.33 1.33 0 0 0-.645.147 1.24 1.24 0 0 0-.445.392c-.113.168-.199.362-.258.581s-.082.455-.082.709zm8.279 3.515c-.48 0-.912-.078-1.294-.234s-.709-.373-.979-.651a2.97 2.97 0 0 1-.615-.978 3.4 3.4 0 0 1-.211-1.207v-.235c0-.488.07-.931.211-1.33s.34-.748.597-1.037.567-.511.926-.668a2.96 2.96 0 0 1 1.19-.234c.449 0 .845.076 1.189.228s.631.36.861.633.405.602.522.985.176.799.176 1.259v.651h-4.969v-1.067h3.445v-.117c-.007-.246-.054-.47-.14-.674s-.219-.371-.399-.492-.412-.187-.697-.187c-.23 0-.432.05-.604.152s-.308.238-.421.422a2.06 2.06 0 0 0-.246.644c-.055.25-.083.528-.083.832v.235a2.49 2.49 0 0 0 .106.738 1.77 1.77 0 0 0 .322.592c.145.164.317.293.516.387s.433.134.691.134c.324 0 .617-.062.879-.187s.496-.318.692-.568l.779.808a2.62 2.62 0 0 1-.539.563 2.76 2.76 0 0 1-.809.439c-.316.109-.681.164-1.096.164zm5.157-5.162v5.045h-1.547v-6.34h1.465l.082 1.295zm1.927-1.336l-.023 1.442c-.086-.016-.184-.028-.293-.036l-.299-.011c-.238 0-.447.033-.627.099s-.33.155-.451.276-.207.269-.269.445a1.9 1.9 0 0 0-.106.586l-.334-.041a4.82 4.82 0 0 1 .123-1.119c.082-.344.201-.645.358-.903a1.71 1.71 0 0 1 .586-.597c.238-.145.511-.217.82-.217a1.81 1.81 0 0 1 .275.023c.102.012.182.03.24.053z" fill="#546069"/><rect x="19.5" y="14.5" width="211" height="155" rx="3.5" fill="#fff"/><rect x="19.5" y="14.5" width="211" height="155" rx="3.5" stroke="#bbc2c7"/><rect x="31.5" y="26.5" width="186" height="56" rx=".5" fill="#fff" stroke="#718491"/><mask id="A" fill="#fff"><path d="M31 27a1 1 0 0 1 1-1h185a1 1 0 0 1 1 1v16.231H31V27z"/></mask><path d="M31 27a1 1 0 0 1 1-1h185a1 1 0 0 1 1 1v16.231H31V27z" fill="#718491" stroke="#718491" stroke-width="2.462" mask="url(#A)"/><g fill="#fff"><path d="M46.167 32.992v1.688h-7.762v-1.688h7.762z"/><rect x="54.692" y="32.15" width="130.462" height="4.923" rx="1.231"/></g><g opacity=".8" fill="#718491"><path d="M38.016 52.154c0-1.02.827-1.846 1.846-1.846h169.846c1.02 0 1.846.827 1.846 1.846S210.728 54 209.708 54H39.862c-1.02 0-1.846-.826-1.846-1.846zm0 11.077c0-1.02.827-1.846 1.846-1.846h169.846c1.02 0 1.846.827 1.846 1.846s-.826 1.846-1.846 1.846H39.862c-1.02 0-1.846-.827-1.846-1.846zm1.846 9.23c-1.02 0-1.846.827-1.846 1.846s.827 1.846 1.846 1.846h100.923c1.019 0 1.846-.826 1.846-1.846s-.827-1.846-1.846-1.846H39.862z"/></g><rect x="31.5" y="89.5" width="186" height="45" rx=".5" fill="#fff" stroke="#718491"/><mask id="B" fill="#fff"><path d="M31 90a1 1 0 0 1 1-1h185a1 1 0 0 1 1 1v16.231H31V90z"/></mask><path d="M31 90a1 1 0 0 1 1-1h185a1 1 0 0 1 1 1v16.231H31V90z" fill="#718491" stroke="#718491" stroke-width="2.462" mask="url(#B)"/><g fill="#fff"><path d="M46.167 95.992v1.688h-7.762v-1.688h7.762z"/><rect x="54.692" y="95.15" width="130.462" height="4.923" rx="1.231"/></g><g opacity=".8" fill="#718491"><path d="M39.862 113.308c-1.02 0-1.846.826-1.846 1.846S38.842 117 39.862 117h169.846c1.02 0 1.846-.827 1.846-1.846s-.826-1.846-1.846-1.846H39.862zm0 11.077c-1.02 0-1.846.826-1.846 1.846s.827 1.846 1.846 1.846h100.923c1.019 0 1.846-.827 1.846-1.846s-.827-1.846-1.846-1.846H39.862z"/></g><rect x="31" y="141" width="187" height="17.231" rx="1" fill="#718491"/><g fill="#fff"><path d="M45.418 149.396v1.565h-7.197v-1.565h7.197zm-2.755-2.942v7.644h-1.68v-7.644h1.68z"/><rect x="54.385" y="147.154" width="130.462" height="4.923" rx="1.231"/></g><g stroke="#f21197" stroke-width="1.5"><rect x="34.75" y="46.75" width="179.5" height="32.5" rx="1.25"/><rect x="34.75" y="109.75" width="179.5" height="21.5" rx="1.25"/></g><g fill="#f21197"><path d="M205 188a4 4 0 1 0 8 0 4 4 0 1 0-8 0zm31 0v.75a.75.75 0 0 0 .75-.75H236zm0-126h.75a.75.75 0 0 0-.75-.75V62zm-20 0l7.5 4.33v-8.66L216 62zm-7 126.75h27v-1.5h-27v1.5zm27.75-.75V62h-1.5v126h1.5zM236 61.25h-13.25v1.5H236v-1.5z"/><path d="M205 188a4 4 0 1 0 8 0 4 4 0 1 0-8 0zm31 0v.75a.75.75 0 0 0 .75-.75H236zm0-68h.75a.75.75 0 0 0-.75-.75v.75zm-20 0l7.5 4.33v-8.66L216 120zm-7 68.75h27v-1.5h-27v1.5zm27.75-.75v-68h-1.5v68h1.5zm-.75-68.75h-13.25v1.5H236v-1.5z"/></g></svg>