<svg xmlns="http://www.w3.org/2000/svg" xmlns:xlink="http://www.w3.org/1999/xlink" width="120" height="80" fill="none"><style><![CDATA[.B{fill:#fff}.C{fill:#718491}.D{fill:#8796a1}.E{fill-rule:evenodd}]]></style><g clip-path="url(#A)"><path d="M4 79.5C2.1 79.5.5 77.9.5 76V4C.5 2.1 2.1.5 4 .5h112c1.9 0 3.5 1.6 3.5 3.5v72c0 1.9-1.6 3.5-3.5 3.5H4z" class="B"/><path d="M116 1c1.7 0 3 1.3 3 3v72c0 1.7-1.3 3-3 3H4c-1.7 0-3-1.3-3-3V4c0-1.7 1.3-3 3-3h112zm0-1H4C1.8 0 0 1.8 0 4v72c0 2.2 1.8 4 4 4h112c2.2 0 4-1.8 4-4V4c0-2.2-1.8-4-4-4z" fill="#ccc"/><path d="M19.479 36.696c-.348 0-.609-.261-.609-.609V20.783c0-.348.261-.609.609-.609h36.608c.348 0 .609.261.609.609v15.304c0 .348-.261.609-.609.609H19.479z" class="B"/><g class="C"><path d="M56.087 20.435c.174 0 .348.174.348.348v15.304c0 .174-.174.348-.348.348H19.479c-.174 0-.348-.174-.348-.348V20.783c0-.174.174-.348.348-.348h36.608zm0-.522H19.479c-.522 0-.87.348-.87.87v15.304c0 .522.348.87.87.87h36.608c.522 0 .87-.348.87-.87V20.783c0-.435-.348-.87-.87-.87z"/><path d="M56.957 22H18.609V13.74c0-.522.348-.87.87-.87h36.608c.522 0 .87.348.87.87V22z"/></g><path d="M45.503 18.957H23.367c-.455 0-.758-.348-.758-.87v-.869c0-.522.303-.87.758-.87h22.136c.455 0 .758.348.758.87v.869c0 .522-.303.87-.758.87z" class="B"/><g class="D"><use xlink:href="#B"/><use xlink:href="#C"/></g><g class="B"><use xlink:href="#D" class="E"/><path d="M63.913 36.696c-.348 0-.609-.261-.609-.609V20.783c0-.348.261-.609.609-.609h36.608c.348 0 .609.261.609.609v15.304c0 .348-.261.609-.609.609H63.913z"/></g><g class="C"><path d="M100.521 20.435c.174 0 .348.174.348.348v15.304c0 .174-.174.348-.348.348H63.913c-.174 0-.348-.174-.348-.348V20.783c0-.174.174-.348.348-.348h36.608zm0-.522H63.913c-.522 0-.87.348-.87.87v15.304c0 .522.348.87.87.87h36.608c.522 0 .87-.348.87-.87V20.783c0-.435-.348-.87-.87-.87z"/><path d="M101.391 22H63.043V13.74c0-.522.348-.87.87-.87h36.608c.522 0 .87.348.87.87V22z"/></g><path d="M89.85 18.957H67.714c-.455 0-.758-.348-.758-.87v-.869c0-.522.303-.87.758-.87H89.85c.455 0 .758.348.758.87v.869c0 .522-.303.87-.758.87z" class="B"/><g class="D"><use xlink:href="#E"/><use xlink:href="#F"/></g><g class="B"><path d="M96.086 15.914c.14 0 .274.055.373.155l2 2a.53.53 0 0 1 0 .746.53.53 0 0 1-.746 0l-1.627-1.627-1.627 1.627a.53.53 0 0 1-.746 0 .53.53 0 0 1 0-.746l2-2c.099-.099.233-.155.373-.155z" class="E"/><path d="M19.479 66.869c-.348 0-.609-.261-.609-.609V50.956c0-.348.261-.609.609-.609h36.608c.348 0 .609.261.609.609V66.26c0 .348-.261.609-.609.609H19.479z"/></g><g class="C"><path d="M56.087 50.609c.174 0 .348.174.348.348V66.26c0 .174-.174.348-.348.348H19.479c-.174 0-.348-.174-.348-.348V50.956c0-.174.174-.348.348-.348h36.608zm0-.522H19.479c-.522 0-.87.348-.87.87V66.26c0 .522.348.87.87.87h36.608c.522 0 .87-.348.87-.87V50.956c0-.435-.348-.87-.87-.87z"/><path d="M56.957 52.174H18.609v-8.261c0-.522.348-.87.87-.87h36.608c.522 0 .87.348.87.87v8.261z"/></g><path d="M45.503 49.13H23.367c-.455 0-.758-.348-.758-.87v-.87c0-.522.303-.87.758-.87h22.136c.455 0 .758.348.758.87v.87c0 .522-.303.87-.758.87z" class="B"/><g class="D"><path d="M49.218 57.391h-26c-.348 0-.609-.261-.609-.696 0-.348.261-.696.609-.696h25.999c.348 0 .696.261.696.696s-.261.696-.696.696zm-4.609 5.304H23.218c-.348 0-.609-.261-.609-.609s.261-.609.609-.609h21.391c.348 0 .696.261.696.609-.087.261-.348.609-.696.609z"/></g><g class="B"><use xlink:href="#G" class="E"/><path d="M63.913 66.869c-.348 0-.609-.261-.609-.609V50.956c0-.348.261-.609.609-.609h36.608c.348 0 .609.261.609.609V66.26c0 .348-.261.609-.609.609H63.913z"/></g><g class="C"><path d="M100.521 50.609c.174 0 .348.174.348.348V66.26c0 .174-.174.348-.348.348H63.913c-.174 0-.348-.174-.348-.348V50.956c0-.174.174-.348.348-.348h36.608zm0-.522H63.913c-.522 0-.87.348-.87.87V66.26c0 .522.348.87.87.87h36.608c.522 0 .87-.348.87-.87V50.956c0-.435-.348-.87-.87-.87z"/><path d="M101.391 52.174H63.043v-8.261c0-.522.348-.87.87-.87h36.608c.522 0 .87.348.87.87v8.261z"/></g><path d="M89.85 49.13H67.714c-.455 0-.758-.348-.758-.87v-.87c0-.522.303-.87.758-.87H89.85c.455 0 .758.348.758.87v.87c0 .522-.303.87-.758.87z" class="B"/><g class="D"><path d="M93.565 57.391h-26c-.348 0-.609-.261-.609-.696 0-.348.261-.696.609-.696h26c.348 0 .696.261.696.696s-.261.696-.696.696zm-4.609 5.304H67.565c-.348 0-.609-.261-.609-.609s.261-.609.609-.609h21.391c.348 0 .696.261.696.609-.087.261-.348.609-.696.609z"/></g><path d="M96.086 46.087c.14 0 .274.056.373.154l2 2a.53.53 0 0 1 0 .746.53.53 0 0 1-.746 0l-1.627-1.627-1.627 1.627a.53.53 0 0 1-.746 0 .53.53 0 0 1 0-.746l2-2c.099-.099.233-.154.373-.154z" class="B E"/></g><defs><clipPath id="A"><path d="M0 0h120v80H0z" class="B"/></clipPath><path id="B" d="M49.218 27.218H23.218c-.348 0-.609-.261-.609-.696 0-.348.261-.696.609-.696h25.999c.348 0 .696.261.696.696s-.261.696-.696.696z"/><path id="C" d="M44.609 32.522H23.218c-.348 0-.609-.261-.609-.609s.261-.609.609-.609h21.391c.348 0 .696.261.696.609-.087.261-.348.609-.696.609z"/><path id="D" d="M51.652 15.914c.14 0 .274.055.373.155l2 2a.53.53 0 0 1 0 .746.53.53 0 0 1-.746 0l-1.627-1.627-1.627 1.627a.53.53 0 0 1-.746 0 .53.53 0 0 1 0-.746l2-2c.099-.099.233-.155.373-.155z"/><path id="E" d="M93.565 27.218h-26c-.348 0-.609-.261-.609-.696 0-.348.261-.696.609-.696h26c.348 0 .696.261.696.696s-.261.696-.696.696z"/><path id="F" d="M88.956 32.522H67.565c-.348 0-.609-.261-.609-.609s.261-.609.609-.609h21.391c.348 0 .696.261.696.609-.087.261-.348.609-.696.609z"/><path id="G" d="M51.652 46.087c.14 0 .274.056.373.154l2 2a.53.53 0 0 1 0 .746.53.53 0 0 1-.746 0l-1.627-1.627-1.627 1.627a.53.53 0 0 1-.746 0 .53.53 0 0 1 0-.746l2-2c.099-.099.233-.154.373-.154z"/></defs></svg>