<svg xmlns="http://www.w3.org/2000/svg" width="250" height="207" fill="none"><style><![CDATA[.M{fill:#fff}.N{fill:#ffd9f1}.O{stroke:#f21197}.P{stroke:#718491}.Q{fill:#718491}.R{stroke-width:.5}]]></style><path d="M0 0h250v207H0z" class="M"/><rect x="35.5" y="181.5" width="11" height="11" rx="5.5" class="N O"/><path d="M52.518 182.969h1.395l2.332 6.422 2.326-6.422h1.4l-3.17 8.531h-1.119l-3.164-8.531zm-.703 0h1.365l.246 5.9v2.631h-1.611v-8.531zm7.488 0h1.371v8.531h-1.611v-2.631l.24-5.9zm6.387 7.183v-2.923c0-.215-.037-.401-.111-.557s-.187-.277-.34-.363-.346-.129-.58-.129c-.207 0-.389.035-.545.105a.8.8 0 0 0-.352.299c-.082.125-.123.27-.123.434h-1.553c0-.262.063-.51.188-.745s.303-.449.533-.632a2.63 2.63 0 0 1 .838-.44c.328-.105.695-.158 1.102-.158.481 0 .908.082 1.283.246s.676.402.891.727.328.732.328 1.224v2.766c0 .316.02.588.059.814s.105.416.188.58v.1h-1.576c-.074-.16-.131-.363-.17-.609s-.059-.496-.059-.739zm.217-2.513l.012.92h-.979c-.242 0-.455.025-.639.076s-.334.117-.451.211-.205.199-.264.328-.088.267-.088.428.035.296.105.421.18.225.316.299.305.106.492.106a1.49 1.49 0 0 0 .715-.164c.203-.114.361-.25.475-.41a.89.89 0 0 0 .182-.458l.445.668a2.58 2.58 0 0 1-.246.51c-.109.18-.25.348-.422.504s-.379.285-.621.387a2.18 2.18 0 0 1-.844.152c-.41 0-.777-.082-1.102-.246s-.58-.389-.768-.674-.281-.609-.281-.972a2.02 2.02 0 0 1 .188-.891 1.7 1.7 0 0 1 .557-.65c.246-.18.551-.315.914-.405s.787-.14 1.26-.14h1.043zm4.283-1.184v5.045h-1.547v-6.34h1.465l.082 1.295zm1.928-1.336l-.023 1.442c-.086-.016-.184-.028-.293-.036l-.299-.011c-.238 0-.447.033-.627.099a1.18 1.18 0 0 0-.451.276 1.21 1.21 0 0 0-.269.445 1.91 1.91 0 0 0-.106.586l-.334-.041a4.82 4.82 0 0 1 .123-1.119c.082-.344.201-.645.357-.903a1.72 1.72 0 0 1 .586-.597c.238-.145.512-.217.82-.217.086 0 .178.008.275.023a1 1 0 0 1 .24.053zm4.764.041h1.406v6.147c0 .574-.125 1.06-.375 1.459s-.592.707-1.037.914-.963.316-1.553.316c-.254 0-.529-.035-.826-.105a3.38 3.38 0 0 1-.85-.334c-.27-.149-.494-.342-.674-.58l.697-.915a2.13 2.13 0 0 0 .715.557c.266.129.553.193.861.193s.578-.058.797-.175.392-.282.51-.504.182-.488.182-.809v-4.717l.147-1.447zm-4.283 3.246v-.123c0-.484.058-.924.176-1.318s.285-.74.504-1.026.49-.505.803-.662a2.38 2.38 0 0 1 1.066-.234c.418 0 .769.076 1.055.228a1.94 1.94 0 0 1 .715.651c.191.281.34.615.445 1.002a8.55 8.55 0 0 1 .252 1.265v.334c-.055.45-.143.862-.264 1.237s-.273.703-.469.984a2.06 2.06 0 0 1-.727.645c-.289.152-.629.228-1.02.228a2.28 2.28 0 0 1-1.055-.24 2.37 2.37 0 0 1-.803-.674c-.219-.289-.387-.629-.504-1.019s-.176-.817-.176-1.278zm1.547-.123v.123c0 .274.027.53.082.768a2.09 2.09 0 0 0 .252.633c.113.179.256.32.428.422s.377.152.615.152c.32 0 .582-.067.785-.199s.363-.323.469-.557a2.55 2.55 0 0 0 .211-.803v-.92a2.78 2.78 0 0 0-.129-.65c-.062-.199-.15-.371-.264-.516s-.258-.257-.434-.34-.385-.123-.627-.123c-.234 0-.439.053-.615.159s-.32.244-.434.427-.199.397-.258.639a3.56 3.56 0 0 0-.082.785zm7.178-3.123v6.34H79.77v-6.34h1.553zm-1.658-1.658c0-.231.078-.422.234-.574s.375-.229.645-.229.482.076.639.229.24.343.24.574a.75.75 0 0 1-.24.568c-.156.153-.369.229-.639.229s-.484-.076-.645-.229a.76.76 0 0 1-.234-.568zm4.652 3.012v4.986H82.77v-6.34h1.453l.094 1.354zm-.246 1.588h-.457c.004-.461.066-.879.188-1.254s.291-.698.51-.967a2.28 2.28 0 0 1 .791-.621c.305-.145.644-.217 1.019-.217.305 0 .58.043.826.129s.457.223.633.41.316.434.41.738.147.672.147 1.114v4.066h-1.559v-4.078c0-.289-.043-.518-.129-.686s-.203-.287-.363-.357-.35-.106-.58-.106a1.29 1.29 0 0 0-.627.147c-.176.094-.324.225-.445.392s-.207.362-.269.581-.094.455-.094.709zm11.807-.405h-2.18l-.012-1.136h1.869c.32 0 .588-.045.803-.135s.377-.221.486-.393.17-.381.17-.627c0-.273-.053-.496-.158-.668s-.262-.297-.481-.375-.496-.123-.832-.123h-1.324v7.26h-1.611v-8.531h2.936c.484 0 .916.047 1.295.14a2.71 2.71 0 0 1 .973.422 1.86 1.86 0 0 1 .604.721c.141.289.211.633.211 1.031 0 .352-.082.676-.246.973s-.408.531-.744.715-.754.289-1.266.316l-.492.41zm-.07 3.803h-2.584l.674-1.266h1.91c.32 0 .584-.052.791-.158s.367-.25.469-.433.158-.403.158-.645a1.58 1.58 0 0 0-.141-.691c-.09-.196-.234-.346-.434-.452s-.453-.158-.773-.158h-1.676l.012-1.136h2.133l.369.439c.492.004.893.102 1.201.293s.543.437.691.738a2.17 2.17 0 0 1 .223.973c0 .547-.119 1.006-.357 1.377s-.578.65-1.031.838-.994.281-1.635.281zm7.148.117c-.48 0-.912-.078-1.295-.234s-.709-.373-.978-.651a2.99 2.99 0 0 1-.616-.978c-.14-.375-.21-.777-.21-1.207v-.235a3.99 3.99 0 0 1 .21-1.33c.141-.402.34-.748.598-1.037s.566-.511.926-.668.756-.234 1.189-.234c.45 0 .846.076 1.19.228s.631.36.861.633.404.602.522.985.175.799.175 1.259v.651h-4.968v-1.067h3.445v-.117c-.008-.246-.055-.47-.141-.674s-.218-.371-.398-.492-.412-.187-.697-.187a1.16 1.16 0 0 0-.604.152 1.21 1.21 0 0 0-.422.422 2.11 2.11 0 0 0-.246.644c-.055.25-.082.528-.082.832v.235c0 .265.035.512.106.738s.181.424.322.592a1.57 1.57 0 0 0 .515.387c.204.09.434.134.692.134.324 0 .617-.062.879-.187a1.96 1.96 0 0 0 .691-.568l.779.808a2.57 2.57 0 0 1-.539.563c-.222.179-.492.326-.808.439s-.682.164-1.096.164zm6.609-6.457v1.113h-3.632v-1.113h3.632zm-2.66-1.558h1.553v6.07c0 .187.025.332.076.433s.127.17.229.206.222.052.363.052a2.21 2.21 0 0 0 .281-.017l.217-.035.006 1.16a2.85 2.85 0 0 1-.44.105 3.18 3.18 0 0 1-.544.041 2.21 2.21 0 0 1-.915-.176 1.31 1.31 0 0 1-.609-.58c-.144-.269-.217-.625-.217-1.066v-6.193zm5.455 6.375l1.389-4.817h.984l-.293 1.664-1.4 4.676h-.85l.17-1.523zm-.767-4.817l1.043 4.828.094 1.512h-.979l-1.664-6.34h1.506zm4.429 4.758l1.02-4.758h1.5l-1.652 6.34h-.979l.111-1.582zm-1.136-4.758l1.377 4.77.181 1.57h-.849l-1.412-4.676-.287-1.664h.99zm7.418 6.457c-.481 0-.912-.078-1.295-.234s-.709-.373-.979-.651c-.265-.281-.47-.607-.615-.978a3.4 3.4 0 0 1-.211-1.207v-.235c0-.488.07-.931.211-1.33s.34-.748.598-1.037.566-.511.926-.668a2.95 2.95 0 0 1 1.189-.234c.449 0 .846.076 1.189.228s.631.36.862.633a2.77 2.77 0 0 1 .521.985c.117.379.176.799.176 1.259v.651h-4.969v-1.067h3.446v-.117c-.008-.246-.055-.47-.141-.674s-.219-.371-.399-.492-.412-.187-.697-.187a1.16 1.16 0 0 0-.603.152 1.21 1.21 0 0 0-.422.422 2.06 2.06 0 0 0-.246.644c-.055.25-.082.528-.082.832v.235a2.49 2.49 0 0 0 .105.738 1.77 1.77 0 0 0 .322.592c.145.164.317.293.516.387a1.69 1.69 0 0 0 .691.134 2.01 2.01 0 0 0 .879-.187c.266-.129.496-.318.692-.568l.779.808c-.133.195-.312.383-.539.563a2.76 2.76 0 0 1-.809.439c-.316.109-.681.164-1.095.164zm6.457 0c-.481 0-.912-.078-1.295-.234s-.709-.373-.979-.651-.47-.607-.615-.978a3.4 3.4 0 0 1-.211-1.207v-.235c0-.488.07-.931.211-1.33s.34-.748.598-1.037.566-.511.926-.668a2.95 2.95 0 0 1 1.189-.234c.449 0 .846.076 1.189.228s.631.36.862.633a2.77 2.77 0 0 1 .521.985c.117.379.176.799.176 1.259v.651h-4.969v-1.067h3.446v-.117c-.008-.246-.055-.47-.141-.674a1.08 1.08 0 0 0-.398-.492c-.18-.125-.413-.187-.698-.187a1.16 1.16 0 0 0-.603.152 1.21 1.21 0 0 0-.422.422c-.109.18-.192.394-.246.644s-.082.528-.082.832v.235a2.49 2.49 0 0 0 .105.738 1.77 1.77 0 0 0 .322.592c.145.164.317.293.516.387s.434.134.692.134c.324 0 .617-.062.878-.187s.497-.318.692-.568l.779.808c-.133.195-.312.383-.539.563a2.76 2.76 0 0 1-.809.439c-.316.109-.681.164-1.095.164zm5.127-5.103v4.986h-1.547v-6.34h1.453l.094 1.354zm-.246 1.588h-.457a4.19 4.19 0 0 1 .187-1.254 2.95 2.95 0 0 1 .51-.967 2.28 2.28 0 0 1 .791-.621 2.34 2.34 0 0 1 1.019-.217 2.5 2.5 0 0 1 .827.129c.246.086.457.223.632.41s.317.434.411.738.146.672.146 1.114v4.066h-1.559v-4.078c0-.289-.043-.518-.128-.686a.72.72 0 0 0-.364-.357c-.156-.07-.349-.106-.58-.106a1.29 1.29 0 0 0-.627.147c-.176.094-.324.225-.445.392s-.207.362-.27.581-.093.455-.093.709zm10.254-5.133v8.531h-1.612v-8.531h1.612zm4.224 7.429c.219 0 .414-.043.586-.128s.309-.208.41-.364a1.02 1.02 0 0 0 .17-.545h1.459a2.06 2.06 0 0 1-.363 1.155c-.235.339-.547.609-.938.808s-.82.293-1.3.293c-.489 0-.914-.082-1.278-.246s-.666-.392-.908-.685-.418-.633-.539-1.02a4.27 4.27 0 0 1-.176-1.242v-.188a4.27 4.27 0 0 1 .176-1.242c.121-.387.301-.726.539-1.019s.545-.522.908-.686.787-.246 1.272-.246c.511 0 .961.1 1.347.299s.696.48.914.844c.223.363.338.791.346 1.283h-1.459c-.008-.227-.058-.43-.152-.61a1.12 1.12 0 0 0-.399-.433c-.172-.11-.38-.164-.627-.164-.261 0-.48.054-.656.164s-.306.26-.404.451-.16.398-.199.633-.053.472-.053.726v.188c0 .258.017.504.053.738s.105.445.199.633.232.33.404.439.399.164.668.164zm3.381-2.003v-.124c0-.464.066-.892.199-1.283s.326-.736.58-1.025.565-.514.932-.674.785-.246 1.254-.246c.476 0 .898.082 1.265.246.372.16.684.385.938.674s.447.631.58 1.025.199.819.199 1.283v.124c0 .46-.066.888-.199 1.283s-.326.732-.58 1.025-.564.514-.932.674-.787.24-1.259.24-.889-.08-1.26-.24-.684-.385-.938-.674-.447-.635-.58-1.025-.199-.823-.199-1.283zm1.547-.124v.124c0 .277.027.537.082.779s.139.455.252.638.26.329.439.434.403.152.657.152.464-.05.644-.152a1.26 1.26 0 0 0 .44-.434c.117-.183.203-.396.257-.638s.082-.502.082-.779v-.124c0-.273-.027-.529-.082-.767s-.14-.455-.257-.639-.262-.334-.446-.439-.396-.164-.65-.164-.465.054-.645.164-.326.252-.439.439-.197.397-.252.639-.082.494-.082.767zm7.043-1.757v4.986h-1.547v-6.34h1.453l.094 1.354zm-.246 1.588h-.457a4.19 4.19 0 0 1 .187-1.254 2.95 2.95 0 0 1 .51-.967 2.28 2.28 0 0 1 .791-.621c.305-.145.645-.217 1.02-.217.304 0 .58.043.826.129s.457.223.633.41.316.434.41.738.146.672.146 1.114v4.066h-1.558v-4.078c0-.289-.043-.518-.129-.686s-.203-.287-.364-.357-.349-.106-.58-.106a1.29 1.29 0 0 0-.627.147c-.175.094-.324.225-.445.392s-.207.362-.269.581a2.55 2.55 0 0 0-.094.709zm11.912 2.05v-2.923a1.29 1.29 0 0 0-.111-.557.81.81 0 0 0-.34-.363c-.153-.086-.346-.129-.58-.129-.207 0-.389.035-.545.105a.8.8 0 0 0-.352.299c-.082.125-.123.27-.123.434h-1.553c0-.262.063-.51.188-.745a1.99 1.99 0 0 1 .533-.632c.234-.188.514-.334.838-.44a3.6 3.6 0 0 1 1.101-.158c.481 0 .909.082 1.284.246s.675.402.89.727.328.732.328 1.224v2.766c0 .316.02.588.059.814s.106.416.188.58v.1h-1.577c-.074-.16-.13-.363-.17-.609s-.058-.496-.058-.739zm.217-2.513l.011.92h-.978c-.242 0-.455.025-.639.076a1.18 1.18 0 0 0-.451.211.86.86 0 0 0-.264.328c-.058.125-.088.267-.088.428s.036.296.106.421.18.225.316.299c.141.071.305.106.493.106.273 0 .511-.055.714-.164.203-.114.362-.25.475-.41s.174-.313.182-.458l.445.668a2.62 2.62 0 0 1-.246.51 2.3 2.3 0 0 1-.422.504c-.172.156-.379.285-.621.387a2.18 2.18 0 0 1-.844.152c-.41 0-.777-.082-1.101-.246s-.581-.389-.768-.674-.281-.609-.281-.972a2.02 2.02 0 0 1 .187-.891 1.7 1.7 0 0 1 .557-.65c.246-.18.551-.315.914-.405s.787-.14 1.26-.14h1.043zm4.254-1.125v4.986h-1.547v-6.34h1.453l.094 1.354zm-.247 1.588h-.457a4.19 4.19 0 0 1 .188-1.254 2.95 2.95 0 0 1 .51-.967 2.27 2.27 0 0 1 .791-.621c.304-.145.644-.217 1.019-.217a2.49 2.49 0 0 1 .826.129 1.56 1.56 0 0 1 .633.41c.18.188.317.434.41.738s.147.672.147 1.114v4.066h-1.559v-4.078c0-.289-.043-.518-.129-.686s-.203-.287-.363-.357-.35-.106-.58-.106a1.29 1.29 0 0 0-.627.147c-.176.094-.324.225-.445.392s-.207.362-.27.581-.094.455-.094.709zm9.235 2.05V182.5h1.558v9h-1.406l-.152-1.348zm-4.072-1.746v-.123c0-.484.054-.924.164-1.318s.277-.74.492-1.026.474-.505.779-.662.658-.234 1.049-.234a2.05 2.05 0 0 1 .99.228c.285.153.528.37.727.651a3.46 3.46 0 0 1 .486 1.002c.121.383.209.805.264 1.265v.334c-.055.45-.143.862-.264 1.237s-.283.703-.486.984a2.13 2.13 0 0 1-.727.645c-.285.152-.619.228-1.002.228s-.734-.08-1.043-.24a2.3 2.3 0 0 1-.779-.674c-.211-.289-.373-.629-.486-1.019s-.164-.817-.164-1.278zm1.552-.123v.123c0 .274.024.53.071.768s.123.449.228.633.24.32.404.422.372.152.61.152c.304 0 .554-.067.75-.199s.353-.323.463-.557.179-.506.211-.803v-.92a2.63 2.63 0 0 0-.123-.65c-.063-.199-.153-.371-.27-.516a1.21 1.21 0 0 0-.422-.34c-.168-.082-.367-.123-.597-.123a1.12 1.12 0 0 0-.61.159 1.16 1.16 0 0 0-.41.427c-.105.184-.184.397-.234.639a4.12 4.12 0 0 0-.071.785zm11.953-5.314v8.531h-1.605v-8.531h1.605zm2.649 0v1.271h-6.873v-1.271h6.873zm2.596 2.191v6.34h-1.553v-6.34h1.553zm-1.659-1.658c0-.231.078-.422.235-.574s.375-.229.644-.229.483.076.639.229.24.343.24.574a.75.75 0 0 1-.24.568c-.156.153-.369.229-.639.229s-.484-.076-.644-.229-.235-.341-.235-.568zm6.135 1.658v1.113h-3.633v-1.113h3.633zm-2.66-1.558h1.553v6.07c0 .187.025.332.076.433s.127.17.228.206.223.052.364.052a2.22 2.22 0 0 0 .281-.017l.217-.035.006 1.16c-.129.043-.276.078-.44.105s-.342.041-.545.041c-.347 0-.652-.058-.914-.176a1.3 1.3 0 0 1-.609-.58c-.145-.269-.217-.625-.217-1.066v-6.193zm5.332-1.102v9h-1.553v-9h1.553zm4.324 9.117c-.48 0-.912-.078-1.295-.234s-.709-.373-.978-.651a2.97 2.97 0 0 1-.615-.978 3.4 3.4 0 0 1-.211-1.207v-.235c0-.488.07-.931.211-1.33s.339-.748.597-1.037.567-.511.926-.668.756-.234 1.189-.234c.45 0 .846.076 1.19.228s.631.36.861.633.405.602.522.985.176.799.176 1.259v.651h-4.969v-1.067h3.445v-.117c-.008-.246-.055-.47-.141-.674s-.218-.371-.398-.492-.412-.187-.697-.187a1.16 1.16 0 0 0-.604.152c-.168.098-.308.238-.422.422a2.11 2.11 0 0 0-.246.644 3.95 3.95 0 0 0-.082.832v.235c0 .265.035.512.106.738s.181.424.322.592.316.293.516.387.433.134.691.134c.324 0 .617-.062.879-.187a1.95 1.95 0 0 0 .691-.568l.78.808a2.62 2.62 0 0 1-.539.563c-.223.179-.493.326-.809.439a3.36 3.36 0 0 1-1.096.164z" fill="#546069"/><rect x="19.5" y="18.5" width="211" height="150" rx="3.5" class="M"/><rect x="19.5" y="18.5" width="211" height="150" rx="3.5" stroke="#bbc2c7"/><rect x="31.5" y="30.5" width="186" height="56" rx=".5" stroke="#8796a1" class="M"/><mask id="A" class="M"><path d="M31 31a1 1 0 0 1 1-1h185a1 1 0 0 1 1 1v16H31V31z"/></mask><path d="M31 31a1 1 0 0 1 1-1h185a1 1 0 0 1 1 1v16H31V31z" stroke-width="2.462" mask="url(#A)" class="P"/><path d="M37.461 32h9.846v12.308h-9.846z" class="M"/><g class="Q"><path d="M46.167 36.992v1.688h-7.762v-1.688h7.762z"/><rect x="58" y="36" width="130.462" height="4.923" rx="1.231"/></g><g opacity=".8" fill="#8796a1"><rect x="38.016" y="54.308" width="173.538" height="3.692" rx="1.846"/><rect x="38.016" y="65.385" width="173.538" height="3.692" rx="1.846"/><rect x="38.016" y="76.461" width="104.615" height="3.692" rx="1.846"/></g><path d="M48.25 32.25h7.5v12.5h-7.5z" class="N O R"/><rect x="31.5" y="93.5" width="186" height="16.231" rx=".5" class="M P"/><g class="Q"><path d="M45.418 101.396v1.565h-7.197v-1.565h7.197zm-2.755-2.942v7.644h-1.68v-7.644h1.68z"/><rect x="58" y="99.154" width="130.462" height="4.923" rx="1.231"/></g><path d="M48.25 95.25h7.5v12.5h-7.5z" class="N O R"/><rect x="31.5" y="116.731" width="186" height="16.231" rx=".5" class="M P"/><g class="Q"><path d="M45.418 124.627v1.564h-7.197v-1.564h7.197zm-2.755-2.943v7.644h-1.68v-7.644h1.68z"/><rect x="58" y="122.385" width="130.462" height="4.923" rx="1.231"/></g><path d="M48.25 118.25h7.5v12.5h-7.5z" class="N O R"/><rect x="31.5" y="139.961" width="186" height="16.231" rx=".5" class="M P"/><g class="Q"><path d="M45.418 147.857v1.565h-7.197v-1.565h7.197zm-2.755-2.942v7.644h-1.68v-7.644h1.68z"/><rect x="58" y="145.615" width="130.462" height="4.923" rx="1.231"/></g><path d="M48.25 141.75h7.5v12.5h-7.5z" class="N O R"/><path d="M29.333 187c0 1.473 1.194 2.667 2.667 2.667s2.667-1.194 2.667-2.667-1.194-2.667-2.667-2.667-2.667 1.194-2.667 2.667zm-6.833 0H22a.5.5 0 0 0 .5.5v-.5zm0-20v-.5a.5.5 0 0 0-.5.5h.5zm29 0v.5a.5.5 0 0 0 .5-.5h-.5zm0-10.5l-2.887 5h5.774l-2.887-5zm-19.5 30h-9.5v1H32v-1zm-9 .5v-20h-1v20h1zm-.5-19.5h29v-1h-29v1zM52 167v-6h-1v6h1z" fill="#f21197"/></svg>