<svg xmlns="http://www.w3.org/2000/svg" width="16" height="16" fill="none" ><g clip-path="url(#A)" fill="#444d54"><path d="M9.204 3.333l-.983.983c.373.572.308 1.345-.194 1.841l-.405.405a1.46 1.46 0 0 1-1.836.194l-.988.983 1.301 1.307-1.507 1.507c-.227.227-1.458 1.831-1.231 2.057s1.825-1.01 2.052-1.237l1.512-1.507 1.301 1.301.988-.983c-.373-.572-.308-1.339.189-1.841l.405-.405c.239-.238.551-.387.886-.422s.672.045.955.228l.988-.983-3.434-3.429z"/><path fill-rule="evenodd" d="M0 1.333C0 .597.597 0 1.333 0h13.333C15.403 0 16 .597 16 1.333v13.333c0 .736-.597 1.333-1.333 1.333H1.333C.597 16 0 15.403 0 14.667V1.333zm1.333 0h13.333v13.333H1.333V1.333z"/></g><defs><clipPath id="A"><rect width="16" height="16" rx=".667" fill="#fff"/></clipPath></defs></svg>