<svg xmlns="http://www.w3.org/2000/svg" width="250" height="207" fill="none" ><path fill="#fff" d="M0 0h250v207H0z"/><rect x="81.5" y="174.5" width="11" height="11" rx="5.5" fill="#ffd9f1" stroke="#f21197"/><path d="M101.477 175.969v8.531h-1.606v-8.531h1.606zm2.648 0v1.271h-6.873v-1.271h6.873zm2.596 2.191v6.34h-1.553v-6.34h1.553zm-1.659-1.658c0-.231.079-.422.235-.574s.375-.229.644-.229.483.076.639.229.24.343.24.574a.75.75 0 0 1-.24.568c-.156.153-.369.229-.639.229s-.484-.076-.644-.229a.76.76 0 0 1-.235-.568zm6.135 1.658v1.113h-3.633v-1.113h3.633zm-2.66-1.558h1.553v6.07c0 .187.025.332.076.433s.127.17.229.206.222.052.363.052a2.22 2.22 0 0 0 .281-.017l.217-.035.006 1.16c-.129.043-.276.078-.44.105s-.342.041-.545.041c-.347 0-.652-.058-.914-.176s-.465-.314-.609-.58-.217-.625-.217-1.066v-6.193zm5.332-1.102v9h-1.553v-9h1.553zm4.324 9.117c-.48 0-.912-.078-1.295-.234s-.709-.373-.978-.651a2.97 2.97 0 0 1-.615-.978 3.4 3.4 0 0 1-.211-1.207v-.235c0-.488.07-.931.211-1.33s.34-.748.597-1.037.567-.511.926-.668a2.96 2.96 0 0 1 1.19-.234c.449 0 .845.076 1.189.228s.631.36.861.633.405.602.522.985.176.799.176 1.259v.651h-4.969v-1.067h3.445v-.117c-.008-.246-.054-.47-.14-.674s-.219-.371-.399-.492-.412-.187-.697-.187a1.16 1.16 0 0 0-.604.152c-.168.098-.308.238-.422.422a2.11 2.11 0 0 0-.246.644 3.95 3.95 0 0 0-.082.832v.235a2.49 2.49 0 0 0 .106.738c.074.227.181.424.322.592s.316.293.516.387.433.134.691.134c.324 0 .617-.062.879-.187a1.95 1.95 0 0 0 .691-.568l.78.808a2.62 2.62 0 0 1-.539.563c-.223.179-.493.326-.809.439a3.36 3.36 0 0 1-1.096.164zm9.996-3.228h-2.197v-1.266h2.197c.36 0 .651-.059.873-.176s.393-.285.499-.492.158-.451.158-.721c0-.261-.053-.505-.158-.732s-.272-.41-.499-.551-.513-.211-.873-.211h-1.669v7.26h-1.612v-8.531h3.281c.665 0 1.231.119 1.7.357s.832.561 1.078.979.375.886.375 1.418c0 .55-.125 1.025-.375 1.423s-.606.706-1.078.92-1.035.323-1.7.323zm7.723 1.763v-2.923a1.29 1.29 0 0 0-.111-.557c-.074-.156-.188-.277-.34-.363s-.346-.129-.58-.129c-.207 0-.389.035-.545.105s-.27.17-.352.299-.123.27-.123.434h-1.552c0-.262.062-.51.187-.745a1.99 1.99 0 0 1 .533-.632 2.64 2.64 0 0 1 .838-.44c.328-.105.695-.158 1.102-.158.48 0 .908.082 1.283.246s.676.402.891.727.328.732.328 1.224v2.766c0 .316.019.588.058.814s.106.416.188.58v.1h-1.576a2.3 2.3 0 0 1-.17-.609c-.039-.25-.059-.496-.059-.739zm.217-2.513l.012.92h-.979c-.242 0-.455.025-.639.076a1.18 1.18 0 0 0-.451.211.85.85 0 0 0-.263.328.99.99 0 0 0-.088.428c0 .156.035.296.105.421s.18.225.317.299.304.106.492.106c.273 0 .511-.055.715-.164.203-.114.361-.25.474-.41s.174-.313.182-.458l.445.668a2.62 2.62 0 0 1-.246.51 2.27 2.27 0 0 1-.422.504c-.172.156-.379.285-.621.387s-.523.152-.844.152c-.41 0-.777-.082-1.101-.246a1.96 1.96 0 0 1-.768-.674c-.187-.285-.281-.609-.281-.972a2.02 2.02 0 0 1 .187-.891 1.7 1.7 0 0 1 .557-.65c.246-.18.551-.315.914-.405s.787-.14 1.26-.14h1.043zm6.539 2.513V175.5h1.559v9h-1.407l-.152-1.348zm-4.072-1.746v-.123c0-.484.054-.924.164-1.318s.277-.74.492-1.026.475-.505.779-.662.658-.234 1.049-.234a2.05 2.05 0 0 1 .99.228c.285.153.528.37.727.651a3.46 3.46 0 0 1 .486 1.002c.121.383.209.805.264 1.265v.334c-.055.45-.143.862-.264 1.237s-.283.703-.486.984a2.13 2.13 0 0 1-.727.645c-.285.152-.619.228-1.002.228s-.734-.08-1.043-.24a2.3 2.3 0 0 1-.779-.674c-.211-.289-.373-.629-.486-1.019s-.164-.817-.164-1.278zm1.552-.123v.123c0 .274.024.53.071.768s.123.449.228.633.241.32.405.422.371.152.609.152c.305 0 .555-.067.75-.199s.353-.323.463-.557.18-.506.211-.803v-.92a2.63 2.63 0 0 0-.123-.65c-.063-.199-.153-.371-.27-.516a1.21 1.21 0 0 0-.422-.34c-.168-.082-.367-.123-.597-.123a1.12 1.12 0 0 0-.61.159 1.17 1.17 0 0 0-.41.427c-.105.184-.183.397-.234.639a4.12 4.12 0 0 0-.071.785zm9.282 1.869V175.5h1.558v9h-1.406l-.152-1.348zm-4.073-1.746v-.123c0-.484.055-.924.164-1.318.114-.399.278-.74.493-1.026s.474-.505.779-.662.658-.234 1.049-.234a2.05 2.05 0 0 1 .99.228c.285.153.527.37.727.651a3.46 3.46 0 0 1 .486 1.002c.121.383.209.805.264 1.265v.334c-.055.45-.143.862-.264 1.237s-.283.703-.486.984-.442.492-.727.645-.619.228-1.002.228-.734-.08-1.043-.24a2.29 2.29 0 0 1-.779-.674c-.211-.289-.373-.629-.487-1.019-.109-.391-.164-.817-.164-1.278zm1.553-.123v.123c0 .274.024.53.07.768s.124.449.229.633.24.32.404.422.371.152.61.152c.304 0 .554-.067.75-.199s.353-.323.463-.557.179-.506.21-.803v-.92a2.54 2.54 0 0 0-.123-.65c-.062-.199-.152-.371-.269-.516a1.21 1.21 0 0 0-.422-.34 1.35 1.35 0 0 0-.598-.123c-.238 0-.441.053-.609.159a1.16 1.16 0 0 0-.41.427c-.106.184-.184.397-.235.639-.046.242-.07.504-.07.785zm7.119-3.123v6.34h-1.552v-6.34h1.552zm-1.658-1.658c0-.231.078-.422.234-.574.161-.153.375-.229.645-.229s.482.076.639.229.24.343.24.574a.75.75 0 0 1-.24.568c-.157.153-.369.229-.639.229s-.484-.076-.645-.229a.76.76 0 0 1-.234-.568zm4.652 3.012v4.986h-1.546v-6.34h1.453l.093 1.354zm-.246 1.588h-.457a4.19 4.19 0 0 1 .188-1.254 2.95 2.95 0 0 1 .51-.967 2.27 2.27 0 0 1 .791-.621c.304-.145.644-.217 1.019-.217a2.49 2.49 0 0 1 .826.129c.246.086.457.223.633.41s.317.434.41.738.147.672.147 1.114v4.066h-1.559v-4.078c0-.289-.043-.518-.129-.686s-.203-.287-.363-.357-.35-.106-.58-.106a1.29 1.29 0 0 0-.627.147c-.176.094-.324.225-.445.392a1.93 1.93 0 0 0-.27.581c-.062.218-.094.455-.094.709zm9.463-2.942h1.406v6.147c0 .574-.125 1.06-.375 1.459s-.591.707-1.037.914-.963.316-1.552.316c-.254 0-.53-.035-.827-.105a3.37 3.37 0 0 1-.849-.334c-.27-.149-.494-.342-.674-.58l.697-.915c.211.247.45.432.715.557s.553.193.861.193c.313 0 .579-.058.797-.175a1.16 1.16 0 0 0 .51-.504c.121-.219.182-.488.182-.809v-4.717l.146-1.447zm-4.283 3.246v-.123c0-.484.059-.924.176-1.318s.285-.74.504-1.026a2.34 2.34 0 0 1 .802-.662c.317-.156.672-.234 1.067-.234.418 0 .769.076 1.055.228s.527.37.714.651.34.615.446 1.002.193.805.252 1.265v.334c-.055.45-.143.862-.264 1.237a3.56 3.56 0 0 1-.469.984c-.195.277-.437.492-.726.645s-.629.228-1.02.228-.742-.08-1.055-.24-.58-.385-.802-.674-.387-.629-.504-1.019a4.44 4.44 0 0 1-.176-1.278zm1.547-.123v.123c0 .274.027.53.082.768s.139.449.252.633a1.27 1.27 0 0 0 .428.422c.172.101.377.152.615.152.32 0 .582-.067.785-.199a1.29 1.29 0 0 0 .469-.557c.109-.238.179-.506.211-.803v-.92c-.02-.234-.063-.451-.129-.65a1.63 1.63 0 0 0-.264-.516c-.113-.144-.258-.257-.433-.34s-.385-.123-.627-.123a1.17 1.17 0 0 0-.616.159 1.23 1.23 0 0 0-.433.427c-.114.184-.199.397-.258.639a3.54 3.54 0 0 0-.082.785z" fill="#546069"/><rect x="19.5" y="26.5" width="211" height="138" rx="3.5" fill="#fff"/><rect x="19.5" y="26.5" width="211" height="138" rx="3.5" stroke="#bbc2c7"/><g fill="#fff" stroke="#718491"><rect x="31.5" y="38.5" width="186" height="87" rx=".5"/><path d="M32 38.5h185a.5.5 0 0 1 .5.5v17.5h-186V39a.5.5 0 0 1 .5-.5z"/></g><g fill="#32383c"><path d="M48.167 46.761v1.688h-7.762v-1.688h7.762z"/><rect x="54.692" y="45.461" width="154.46" height="4.923" rx="1.231"/></g><rect x="31.808" y="136.962" width="186.077" height="16.231" rx=".5" fill="#fff" stroke="#718491"/><g fill="#32383c"><path d="M45.725 144.857v1.565h-7.197v-1.565h7.197zm-2.755-2.942v7.644h-1.68v-7.644h1.68z"/><rect x="54.692" y="142.615" width="130.462" height="4.923" rx="1.231"/></g><g opacity=".8" fill="#8796a1"><rect x="37" y="66.308" width="174" height="3.692" rx="1.846"/><rect x="37" y="77.385" width="174" height="3.692" rx="1.846"/><rect x="37" y="88.461" width="174" height="3.692" rx="1.846"/><rect x="37" y="99.538" width="174" height="3.692" rx="1.846"/><rect x="37" y="110.615" width="104.615" height="3.692" rx="1.846"/></g><path d="M32.75 40.25h5.5v15h-5.5zm177.5 0h5.5v15h-5.5zm-171 0h169.5v3.5H39.25zm0 11.5h169.5v3.5H39.25z" fill="#ffd9f1" stroke="#f21197" stroke-width=".5"/><path d="M171 181a4 4 0 1 0 8 0 4 4 0 1 0-8 0zm67 0v.75a.75.75 0 0 0 .75-.75H238zm0-133h.75a.75.75 0 0 0-.75-.75V48zm-20 0l7.5 4.33v-8.66L218 48zm-43 133.75h63v-1.5h-63v1.5zm63.75-.75V48h-1.5v133h1.5zM238 47.25h-13.25v1.5H238v-1.5z" fill="#f21197"/></svg>