<svg xmlns="http://www.w3.org/2000/svg" xmlns:xlink="http://www.w3.org/1999/xlink" width="120" height="80" fill="none"><g clip-path="url(#A)"><path d="M4 79.5C2.1 79.5.5 77.9.5 76V4C.5 2.1 2.1.5 4 .5h112c1.9 0 3.5 1.6 3.5 3.5v72c0 1.9-1.6 3.5-3.5 3.5H4z" fill="#fff"/><path d="M116 1c1.7 0 3 1.3 3 3v72c0 1.7-1.3 3-3 3H4c-1.7 0-3-1.3-3-3V4c0-1.7 1.3-3 3-3h112zm0-1H4C1.8 0 0 1.8 0 4v72c0 2.2 1.8 4 4 4h112c2.2 0 4-1.8 4-4V4c0-2.2-1.8-4-4-4z" fill="#ccc"/><path d="M100.946 67h-81.9c-.54 0-.9-.36-.9-.9v-9.81c0-.54.36-.9.9-.9h81.81c.54 0 .9.36.9.9v9.81c.09.54-.36.9-.81.9z" fill="#718491"/><path d="M79.526 62.59h-54.45c-.54 0-.9-.36-.9-.9v-.9c0-.54.36-.9.9-.9h54.45c.54 0 .9.36.9.9v.9c0 .45-.45.9-.9.9z" fill="#fff"/><path d="M89.876 59.71l2.97 2.97 2.97-2.97" stroke="#fff" stroke-width="1.567" stroke-miterlimit="10" stroke-linecap="round" stroke-linejoin="round"/><path d="M19.046 48.82c-.27 0-.45-.18-.45-.45V23.71c0-.27.18-.45.45-.45h81.81c.27 0 .45.18.45.45v24.57c0 .27-.18.45-.45.45h-81.81v.09z" fill="#fff"/><g fill="#718491"><path d="M100.856 23.8v24.48h-81.72V23.8h81.72zm.09-.99h-81.9c-.54 0-.9.36-.9.9v24.57c0 .54.36.9.9.9h81.81c.54 0 .9-.36.9-.9V23.71c.09-.45-.36-.9-.81-.9z"/><path d="M100.946 24.61h-81.9c-.54 0-.9-.36-.9-.9V13.9c0-.54.36-.9.9-.9h81.81c.54 0 .9.36.9.9v9.81c.09.54-.36.9-.81.9z"/></g><path d="M79.526 20.11h-54.45c-.54 0-.9-.36-.9-.9v-.9c0-.54.36-.9.9-.9h54.45c.54 0 .9.36.9.9v.9c0 .54-.45.9-.9.9z" fill="#fff"/><path d="M95.816 20.29l-2.97-2.97-2.97 2.97" stroke="#fff" stroke-width="1.567" stroke-miterlimit="10" stroke-linecap="round" stroke-linejoin="round"/><g fill="#8796a1"><use xlink:href="#B"/><path d="M95.276 37.12h-70.56a.71.71 0 0 1-.72-.72c0-.36.27-.63.72-.63h70.47c.36 0 .72.27.72.63 0 .45-.27.72-.63.72zm-13.59 6.3h-56.97a.71.71 0 0 1-.72-.72c0-.36.27-.63.72-.63h56.97c.36 0 .72.27.72.63s-.36.72-.72.72z"/></g></g><defs><clipPath id="A"><path fill="#fff" d="M0 0h120v80H0z"/></clipPath><path id="B" d="M95.276 30.82h-70.56a.71.71 0 0 1-.72-.72c0-.36.27-.63.72-.63h70.47c.36 0 .72.27.72.63 0 .45-.27.72-.63.72z"/></defs></svg>