<svg xmlns="http://www.w3.org/2000/svg" width="42" height="42" fill="#fe7c4d" xmlns:v="https://vecta.io/nano"><path d="M37.188 38.5c.724 0 1.313-.588 1.313-1.312V4.813c0-.724-.588-1.312-1.312-1.312H4.813c-.724 0-1.312.588-1.312 1.313v32.375c0 .724.588 1.313 1.313 1.313h32.375zm0 3.5H4.813A4.82 4.82 0 0 1 0 37.188V4.813A4.82 4.82 0 0 1 4.813 0h32.375A4.82 4.82 0 0 1 42 4.813v32.375A4.82 4.82 0 0 1 37.188 42zm-4.44-28.157L26.623 9.03c-.852-.675-2.123-.065-2.123 1.033v3.063h-14a1.75 1.75 0 1 0 0 3.5h14v3.063c0 1.099 1.274 1.708 2.123 1.032l6.125-4.812a1.31 1.31 0 0 0 0-2.065zM31.5 25.375h-14v-3.062c0-1.097-1.27-1.708-2.123-1.032l-6.125 4.813a1.31 1.31 0 0 0 0 2.065l6.125 4.813c.849.675 2.123.066 2.123-1.032v-3.062h14a1.75 1.75 0 1 0 0-3.5z"/></svg>