<svg xmlns="http://www.w3.org/2000/svg" viewBox="0 0 1200 1200" fill="#20b040" xmlns:v="https://vecta.io/nano"><path d="M199.3 370.7l97.3 346.9h606.8l97.3-346.9c-6-4.8-11.5-11.1-16.5-18l-87.4 94.1c-44.6 48-100.2 62.3-152.7 39.2-26.5-11.8-51.4-32.7-71.6-61.1-21.5-30-37.3-66.7-47.5-108.9l-10.7-45.2c-4.7 1.4-9.5 2.1-14.5 2.1s-9.9-.7-14.5-2.1L574.6 316c-10 42.4-26 79.1-47.5 108.9-20.2 28.4-45.1 49.4-71.6 61.1-52.3 23.1-108.1 8.8-152.7-39.2l-87.4-94.1c-4.4 7-10.1 13.2-16.1 18h0zm690.5 558.4l9.2-180.4H300.9l9.2 180.4h579.7z"/></svg>