<?xml version="1.0" encoding="UTF-8"?>
<svg width="20px" height="20px" version="1.1" viewBox="0 0 1200 1200" xmlns="http://www.w3.org/2000/svg">
 <g fill="#11b916">
  <path d="m975 243.75c0-10.352-8.4375-18.75-18.75-18.75-140.77 0.26172-250.05 6.3008-393.75 150-41.176 41.176-73.801 85.164-99.562 127.35-60.637-34.539-138.49-15.824-175.99 43.836l-58.836 93.75c-7.7266 12.301-3.3359 17.137 10.426 12.602 31.352-10.312 89.664-22.949 155.4-4.7617-8.3984 23.961-13.648 42.824-16.387 53.812-1.5391 6.0391 1.0117 14.512 5.3984 18.898l96.602 96.602c4.3867 4.3867 12.863 6.9375 18.863 5.3984 10.988-2.7383 29.852-7.9883 53.852-16.426 18.188 65.773 5.5859 124.09-4.7266 155.44-4.5391 13.727 0.30078 18.113 12.562 10.387l93.75-58.801c59.625-37.5 78.414-115.31 43.836-175.99 42.148-25.797 86.137-58.422 127.31-99.598 143.7-143.7 149.74-252.98 150-393.75zm-225 281.25c-41.398 0-75-33.602-75-75s33.602-75 75-75 75 33.602 75 75-33.602 75-75 75z"/>
  <path d="m337.5 862.5c-37.5-37.5 0-112.5 0-112.5-98.477 32.812-82.051 137.48-88.949 188.25-1.4258 10.238 3 14.664 13.273 13.273 50.699-6.9727 155.36 9.4531 188.18-89.023 0 0-75 37.5-112.5 0z"/>
 </g>
</svg>
