<svg id="Layer_1" data-name="Layer 1" xmlns="http://www.w3.org/2000/svg" xmlns:xlink="http://www.w3.org/1999/xlink" viewBox="0 0 96 96"><defs><style>.cls-1{fill:none;}.cls-2{fill:#eff7ff;}.cls-3{clip-path:url(#clip-path);}.cls-4{fill:url(#linear-gradient);}.cls-5{fill:url(#linear-gradient-2);}.cls-6{fill:url(#linear-gradient-3);}.cls-7{fill:#fff;}.cls-8{clip-path:url(#clip-path-2);}.cls-9{fill:url(#linear-gradient-4);}</style><clipPath id="clip-path"><rect class="cls-1" width="96" height="96" rx="9"/></clipPath><linearGradient id="linear-gradient" x1="49.16" y1="48.84" x2="105.69" y2="115.67" gradientUnits="userSpaceOnUse"><stop offset="0.01" stop-color="#e542ff" stop-opacity="0.14"/><stop offset="1" stop-color="#7543ff" stop-opacity="0"/></linearGradient><linearGradient id="linear-gradient-2" x1="17.75" y1="48" x2="80" y2="48" gradientUnits="userSpaceOnUse"><stop offset="0" stop-color="#6643f7" stop-opacity="0"/><stop offset="1" stop-color="#6643f7"/></linearGradient><linearGradient id="linear-gradient-3" x1="76.48" y1="77.29" x2="19.85" y2="19.05" gradientUnits="userSpaceOnUse"><stop offset="0" stop-color="#6c4aff"/><stop offset="1" stop-color="#a64dfe"/></linearGradient><clipPath id="clip-path-2"><rect class="cls-1" y="-138.71" width="96" height="96" rx="9"/></clipPath><linearGradient id="linear-gradient-4" x1="49.16" y1="-89.86" x2="105.69" y2="-23.04" xlink:href="#linear-gradient"/></defs><rect class="cls-2" width="96" height="96" rx="9"/><g class="cls-3"><polygon class="cls-4" points="134.95 87.85 71.27 139.82 18.95 75.82 78.42 18.59 134.95 87.85"/></g><rect class="cls-5" x="17.75" y="16" width="62.25" height="64" rx="7"/><rect class="cls-6" x="17.75" y="17.75" width="60.5" height="60.5" rx="6"/><rect class="cls-7" x="31" y="32" width="34" height="6" rx="3"/><rect class="cls-7" x="41" y="45" width="24" height="6" rx="3"/><rect class="cls-7" x="41" y="58" width="24" height="6" rx="3"/><circle class="cls-7" cx="34" cy="48" r="3"/><circle class="cls-7" cx="34" cy="61" r="3"/><g class="cls-8"><polygon class="cls-9" points="134.95 -50.86 71.27 1.11 18.95 -62.88 78.42 -120.12 134.95 -50.86"/></g></svg>