<?xml version="1.0" ?><!DOCTYPE svg  PUBLIC '-//W3C//DTD SVG 1.1//EN'  'http://www.w3.org/Graphics/SVG/1.1/DTD/svg11.dtd'><svg enable-background="new 0 0 512 512" height="512px" id="Layer_1" version="1.1" viewBox="0 0 512 512" width="512px" xml:space="preserve" xmlns="http://www.w3.org/2000/svg" xmlns:xlink="http://www.w3.org/1999/xlink"><path d="M491.924,442.879c0,34.172-27.702,61.873-61.873,61.873H80.308c-34.171,0-61.874-27.701-61.874-61.873  V93.135c0-34.171,27.703-61.873,61.874-61.873h349.743c34.171,0,61.873,27.702,61.873,61.873V442.879z" fill="#D3165A"/><path d="M491.924,418.135c0,34.172-27.702,61.873-61.873,61.873H80.308c-34.171,0-61.874-27.701-61.874-61.873  V68.391c0-34.171,27.703-61.872,61.874-61.872h349.743c34.171,0,61.873,27.701,61.873,61.872V418.135z" fill="#F68BAD"/><path d="M491.924,311.35l-99.014-99.014l-44.07-6.402l-93.662-93.662l-42.561,86.239l-95.168,13.825l1.022,0.997  l-0.022,0.003l1.022,0.997l-0.022,0.003l1.022,0.997l-0.022,0.003l1.022,0.997l-0.022,0.003l1.022,0.997l-0.022,0.003l1.022,0.997  l-0.022,0.003l1.022,0.997l-0.022,0.003l1.022,0.997l-0.022,0.003l1.022,0.997l-0.022,0.003l1.022,0.997l-0.022,0.003l1.022,0.997  l-0.022,0.003l1.022,0.997l-0.022,0.003l1.022,0.997l-0.022,0.003l1.022,0.997l-0.022,0.003l1.022,0.997l-0.022,0.003l1.022,0.997  l-0.022,0.003l1.022,0.997l-0.022,0.003l1.022,0.997l-0.022,0.003l1.022,0.997l-0.022,0.003l1.022,0.997l-0.022,0.003l1.022,0.997  l-0.022,0.003l1.022,0.997l-0.022,0.003l1.022,0.997l-0.022,0.003l1.022,0.997l-0.022,0.003l1.022,0.997l-0.022,0.003l1.022,0.997  l-0.022,0.003l1.022,0.997l-0.022,0.003l1.022,0.997l-0.022,0.003l1.022,0.997l-0.022,0.003l1.022,0.997l-0.022,0.003l1.022,0.997  l-0.022,0.003l1.022,0.997l-0.022,0.003l1.022,0.997l-0.022,0.003l1.022,0.997l-0.022,0.003l1.022,0.997l-0.022,0.003l1.022,0.997  l-0.022,0.003l1.022,0.997l-0.022,0.003l1.022,0.997l-0.022,0.003l1.022,0.997l-0.022,0.003l1.022,0.997l-0.022,0.003l1.022,0.997  l-0.022,0.003l1.022,0.997l-0.022,0.003l1.022,0.997l-0.022,0.003l1.022,0.997l-0.022,0.003l1.022,0.996l-0.022,0.004l1.022,0.996  l-0.022,0.004l1.022,0.996l-0.022,0.004l1.022,0.996l-0.022,0.004l1.022,0.996l-0.022,0.004l1.022,0.996l-0.022,0.004l1.022,0.996  l-0.022,0.004l1.022,0.996l-0.022,0.004l1.022,0.996l-0.022,0.004l1.022,0.996l-0.022,0.004l1.022,0.996l-0.022,0.004l1.022,0.996  l-0.022,0.004l1.022,0.996l-0.022,0.004l1.022,0.996l-0.022,0.004l1.022,0.996l-0.022,0.004l1.022,0.996l-0.022,0.004l1.022,0.996  l-0.022,0.004l1.022,0.996l-0.022,0.004l1.022,0.996l-0.022,0.004l1.022,0.996l-0.022,0.004l1.022,0.996l-0.022,0.004l1.022,0.996  l-0.022,0.004l1.022,0.996l-0.022,0.004l1.022,0.996l-0.022,0.004l0.613,0.599l-16.004,93.318l105.756,105.755h128.395l0.969-0.51  l0.969,0.51h23.904c34.171,0,61.873-27.701,61.873-61.873V311.35z" fill="#F0457C"/><polygon clip-rule="evenodd" fill="#FFFFFF" fill-rule="evenodd" points="255.178,112.271 297.74,198.511 392.91,212.336   324.047,279.466 340.301,374.253 255.178,329.498 170.059,374.253 186.314,279.466 117.449,212.336 212.617,198.511 "/></svg>