<?xml version="1.0" encoding="UTF-8"?>
<!-- Generator: Adobe Illustrator 20.1.0, SVG Export Plug-In . SVG Version: 6.00 Build 0)  -->
<svg version="1.1" id="Capa_1" xmlns="http://www.w3.org/2000/svg" xmlns:xlink="http://www.w3.org/1999/xlink" x="0px" y="0px" viewBox="0 0 331.9 437.7" style="enable-background:new 0 0 331.9 437.7;" xml:space="preserve">
<style type="text/css">
	.st0{fill:#96281B;}
</style>
<g>
	<path class="st0" d="M279.5,3.8l-9.5,10.4l-10.4-9.5c-4.7-4.3-12.1-4-16.4,0.7c-4.4,4.8-4,12.1,0.7,16.4l10.5,9.6   c-22.1,7.9-38.1,28.7-38.5,53.5c-1.8,104.1-61,197.1-154.5,242.7C39,338.4,27,361.7,29.1,385.1L16,379.6   c-5.9-2.5-12.8,0.3-15.2,6.3c-2.4,5.9,0.4,12.7,6.3,15.2l13,5.4l-5.4,13c-2.4,5.9,0.4,12.7,6.3,15.2c5.3,2.2,11.3,0.2,14.2-4.5   c0.4-0.6,0.7-1.2,0.9-1.8l5.2-12.5c16.6,20.8,45.9,28.2,70.8,16.1C178.7,399.4,233,350.1,271,290.5s59.7-129.7,60.9-203.7   c0.5-27.7-18.6-51.2-44.5-57.4l9.1-10c0.5-0.5,0.9-1,1.3-1.6c3-4.7,2.3-10.9-2-14.8C291.1-1.3,283.8-0.9,279.5,3.8z M254.3,73.4   c-0.1,3.9,4.2,10.6,7.9,16.6c6.1,9.6,13,20.5,11.1,32.6c-1.9,12.3-11.9,20.6-20.7,28c-5,4.2-11.3,9.4-12.4,13.1   c-1.1,3.7,1.1,11.3,3.1,18c3.3,11,6.9,23.4,1.8,34.6c-0.5,1.1-1.1,2.2-1.8,3.3c-5.8,9.1-16.3,13.8-25.7,18   c-6.3,2.8-13.5,6.1-15.6,9.3c-2,3.2-1.9,11.1-1.8,18c0.2,11.4,0.4,24.5-7.7,33.8c-8,9.4-20.8,11.3-32.1,13   c-6.9,1-14.7,2.2-17.6,4.8c-2.8,2.5-4.9,10.4-6.6,16.8c-3,11.1-6.3,23.7-16.6,30.6c-10.2,6.8-22.9,5.2-34.3,3.7   c-7-0.9-14.8-1.9-18.3-0.2c-5.8,2.8-12.7,0.4-15.5-5.3c-2.8-5.8-0.4-12.7,5.3-15.5c9.8-4.8,21.3-3.3,31.5-2c6.5,0.8,15.4,2,18.4,0   c3-2,5.3-10.5,7.1-17.3c2.6-9.8,5.6-21,13.6-28.1c8.1-7.2,19.5-8.9,29.6-10.4c6.9-1,15.5-2.3,17.8-5c2.4-2.7,2.2-11.5,2.1-18.5   c-0.1-10.2-0.3-21.8,5.5-30.8c5.8-9.1,16.3-13.8,25.6-18c6.4-2.9,14.2-6.5,15.9-9.7c1.5-3.3-1-11.6-3-18.3   c-2.9-9.8-6.2-20.9-3.1-31.3c3.1-10.2,11.9-17.6,19.7-24.2c5.4-4.5,12.1-10.1,12.7-13.8c0.5-3.5-4.3-11.1-7.8-16.6   c-5.5-8.7-11.7-18.5-11.5-29.4c0.1-6.4,5.4-11.5,11.8-11.4C249.3,61.7,254.4,67,254.3,73.4z"/>
</g>
</svg>