<svg xmlns="http://www.w3.org/2000/svg" width="36" height="54" fill="none" ><g fill="#fff" stroke="#dcdcdc" stroke-width=".75" stroke-miterlimit="10"><path d="M35 1H.5v26.25H35V1z"/><path d="M35 27.25H.5V53.5H35V27.25z"/></g><path d="M18.8 10.675L24.125 16c.225.225.225.675 0 .9l-.6.6c-.225.225-.675.225-.9 0l-4.275-4.2-4.275 4.2c-.225.225-.675.225-.9 0l-.6-.6c-.225-.225-.225-.675 0-.9l5.325-5.325c.225-.225.675-.225.9 0zm-.9 33.15L12.575 38.5c-.225-.225-.225-.675 0-.9l.6-.6c.225-.225.675-.225.9 0l4.275 4.2 4.275-4.2c.225-.225.675-.225.9 0l.6.6c.225.225.225.675 0 .9L18.8 43.825c-.225.3-.675.3-.9 0z" fill="#777"/></svg>