<svg xmlns="http://www.w3.org/2000/svg" width="36" height="54" fill="none" ><g fill="#fff" stroke="#dcdcdc" stroke-width=".75" stroke-miterlimit="10"><path d="M35.5 1H1V27.25H35.5V1Z"/><path d="M35.5 27.25H1V53.5H35.5V27.25Z"/></g><path d="M18.4 17.575l-5.325-5.325c-.225-.225-.225-.675 0-.9l.6-.6c.225-.225.675-.225.9 0l4.275 4.2 4.275-4.2c.225-.225.675-.225.9 0l.6.6c.225.225.225.675 0 .9L19.3 17.575c-.225.3-.675.3-.9 0zm.9 19.35l5.325 5.325c.225.225.225.675 0 .9l-.6.6c-.225.225-.675.225-.9 0l-4.275-4.2-4.275 4.2c-.225.225-.675.225-.9 0l-.6-.6c-.225-.225-.225-.675 0-.9l5.325-5.325c.225-.225.675-.225.9 0z" fill="#777"/></svg>