<svg xmlns="http://www.w3.org/2000/svg" width="36" height="54" fill="none" ><g fill="#fff" stroke="#dcdcdc" stroke-width=".75" stroke-miterlimit="10"><path d="M35.5 1H1V27.25H35.5V1Z"/><path d="M35.5 27.25H1V53.5H35.5V27.25Z"/></g><path d="M14.425 14.8l-.45-.45c-.225-.225-.225-.525 0-.675l3.9-3.9c.225-.225.525-.225.675 0l3.9 3.9c.225.225.225.525 0 .675l-.45.45c-.225.225-.525.15-.675 0L19 12.4v5.775a.43.43 0 0 1-.45.45h-.675a.43.43 0 0 1-.45-.45V12.4L15.1 14.8c-.15.225-.45.225-.675 0zm7.65 24.9l.45.45c.225.225.225.525 0 .675l-3.9 3.9c-.225.225-.525.225-.675 0l-3.9-3.9c-.225-.225-.225-.525 0-.675l.45-.45c.225-.225.525-.15.675 0l2.325 2.4v-5.775a.43.43 0 0 1 .45-.45h.675a.43.43 0 0 1 .45.45V42.1l2.325-2.4c.15-.15.45-.15.675 0z" fill="#777"/></svg>