<svg xmlns="http://www.w3.org/2000/svg" width="36" height="54" fill="none" ><g fill="#fff" stroke="#dcdcdc" stroke-width=".75" stroke-miterlimit="10"><path d="M35.5 1H1V27.25H35.5V1Z"/><path d="M35.5 27.25H1V53.5H35.5V27.25Z"/></g><path d="M22 13.45l.45.45c.225.225.225.525 0 .675l-3.9 3.9c-.225.225-.525.225-.675 0l-3.9-3.9c-.225-.225-.225-.525 0-.675l.45-.45c.225-.225.525-.15.675 0l2.325 2.4v-5.775a.43.43 0 0 1 .45-.45h.675a.43.43 0 0 1 .45.45v5.775l2.325-2.4c.225-.15.525-.15.675 0zm-4.425 23.175l.45-.45c.225-.225.525-.225.675 0l3.9 3.9c.225.225.225.525 0 .675l-3.9 3.9c-.225.225-.525.225-.675 0l-.45-.45c-.225-.225-.15-.525 0-.675l2.4-2.325H14.2a.43.43 0 0 1-.45-.45v-.675a.43.43 0 0 1 .45-.45h5.775l-2.4-2.325c-.225-.225-.225-.525 0-.675z" fill="#777"/></svg>