<svg xmlns="http://www.w3.org/2000/svg" width="36" height="54" fill="none" ><g fill="#fff" stroke="#dcdcdc" stroke-width=".75" stroke-miterlimit="10"><path d="M35 1H.5v26.25H35V1z"/><path d="M35 27.25H.5V53.5H35V27.25z"/></g><path d="M21.575 13.45l.45.45c.225.225.225.525 0 .675l-3.9 3.9c-.225.225-.525.225-.675 0l-3.9-3.9c-.225-.225-.225-.525 0-.675l.45-.45c.225-.225.525-.15.675 0L17 15.85v-5.775a.43.43 0 0 1 .45-.45h.675a.43.43 0 0 1 .45.45v5.775l2.325-2.4c.15-.15.525-.15.675 0zM14 41.05l-.45-.45c-.225-.225-.225-.525 0-.675l3.9-3.9c.225-.225.525-.225.675 0l3.9 3.9c.225.225.225.525 0 .675l-.45.45c-.225.225-.525.15-.675 0l-2.325-2.4v5.775a.43.43 0 0 1-.45.45h-.675a.43.43 0 0 1-.45-.45V38.65l-2.325 2.4c-.225.225-.525.225-.675 0z" fill="#777"/></svg>