<svg xmlns="http://www.w3.org/2000/svg" width="36" height="54" fill="none" ><g fill="#fff" stroke="#dcdcdc" stroke-width=".75" stroke-miterlimit="10"><path d="M35.5 1H1V27.25H35.5V1Z"/><path d="M35.5 27.25H1V53.5H35.5V27.25Z"/></g><path d="M16.3 18.4l-3.9-3.9a.59.59 0 0 1 0-.825l.825-.825a.59.59 0 0 1 .825 0l2.625 2.625L22.3 9.85a.59.59 0 0 1 .825 0l.825.825a.59.59 0 0 1 0 .825l-6.9 6.9c-.15.3-.525.3-.75 0zm4.65 17.475l-2.7 2.7-2.7-2.7c-.3-.3-.9-.3-1.2 0l-.6.6c-.3.3-.3.9 0 1.2l2.7 2.7-2.7 2.7c-.3.3-.3.9 0 1.2l.6.6c.3.3.9.3 1.2 0l2.7-2.7 2.7 2.7c.3.3.9.3 1.2 0l.6-.6c.3-.3.3-.9 0-1.2l-2.7-2.7 2.7-2.7c.3-.3.3-.9 0-1.2l-.6-.6c-.3-.375-.825-.375-1.2 0z" fill="#777"/></svg>