<svg xmlns="http://www.w3.org/2000/svg" width="36" height="54" fill="none" ><g fill="#fff" stroke="#dcdcdc" stroke-width=".75" stroke-miterlimit="10"><path d="M35 1H.5v26.25H35V1z"/><path d="M35 27.25H.5V53.5H35V27.25z"/></g><path d="M17.3 17.575l-5.325-5.325c-.225-.225-.225-.675 0-.9l.6-.6c.225-.225.675-.225.9 0l4.275 4.2 4.275-4.2c.225-.225.675-.225.9 0l.6.6c.225.225.225.675 0 .9L18.2 17.575c-.225.3-.6.3-.9 0zm3.9 23.25l-5.325 5.325c-.225.225-.675.225-.9 0l-.6-.6c-.225-.225-.225-.675 0-.9l4.2-4.275-4.2-4.275c-.225-.225-.225-.675 0-.9l.6-.6c.225-.225.675-.225.9 0l5.325 5.325c.3.225.3.675 0 .9z" fill="#777"/></svg>