<svg xmlns="http://www.w3.org/2000/svg" width="36" height="54" fill="none" ><g fill="#fff" stroke="#dcdcdc" stroke-width=".75" stroke-miterlimit="10"><path d="M35 1H.5v26.25H35V1z"/><path d="M35 27.25H.5V53.5H35V27.25z"/></g><path d="M21.8 11.35h-2.025c0-.15.075-.375.075-.525 0-1.125-.825-1.95-2.175-1.95-1.05 0-1.35 1.125-1.8 1.875-.15.3-.375.525-.6.75-.375.375-.525.525-.675.525h-.075c-.15-.15-.3-.15-.525-.15h-1.5c-.45 0-.75.3-.75.675v5.4c0 .375.3.675.75.675H14c.225 0 .375-.075.525-.15h.075c.675 0 1.575.9 3 .9h.525c1.5 0 2.325-.9 2.325-2.1.3-.45.45-.975.375-1.5.075-.15.15-.375.15-.525h.825a1.99 1.99 0 0 0 1.95-1.95 1.99 1.99 0 0 0-1.95-1.95zm0 2.775h-2.1c.3.375.375.975-.15 1.425.3.45.075 1.05-.3 1.275.15.9-.225 1.425-1.2 1.425h-.525c-1.05 0-1.8-.825-2.85-.9v-4.125c.6-.075.975-.525 1.35-.9.3-.3.525-.6.75-.9.375-.525.6-1.35.825-1.35.525 0 1.05.225 1.05.825 0 .825-.6 1.275-.6 1.65h3.675c.45 0 .825.375.825.825.075.375-.3.75-.75.75zm-8.025 3a.59.59 0 0 1-.6.6c-.375 0-.6-.225-.6-.6a.59.59 0 0 1 .6-.6.59.59 0 0 1 .6.6zm6.75 27.3V42.4c.15 0 .375.075.525.075 1.125 0 1.95-.825 1.95-2.175 0-1.05-1.125-1.35-1.875-1.8-.3-.15-.525-.375-.75-.6-.375-.375-.525-.525-.525-.675v-.075c.15-.15.15-.3.15-.525v-1.5c0-.45-.3-.75-.675-.75h-5.4c-.375 0-.675.3-.675.75v1.5c0 .225.075.375.15.525v.075c0 .675-.9 1.575-.9 3v.525c0 1.5.9 2.325 2.1 2.325.45.3.975.45 1.5.375.15.075.375.15.525.15v.825a1.99 1.99 0 0 0 1.95 1.95 1.99 1.99 0 0 0 1.95-1.95zm-2.775 0v-2.1c-.375.3-.975.375-1.425-.15-.45.3-1.05.075-1.275-.3-.9.15-1.425-.225-1.425-1.2v-.525c0-1.05.825-1.8.9-2.85h4.125c.075.6.525.975.9 1.35.3.3.6.525.9.75.525.375 1.35.6 1.35.825 0 .525-.225 1.05-.825 1.05-.825 0-1.275-.6-1.65-.6v3.75c0 .45-.375.825-.825.825-.375 0-.75-.375-.75-.825zm-3-7.95a.6.6 0 1 1 0-1.2.59.59 0 0 1 .6.6c-.075.3-.3.6-.6.6z" fill="#777"/></svg>