<svg xmlns="http://www.w3.org/2000/svg" width="36" height="54" fill="none" ><g fill="#fff" stroke="#dcdcdc" stroke-width=".75" stroke-miterlimit="10"><path d="M35 1H.5v26.25H35V1z"/><path d="M35 27.25H.5V53.5H35V27.25z"/></g><path d="M22.925 12.85H19.1V9.025c0-.45-.375-.825-.825-.825h-.825c-.45 0-.825.375-.825.825v3.825H12.8c-.45 0-.825.375-.825.825v.825c0 .45.375.825.825.825h3.825v3.825c0 .45.375.825.825.825h.825c.45 0 .825-.375.825-.825v-3.825h3.825c.45 0 .825-.375.825-.825v-.825c0-.45-.375-.825-.825-.825zM20.45 35.875l-2.7 2.7-2.7-2.7c-.3-.3-.9-.3-1.2 0l-.6.6c-.3.3-.3.9 0 1.2l2.7 2.7-2.7 2.7c-.3.3-.3.9 0 1.2l.6.6c.3.3.9.3 1.2 0l2.7-2.7 2.7 2.7c.3.3.9.3 1.2 0l.6-.6c.3-.3.3-.9 0-1.2l-2.7-2.7 2.7-2.7c.3-.3.3-.9 0-1.2l-.6-.6c-.3-.375-.825-.375-1.2 0z" fill="#777"/></svg>