<svg xmlns="http://www.w3.org/2000/svg" width="35" height="53" fill="none" ><path d="M.375 25.875V.375h33.75v25.5H.375zm0 26.25v-25.5h33.75v25.5H.375z" fill="#fff" stroke="#dcdcdc" stroke-width=".75" stroke-miterlimit="10"/><path d="M22.425 11.85H18.6V8.025c0-.45-.375-.825-.825-.825h-.825c-.45 0-.825.375-.825.825v3.825H12.3c-.45 0-.825.375-.825.825v.825c0 .45.375.825.825.825h3.825v3.825c0 .45.375.825.825.825h.825c.45 0 .825-.375.825-.825v-3.825h3.825c.45 0 .825-.375.825-.825v-.825c0-.45-.375-.825-.825-.825zm0 26.25H12.15c-.45 0-.825.375-.825.825v.825c0 .45.375.825.825.825h10.275c.45 0 .825-.375.825-.825v-.825c0-.45-.375-.825-.825-.825z" fill="#777"/><path stroke="#dcdcdc" d="M.5.5H34V52H.5z"/></svg>