<svg xmlns="http://www.w3.org/2000/svg" width="36" height="54" fill="none" ><g fill="#fff" stroke="#dcdcdc" stroke-width=".75" stroke-miterlimit="10"><path d="M35.5 1H1V27.25H35.5V1Z"/><path d="M35.5 27.25H1V53.5H35.5V27.25Z"/></g><path d="M24.175 19.525l-1.95-1.875v-.075c.3-.375.525-.75.75-1.275.3-.675.45-1.425.45-2.25s-.15-1.575-.45-2.25-.675-1.275-1.2-1.725c-.525-.525-1.125-.9-1.725-1.125-.675-.3-1.425-.45-2.25-.45a5.38 5.38 0 0 0-2.175.45c-.675.3-1.275.675-1.8 1.125-.525.525-.9 1.05-1.2 1.725s-.45 1.425-.45 2.25.15 1.575.45 2.25.675 1.275 1.2 1.8 1.125.9 1.8 1.2 1.425.45 2.25.45 1.575-.15 2.25-.45c.375-.15.75-.375 1.125-.6h.075l.9.9 1.95-.075zM19.9 17.5c-.6.375-1.275.525-2.025.525-.675 0-1.35-.15-1.875-.525-.6-.3-1.05-.825-1.35-1.35-.3-.6-.525-1.275-.525-2.025s.15-1.425.45-1.95c.3-.6.75-1.05 1.275-1.35s1.2-.525 1.875-.525c.75 0 1.425.15 1.95.525s.975.825 1.275 1.425.45 1.275.45 2.025c0 .825-.225 1.5-.6 2.1h-.075l-1.5-1.5h-1.95s-.075.075 0 .075L19.9 17.5c0-.075 0-.075 0 0zm1.8 28.8h1.8c.15 0 .225-.15.15-.225L18.325 34.6c-.075-.15-.225-.15-.3 0L12.7 46.075c-.075.075 0 .225.15.225h1.8c.075 0 .15 0 .15-.075l1.2-2.7c0-.075.075-.075.15-.075h3.975c.075 0 .15 0 .15.075l1.2 2.7c.15 0 .15.075.225.075zm-2.175-4.575H16.9c-.15 0-.225-.15-.15-.225l1.275-3.075c.075-.15.225-.15.3 0L19.6 41.5c.075.15 0 .225-.075.225z" fill="#777"/></svg>