<?xml version="1.0" encoding="utf-8"?>
<!-- Generator: Adobe Illustrator 25.4.1, SVG Export Plug-In . SVG Version: 6.00 Build 0)  -->
<svg version="1.1" id="Layer_1" xmlns="http://www.w3.org/2000/svg" xmlns:xlink="http://www.w3.org/1999/xlink" x="0px" y="0px"
	 viewBox="0 0 800 400" style="enable-background:new 0 0 800 400;" xml:space="preserve">
<style type="text/css">
	.st0{fill:#F1F0F0;}
	.st1{fill:#767676;}
	.st2{fill:#9E9E9E;}
	.st3{fill:#E0E0E0;}
</style>
<rect x="0.5" class="st0" width="800" height="400"/>
<g>
	<path class="st1" d="M683,127.02H118V87.98c0-1.65,1.34-2.99,2.99-2.99h559.02c1.65,0,2.99,1.34,2.99,2.99V127.02z"/>
	<path class="st2" d="M680.01,211.77H120.99c-1.65,0-2.99-1.34-2.99-2.99v-81.77h565v81.77C683,210.44,681.66,211.77,680.01,211.77z
		"/>
	<path class="st3" d="M153.52,104.18h-6.87v-6.87c0-0.76-0.62-1.37-1.37-1.37h-0.92c-0.76,0-1.37,0.62-1.37,1.37v6.87h-6.87
		c-0.76,0-1.37,0.62-1.37,1.37v0.92c0,0.76,0.62,1.37,1.37,1.37h6.87v6.87c0,0.76,0.62,1.37,1.37,1.37h0.92
		c0.76,0,1.37-0.62,1.37-1.37v-6.87h6.87c0.76,0,1.37-0.62,1.37-1.37v-0.92C154.9,104.79,154.28,104.18,153.52,104.18z"/>
	<g>
		<path class="st1" d="M680.01,263.03H120.99c-1.65,0-2.99-1.34-2.99-2.99V224c0-1.65,1.34-2.99,2.99-2.99h559.02
			c1.65,0,2.99,1.34,2.99,2.99v36.05C683,261.7,681.66,263.03,680.01,263.03z"/>
		<path class="st3" d="M153.52,240.19h-6.87v-6.87c0-0.76-0.62-1.37-1.37-1.37h-0.92c-0.76,0-1.37,0.62-1.37,1.37v6.87h-6.87
			c-0.76,0-1.37,0.62-1.37,1.37v0.92c0,0.76,0.62,1.37,1.37,1.37h6.87v6.87c0,0.76,0.62,1.37,1.37,1.37h0.92
			c0.76,0,1.37-0.62,1.37-1.37v-6.87h6.87c0.76,0,1.37-0.62,1.37-1.37v-0.92C154.9,240.81,154.28,240.19,153.52,240.19z"/>
	</g>
	<g>
		<path class="st1" d="M680.01,315.01H120.99c-1.65,0-2.99-1.34-2.99-2.99v-36.05c0-1.65,1.34-2.99,2.99-2.99h559.02
			c1.65,0,2.99,1.34,2.99,2.99v36.05C683,313.67,681.66,315.01,680.01,315.01z"/>
		<path class="st3" d="M153.52,292.16h-6.87v-6.87c0-0.76-0.62-1.37-1.37-1.37h-0.92c-0.76,0-1.37,0.62-1.37,1.37v6.87h-6.87
			c-0.76,0-1.37,0.62-1.37,1.37v0.92c0,0.76,0.62,1.37,1.37,1.37h6.87v6.87c0,0.76,0.62,1.37,1.37,1.37h0.92
			c0.76,0,1.37-0.62,1.37-1.37v-6.87h6.87c0.76,0,1.37-0.62,1.37-1.37v-0.92C154.9,292.78,154.28,292.16,153.52,292.16z"/>
	</g>
</g>
</svg>
