<svg xmlns="http://www.w3.org/2000/svg" width="500" height="294" fill="none" ><rect x=".833" y=".833" width="498.333" height="292.333" rx="9.167" fill="#fff"/><rect x=".833" y=".833" width="498.333" height="292.333" rx="9.167" stroke="#bbc2c7" stroke-width="1.667"/><rect x="20" y="231.342" width="460" height="42.368" rx="3.026" fill="#718491"/><g fill="#fff"><path d="M55.451 250.939v3.848H37.755v-3.848h17.697zm-6.774-7.235v18.797h-4.132v-18.797h4.132z"/><rect x="77.5" y="246.474" width="320.79" height="12.105" rx="3.026"/><rect x="20.868" y="21.201" width="458.265" height="191.949" rx="2.159" stroke="#8796a1" stroke-width="1.735"/></g><path d="M21.513 23.36c0-.836.677-1.513 1.513-1.513h453.948c.835 0 1.513.678 1.513 1.513v37.829H21.513V23.36z" fill="#718491" stroke="#718491" stroke-width="3.026"/><g fill="#fff"><path d="M56.538 38.661v4.15H37.452v-4.15h19.086z"/><rect x="77.5" y="35.465" width="320.79" height="12.105" rx="3.026"/></g><g opacity=".8" fill="#8796a1"><rect x="36.494" y="79.347" width="426.711" height="9.079" rx="4.539"/><rect x="36.494" y="106.583" width="426.711" height="9.079" rx="4.539"/><rect x="36.494" y="133.82" width="426.711" height="9.079" rx="4.539"/><rect x="36.494" y="161.057" width="426.711" height="9.079" rx="4.539"/><rect x="36.494" y="188.294" width="257.237" height="9.079" rx="4.539"/></g></svg>