<svg xmlns="http://www.w3.org/2000/svg" width="500" height="294" fill="none" ><rect x=".833" y=".833" width="498.333" height="292.333" rx="10.795" fill="#fff"/><rect x=".833" y=".833" width="498.333" height="292.333" rx="10.795" stroke="#8796a1" stroke-width="1.667"/><rect x="20.001" y="231.842" width="460" height="42.368" rx="21.184" fill="#718491"/><g fill="#fff"><path d="M55.716 251.529v3.902H37.771v-3.902h17.945zm-6.869-7.337v19.06h-4.19v-19.06h4.19z"/><rect x="92.632" y="246.974" width="320.789" height="12.105" rx="3.026"/></g><path d="M20 41.184C20 29.484 29.485 20 41.184 20h417.631C470.515 20 480 29.484 480 41.184v169.474c0 1.671-1.355 3.026-3.027 3.026H23.026c-1.671 0-3.026-1.355-3.026-3.026V41.184z" fill="#f0f0f0"/><rect x="21.513" y="21.614" width="456.973" height="39.342" rx="19.671" fill="#718491" stroke="#718491" stroke-width="3.026"/><g fill="#fff"><path d="M56.003 39.187v4.15H36.917v-4.15h19.086z"/><rect x="92.632" y="35.132" width="320.789" height="12.105" rx="3.026"/></g><g opacity=".8" fill="#8796a1"><rect x="36.494" y="79.013" width="426.71" height="9.079" rx="4.539"/><rect x="36.494" y="106.25" width="426.71" height="9.079" rx="4.539"/><rect x="36.494" y="133.487" width="426.71" height="9.079" rx="4.539"/><rect x="36.494" y="160.724" width="426.71" height="9.079" rx="4.539"/><rect x="36.494" y="187.96" width="257.237" height="9.079" rx="4.539"/></g></svg>