<svg xmlns="http://www.w3.org/2000/svg" width="500" height="294" fill="none" ><rect x=".833" y=".833" width="498.333" height="292.333" rx="10.795" fill="#fff"/><rect x=".833" y=".833" width="498.333" height="292.333" rx="10.795" stroke="#8796a1" stroke-width="1.667"/><mask id="A" maskUnits="userSpaceOnUse" x="20" y="219.737" width="460" height="58" fill="#000"><path fill="#fff" d="M20 219.737h460v58H20z"/><path d="M20 219.737h460v54.474H20v-54.474z"/></mask><path d="M480 271.184H20v6.053h460v-6.053z" fill="#32383c" mask="url(#A)"/><rect x="92.632" y="240.921" width="320.789" height="12.105" rx="3.026" fill="#718491"/><path d="M32.246 234.808c0-1.672 1.355-3.026 3.026-3.026h28.649c1.671 0 3.026 1.354 3.026 3.026v24.21c0 1.672-1.355 3.027-3.026 3.027H35.273c-1.671 0-3.026-1.355-3.026-3.027v-24.21z" fill="#32383c"/><path d="M58.205 244.407v3.947H40.054v-3.947h18.151zm-6.948-7.42v19.279H47.02v-19.279h4.238z" fill="#fff"/><rect x="20" y="20" width="460" height="193.684" rx="3.026" fill="#efefef"/><mask id="B" maskUnits="userSpaceOnUse" x="20" y="20" width="460" height="58" fill="#000"><path fill="#fff" d="M20 20h460v58H20z"/><path d="M20 23.026C20 21.355 21.355 20 23.026 20h453.948c1.671 0 3.026 1.355 3.026 3.026v51.447H20V23.026z"/></mask><path d="M20 20h460H20zm460 57.5H20v-6.053h460V77.5zM20 74.474V20v54.474zM480 20v54.474V20z" fill="#32383c" mask="url(#B)"/><path d="M32.246 35.273c0-1.671 1.355-3.026 3.026-3.026h28.649c1.671 0 3.026 1.355 3.026 3.026v24.211c0 1.671-1.355 3.026-3.026 3.026H35.273c-1.671 0-3.026-1.355-3.026-3.026V35.273z" fill="#32383c"/><path d="M59.141 45.26v4.15H40.055v-4.15h19.086z" fill="#fff"/><rect x="92.632" y="41.184" width="320.789" height="12.105" rx="3.026" fill="#718491"/><g fill="#8796a1"><rect x="32.105" y="92.632" width="429.737" height="6.053" rx="3.026"/><rect x="32.105" y="116.842" width="429.737" height="6.053" rx="3.026"/><rect x="32.105" y="141.053" width="429.737" height="6.053" rx="3.026"/><rect x="32.105" y="165.263" width="429.737" height="6.053" rx="3.026"/><rect x="32.105" y="189.474" width="260.263" height="6.053" rx="3.026"/></g></svg>