<svg xmlns="http://www.w3.org/2000/svg" width="500" height="294" fill="none" ><rect x=".833" y=".833" width="498.333" height="292.333" rx="10.795" fill="#fff"/><rect x=".833" y=".833" width="498.333" height="292.333" rx="10.795" stroke="#8796a1" stroke-width="1.667"/><rect x="20" y="225.789" width="460" height="48.421" rx="3.026" fill="#718491"/><path d="M20 228.816c0-1.672 1.355-3.027 3.026-3.027h453.947c1.672 0 3.027 1.355 3.027 3.027v6.052H20v-6.052z" fill="#32383c"/><g fill="#fff"><path d="M55.717 251.529v3.902H37.772v-3.902h17.945zm-6.869-7.337v19.06h-4.19v-19.06h4.19z"/><rect x="92.632" y="246.974" width="320.789" height="12.105" rx="3.026"/><rect x="20.868" y="20.868" width="458.264" height="185.896" rx="2.159" stroke-width="1.735" stroke="#718491"/></g><path d="M21.514 23.026c0-.836.677-1.513 1.513-1.513h453.947c.835 0 1.513.677 1.513 1.513v40.855H21.514V23.026z" fill="#718491" stroke="#718491" stroke-width="3.026"/><path d="M20.001 23.026c0-1.671 1.355-3.026 3.026-3.026h453.947c1.671 0 3.026 1.355 3.026 3.026v6.053H20.001v-6.053z" fill="#32383c"/><g fill="#fff"><path d="M56.538 44.997v4.15H37.452v-4.15h19.086z"/><rect x="92.632" y="41.184" width="320.789" height="12.105" rx="3.026"/></g><g opacity=".8" fill="#8796a1"><rect x="36.494" y="80.526" width="426.71" height="9.079" rx="4.539"/><rect x="36.494" y="106.25" width="426.71" height="9.079" rx="4.539"/><rect x="36.494" y="131.974" width="426.71" height="9.079" rx="4.539"/><rect x="36.494" y="157.697" width="426.71" height="9.079" rx="4.539"/><rect x="36.494" y="183.421" width="257.237" height="9.079" rx="4.539"/></g></svg>