<svg xmlns="http://www.w3.org/2000/svg" width="500" height="294" fill="none" ><rect x=".833" y=".833" width="498.333" height="292.333" rx="10.795" fill="#fff"/><rect x=".833" y=".833" width="498.333" height="292.333" rx="10.795" stroke="#8796a1" stroke-width="1.667"/><mask id="A" fill="#fff"><path d="M20 231.842h460v42.369H20v-42.369z"/></mask><path d="M20 231.842h460v42.369H20v-42.369z" fill="#718491"/><path d="M20 274.211h-6.053v6.052H20v-6.052zm460-6.053H20v12.105h460v-12.105zm-453.947 6.053v-42.369H13.947v42.369h12.105z" fill="#32383c" mask="url(#A)"/><g fill="#fff"><path d="M55.717 248.874v3.902H37.772v-3.902h17.945zm-6.869-7.336v19.06h-4.19v-19.06h4.19z"/><rect x="92.632" y="243.947" width="320.789" height="12.105" rx="3.026"/><rect x="20.868" y="20.868" width="458.265" height="191.949" rx="2.159" stroke="#718491" stroke-width="1.735"/></g><mask id="B" fill="#fff"><path d="M20 20h460v42.368H20V20z"/></mask><path d="M20 20h460v42.368H20V20z" fill="#718491"/><path d="M20 20h460H20zm460 48.421H13.947l12.105-12.105H480v12.105zm-466.053 0V20h12.105v36.316L13.947 68.421zM480 20v42.368V20z" fill="#32383c" mask="url(#B)"/><g fill="#fff"><path d="M56.003 35.918v4.15H36.917v-4.15h19.086z"/><rect x="92.632" y="32.105" width="320.789" height="12.105" rx="3.026"/></g><g opacity=".8" fill="#8796a1"><rect x="36.494" y="79.013" width="426.711" height="9.079" rx="4.539"/><rect x="36.494" y="106.25" width="426.711" height="9.079" rx="4.539"/><rect x="36.494" y="133.487" width="426.711" height="9.079" rx="4.539"/><rect x="36.494" y="160.724" width="426.711" height="9.079" rx="4.539"/><rect x="36.494" y="187.961" width="257.237" height="9.079" rx="4.539"/></g></svg>