<svg xmlns="http://www.w3.org/2000/svg" width="500" height="294" fill="none"><rect x="1.19" y="1.19" width="497.619" height="291.619" rx="8.81" fill="#fff"/><rect x="1.19" y="1.19" width="497.619" height="291.619" rx="8.81" stroke="#8796a1" stroke-width="2.381"/><path fill-rule="evenodd" d="M29.167 202.095h441.667v6.25H29.167v-6.25z" fill="#32383c"/><g fill="#8796a1"><path d="M47.5 51.071v3.986H29.167v-3.986H47.5z"/><rect x="68.333" y="47.25" width="308.14" height="11.628" rx="2.907"/></g><g opacity=".8" fill="#8796a1"><rect x="29.167" y="74.878" width="441.667" height="8.721" rx="4.36"/><rect x="29.167" y="100.599" width="441.667" height="8.721" rx="4.36"/><rect x="29.167" y="126.32" width="441.667" height="8.721" rx="4.36"/><rect x="29.167" y="152.041" width="441.667" height="8.721" rx="4.36"/><rect x="29.167" y="177.762" width="193.75" height="8.333" rx="4.167"/></g><path d="M29.167 25h441.667v6.25H29.167V25zm0 237.748h441.667v6.25H29.167v-6.25z" fill-rule="evenodd" fill="#32383c"/><g fill="#8796a1"><path d="M47.29 234.573v3.696H30.291v-3.696H47.29zm-6.507-6.95v18.055h-3.969v-18.055h3.969z"/><rect x="67.917" y="229.851" width="308.14" height="11.628" rx="2.907"/></g></svg>