<svg xmlns="http://www.w3.org/2000/svg" width="500" height="294" fill="none" ><rect x=".833" y=".833" width="498.333" height="292.333" rx="10.795" fill="#fff"/><rect x=".833" y=".833" width="498.333" height="292.333" rx="10.795" stroke="#8796a1" stroke-width="1.667"/><mask id="A" fill="#fff"><path d="M20 231.842h460v42.369H20v-42.369z"/></mask><g fill="#32383c"><path d="M480 268.158H20v12.105h460v-12.105z" mask="url(#A)"/><rect x="20.1" y="231.782" width="48.583" height="42.368" rx="3.026"/></g><path d="M53.113 250.373v3.902H35.168v-3.902h17.945zm-6.869-7.336v19.06h-4.19v-19.06h4.19z" fill="#fff"/><rect x="90.896" y="243.947" width="320.789" height="12.105" rx="3.026" fill="#718491"/><mask id="B" fill="#fff"><path d="M20 20h460v42.368H20V20z"/></mask><g fill="#32383c"><path d="M480 56.316H20v12.105h460V56.316z" mask="url(#B)"/><path d="M20.1 23.127c0-1.671 1.355-3.026 3.026-3.026h42.53c1.671 0 3.026 1.355 3.026 3.026v36.316c0 1.671-1.355 3.026-3.026 3.026h-42.53c-1.671 0-3.026-1.355-3.026-3.026V23.127z"/></g><path d="M53.934 37.452v4.15H34.848v-4.15h19.086z" fill="#fff"/><rect x="90.896" y="32.105" width="320.789" height="12.105" rx="3.026" fill="#718491"/><g opacity=".8" fill="#8796a1"><rect x="38.158" y="79.013" width="393.421" height="9.079" rx="4.539"/><rect x="38.158" y="106.25" width="393.421" height="9.079" rx="4.539"/><rect x="38.158" y="133.487" width="393.421" height="9.079" rx="4.539"/><rect x="38.158" y="160.724" width="393.421" height="9.079" rx="4.539"/><rect x="38.158" y="187.961" width="257.237" height="9.079" rx="4.539"/></g></svg>