<svg xmlns="http://www.w3.org/2000/svg" width="500" height="294" fill="none" ><rect x=".833" y=".833" width="498.333" height="292.333" rx="10.795" fill="#fff"/><rect x=".833" y=".833" width="498.333" height="292.333" rx="10.795" stroke="#8796a1" stroke-width="1.667"/><rect x="20" y="231.842" width="460" height="42.368" rx="3.026" fill="#718491"/><path d="M20.101 234.808c0-1.671 1.355-3.026 3.026-3.026h47.291v42.368H23.127c-1.671 0-3.026-1.355-3.026-3.026v-36.316z" fill="#32383c"/><g fill="#fff"><path d="M53.981 251.241v3.902H36.036v-3.902h17.945zm-6.869-7.337v19.06h-4.19v-19.06h4.19z"/><rect x="92.631" y="246.974" width="320.789" height="12.105" rx="3.026"/></g><path d="M82.524 253.026l-12.105-9.079v18.158l12.105-9.079z" fill="#32383c"/><g stroke="#718491"><rect x="20.868" y="20.868" width="458.265" height="191.949" rx="2.159" fill="#fff" stroke-width="1.735"/><path d="M21.513 23.026c0-.836.677-1.513 1.513-1.513h453.948c.835 0 1.513.677 1.513 1.513v37.829H21.513V23.026z" fill="#718491" stroke-width="3.026"/></g><path d="M20.101 23.127c0-1.671 1.355-3.026 3.026-3.026h47.291V62.47H20.101V23.127z" fill="#32383c"/><g fill="#fff"><path d="M54.803 39.187v4.15H35.717v-4.15h19.086z"/><rect x="92.632" y="35.132" width="320.789" height="12.105" rx="3.026"/></g><g opacity=".8" fill="#718491"><rect x="36.493" y="79.013" width="426.711" height="9.079" rx="4.539"/><rect x="36.493" y="106.25" width="426.711" height="9.079" rx="4.539"/><rect x="36.493" y="133.487" width="426.711" height="9.079" rx="4.539"/><rect x="36.493" y="160.724" width="426.711" height="9.079" rx="4.539"/><rect x="36.493" y="187.961" width="257.237" height="9.079" rx="4.539"/></g><path d="M82.524 41.184l-12.105-9.079v18.158l12.105-9.079z" fill="#32383c"/></svg>