<svg xmlns="http://www.w3.org/2000/svg" width="500" height="294" fill="none" ><rect x=".833" y=".833" width="498.333" height="292.333" rx="10.795" fill="#fff"/><rect x=".833" y=".833" width="498.333" height="292.333" rx="10.795" stroke="#8796a1" stroke-width="1.667"/><rect x="20" y="231.842" width="460" height="42.368" rx="3.026" fill="#718491"/><path d="M20 234.808v36.457c0 1.671 1.355 3.026 3.026 3.026h37.593c.151 0 .296-.056.407-.157l22.68-20.65c.264-.24.264-.655 0-.895l-22.68-20.65c-.111-.101-.257-.157-.407-.157H23.026c-1.671 0-3.026 1.355-3.026 3.026z" fill="#32383c"/><g fill="#fff"><path d="M53.88 250.202v3.901H35.935v-3.901H53.88zm-6.869-7.337v19.06h-4.19v-19.06h4.19z"/><rect x="92.531" y="246.974" width="320.789" height="12.105" rx="3.026"/><rect x="20.868" y="20.968" width="458.063" height="191.727" rx="2.159" stroke-width="1.735" stroke="#718491"/></g><path d="M21.513 23.026c0-.836.677-1.513 1.513-1.513h453.948c.835 0 1.513.677 1.513 1.513v37.829H21.513V23.026z" fill="#718491" stroke="#718491" stroke-width="3.026"/><path d="M20 23.127V62.61h41.174c.149 0 .293-.055.404-.155l22.987-20.65c.268-.24.268-.66 0-.9l-22.987-20.65c-.111-.1-.255-.155-.404-.155H23.026C21.355 20.1 20 21.455 20 23.126z" fill="#32383c"/><g fill="#fff"><path d="M53.834 39.187v4.15H34.748v-4.15h19.086z"/><rect x="92.531" y="35.132" width="320.789" height="12.105" rx="3.026"/></g><g opacity=".8" fill="#718491"><rect x="36.392" y="79.013" width="426.711" height="9.079" rx="4.539"/><rect x="36.392" y="106.25" width="426.711" height="9.079" rx="4.539"/><rect x="36.392" y="133.487" width="426.711" height="9.079" rx="4.539"/><rect x="36.392" y="160.724" width="426.711" height="9.079" rx="4.539"/><rect x="36.392" y="187.961" width="257.237" height="9.079" rx="4.539"/></g></svg>