<svg xmlns="http://www.w3.org/2000/svg" width="500" height="294" fill="none" ><rect x=".833" y=".833" width="498.333" height="292.333" rx="10.795" fill="#fff"/><rect x=".833" y=".833" width="498.333" height="292.333" rx="10.795" stroke="#8796a1" stroke-width="1.667"/><rect x="20" y="219.504" width="460" height="54.474" rx="3.026" fill="#718491"/><rect x="92.632" y="240.688" width="320.789" height="12.105" rx="3.026" fill="#fff"/><path d="M32.247 234.575c0-1.671 1.355-3.026 3.026-3.026h30.263c1.671 0 3.026 1.355 3.026 3.026v24.211c0 1.671-1.355 3.026-3.026 3.026H35.273c-1.671 0-3.026-1.355-3.026-3.026v-24.211z" fill="#32383c"/><g fill="#fff"><path d="M59.253 244.51v3.848H41.555v-3.848h17.698zm-6.774-7.235v18.797h-4.132v-18.797h4.132z"/><rect x="20.868" y="20.635" width="458.265" height="191.949" rx="2.159" stroke="#8796a1" stroke-width="1.735"/></g><path d="M21.513 22.794c0-.836.677-1.513 1.513-1.513h453.948c.835 0 1.513.678 1.513 1.513v49.934H21.513V22.794z" fill="#718491" stroke="#718491" stroke-width="3.026"/><path d="M32.247 34.899c0-1.671 1.355-3.026 3.026-3.026h30.263c1.671 0 3.026 1.355 3.026 3.026v24.21c0 1.671-1.355 3.026-3.026 3.026H35.273c-1.671 0-3.026-1.355-3.026-3.026v-24.21z" fill="#32383c"/><g fill="#fff"><path d="M59.726 45.027v4.15H40.64v-4.15h19.086z"/><rect x="92.632" y="40.952" width="320.789" height="12.105" rx="3.026"/></g><g fill="#8796a1"><rect x="35.132" y="92.399" width="429.737" height="6.053" rx="3.026"/><rect x="35.132" y="116.61" width="429.737" height="6.053" rx="3.026"/><rect x="35.132" y="140.82" width="429.737" height="6.053" rx="3.026"/><rect x="35.132" y="165.031" width="429.737" height="6.053" rx="3.026"/><rect x="35.132" y="189.241" width="260.263" height="6.053" rx="3.026"/></g></svg>