<svg xmlns="http://www.w3.org/2000/svg" width="500" height="294" fill="none" ><rect x=".833" y=".833" width="498.333" height="292.333" rx="10.795" fill="#fff"/><rect x=".833" y=".833" width="498.333" height="292.333" rx="10.795" stroke="#8796a1" stroke-width="1.667"/><rect x="80.45" y="232.5" width="399.55" height="42.7" rx="3.05" fill="#718491"/><g fill="#fff"><rect x="101.8" y="247.75" width="323.3" height="12.2" rx="3.05"/><rect x="81.325" y="19.874" width="397.801" height="193.451" rx="2.176" stroke="#718491" stroke-width="1.749"/></g><path d="M80.45 22.05A3.05 3.05 0 0 1 83.5 19h393.45a3.05 3.05 0 0 1 3.05 3.05V61.7H80.45V22.05z" fill="#718491"/><rect x="20" y="19" width="50.711" height="42.7" rx="3.05" fill="#32383c"/><g fill="#fff"><path d="M49.441 27.296v26.092h-4.736v-20.57l-6.273 2.073v-3.824l10.472-3.771h.536z"/><rect x="101.8" y="34.25" width="323.3" height="12.2" rx="3.05"/></g><g opacity=".8" fill="#8796a1"><rect x="95.7" y="78.475" width="366" height="9.15" rx="4.575"/><rect x="95.7" y="105.925" width="366" height="9.15" rx="4.575"/><rect x="95.7" y="133.375" width="366" height="9.15" rx="4.575"/><rect x="95.7" y="160.825" width="366" height="9.15" rx="4.575"/><rect x="95.7" y="188.275" width="259.25" height="9.15" rx="4.575"/></g><rect x="20" y="232.439" width="50.711" height="42.7" rx="3.05" fill="#32383c"/><path d="M54.752 262.986v3.718H37.131v-3.182l8.453-9.132 2.091-2.609c.512-.739.876-1.406 1.09-2.001.226-.608.34-1.186.34-1.734 0-.798-.143-1.495-.429-2.091-.286-.607-.703-1.078-1.251-1.412-.536-.333-1.197-.5-1.984-.5-.87 0-1.614.203-2.234.608-.608.393-1.072.941-1.394 1.644-.31.703-.465 1.507-.465 2.412h-4.736c0-1.537.357-2.936 1.072-4.199.715-1.275 1.739-2.294 3.074-3.056s2.919-1.144 4.754-1.144c1.787 0 3.3.298 4.539.893 1.239.584 2.18 1.418 2.824 2.502s.965 2.377.965 3.878c0 .834-.137 1.657-.411 2.467s-.661 1.614-1.162 2.412a20.99 20.99 0 0 1-1.751 2.395l-2.27 2.484-5.075 5.647h11.581z" fill="#fff"/></svg>