<svg xmlns="http://www.w3.org/2000/svg" width="500" height="294" fill="none" ><rect x=".833" y=".833" width="498.333" height="292.333" rx="10.795" fill="#fff"/><rect x=".833" y=".833" width="498.333" height="292.333" rx="10.795" stroke="#8796a1" stroke-width="1.667"/><rect x="80.45" y="232.5" width="399.549" height="42.7" rx="3.05" fill="#718491"/><rect x="20" y="232.439" width="50.711" height="42.7" rx="3.05" fill="#32383c"/><g fill="#fff"><path d="M54.145 251.846v3.933H36.06v-3.933h18.085zm-6.922-7.393v19.209H43v-19.209h4.222z"/><rect x="101.801" y="247.75" width="323.299" height="12.2" rx="3.05"/><rect x="81.325" y="19.874" width="397.8" height="193.451" rx="2.176" stroke-width="1.749" stroke="#718491"/></g><path d="M81.976 22.05c0-.842.683-1.525 1.525-1.525H476.95c.842 0 1.525.683 1.525 1.525v38.125H81.976V22.05z" fill="#718491" stroke="#718491" stroke-width="3.05"/><path d="M20 22.152a3.05 3.05 0 0 1 3.05-3.05h44.611a3.05 3.05 0 0 1 3.05 3.05v36.6a3.05 3.05 0 0 1-3.05 3.05H23.05a3.05 3.05 0 0 1-3.05-3.05v-36.6z" fill="#32383c"/><g fill="#fff"><path d="M54.973 38.337v4.182H35.738v-4.182h19.235z"/><rect x="101.801" y="34.25" width="323.299" height="12.2" rx="3.05"/></g><g opacity=".8" fill="#8796a1"><rect x="95.701" y="78.475" width="365.999" height="9.15" rx="4.575"/><rect x="95.701" y="105.925" width="365.999" height="9.15" rx="4.575"/><rect x="95.701" y="133.375" width="365.999" height="9.15" rx="4.575"/><rect x="95.701" y="160.825" width="365.999" height="9.15" rx="4.575"/><rect x="95.701" y="188.275" width="259.249" height="9.15" rx="4.575"/></g></svg>