<svg xmlns="http://www.w3.org/2000/svg" width="224" height="30" fill="none" viewBox="0 0 224 30">
    <path fill="#616161" d="M84.106 23.511c-1.182 0-2.33-.388-3.441-1.147-1.13-.776-1.853-1.853-2.206-3.23l1.906-.776c.23.883.688 1.642 1.394 2.241.706.618 1.482.918 2.365.918.9 0 1.676-.23 2.312-.706.635-.476.952-1.111.952-1.923 0-.9-.317-1.606-.953-2.083-.635-.494-1.658-.953-3.035-1.358-1.43-.46-2.523-1.042-3.247-1.747-.741-.724-1.112-1.624-1.112-2.753 0-1.165.46-2.171 1.377-3.036.917-.864 2.117-1.288 3.6-1.288 1.376 0 2.488.335 3.335 1.024.865.688 1.412 1.429 1.677 2.24l-1.906.795c-.141-.512-.477-.988-1.006-1.43-.53-.44-1.218-.652-2.065-.652-.794 0-1.482.229-2.047.67-.565.441-.847 1.006-.847 1.659 0 .6.265 1.112.776 1.518.512.405 1.289.794 2.295 1.111.794.265 1.464.512 1.994.742.53.247 1.076.564 1.623.952.547.406.97.9 1.236 1.483.282.6.423 1.288.423 2.064 0 .777-.159 1.483-.494 2.1-.318.618-.759 1.112-1.288 1.465-.53.353-1.112.636-1.73.83-.617.229-1.253.317-1.888.317z"/>
    <path fill="#616161" fill-rule="evenodd" d="M92.224 21.834c1.041 1.112 2.4 1.677 4.076 1.677 1.218 0 2.224-.282 3.053-.882.83-.583 1.43-1.289 1.783-2.153l-1.853-.777c-.53 1.27-1.553 1.906-3.036 1.906-.917 0-1.711-.318-2.4-.97-.67-.654-1.058-1.536-1.111-2.648h8.735l.018-.388c0-1.782-.495-3.212-1.483-4.288-.988-1.076-2.294-1.606-3.935-1.606-1.588 0-2.876.582-3.9 1.747-1.006 1.165-1.518 2.559-1.518 4.165 0 1.694.53 3.106 1.57 4.217zm6.194-7.34c.53.564.812 1.164.865 1.8h-6.406c.212-.813.6-1.465 1.165-1.942.564-.476 1.217-.723 1.994-.723 1.058 0 1.853.3 2.382.864zM103.465 22.487c.794.689 1.764 1.024 2.947 1.024 1.588 0 2.806-.618 3.635-1.888h.088v1.535h1.994v-6.724c0-1.5-.459-2.664-1.394-3.494-.935-.829-2.117-1.235-3.529-1.235-1.236 0-2.224.282-2.983.847-.758.565-1.27 1.165-1.517 1.835l1.906.812c.176-.512.511-.9 1.006-1.182.494-.282 1.041-.424 1.641-.424.811 0 1.482.247 2.047.742.547.494.829 1.146.829 1.958v.318c-.776-.441-1.782-.67-3-.67-1.376 0-2.523.335-3.459 1.023-.935.688-1.394 1.641-1.394 2.841 0 1.112.388 2.012 1.183 2.682zm5.611-1.817c-.688.635-1.464.953-2.329.953-.6 0-1.129-.16-1.606-.477-.476-.317-.706-.74-.706-1.288 0-.582.265-1.094.777-1.535.511-.442 1.27-.653 2.276-.653 1.182 0 2.065.247 2.647.723 0 .883-.353 1.642-1.059 2.277z" clip-rule="evenodd"/>
    <path fill="#616161" d="M116.189 23.159h-2.083V12.094h1.995v1.8h.088c.212-.6.635-1.094 1.306-1.482.653-.389 1.288-.583 1.906-.583.617 0 1.129.088 1.553.265l-.795 1.941c-.264-.106-.635-.159-1.111-.159-.759 0-1.412.3-1.994.9-.583.6-.865 1.377-.865 2.33v6.052zM126.441 23.51c-1.659 0-3.017-.564-4.094-1.676-1.076-1.129-1.606-2.523-1.606-4.217 0-1.694.53-3.089 1.606-4.218 1.077-1.13 2.435-1.676 4.094-1.676 1.236 0 2.259.3 3.071.9.812.6 1.412 1.359 1.782 2.276l-1.906.794c-.564-1.394-1.606-2.082-3.088-2.082-.918 0-1.729.37-2.435 1.13-.706.758-1.059 1.711-1.059 2.876 0 1.165.353 2.117 1.059 2.876.706.76 1.517 1.13 2.435 1.13 1.553 0 2.612-.689 3.212-2.083l1.853.794c-.371.9-.988 1.66-1.818 2.277-.847.6-1.87.9-3.106.9zM134.701 6.993v5.1l-.089 1.536h.089c.3-.53.776-.971 1.429-1.342.653-.37 1.341-.547 2.082-.547 1.377 0 2.418.424 3.141 1.27.724.848 1.077 1.977 1.077 3.389v6.759h-2.082v-6.459c0-2.047-.918-3.07-2.736-3.07-.864 0-1.553.335-2.1 1.023-.547.688-.811 1.482-.811 2.382v6.124h-2.083V6.993h2.083zM154.888 23.511c-2.382 0-4.376-.811-5.982-2.417-1.606-1.606-2.418-3.618-2.418-6.036 0-2.417.812-4.411 2.418-6.035 1.606-1.606 3.6-2.418 5.982-2.418 2.436 0 4.412.883 5.947 2.648l-1.447 1.394c-1.094-1.377-2.594-2.047-4.5-2.047-1.764 0-3.247.6-4.464 1.782-1.218 1.182-1.818 2.753-1.818 4.676 0 1.924.6 3.494 1.818 4.677 1.217 1.182 2.7 1.782 4.464 1.782 1.941 0 3.6-.776 4.977-2.347l1.447 1.447c-.741.883-1.659 1.588-2.771 2.118-1.129.53-2.347.776-3.653.776z"/>
    <path fill="#616161" fill-rule="evenodd" d="M167.805 11.741c-1.658 0-3.017.547-4.094 1.677-1.076 1.111-1.606 2.523-1.606 4.217 0 1.694.53 3.089 1.606 4.218 1.077 1.112 2.436 1.676 4.094 1.676 1.659 0 3.018-.547 4.095-1.676 1.076-1.13 1.605-2.524 1.605-4.218s-.529-3.088-1.605-4.217c-1.077-1.112-2.436-1.677-4.095-1.677zm-.017 9.883c-.971 0-1.818-.371-2.541-1.095-.706-.74-1.059-1.694-1.077-2.894 0-1.2.353-2.17 1.077-2.894.723-.723 1.57-1.094 2.541-1.094.97 0 1.817.37 2.541 1.094.724.724 1.076 1.694 1.076 2.894 0 1.2-.352 2.17-1.076 2.894-.724.724-1.571 1.095-2.541 1.095z" clip-rule="evenodd"/>
    <path fill="#616161" d="M176.947 12.094v1.535h.088c.3-.529.777-.97 1.43-1.34.653-.371 1.341-.548 2.082-.548 1.377 0 2.418.424 3.141 1.27.724.848 1.077 1.977 1.077 3.389v6.759h-2.082V16.7c0-2.047-.918-3.07-2.736-3.07-.864 0-1.553.335-2.1 1.023-.547.688-.812 1.482-.812 2.382v6.124h-2.082V12.094h1.994zM190.818 23.51c-1.236 0-2.259-.3-3.053-.9-.812-.6-1.394-1.358-1.765-2.258l1.853-.776c.582 1.394 1.588 2.082 3 2.082.653 0 1.182-.141 1.588-.424.406-.282.618-.67.618-1.129 0-.724-.512-1.218-1.518-1.465l-2.241-.547c-.706-.176-1.376-.53-2.012-1.023-.635-.512-.953-1.183-.953-2.047 0-.97.441-1.765 1.306-2.383.865-.617 1.888-.917 3.088-.917.971 0 1.853.23 2.612.67.777.441 1.324 1.077 1.641 1.906l-1.8.741c-.406-.97-1.253-1.464-2.523-1.464-.618 0-1.13.123-1.553.388-.424.264-.635.6-.635 1.041 0 .635.494 1.059 1.464 1.288l2.189.512c1.041.247 1.8.653 2.311 1.235.494.583.741 1.253.741 1.994 0 .989-.405 1.818-1.217 2.489-.812.67-1.871.988-3.141.988z"/>
    <path fill="#616161" fill-rule="evenodd" d="M201.653 11.741c-1.659 0-3.018.547-4.094 1.677-1.076 1.111-1.606 2.523-1.606 4.217 0 1.694.53 3.089 1.606 4.218 1.076 1.112 2.435 1.676 4.094 1.676 1.659 0 3.018-.547 4.094-1.676 1.077-1.13 1.606-2.524 1.606-4.218s-.529-3.088-1.606-4.217c-1.076-1.112-2.435-1.677-4.094-1.677zm0 9.883c-.97 0-1.818-.371-2.541-1.095-.724-.74-1.077-1.694-1.077-2.894 0-1.2.353-2.17 1.077-2.894.723-.723 1.571-1.094 2.541-1.094.971 0 1.818.37 2.541 1.094.724.724 1.077 1.694 1.077 2.894 0 1.2-.353 2.17-1.077 2.894-.723.724-1.57 1.095-2.541 1.095z" clip-rule="evenodd"/>
    <path fill="#616161" d="M210.917 23.159h-2.082V6.994h2.082V23.16z"/>
    <path fill="#616161" fill-rule="evenodd" d="M213.989 21.834c1.041 1.112 2.4 1.677 4.076 1.677 1.2 0 2.224-.282 3.053-.882.829-.583 1.429-1.289 1.782-2.153l-1.853-.777c-.529 1.27-1.553 1.906-3.035 1.906-.918 0-1.712-.318-2.4-.97-.671-.654-1.059-1.536-1.112-2.648h8.736l.017-.388c0-1.782-.494-3.212-1.482-4.288s-2.294-1.606-3.935-1.606c-1.589 0-2.877.582-3.9 1.747-1.006 1.165-1.518 2.559-1.518 4.165 0 1.694.529 3.106 1.571 4.217zm6.194-7.34c.529.564.811 1.164.864 1.8h-6.406c.212-.813.6-1.465 1.165-1.942.565-.476 1.218-.723 1.994-.723 1.059 0 1.853.3 2.383.864z" clip-rule="evenodd"/>
    <path fill="#4285F4" d="M0 14.265C0 9.165 4.288 5 9.406 5c2.823 0 4.835 1.112 6.353 2.559L13.976 9.34c-1.076-1.023-2.558-1.8-4.57-1.8-3.724 0-6.635 3-6.635 6.724 0 3.723 2.911 6.723 6.635 6.723 2.417 0 3.794-.97 4.676-1.853.724-.723 1.2-1.764 1.377-3.176H9.406v-2.524h8.523c.089.46.142.989.142 1.588 0 1.906-.512 4.253-2.189 5.912-1.623 1.694-3.705 2.594-6.458 2.594C4.288 23.512 0 19.365 0 14.265z"/>
    <path fill="#DB4437" fill-rule="evenodd" d="M18.953 17.564c0-3.459 2.683-5.964 5.983-5.964s5.982 2.505 5.982 5.964c0 3.442-2.683 5.965-5.982 5.965-3.3 0-5.983-2.523-5.983-5.965zm2.612-.017c0 2.135 1.57 3.617 3.37 3.617s3.371-1.482 3.371-3.617c0-2.153-1.57-3.618-3.37-3.618-1.818 0-3.371 1.465-3.371 3.618z" clip-rule="evenodd"/>
    <path fill="#F4B400" fill-rule="evenodd" d="M32.012 17.564c0-3.459 2.682-5.964 5.982-5.964 3.3 0 5.982 2.505 5.982 5.964 0 3.442-2.682 5.965-5.982 5.965-3.3 0-5.982-2.523-5.982-5.965zm2.611-.017c0 2.135 1.571 3.617 3.371 3.617s3.37-1.482 3.37-3.617c0-2.153-1.552-3.618-3.37-3.618s-3.37 1.465-3.37 3.618z" clip-rule="evenodd"/>
    <path fill="#4285F4" fill-rule="evenodd" d="M54.017 12.923v-.97h2.506v10.711c0 4.412-2.594 6.212-5.665 6.212-2.894 0-4.64-1.941-5.294-3.53l2.277-.952c.406.97 1.394 2.117 3 2.117 1.959 0 3.176-1.217 3.176-3.494v-.864h-.088c-.582.723-1.712 1.358-3.141 1.358-2.982 0-5.718-2.611-5.718-5.947 0-3.37 2.736-5.982 5.718-5.982 1.43 0 2.559.635 3.141 1.341h.088zM47.7 17.564c0 2.083 1.517 3.6 3.317 3.6 1.783 0 3.194-1.5 3.177-3.6 0-2.1-1.394-3.635-3.177-3.635-1.8 0-3.317 1.535-3.317 3.635z" clip-rule="evenodd"/>
    <path fill="#0F9D58" d="M58.323 5.636H60.935V23.159H58.323z"/>
    <path fill="#DB4437" fill-rule="evenodd" d="M65.224 19.364c.617 1.183 1.553 1.8 2.894 1.8 1.341 0 2.259-.653 2.947-1.64l2.03 1.358c-.671.97-2.242 2.647-4.977 2.647-3.388 0-5.912-2.63-5.912-5.965 0-3.547 2.559-5.964 5.63-5.964 3.088 0 4.605 2.453 5.1 3.794l.264.67-7.976 3.3zm4.906-4.2c-.283-.758-1.165-1.27-2.206-1.27-1.342 0-3.194 1.182-3.124 3.476l5.33-2.206z" clip-rule="evenodd"/>
</svg>
