<svg width="14" height="14" viewBox="0 0 14 14" fill="none" xmlns="http://www.w3.org/2000/svg">
<path d="M7.00003 10.7241C7.44001 10.7241 7.81661 10.3587 7.82034 9.90378C7.81661 9.45634 7.44001 9.09092 7.00003 9.09092C6.54513 9.09092 6.17599 9.45634 6.17972 9.90378C6.17599 10.3587 6.54513 10.7241 7.00003 10.7241Z" fill="#0071A1"/>
<path d="M7.59046 8.16264H6.3488C6.3488 7.65663 6.47834 7.26432 6.89062 6.84505C7.10296 6.62911 7.33476 6.48335 7.54167 6.35325C7.88729 6.13591 8.16346 5.96225 8.16346 5.57812C8.16346 4.96404 7.69244 4.66667 6.99213 4.66667C6.29181 4.66667 5.83789 5.10417 5.83789 5.83333H4.66667C4.66667 4.68904 5.50437 3.5 6.99958 3.5C8.49479 3.5 9.33353 4.52828 9.33353 5.47537C9.33353 6.41508 8.66169 6.86536 8.08008 7.25516L8.06641 7.26432C7.72847 7.49084 7.59046 7.76802 7.59046 8.16264Z" fill="#0071A1"/>
<path fill-rule="evenodd" clip-rule="evenodd" d="M7 14C10.866 14 14 10.866 14 7C14 3.13401 10.866 0 7 0C3.13401 0 0 3.13401 0 7C0 10.866 3.13401 14 7 14ZM7 12.8333C10.2217 12.8333 12.8333 10.2217 12.8333 7C12.8333 3.77834 10.2217 1.16667 7 1.16667C3.77834 1.16667 1.16667 3.77834 1.16667 7C1.16667 10.2217 3.77834 12.8333 7 12.8333Z" fill="#0071A1"/>
</svg>
