<svg xmlns="http://www.w3.org/2000/svg" width="12" height="12" viewBox="0 0 12 12">
    <g fill="none" fill-rule="evenodd" opacity=".3">
        <path d="M0 0h12v12H0z"/>
        <path fill="#333" fill-rule="nonzero" d="M6 0a6 6 0 1 1 0 12A6 6 0 0 1 6 0zm0 8a1 1 0 1 0 0 2 1 1 0 0 0 0-2zm0-6c-.777 0-1.365.176-1.815.527-.445.348-.673.842-.685 1.455V4.2a.1.1 0 0 0 .1.1h1.41a.1.1 0 0 0 .1-.1V4c.007-.26.093-.477.257-.625.165-.149.384-.223.658-.223.577 0 .866.275.866.826 0 .516-.373.897-.708 1.16-.335.261-.643.527-.769.798a2.248 2.248 0 0 0-.18.794 4.244 4.244 0 0 0-.006.17.1.1 0 0 0 .1.1h1.326a.1.1 0 0 0 .1-.092l.015-.181c.04-.32.179-.598.46-.835.5-.46.853-.857 1.06-1.194.148-.242.211-.507.211-.784 0-.609-.216-1.08-.65-1.414C7.419 2.167 6.785 2 6 2z"/>
    </g>
</svg>
