<svg xmlns="http://www.w3.org/2000/svg" width="14" height="14" viewBox="0 0 14 14">
    <g fill="none" fill-rule="evenodd" opacity=".6">
        <path d="M0 0h14v14H0z"/>
        <path fill="#FFF" d="M7 0a7 7 0 1 1 0 14A7 7 0 0 1 7 0zm0 9a1 1 0 1 0 0 2 1 1 0 0 0 0-2zm-.037-6c-.447 0-.851.06-1.213.179-.362.12-.657.297-.927.498C4.39 4 4.071 4.602 4 5h1.793c.074-.195.197-.383.298-.496.102-.113.232-.203.39-.27.16-.069.348-.102.568-.102.325 0 .579.07.762.212.183.142.274.361.274.658a.66.66 0 0 1-.115.435 1.423 1.423 0 0 1-.336.32 7.268 7.268 0 0 1-.451.29 2.911 2.911 0 0 0-.463.343 2.01 2.01 0 0 0-.385.478c-.11.187-.202.398-.2 1.132H7.78v-.368c0-.163.112-.354.238-.483s.27-.243.433-.343c.163-.1.336-.2.519-.3.182-.1.35-.221.5-.363.15-.142.276-.313.378-.512.101-.2.152-.455.152-.764 0-.187-.05-.389-.152-.605a1.722 1.722 0 0 0-.507-.604c-.235-.187-.546-.344-.932-.47C8.022 3.064 7.54 3 6.963 3z"/>
    </g>
</svg>
