<svg width="165" height="22" viewBox="0 0 165 22" fill="none" xmlns="http://www.w3.org/2000/svg">
<path d="M105.5 8H112.5V10.1203L109.931 10.3036C105.619 10.6054 104.293 11.7696 104.293 14.9603V15.6394C104.293 17.9678 105.888 19.38 108.4 19.38C109.252 19.434 110.106 19.2899 110.893 18.9588C111.68 18.6278 112.198 18.1189 112.756 17.472H113.004V19.0004H116V5H105.5V8ZM112.5 14.8418C111.647 15.7234 110.563 16.2475 109.338 16.3078C108.174 16.3078 107.689 15.8766 107.689 14.8957C107.689 13.5482 108.174 13.3111 110.448 13.0631L112.5 12.8152V14.8418Z" fill="white"/>
<path d="M0 13.4216V10.3675C0 6.25643 1.46959 4.78119 6.10821 4.78119C10.1891 4.78119 11.54 5.98512 11.8038 9.80228H8.42752C8.36911 8.21588 7.86229 7.77689 6.10821 7.77689C4.14122 7.77689 3.55339 8.36284 3.55339 10.0378V13.3331C3.55339 15.7993 4.08282 16.3872 6.19111 16.3872C7.74736 16.3872 8.24665 15.8879 8.42187 14.1847H11.8924C11.606 17.9698 10.0422 19.381 6.10821 19.381C1.52799 19.2887 0.0885521 17.885 0 13.4216Z" fill="#FF8800"/>
<path d="M14 13.3632V10.4561C14.098 6.22817 15.5812 4.78119 20.25 4.78119C25.0638 4.78119 26.5 6.24889 26.5 10.8103V13.7155C26.4114 17.9434 24.9169 19.381 20.25 19.381C15.4343 19.381 14 17.9133 14 13.3632ZM23 13.6854V10.9836C23 8.37038 22.3338 7.78066 20.25 7.78066C18.0475 7.78066 17.5 8.3082 17.5 10.4806V13.1861C17.5 15.7993 18.1643 16.3891 20.25 16.3891C22.4506 16.3872 23 15.8577 23 13.6854Z" fill="white"/>
<path d="M29.5 5H38.5009V7.84284H41.5009V19.0004H38.0009V8H33.0009V19.0004H29.5V5Z" fill="white"/>
<path d="M71.501 5H80.5019V7.84284H83.5019V19.0004H80.0019V8H75.0019V19.0004H71.501V5Z" fill="white"/>
<path d="M44.522 13.8625V2H48.0151V4.99408H53V7.98413H48.0151V14.2016C48.0151 15.8973 48.162 16.1102 49.0136 16.1102H49.4244C50.276 16.1102 50.5 15.9048 50.5 14.2016V11.3755H54V13.8625C54 17.6796 53 19.0004 49.7183 19.0004H48.5144C44.7556 19.0004 44.522 17.6796 44.522 13.8625Z" fill="white"/>
<path d="M86.5 13.8625V2H89.9931V4.99408H94.978V7.98413H89.9931V14.2016C89.9931 15.8973 90.1401 16.1102 90.9917 16.1102H91.4024C92.254 16.1102 92.5 15.9048 92.5 14.2016V11.3755H96V13.8625C96 17.6796 94.978 19.0004 91.6963 19.0004H90.4924C86.7336 19.0004 86.5 17.6796 86.5 13.8625Z" fill="white"/>
<path d="M56.501 13.7739V10.75C56.501 6.7934 58.4397 4.78873 62.6375 4.78873C66.8352 4.78873 68.6665 6.6389 68.6665 10.8969C68.6636 11.6564 68.5853 12.2559 68.4329 13H60.0167V13.6854C60.0167 15.918 60.7515 16.3872 62.8956 16.3872C64.4518 16.3872 64.8927 16.1818 65.1263 15.2416H68.5026C68.0033 18.324 66.594 19.3866 62.954 19.3866C58.4322 19.381 56.501 17.7381 56.501 13.7739ZM65.3562 10.5C65.3562 8.56127 64.6798 7.69587 62.743 7.69587C60.8061 7.69587 60.011 8.42878 60.011 10.2205V10.5H65.3562Z" fill="white"/>
<path d="M119 14.4202V4.99976H122.5V14.3901C122.5 15.9765 122.87 16.357 124.049 16.357C125.167 16.357 125.948 15.8879 127.5 14.3901V4.99411H131V19.0004H128V17.2671H127.929C126.079 18.942 125.08 19.3527 123.407 19.3527C119.88 19.3527 119 18.1771 119 14.4202Z" fill="white"/>
<path d="M134 13.7438V10.7782C134 6.46179 135.675 4.78872 139.464 4.78872C140.59 4.83132 141.423 5.02135 142.5 5.35395V1H146V19.0004H143.5V17.3857H143.192C141.519 18.8233 140.287 19.3226 138.495 19.3226C135.439 19.3226 134 17.7079 134 13.7438ZM142.5 14.2148V8.48907C141.614 8.126 140.949 7.92682 139.991 7.90124C138.053 7.90124 137.525 8.34211 137.525 11.0722V13.8625C137.525 15.7711 137.994 16.2101 139.221 16.2101C140.278 16.2101 140.94 15.6825 142.5 14.2148Z" fill="white"/>
<path d="M149 0H152.5V3H149V0ZM149 4.99598H152.5V19.0023H149V4.99598Z" fill="white"/>
<path d="M155.5 13.8625V2H158.995V4.99408H164.044V7.98413H158.995V14.2016C158.995 15.8973 159.191 16.1102 160.042 16.1102H160.453C161.305 16.1102 161.5 15.9048 161.5 14.2016V11.3755H165V13.8625C165 17.6796 164.044 19.0004 160.773 19.0004H159.57C155.813 19.0004 155.5 17.6796 155.5 13.8625Z" fill="white"/>
</svg>
