<svg width="52" height="56" viewBox="0 0 52 56" fill="none" xmlns="http://www.w3.org/2000/svg">
<path d="M51.72 9.26953H42.99C44.17 11.2395 45.04 13.4695 45.51 15.9295H51.72V9.26953Z" fill="#E60000" fill-opacity="0.2"/>
<path d="M1.83008 27.1504V33.8104H9.52008C7.97008 31.9004 6.78008 29.6604 6.03008 27.1504H1.83008Z" fill="#E60000" fill-opacity="0.2"/>
<path d="M49.73 33.8104V27.1504H44.99C44.23 29.6504 43.05 31.9004 41.49 33.8104H49.73Z" fill="#E60000" fill-opacity="0.2"/>
<path d="M42.9901 9.25961H47.9401V2.59961H36.0701C38.9501 4.18961 41.3001 6.45961 42.9901 9.25961Z" fill="#E60000" fill-opacity="0.2"/>
<path d="M15.87 38.7999L14.77 40.1599V44.2099H37.14V37.6699C33.91 39.7299 29.93 40.8899 25.44 40.8899C21.89 40.8799 18.66 40.1399 15.87 38.7999Z" fill="#E60000" fill-opacity="0.2"/>
<path d="M25.4401 2.5997C15.1901 2.7397 8.11011 9.8297 8.11011 20.5097C8.11011 31.3497 15.1901 38.2797 25.4401 38.1297C35.8501 37.9897 42.9201 31.0497 42.9201 20.5097C42.9201 9.5397 35.6901 2.4597 25.4401 2.5997Z" fill="#E60000" fill-opacity="0.2"/>
<path d="M42.99 9.26001C41.3 6.46001 38.95 4.19001 36.07 2.60001C33.04 0.930006 29.45 0 25.43 0C13.45 0 5.07 8.38001 5.07 20.51C5.07 22.88 5.4 25.1 6.02 27.15C6.77 29.66 7.96 31.9 9.51 33.81C10.52 35.05 11.69 36.16 12.99 37.1L0 53.3L2.6 55.18L14.75 40.16L15.85 38.8C18.64 40.14 21.88 40.88 25.42 40.88C29.92 40.88 33.89 39.72 37.12 37.66C38.78 36.6 40.24 35.31 41.47 33.8C43.03 31.89 44.21 29.65 44.97 27.14C45.59 25.09 45.93 22.87 45.93 20.5C45.93 18.9 45.78 17.37 45.5 15.92C45.03 13.47 44.17 11.24 42.98 9.26001C42.99 9.27001 42.99 9.26001 42.99 9.26001ZM42.92 20.51C42.92 31.05 35.85 37.99 25.44 38.13C15.19 38.28 8.11 31.35 8.11 20.51C8.11 9.83001 15.19 2.74001 25.44 2.60001C35.69 2.46001 42.92 9.54001 42.92 20.51Z" fill="black"/>
<path d="M34.0183 14.3455L31.8969 12.2242L17.1211 27L19.2424 29.1213L34.0183 14.3455Z" fill="black"/>
<path d="M31.7756 28.8972L33.8969 26.7758L19.1211 12L16.9998 14.1213L31.7756 28.8972Z" fill="black"/>
</svg>
