<svg width="64" height="68" viewBox="0 0 64 68" fill="none" xmlns="http://www.w3.org/2000/svg">
<path d="M58.72 16.27H49.99C51.17 18.24 52.04 20.47 52.51 22.93H58.72V16.27Z" fill="#ABDBF7"/>
<path d="M8.82996 34.15V40.81H16.52C14.97 38.9 13.78 36.66 13.03 34.15H8.82996Z" fill="#ABDBF7"/>
<path d="M56.73 40.81V34.15H51.99C51.23 36.65 50.05 38.9 48.49 40.81H56.73Z" fill="#ABDBF7"/>
<path d="M49.9901 16.26H54.9401V9.60001H43.0701C45.9501 11.19 48.3001 13.46 49.9901 16.26Z" fill="#ABDBF7"/>
<path d="M22.87 45.8L21.77 47.16V51.21H44.14V44.67C40.91 46.73 36.93 47.89 32.44 47.89C28.89 47.88 25.66 47.14 22.87 45.8Z" fill="#ABDBF7"/>
<path d="M32.44 9.6C22.19 9.74 15.11 16.83 15.11 27.51C15.11 38.35 22.19 45.28 32.44 45.13C42.85 44.99 49.92 38.05 49.92 27.51C49.92 16.54 42.69 9.46 32.44 9.6ZM44.14 30.26L41.98 30.4L41.26 23.25L32.3 32.86L29.71 30.54L23.07 37.48L21.33 35.74L29.55 27.08L32.3 29.53L39.34 22.01L31.59 22.6L31.44 20.29L43.15 19.57L44.14 30.26Z" fill="#ABDBF7"/>
<path d="M31.4301 20.3L31.5801 22.6L39.3301 22.01L32.2901 29.53L29.5501 27.08L21.3201 35.75L23.0601 37.48L29.7001 30.54L32.2901 32.86L41.2501 23.24L41.9801 30.4L44.1401 30.26L43.1301 19.57L31.4301 20.3Z" fill="black"/>
<path d="M49.99 16.26C48.3 13.46 45.95 11.19 43.07 9.60001C40.04 7.93001 36.45 7 32.43 7C20.45 7 12.07 15.38 12.07 27.51C12.07 29.88 12.4 32.1 13.02 34.15C13.77 36.66 14.96 38.9 16.51 40.81C17.52 42.05 18.69 43.16 19.99 44.1L7 60.3L9.6 62.18L21.75 47.16L22.85 45.8C25.64 47.14 28.88 47.88 32.42 47.88C36.92 47.88 40.89 46.72 44.12 44.66C45.78 43.6 47.24 42.31 48.47 40.8C50.03 38.89 51.21 36.65 51.97 34.14C52.59 32.09 52.93 29.87 52.93 27.5C52.93 25.9 52.78 24.37 52.5 22.92C52.03 20.47 51.17 18.24 49.98 16.26C49.99 16.27 49.99 16.26 49.99 16.26ZM49.92 27.51C49.92 38.05 42.85 44.99 32.44 45.13C22.19 45.28 15.11 38.35 15.11 27.51C15.11 16.83 22.19 9.74001 32.44 9.60001C42.69 9.46001 49.92 16.54 49.92 27.51Z" fill="black"/>
</svg>
