<svg width="14" height="14" viewBox="0 0 14 14" fill="none" xmlns="http://www.w3.org/2000/svg">
<path fill-rule="evenodd" clip-rule="evenodd" d="M12.251 7C12.251 7.238 12.23 7.462 12.202 7.686L13.679 8.842C13.812 8.946 13.848 9.136 13.764 9.289L12.364 11.711C12.279 11.865 12.098 11.928 11.936 11.865L10.194 11.165C9.82896 11.438 9.43696 11.676 9.01096 11.852L8.74396 13.706C8.72296 13.874 8.57596 14 8.40096 14H5.60096C5.42596 14 5.27896 13.874 5.25796 13.706L4.99296 11.852C4.56596 11.676 4.17296 11.445 3.80996 11.165L2.06596 11.865C1.91196 11.922 1.72296 11.865 1.63896 11.711L0.238962 9.289C0.154962 9.136 0.189962 8.946 0.322962 8.842L1.79996 7.686C1.77196 7.462 1.75096 7.231 1.75096 7C1.75096 6.769 1.77196 6.538 1.79996 6.314L0.322962 5.16C0.189962 5.054 0.147962 4.865 0.238962 4.71L1.63896 2.29C1.72296 2.135 1.90496 2.072 2.06596 2.135L3.80996 2.835C4.17296 2.562 4.56596 2.324 4.99296 2.149L5.25796 0.294C5.27896 0.126 5.42596 0 5.60096 0H8.40096C8.57596 0 8.72296 0.126 8.74396 0.294L9.01096 2.149C9.43696 2.324 9.82896 2.556 10.194 2.835L11.936 2.135C12.091 2.08 12.279 2.135 12.364 2.29L13.764 4.71C13.848 4.865 13.812 5.054 13.679 5.16L12.202 6.314C12.23 6.538 12.251 6.762 12.251 7ZM4.55096 7C4.55096 8.352 5.64996 9.45 7.00096 9.45C8.35196 9.45 9.45096 8.352 9.45096 7C9.45096 5.649 8.35196 4.55 7.00096 4.55C5.64996 4.55 4.55096 5.649 4.55096 7Z" fill="#333333"/>
</svg>
