<?xml version="1.0" encoding="UTF-8"?><svg id="Layer_1" xmlns="http://www.w3.org/2000/svg" xmlns:xlink="http://www.w3.org/1999/xlink" viewBox="0 0 500 500"><defs><style>.cls-1{fill:url(#linear-gradient);}.cls-2{fill:#fff;}.cls-3{fill:url(#linear-gradient-2);}</style><linearGradient id="linear-gradient" x1="-82.74" y1="-44.53" x2="496.78" y2="534.99" gradientUnits="userSpaceOnUse"><stop offset=".56" stop-color="#00d4c5"/><stop offset=".94" stop-color="#2aa3ff"/></linearGradient><linearGradient id="linear-gradient-2" x1="248.36" y1="-66.08" x2="253.52" y2="489.21" gradientUnits="userSpaceOnUse"><stop offset=".09" stop-color="#ff182b"/><stop offset=".35" stop-color="#ff6a8b"/></linearGradient></defs><path class="cls-1" d="M496.05,141.42v253.09c0,5.89-.53,11.67-1.53,17.27-.91,5.09-2.21,10.03-3.89,14.83-13.91,40.03-53.15,68.86-99.41,68.86H109.01c-46.24,0-85.5-28.83-99.41-68.86-1.68-4.8-2.98-9.74-3.88-14.83-1.01-5.6-1.53-11.38-1.53-17.27V141.42H496.05Z"/><path class="cls-3" d="M496.05,104.56v36.86H4.19v-36.86C4.19,48.81,51.13,3.6,109.01,3.6H391.22c57.91,0,104.83,45.21,104.83,100.95Z"/><path class="cls-2" d="M129.67,241.54v77.86H496.05v14.84H129.67v77.54H494.57c-.87,5.09-2.12,10.03-3.74,14.83H129.67v68.85h-14.27v-68.85H9.4c-1.61-4.8-2.87-9.74-3.74-14.83H115.4v-77.54H4.19v-14.84H115.4v-77.86H4.19v-14.84H115.4v-85.28h14.27v85.28H496.05v14.84H129.67Z"/></svg>