<svg xmlns="http://www.w3.org/2000/svg" width="326.467" height="92.559" viewBox="0 0 326.467 92.559"><g transform="translate(-1121.487 -980)"><g transform="translate(1194.504 980.018)"><path d="M2.831,77.874A2.7,2.7,0,0,1,.962,77.24a2.51,2.51,0,0,1-.57-1.9V10.716a2.51,2.51,0,0,1,.57-1.9A2.693,2.693,0,0,1,2.8,8.277H9.831A2.5,2.5,0,0,1,12.556,10.4l.7,2.534A21.544,21.544,0,0,1,20.285,8.4a22.527,22.527,0,0,1,8.426-1.647,18.091,18.091,0,0,1,14.825,6.906,29.111,29.111,0,0,1,5.512,18.658,33.92,33.92,0,0,1-2.724,14.1A22.175,22.175,0,0,1,38.943,55.7a18.256,18.256,0,0,1-10.707,3.168,22.744,22.744,0,0,1-7.6-1.267,18.264,18.264,0,0,1-6.114-3.485V75.4a2.663,2.663,0,0,1-.539,1.9,2.663,2.663,0,0,1-1.9.539ZM24.15,48.223a9.13,9.13,0,0,0,8.015-3.706A20.724,20.724,0,0,0,34.73,32.891,21.257,21.257,0,0,0,32.2,21.139a9.093,9.093,0,0,0-8.078-3.706,18.526,18.526,0,0,0-9.5,2.629v25.5a17.86,17.86,0,0,0,9.5,2.693Z" transform="translate(0.822 14.664)" fill="#2191c1"/><path d="M21.234,57.2a2.091,2.091,0,0,1-2.439-2.439v-44.7a2.51,2.51,0,0,1,.57-1.9A2.693,2.693,0,0,1,21.2,7.628h7A2.5,2.5,0,0,1,30.927,9.75l1.267,5.2a27.774,27.774,0,0,1,7.349-6.082,15.837,15.837,0,0,1,7.349-1.806h1.362a2.848,2.848,0,0,1,1.932.539,2.51,2.51,0,0,1,.57,1.9V17.67a2.661,2.661,0,0,1-.539,1.837,2.51,2.51,0,0,1-1.9.57H43.852a28.938,28.938,0,0,0-5.449.634,27,27,0,0,0-5.449,1.616V54.8a2.693,2.693,0,0,1-.539,1.837,2.51,2.51,0,0,1-1.9.57Z" transform="translate(40.674 15.314)" fill="#2191c1"/><path d="M38.889,15.212a8.453,8.453,0,0,1-5.924-2.027,7.132,7.132,0,0,1-2.249-5.544,7.125,7.125,0,0,1,2.249-5.575,9.508,9.508,0,0,1,11.879,0,7.132,7.132,0,0,1,2.249,5.544,7.132,7.132,0,0,1-2.249,5.544A8.45,8.45,0,0,1,38.889,15.212ZM34.233,72.549a2.091,2.091,0,0,1-2.439-2.439V25.381a2.51,2.51,0,0,1,.57-1.9,2.693,2.693,0,0,1,1.837-.539h9.345a2.663,2.663,0,0,1,1.9.539,2.663,2.663,0,0,1,.539,1.9V70.11a2.661,2.661,0,0,1-.539,1.837,2.51,2.51,0,0,1-1.9.57Z" transform="translate(66.576 0)" fill="#2191c1"/><path d="M41.794,57.879a2.091,2.091,0,0,1-2.439-2.439v-44.7a2.51,2.51,0,0,1,.57-1.9A2.693,2.693,0,0,1,41.762,8.3h7a2.5,2.5,0,0,1,2.724,2.122l.792,2.629A42.058,42.058,0,0,1,61.561,8.24a26.221,26.221,0,0,1,8.426-1.457,13.085,13.085,0,0,1,12.354,6.336,39.835,39.835,0,0,1,9.345-4.752,28.492,28.492,0,0,1,9.06-1.457,14.191,14.191,0,0,1,10.549,3.8,14.417,14.417,0,0,1,3.738,10.58v34.18a2.693,2.693,0,0,1-.539,1.837,2.51,2.51,0,0,1-1.9.57h-9.218a2.091,2.091,0,0,1-2.439-2.439V24.269q0-6.619-5.924-6.621A24.676,24.676,0,0,0,84.4,20.183V55.472a2.661,2.661,0,0,1-.539,1.837,2.51,2.51,0,0,1-1.9.57H72.648a2.091,2.091,0,0,1-2.439-2.439V24.269q0-6.619-5.924-6.621a23.722,23.722,0,0,0-10.707,2.629V55.44a2.693,2.693,0,0,1-.539,1.837,2.51,2.51,0,0,1-1.9.57Z" transform="translate(85.244 14.638)" fill="#2191c1"/><path d="M90.987,59.373a24.767,24.767,0,0,1-18.532-6.621A25.944,25.944,0,0,1,66.12,33.746a28.153,28.153,0,0,1,6.462-19.8,23.76,23.76,0,0,1,18.4-7.191,21.1,21.1,0,0,1,14.16,4.372,14.572,14.572,0,0,1,5.1,11.721,12.486,12.486,0,0,1-5.512,11.024A28.855,28.855,0,0,1,88.548,37.61a38.412,38.412,0,0,1-9.5-1.077,13.17,13.17,0,0,0,3.928,9.313,15.535,15.535,0,0,0,10.169,2.819,40.5,40.5,0,0,0,5.29-.348A66.418,66.418,0,0,0,105.59,46.8h1.045q1.649,0,1.647,2.249v4.467a4.021,4.021,0,0,1-.443,2.186,3.57,3.57,0,0,1-1.711,1.109A41.762,41.762,0,0,1,90.987,59.373ZM87.819,28.867a13.251,13.251,0,0,0,7.191-1.521,5.191,5.191,0,0,0,2.249-4.625q0-6.115-7.286-6.114-9.347,0-10.8,11.467a44.359,44.359,0,0,0,8.585.792Z" transform="translate(143.186 14.602)" fill="#2191c1"/></g><path d="M.906,26.122A2.159,2.159,0,0,0,.3,29.069C1.313,31,26.507,61.5,26.507,61.5a1.58,1.58,0,0,0,2.426,0C30.352,60.237,66.378,3.117,66.378,3.117S67.894.691,65.62,0H52.477L26.61,41.3,14.54,26.286Z" transform="translate(1121.526 1002.932)" fill="#f8991d"/></g></svg>