<svg xmlns="http://www.w3.org/2000/svg" xmlns:xlink="http://www.w3.org/1999/xlink" width="1608" height="1029" viewBox="0 0 1608 1029"><defs><filter id="a" x="88" y="0" width="1422" height="1029" filterUnits="userSpaceOnUse"><feOffset dy="3" input="SourceAlpha"/><feGaussianBlur stdDeviation="3" result="b"/><feFlood flood-opacity="0.161"/><feComposite operator="in" in2="b"/><feComposite in="SourceGraphic"/></filter><filter id="c" x="0" y="389" width="1608" height="331" filterUnits="userSpaceOnUse"><feOffset dy="3" input="SourceAlpha"/><feGaussianBlur stdDeviation="3" result="d"/><feFlood flood-opacity="0.161"/><feComposite operator="in" in2="d"/><feComposite in="SourceGraphic"/></filter><filter id="e" x="1032.408" y="350.353" width="382.193" height="135.801" filterUnits="userSpaceOnUse"><feOffset dy="2" input="SourceAlpha"/><feGaussianBlur stdDeviation="1.5" result="f"/><feFlood flood-opacity="0.161"/><feComposite operator="in" in2="f"/><feComposite in="SourceGraphic"/></filter></defs><g transform="translate(-2527 -124)"><g transform="translate(203.938 -828.857)"><g transform="matrix(1, 0, 0, 1, 2323.06, 952.86)" filter="url(#a)"><rect width="1404" height="1011" rx="10" transform="translate(97 6)" fill="#fff"/></g><g transform="translate(2518.035 1125.976)"><g transform="translate(0.026 -0.119)" fill="#fff" stroke="#e2e2e2" stroke-width="3"><rect width="157" height="163" rx="78.5" stroke="none"/><rect x="1.5" y="1.5" width="154" height="160" rx="77" fill="none"/></g><path d="M27.929,50.27A11.171,11.171,0,1,0,39.1,61.441,11.171,11.171,0,0,0,27.929,50.27Zm0,16.757a5.586,5.586,0,1,1,5.586-5.586A5.586,5.586,0,0,1,27.929,67.027ZM87.586,7.417,81.953,1.784a6.094,6.094,0,0,0-8.616,0L64.519,10.6A6.714,6.714,0,0,0,62.9,13.222L59.173,24.414c-.068.054-.175.031-.229.094L50.81,32.641a20.441,20.441,0,0,0-8.155-4.173,20.2,20.2,0,0,0-4.556-.536A15.451,15.451,0,0,0,26.97,32.313a14.4,14.4,0,0,0-3.533,5.842A8.83,8.83,0,0,1,16.08,44.17,17.482,17.482,0,0,0,5.155,49.134C-2.81,57.078-1.378,71.391,8.3,81.07a27.162,27.162,0,0,0,18.844,8.3,18.192,18.192,0,0,0,13.091-5.146,17.492,17.492,0,0,0,4.966-10.944,8.849,8.849,0,0,1,6.01-7.357,14.439,14.439,0,0,0,5.842-3.533c3.992-4,5.189-9.838,3.84-15.668a20.354,20.354,0,0,0-4.159-8.16l8.127-8.129c.063-.063.042-.159.094-.227l11.182-3.728a6.738,6.738,0,0,0,2.627-1.623l8.818-8.82a6.1,6.1,0,0,0,0-8.617ZM53.107,58.439a8.8,8.8,0,0,1-3.618,2.168,14.4,14.4,0,0,0-9.845,12.138,12.158,12.158,0,0,1-3.357,7.528,12.7,12.7,0,0,1-9.139,3.51,21.53,21.53,0,0,1-14.893-6.664,21.6,21.6,0,0,1-6.67-14.912,12.677,12.677,0,0,1,3.529-9.136A12.074,12.074,0,0,1,16.6,49.733a14.415,14.415,0,0,0,12.15-9.866,8.783,8.783,0,0,1,2.168-3.6A9.977,9.977,0,0,1,38.1,33.519a14.6,14.6,0,0,1,3.29.389,14.693,14.693,0,0,1,5.43,2.723l-9.2,9.2a2.095,2.095,0,0,0,0,2.967l2.967,2.967a2.095,2.095,0,0,0,2.967,0l9.2-9.2a14.646,14.646,0,0,1,2.714,5.421c.955,4.177.1,7.989-2.362,10.452ZM83.636,12.084,74.818,20.9a1.126,1.126,0,0,1-.442.276l-9.269,3.084L68.2,14.99a1.154,1.154,0,0,1,.274-.442l8.818-8.82a.491.491,0,0,1,.358-.148.5.5,0,0,1,.36.148l5.631,5.633a.51.51,0,0,1,0,.723Z" transform="translate(35.728 37.422)" fill="#aaa"/></g><g transform="translate(3421.462 1175.453)"><path d="M99.588,49.434,91.55,33.389A2.559,2.559,0,0,0,88.944,32L49.909,36.979,10.858,32a2.539,2.539,0,0,0-2.591,1.389L.23,49.434a2.544,2.544,0,0,0,1.576,3.59L9.953,55.35V88.329a4.978,4.978,0,0,0,3.777,4.838l33.744,8.444a10.012,10.012,0,0,0,4.838,0l33.775-8.444a5.005,5.005,0,0,0,3.777-4.838V55.35L98,53.024A2.551,2.551,0,0,0,99.588,49.434Zm-86.2-9.552,24.161,3.075-6.43,10.66L9.579,47.468Zm4.058,17.606,15.264,4.355A2.548,2.548,0,0,0,35.6,60.7L46.163,43.191V93.557l-28.718-7.18Zm64.928,28.89-28.718,7.18V43.191L64.221,60.719a2.557,2.557,0,0,0,2.887,1.139L82.373,57.5ZM68.685,53.617l-6.43-10.66,24.176-3.075,3.793,7.585Z" transform="translate(0.042 -31.982)" fill="#f6bd60"/></g><g transform="translate(2518.035 1734.891)"><g transform="translate(0.026 -0.033)" fill="#fff" stroke="#e2e2e2" stroke-width="3"><rect width="157" height="160" rx="78.5" stroke="none"/><rect x="1.5" y="1.5" width="154" height="157" rx="77" fill="none"/></g><path d="M76.526,35.974,89.314,12.131A8.738,8.738,0,0,0,81.238,0c-2.379,0-21.3,4.5-23.556,4.5a8.947,8.947,0,0,0-5.909-2.248H38.282A8.947,8.947,0,0,0,32.38,4.5C30.12,4.5,11.229,0,8.826,0a8.738,8.738,0,0,0-8.1,12.064l12.823,23.91v9.251A15.71,15.71,0,1,0,40.3,58.459H49.75A15.707,15.707,0,1,0,76.5,45.218V35.974ZM80.439,4.568a4.247,4.247,0,0,1,4.781,5.656L73.835,31.478H60.766V11.184a8.8,8.8,0,0,0-.393-2.472ZM34.447,8.993a4.446,4.446,0,0,1,3.835-2.278h13.49a4.446,4.446,0,0,1,3.835,2.278,4.81,4.81,0,0,1,.662,2.191V31.478H33.785V11.184A4.81,4.81,0,0,1,34.447,8.993ZM5.5,6.076A4.29,4.29,0,0,1,9.517,4.55L29.683,8.7a8.78,8.78,0,0,0-.395,2.48V31.478H16.244L4.807,10.158a4.185,4.185,0,0,1,.7-4.082ZM35.806,53.962H27.04V45.2a11.273,11.273,0,0,1,8.766,8.766Zm-13.263,0H13.777A11.273,11.273,0,0,1,22.543,45.2Zm-8.766,4.5h8.766v8.766a11.273,11.273,0,0,1-8.766-8.766ZM27.04,67.224V58.459h8.766A11.273,11.273,0,0,1,27.04,67.224ZM76.277,53.962H67.511V45.2a11.273,11.273,0,0,1,8.766,8.766Zm-13.263,0H54.248A11.273,11.273,0,0,1,63.014,45.2Zm-8.766,4.5h8.766v8.766A11.273,11.273,0,0,1,54.248,58.459Zm13.263,8.766V58.459h8.766A11.273,11.273,0,0,1,67.511,67.224Zm4.514-25.172A15.577,15.577,0,0,0,49.75,53.962H40.3a15.577,15.577,0,0,0-22.275-11.91V35.974h54Z" transform="translate(31.929 50.115)" fill="#aaa"/></g><g transform="translate(2767 1149.973)"><g transform="translate(0 0)"><g transform="translate(0)"><rect width="546" height="47" rx="23.5" transform="translate(0.061 -0.116)" fill="#aaa"/></g><g transform="translate(0 81.989)"><rect width="454" height="34" rx="17" transform="translate(0.061 -0.105)" fill="#e2e2e2"/></g></g><text transform="translate(895.061 82.884)" fill="#777" font-size="68" font-family="HelveticaNeue-Bold, Helvetica Neue" font-weight="700" letter-spacing="-0.05em"><tspan x="-36.108" y="0">10</tspan></text></g><g transform="translate(2332.062 1347.945)"><g transform="matrix(1, 0, 0, 1, -9, -395.09)" filter="url(#c)"><rect width="1590" height="313" rx="10" transform="translate(9 395)" fill="#f7f7fc"/></g><g transform="translate(113.984 63.991)"><g transform="translate(0.016 -0.079)" fill="#fff" stroke="#e2e2e2" stroke-width="3"><rect width="185" height="190" rx="92.5" stroke="none"/><rect x="1.5" y="1.5" width="182" height="187" rx="91" fill="none"/></g><path d="M128.686,103.963a5.372,5.372,0,0,0-2.245-.485,5.308,5.308,0,0,0-4.187,1.974c-.076.1-4.783,6.338-17.656,11.386C102.489,102.362,95.639,64,82.246,64A13.106,13.106,0,0,0,73.8,67.585a12.137,12.137,0,0,1-16.113,0A13.106,13.106,0,0,0,49.242,64c-13.417,0-20.252,38.418-22.348,52.836-12.754-5-17.5-11.172-17.668-11.377a5.216,5.216,0,0,0-4.17-2.013,5.414,5.414,0,0,0-2.215.47,4.461,4.461,0,0,0-2.58,5.59c.152.4,15.223,39.958,65.483,39.958s65.331-39.56,65.485-39.958A4.44,4.44,0,0,0,128.686,103.963ZM49.242,70.574a6.793,6.793,0,0,1,4.16,1.995,18.706,18.706,0,0,0,24.684,0,6.793,6.793,0,0,1,4.16-1.995c2.86,0,8.9,11.053,13.413,33.033a116.619,116.619,0,0,1-29.914,3.523A116.848,116.848,0,0,1,35.829,103.6C40.338,81.625,46.382,70.574,49.242,70.574ZM34.606,110.111A124.746,124.746,0,0,0,65.745,113.7a125.319,125.319,0,0,0,31.139-3.581c.491,2.829.966,5.752,1.393,8.892-8.191,2.4-18.843,4.152-32.534,4.152s-24.341-1.757-32.534-4.158C33.641,115.876,34.105,112.94,34.606,110.111ZM65.743,142.89c-31.005,0-47.157-16.187-54.4-26.755,8.518,6.005,25.082,13.606,54.4,13.606s45.961-7.71,54.424-13.658C112.925,126.678,96.765,142.89,65.743,142.89Z" transform="translate(26.665 -12.508)" fill="#777"/></g><g transform="translate(383.946 90.987)"><g transform="translate(0 0)"><rect width="641" height="55" rx="27.5" transform="translate(0.054 -0.074)" fill="#aaa"/></g><g transform="translate(0 95.987)"><rect width="532" height="40" rx="20" transform="translate(0.054 -0.062)" fill="#e2e2e2"/></g></g><text transform="translate(1398 185.912)" fill="#777" font-size="80" font-family="HelveticaNeue-Bold, Helvetica Neue" font-weight="700" letter-spacing="-0.05em"><tspan x="-22.24" y="0">4</tspan></text><path d="M22.865,39.2a4.9,4.9,0,0,0-4.9-4.9H4.9a4.9,4.9,0,1,0,0,9.8H17.965a4.9,4.9,0,0,0,4.9-4.9Zm-1,19.439L10.546,65.168a4.9,4.9,0,1,0,4.9,8.485L26.76,67.12a4.9,4.9,0,1,0-4.9-8.485Zm4.9-47.363L15.446,4.74a4.9,4.9,0,1,0-4.9,8.485L21.86,19.758a4.9,4.9,0,1,0,4.9-8.485Zm79.59,9.142a4.859,4.859,0,0,0,2.45-.657l11.314-6.533a4.9,4.9,0,1,0-4.9-8.485L103.9,11.273a4.9,4.9,0,0,0,2.45,9.142ZM125.756,34.3H112.69a4.9,4.9,0,1,0,0,9.8h13.066a4.9,4.9,0,1,0,0-9.8Zm-5.647,30.873L108.8,58.638a4.9,4.9,0,1,0-4.9,8.485l11.314,6.532a4.9,4.9,0,1,0,4.9-8.485ZM65.328,0A35.911,35.911,0,0,0,38.29,59.567c3.4,3.879,8.727,12,10.7,18.814v.012h9.8v-.024a9.732,9.732,0,0,0-.435-2.872A64.438,64.438,0,0,0,45.66,53.109a26.128,26.128,0,1,1,39.335,0A64.607,64.607,0,0,0,72.32,75.456a11.591,11.591,0,0,0-.459,2.921v.016h9.8c1.978-6.812,7.3-14.94,10.7-18.812A35.916,35.916,0,0,0,65.328,0Zm0,16.332a19.621,19.621,0,0,0-19.6,19.6,3.266,3.266,0,1,0,6.533,0A13.082,13.082,0,0,1,65.328,22.865a3.266,3.266,0,0,0,0-6.533ZM49.008,93.743a3.266,3.266,0,0,0,.549,1.8l5,7.519a3.266,3.266,0,0,0,2.717,1.458h16.1a3.266,3.266,0,0,0,2.723-1.458l5-7.525a3.307,3.307,0,0,0,.549-1.8l.012-8.811H49Z" transform="translate(1147.352 109.545)" fill="#22baa0"/></g><g transform="translate(2767 1759.887)"><g transform="translate(0 0)"><rect width="546" height="44" rx="22" transform="translate(0.061 -0.029)" fill="#aaa"/></g><g transform="translate(0 76.99)"><rect width="454" height="34" rx="17" transform="translate(0.061 -0.019)" fill="#e2e2e2"/></g></g><text transform="translate(3661.062 1840.857)" fill="#777" font-size="66" font-family="HelveticaNeue-Bold, Helvetica Neue" font-weight="700" letter-spacing="-0.05em"><tspan x="-18.348" y="0">2</tspan></text><g transform="translate(3359.97 1305.71)"><g transform="matrix(1, 0, 0, 1, -1036.91, -352.85)" filter="url(#e)"><path d="M170.109,110.62H10a10,10,0,0,1-10-10V10A10,10,0,0,1,10,0H363.193a10,10,0,0,1,10,10v90.62a10,10,0,0,1-10,10H204.658L187.384,126.8Z" transform="translate(1036.91 352.85)" fill="#22baa0"/></g><path d="M-87.158-7.239h4.672A10.224,10.224,0,0,1-82.3-9.18a6.02,6.02,0,0,1,.635-1.786,3.718,3.718,0,0,1,1.185-1.305,3.151,3.151,0,0,1,1.8-.5,3.578,3.578,0,0,1,2.593.979A3.62,3.62,0,0,1-75.067-9.06a3.83,3.83,0,0,1-.5,1.958A6.677,6.677,0,0,1-76.8-5.556,11.193,11.193,0,0,1-78.434-4.3q-.893.567-1.683,1.116-1.546,1.065-2.937,2.1a14.272,14.272,0,0,0-2.422,2.25,9.688,9.688,0,0,0-1.632,2.765,10.025,10.025,0,0,0-.6,3.641h17.656V3.375h-11.37a10.884,10.884,0,0,1,2.061-2.164q1.168-.927,2.4-1.735T-74.5-2.155a13.138,13.138,0,0,0,2.181-1.838,8.21,8.21,0,0,0,1.546-2.319,7.616,7.616,0,0,0,.584-3.126,7.266,7.266,0,0,0-.67-3.16,7.014,7.014,0,0,0-1.8-2.37,8.1,8.1,0,0,0-2.628-1.477,9.573,9.573,0,0,0-3.143-.515,9.367,9.367,0,0,0-3.83.739,7.469,7.469,0,0,0-2.765,2.061,8.914,8.914,0,0,0-1.649,3.091A11.536,11.536,0,0,0-87.158-7.239Zm34.075,2.645a13.421,13.421,0,0,1,.361-3.126,8.279,8.279,0,0,1,1.151-2.7,5.837,5.837,0,0,1,2.061-1.889,6.3,6.3,0,0,1,3.091-.7,6.3,6.3,0,0,1,3.091.7,5.837,5.837,0,0,1,2.061,1.889,8.278,8.278,0,0,1,1.151,2.7,13.421,13.421,0,0,1,.361,3.126,12.485,12.485,0,0,1-.361,3.006,8.123,8.123,0,0,1-1.151,2.628,5.9,5.9,0,0,1-2.061,1.872,6.3,6.3,0,0,1-3.091.7,6.3,6.3,0,0,1-3.091-.7,5.9,5.9,0,0,1-2.061-1.872,8.123,8.123,0,0,1-1.151-2.628A12.485,12.485,0,0,1-53.084-4.594Zm-5.393,0a14.813,14.813,0,0,0,.824,5,11.937,11.937,0,0,0,2.37,4.036,10.856,10.856,0,0,0,3.8,2.7,12.576,12.576,0,0,0,5.067.979,12.544,12.544,0,0,0,5.084-.979,10.894,10.894,0,0,0,3.778-2.7A11.936,11.936,0,0,0-35.188.4a14.813,14.813,0,0,0,.824-5,15.324,15.324,0,0,0-.824-5.1,12.253,12.253,0,0,0-2.37-4.1,10.876,10.876,0,0,0-3.778-2.748,12.356,12.356,0,0,0-5.084-1,12.388,12.388,0,0,0-5.067,1,10.837,10.837,0,0,0-3.8,2.748,12.253,12.253,0,0,0-2.37,4.1A15.325,15.325,0,0,0-58.477-4.594Zm36.239,8.965A3.89,3.89,0,0,1-24.23,3.89a3.859,3.859,0,0,1-1.322-1.254,5.414,5.414,0,0,1-.721-1.8,9.867,9.867,0,0,1-.223-2.1,10.834,10.834,0,0,1,.206-2.13,5.346,5.346,0,0,1,.7-1.821A4.01,4.01,0,0,1-24.282-6.5,3.762,3.762,0,0,1-22.272-7a3.693,3.693,0,0,1,1.975.5A4.114,4.114,0,0,1-18.975-5.2a5.578,5.578,0,0,1,.739,1.838,9.867,9.867,0,0,1,.223,2.1,10.658,10.658,0,0,1-.206,2.1,5.164,5.164,0,0,1-.7,1.8A3.909,3.909,0,0,1-20.229,3.89,3.868,3.868,0,0,1-22.238,4.371ZM-31.2-10.193V13.783h4.878V5.367h.069a5.754,5.754,0,0,0,2.284,1.975,6.915,6.915,0,0,0,3.04.67,7.337,7.337,0,0,0,3.418-.756A7.233,7.233,0,0,0-15.076,5.23a8.745,8.745,0,0,0,1.46-2.92,12.2,12.2,0,0,0,.481-3.435,13.5,13.5,0,0,0-.481-3.624,8.849,8.849,0,0,0-1.477-3.04,7.446,7.446,0,0,0-2.508-2.1,7.692,7.692,0,0,0-3.607-.79,6.955,6.955,0,0,0-3.023.653,5.365,5.365,0,0,0-2.267,2.1h-.069v-2.267ZM-1.251,4.371A3.89,3.89,0,0,1-3.243,3.89,3.859,3.859,0,0,1-4.565,2.636a5.414,5.414,0,0,1-.721-1.8,9.867,9.867,0,0,1-.223-2.1A10.835,10.835,0,0,1-5.3-3.392a5.346,5.346,0,0,1,.7-1.821A4.01,4.01,0,0,1-3.294-6.5,3.762,3.762,0,0,1-1.285-7,3.693,3.693,0,0,1,.69-6.5,4.114,4.114,0,0,1,2.013-5.2a5.579,5.579,0,0,1,.739,1.838,9.867,9.867,0,0,1,.223,2.1,10.658,10.658,0,0,1-.206,2.1,5.164,5.164,0,0,1-.7,1.8A3.909,3.909,0,0,1,.759,3.89,3.868,3.868,0,0,1-1.251,4.371Zm-8.965-14.564V13.783h4.878V5.367h.069A5.754,5.754,0,0,0-2.985,7.342a6.915,6.915,0,0,0,3.04.67,7.337,7.337,0,0,0,3.418-.756A7.233,7.233,0,0,0,5.911,5.23a8.745,8.745,0,0,0,1.46-2.92,12.2,12.2,0,0,0,.481-3.435,13.5,13.5,0,0,0-.481-3.624,8.849,8.849,0,0,0-1.477-3.04,7.446,7.446,0,0,0-2.508-2.1,7.692,7.692,0,0,0-3.607-.79,6.955,6.955,0,0,0-3.023.653,5.365,5.365,0,0,0-2.267,2.1h-.069v-2.267ZM15.1-1.3a10.658,10.658,0,0,1,.206-2.1,5.346,5.346,0,0,1,.7-1.821A3.955,3.955,0,0,1,17.332-6.5,3.925,3.925,0,0,1,19.393-7a4.018,4.018,0,0,1,2.078.5,3.906,3.906,0,0,1,1.34,1.288,5.346,5.346,0,0,1,.7,1.821,10.658,10.658,0,0,1,.206,2.1A10.4,10.4,0,0,1,23.515.781a5.536,5.536,0,0,1-.7,1.821,3.708,3.708,0,0,1-1.34,1.288,4.133,4.133,0,0,1-2.078.481,4.037,4.037,0,0,1-2.061-.481A3.751,3.751,0,0,1,16.01,2.6a5.536,5.536,0,0,1-.7-1.821A10.4,10.4,0,0,1,15.1-1.3Zm-4.878,0a10.761,10.761,0,0,0,.653,3.847A8.346,8.346,0,0,0,12.73,5.487a8.114,8.114,0,0,0,2.885,1.872,10.38,10.38,0,0,0,3.778.653,10.519,10.519,0,0,0,3.8-.653,8.084,8.084,0,0,0,2.9-1.872A8.346,8.346,0,0,0,27.946,2.55,10.761,10.761,0,0,0,28.6-1.3a10.9,10.9,0,0,0-.653-3.864,8.316,8.316,0,0,0-1.855-2.954A8.278,8.278,0,0,0,23.189-10a10.278,10.278,0,0,0-3.8-.67,10.143,10.143,0,0,0-3.778.67A8.312,8.312,0,0,0,12.73-8.115a8.316,8.316,0,0,0-1.855,2.954A10.9,10.9,0,0,0,10.222-1.3Zm21.537-8.9V7.565h4.878v-8a9.816,9.816,0,0,1,.24-2.233,4.889,4.889,0,0,1,.807-1.8,3.926,3.926,0,0,1,1.494-1.219,5.2,5.2,0,0,1,2.267-.447,8.711,8.711,0,0,1,.927.052q.481.052.824.12V-10.5a3.8,3.8,0,0,0-1.065-.172,5.825,5.825,0,0,0-1.786.275,6.545,6.545,0,0,0-1.614.773,6.076,6.076,0,0,0-1.34,1.2A6,6,0,0,0,36.465-6.9H36.4v-3.3Zm19.545,0v-5.324H46.426v5.324H43.472V-6.93h2.954V3.547a4.538,4.538,0,0,0,.447,2.164,3.182,3.182,0,0,0,1.219,1.271,5.063,5.063,0,0,0,1.786.6,14.239,14.239,0,0,0,2.147.155q.721,0,1.477-.034a11.607,11.607,0,0,0,1.374-.137V3.787a6.834,6.834,0,0,1-.721.1q-.378.034-.79.034a2.387,2.387,0,0,1-1.649-.412A2.387,2.387,0,0,1,51.3,1.863V-6.93h3.572v-3.263ZM73.872,7.565V-10.193H68.994V-.885a6.588,6.588,0,0,1-.893,3.9A3.379,3.379,0,0,1,65.216,4.2a2.661,2.661,0,0,1-2.439-1.082,6.223,6.223,0,0,1-.687-3.28v-10.03H57.212V.73A14.313,14.313,0,0,0,57.5,3.735a5.716,5.716,0,0,0,1.013,2.3A4.635,4.635,0,0,0,60.492,7.5a8.532,8.532,0,0,0,3.212.515,7.1,7.1,0,0,0,3.023-.687,5.487,5.487,0,0,0,2.4-2.233h.1V7.565Zm3.71-17.759V7.565h4.878V-1.743a6.588,6.588,0,0,1,.893-3.9,3.379,3.379,0,0,1,2.885-1.185,2.661,2.661,0,0,1,2.439,1.082,6.224,6.224,0,0,1,.687,3.28V7.565h4.878V-3.358a14.314,14.314,0,0,0-.292-3.006,5.716,5.716,0,0,0-1.013-2.3,4.762,4.762,0,0,0-1.975-1.477,8.284,8.284,0,0,0-3.212-.532,6.953,6.953,0,0,0-3.023.7,5.6,5.6,0,0,0-2.4,2.25h-.1v-2.473Zm25.384-2.748V-16.96H98.088v4.019Zm-4.878,2.748V7.565h4.878V-10.193Zm14.908,0v-5.324h-4.878v5.324h-2.954V-6.93h2.954V3.547a4.538,4.538,0,0,0,.447,2.164,3.182,3.182,0,0,0,1.219,1.271,5.063,5.063,0,0,0,1.786.6,14.239,14.239,0,0,0,2.147.155q.721,0,1.477-.034a11.607,11.607,0,0,0,1.374-.137V3.787a6.835,6.835,0,0,1-.721.1q-.378.034-.79.034a2.387,2.387,0,0,1-1.649-.412A2.387,2.387,0,0,1,113,1.863V-6.93h3.572v-3.263Zm10.923-2.748V-16.96h-4.878v4.019Zm-4.878,2.748V7.565h4.878V-10.193ZM139.719-3.22h-7.935a5.6,5.6,0,0,1,.223-1.168,3.585,3.585,0,0,1,.653-1.237A3.7,3.7,0,0,1,133.9-6.6a4.243,4.243,0,0,1,1.941-.4,3.426,3.426,0,0,1,2.662.962A5.638,5.638,0,0,1,139.719-3.22ZM131.785-.129H144.6a12.536,12.536,0,0,0-.344-3.95,9.668,9.668,0,0,0-1.563-3.366A7.883,7.883,0,0,0,139.925-9.8a8.444,8.444,0,0,0-3.95-.876,9.2,9.2,0,0,0-3.693.721,8.73,8.73,0,0,0-2.868,1.975,8.706,8.706,0,0,0-1.855,2.971,10.357,10.357,0,0,0-.653,3.71,10.813,10.813,0,0,0,.635,3.778,8.58,8.58,0,0,0,1.8,2.954A7.856,7.856,0,0,0,132.2,7.342a10.143,10.143,0,0,0,3.778.67,9.3,9.3,0,0,0,5.152-1.374,8.151,8.151,0,0,0,3.16-4.568h-4.294a3.064,3.064,0,0,1-1.305,1.563,4.348,4.348,0,0,1-2.542.739,4.36,4.36,0,0,1-3.16-1.065A4.931,4.931,0,0,1,131.785-.129Zm19.476,1.924h-4.637a5.971,5.971,0,0,0,.807,2.971,5.894,5.894,0,0,0,1.889,1.906,7.979,7.979,0,0,0,2.628,1.03,14.716,14.716,0,0,0,3.023.309,15.113,15.113,0,0,0,2.971-.292,7.533,7.533,0,0,0,2.593-1.013A5.635,5.635,0,0,0,162.373,4.8a5.663,5.663,0,0,0,.7-2.937A4.133,4.133,0,0,0,162.6-.215a4.4,4.4,0,0,0-1.271-1.408,6.836,6.836,0,0,0-1.8-.91,20.605,20.605,0,0,0-2.078-.584q-1.031-.24-2.027-.447a15.673,15.673,0,0,1-1.769-.464,3.707,3.707,0,0,1-1.254-.67,1.338,1.338,0,0,1-.481-1.065,1.316,1.316,0,0,1,.275-.876,1.8,1.8,0,0,1,.67-.5,2.981,2.981,0,0,1,.876-.223,8.42,8.42,0,0,1,.893-.052,4.868,4.868,0,0,1,2.267.5,2.134,2.134,0,0,1,1.065,1.906H162.6a5.827,5.827,0,0,0-.842-2.731,5.559,5.559,0,0,0-1.769-1.735,7.4,7.4,0,0,0-2.422-.927,14.07,14.07,0,0,0-2.8-.275,15.252,15.252,0,0,0-2.817.258,7.756,7.756,0,0,0-2.473.893,4.937,4.937,0,0,0-1.769,1.735,5.343,5.343,0,0,0-.67,2.817A3.8,3.8,0,0,0,147.517-3a4.176,4.176,0,0,0,1.271,1.34,7.1,7.1,0,0,0,1.8.859q1.013.326,2.078.567a29.153,29.153,0,0,1,4.07,1.1q1.46.55,1.46,1.649A1.8,1.8,0,0,1,157.89,3.6a2.343,2.343,0,0,1-.773.687,3.681,3.681,0,0,1-1.031.378,5.217,5.217,0,0,1-1.082.12,5.579,5.579,0,0,1-1.391-.172,3.608,3.608,0,0,1-1.185-.532,2.851,2.851,0,0,1-.842-.927A2.675,2.675,0,0,1,151.261,1.795Z" transform="translate(149.456 60.898)" fill="#fff"/></g><path d="M40.086,51.273a1.582,1.582,0,0,1,0,2.237L31.51,62.086a18.456,18.456,0,0,1-26.1-26.1l8.576-8.576a1.582,1.582,0,0,1,2.237,0l2.983,2.983a1.582,1.582,0,0,1,0,2.237l-8.477,8.477A11.074,11.074,0,1,0,26.29,56.866l8.576-8.576a1.582,1.582,0,0,1,2.237,0ZM32.629,19.206l8.477-8.477A11.074,11.074,0,1,1,56.866,26.29L48.29,34.867a1.582,1.582,0,0,0,0,2.237l2.983,2.983a1.582,1.582,0,0,0,2.237,0l8.576-8.576a18.456,18.456,0,1,0-26.1-26.1l-8.576,8.576a1.582,1.582,0,0,0,0,2.237l2.983,2.983a1.582,1.582,0,0,0,2.237,0Zm31.42,47.826,2.983-2.983a1.582,1.582,0,0,0,0-2.237L5.683.464a1.582,1.582,0,0,0-2.237,0L.463,3.447a1.582,1.582,0,0,0,0,2.237L61.812,67.033a1.582,1.582,0,0,0,2.237,0Z" transform="translate(3436.918 1779.527)" fill="#e06470"/><path d="M2.07-21.42V0H17.22V-3.96H6.78V-21.42Zm21.72,3.51v-3.51H19.53v3.51Zm-4.26,2.4V0h4.26V-15.51Zm7.62,0V0h4.26V-8.13a5.754,5.754,0,0,1,.78-3.4,2.951,2.951,0,0,1,2.52-1.035,2.324,2.324,0,0,1,2.13.945,5.435,5.435,0,0,1,.6,2.865V0H41.7V-9.54a12.5,12.5,0,0,0-.255-2.625,4.992,4.992,0,0,0-.885-2.01,4.159,4.159,0,0,0-1.725-1.29,7.235,7.235,0,0,0-2.805-.465,6.073,6.073,0,0,0-2.64.615,4.888,4.888,0,0,0-2.1,1.965H31.2v-2.16Zm18.18-5.91V0h4.26V-5.34l1.65-1.59L55.5,0h5.16L54.15-9.81,60-15.51H54.96L49.59-9.93V-21.42Zm25.62,0V0h4.41V-14.34h.06L84.33,0h4.71V-21.42H84.63V-7.05h-.06L75.63-21.42Zm21.6,10.68a4.948,4.948,0,0,1,.75-2.49,5.107,5.107,0,0,1,1.68-1.59,7.321,7.321,0,0,1,2.295-.855,13.048,13.048,0,0,1,2.565-.255,17.384,17.384,0,0,1,2.37.165,7.25,7.25,0,0,1,2.19.645,4.315,4.315,0,0,1,1.62,1.335,3.73,3.73,0,0,1,.63,2.265v8.07a16.207,16.207,0,0,0,.12,2.01A3.633,3.633,0,0,0,107.19,0h-4.32a6.112,6.112,0,0,1-.195-.735,6.4,6.4,0,0,1-.105-.765,5.551,5.551,0,0,1-2.4,1.47,9.633,9.633,0,0,1-2.82.42A7.619,7.619,0,0,1,95.28.12,4.741,4.741,0,0,1,93.6-.72a3.91,3.91,0,0,1-1.125-1.44,4.869,4.869,0,0,1-.4-2.07A4.522,4.522,0,0,1,92.535-6.4a3.888,3.888,0,0,1,1.2-1.365,5.377,5.377,0,0,1,1.68-.765,17.935,17.935,0,0,1,1.9-.405q.96-.15,1.89-.24a11.366,11.366,0,0,0,1.65-.27A2.876,2.876,0,0,0,102-9.975a1.152,1.152,0,0,0,.39-1,2.26,2.26,0,0,0-.225-1.1,1.655,1.655,0,0,0-.6-.63,2.36,2.36,0,0,0-.87-.3,7.119,7.119,0,0,0-1.065-.075,3.233,3.233,0,0,0-1.98.54,2.411,2.411,0,0,0-.84,1.8Zm9.84,3.15a1.911,1.911,0,0,1-.675.375,6.894,6.894,0,0,1-.87.225q-.465.09-.975.15t-1.02.15a7.693,7.693,0,0,0-.945.24,2.794,2.794,0,0,0-.81.405,1.925,1.925,0,0,0-.555.645,2.075,2.075,0,0,0-.21.99,2,2,0,0,0,.21.96,1.61,1.61,0,0,0,.57.615,2.406,2.406,0,0,0,.84.315,5.361,5.361,0,0,0,.99.09,3.766,3.766,0,0,0,1.95-.42,2.809,2.809,0,0,0,1.02-1.005,3.214,3.214,0,0,0,.4-1.185A8.141,8.141,0,0,0,102.39-6Zm7.68-7.92V0h4.26V-9a4.384,4.384,0,0,1,.33-1.845,2.979,2.979,0,0,1,.795-1.08,2.638,2.638,0,0,1,.96-.51,3.192,3.192,0,0,1,.795-.135,2.829,2.829,0,0,1,1.545.345,1.915,1.915,0,0,1,.75.915,3.831,3.831,0,0,1,.255,1.245q.03.675.03,1.365V0h4.26V-8.64a9.66,9.66,0,0,1,.1-1.425,3.6,3.6,0,0,1,.42-1.26,2.5,2.5,0,0,1,.87-.9,2.725,2.725,0,0,1,1.455-.345,2.875,2.875,0,0,1,1.425.3,2,2,0,0,1,.795.81,3.119,3.119,0,0,1,.33,1.2q.06.69.06,1.47V0h4.26V-10.38a7,7,0,0,0-.42-2.565,4.4,4.4,0,0,0-1.17-1.725,4.59,4.59,0,0,0-1.8-.96,8.272,8.272,0,0,0-2.28-.3,4.985,4.985,0,0,0-2.805.78,6.6,6.6,0,0,0-1.875,1.8,3.772,3.772,0,0,0-1.845-2.01,6.243,6.243,0,0,0-2.685-.57,5.485,5.485,0,0,0-2.715.66,6.066,6.066,0,0,0-2.025,1.86h-.06v-2.1Zm37.5,6.09h-6.93a4.89,4.89,0,0,1,.195-1.02,3.132,3.132,0,0,1,.57-1.08,3.227,3.227,0,0,1,1.08-.855,3.706,3.706,0,0,1,1.695-.345,2.992,2.992,0,0,1,2.325.84A4.924,4.924,0,0,1,147.57-9.42Zm-6.93,2.7h11.19a10.95,10.95,0,0,0-.3-3.45,8.444,8.444,0,0,0-1.365-2.94,6.885,6.885,0,0,0-2.415-2.055,7.375,7.375,0,0,0-3.45-.765,8.033,8.033,0,0,0-3.225.63,7.625,7.625,0,0,0-2.505,1.725,7.6,7.6,0,0,0-1.62,2.6,9.046,9.046,0,0,0-.57,3.24,9.443,9.443,0,0,0,.555,3.3,7.494,7.494,0,0,0,1.575,2.58A6.862,6.862,0,0,0,141-.2a8.858,8.858,0,0,0,3.3.585,8.124,8.124,0,0,0,4.5-1.2,7.119,7.119,0,0,0,2.76-3.99h-3.75a2.676,2.676,0,0,1-1.14,1.365,3.8,3.8,0,0,1-2.22.645,3.808,3.808,0,0,1-2.76-.93A4.307,4.307,0,0,1,140.64-6.72Z" transform="translate(2767.062 1069.857)" fill="#777"/><path d="M2.07-21.42V0H6.78V-21.42Zm8.52,5.91V0h4.26V-9a4.384,4.384,0,0,1,.33-1.845,2.979,2.979,0,0,1,.8-1.08,2.638,2.638,0,0,1,.96-.51,3.192,3.192,0,0,1,.795-.135,2.829,2.829,0,0,1,1.545.345,1.915,1.915,0,0,1,.75.915,3.831,3.831,0,0,1,.255,1.245q.03.675.03,1.365V0h4.26V-8.64a9.66,9.66,0,0,1,.1-1.425,3.6,3.6,0,0,1,.42-1.26,2.5,2.5,0,0,1,.87-.9,2.725,2.725,0,0,1,1.455-.345,2.875,2.875,0,0,1,1.425.3,2,2,0,0,1,.8.81,3.12,3.12,0,0,1,.33,1.2q.06.69.06,1.47V0h4.26V-10.38a7,7,0,0,0-.42-2.565A4.4,4.4,0,0,0,32.7-14.67a4.59,4.59,0,0,0-1.8-.96,8.272,8.272,0,0,0-2.28-.3,4.985,4.985,0,0,0-2.8.78,6.6,6.6,0,0,0-1.875,1.8A3.772,3.772,0,0,0,22.1-15.36a6.243,6.243,0,0,0-2.685-.57,5.485,5.485,0,0,0-2.715.66,6.066,6.066,0,0,0-2.025,1.86h-.06v-2.1Zm26.88,4.77a4.949,4.949,0,0,1,.75-2.49,5.107,5.107,0,0,1,1.68-1.59,7.321,7.321,0,0,1,2.3-.855,13.048,13.048,0,0,1,2.565-.255,17.384,17.384,0,0,1,2.37.165,7.25,7.25,0,0,1,2.19.645,4.315,4.315,0,0,1,1.62,1.335,3.73,3.73,0,0,1,.63,2.265v8.07a16.208,16.208,0,0,0,.12,2.01A3.633,3.633,0,0,0,52.11,0H47.79A6.113,6.113,0,0,1,47.6-.735,6.4,6.4,0,0,1,47.49-1.5a5.551,5.551,0,0,1-2.4,1.47,9.633,9.633,0,0,1-2.82.42A7.619,7.619,0,0,1,40.2.12a4.741,4.741,0,0,1-1.68-.84A3.91,3.91,0,0,1,37.4-2.16a4.869,4.869,0,0,1-.405-2.07A4.522,4.522,0,0,1,37.455-6.4a3.888,3.888,0,0,1,1.2-1.365,5.377,5.377,0,0,1,1.68-.765,17.935,17.935,0,0,1,1.9-.405q.96-.15,1.89-.24a11.366,11.366,0,0,0,1.65-.27,2.876,2.876,0,0,0,1.14-.525,1.152,1.152,0,0,0,.39-1,2.26,2.26,0,0,0-.225-1.1,1.655,1.655,0,0,0-.6-.63,2.36,2.36,0,0,0-.87-.3,7.119,7.119,0,0,0-1.065-.075,3.233,3.233,0,0,0-1.98.54,2.411,2.411,0,0,0-.84,1.8Zm9.84,3.15a1.911,1.911,0,0,1-.675.375,6.894,6.894,0,0,1-.87.225q-.465.09-.975.15t-1.02.15a7.693,7.693,0,0,0-.945.24,2.794,2.794,0,0,0-.81.405,1.925,1.925,0,0,0-.555.645,2.075,2.075,0,0,0-.21.99,2,2,0,0,0,.21.96,1.61,1.61,0,0,0,.57.615,2.406,2.406,0,0,0,.84.315,5.361,5.361,0,0,0,.99.09,3.766,3.766,0,0,0,1.95-.42,2.809,2.809,0,0,0,1.02-1.005,3.214,3.214,0,0,0,.405-1.185A8.14,8.14,0,0,0,47.31-6ZM62.1-3.66a3.017,3.017,0,0,1-1.65-.42,3.33,3.33,0,0,1-1.065-1.08,4.5,4.5,0,0,1-.57-1.485A8.47,8.47,0,0,1,58.65-8.31a6.966,6.966,0,0,1,.195-1.665,4.111,4.111,0,0,1,.63-1.41,3.249,3.249,0,0,1,1.08-.975,3.123,3.123,0,0,1,1.545-.36,3.5,3.5,0,0,1,1.74.39,3.106,3.106,0,0,1,1.11,1.05,4.534,4.534,0,0,1,.6,1.515,8.8,8.8,0,0,1,.18,1.815,5.659,5.659,0,0,1-.225,1.6A4.252,4.252,0,0,1,64.83-4.98a3.326,3.326,0,0,1-1.14.96A3.388,3.388,0,0,1,62.1-3.66ZM69.78-.99V-15.51H65.73v2.07h-.06a4.633,4.633,0,0,0-1.935-1.92,6,6,0,0,0-2.685-.57,6.261,6.261,0,0,0-2.865.63A6.162,6.162,0,0,0,56.1-13.605a7.567,7.567,0,0,0-1.275,2.46A9.668,9.668,0,0,0,54.39-8.25a11.8,11.8,0,0,0,.375,3.015,7.009,7.009,0,0,0,1.185,2.49,5.692,5.692,0,0,0,2.07,1.68,6.776,6.776,0,0,0,3,.615,6.364,6.364,0,0,0,2.685-.585A4.218,4.218,0,0,0,65.67-2.85h.06V-.81a4.235,4.235,0,0,1-.8,2.73A3.093,3.093,0,0,1,62.31,3a4.2,4.2,0,0,1-2.01-.465A2.431,2.431,0,0,1,59.13.87H54.9a4.479,4.479,0,0,0,.735,2.265,5.308,5.308,0,0,0,1.62,1.545,7.386,7.386,0,0,0,2.16.885,9.921,9.921,0,0,0,2.325.285A10.476,10.476,0,0,0,66,5.13a6.524,6.524,0,0,0,2.43-1.755,5.252,5.252,0,0,0,1.1-2.235A10.385,10.385,0,0,0,69.78-.99ZM83.64-9.42H76.71a4.89,4.89,0,0,1,.195-1.02,3.132,3.132,0,0,1,.57-1.08,3.227,3.227,0,0,1,1.08-.855,3.706,3.706,0,0,1,1.695-.345,2.992,2.992,0,0,1,2.325.84A4.924,4.924,0,0,1,83.64-9.42Zm-6.93,2.7H87.9a10.949,10.949,0,0,0-.3-3.45,8.445,8.445,0,0,0-1.365-2.94,6.885,6.885,0,0,0-2.415-2.055,7.375,7.375,0,0,0-3.45-.765,8.033,8.033,0,0,0-3.225.63,7.625,7.625,0,0,0-2.505,1.725,7.6,7.6,0,0,0-1.62,2.6,9.046,9.046,0,0,0-.57,3.24,9.444,9.444,0,0,0,.555,3.3A7.494,7.494,0,0,0,74.58-1.86,6.861,6.861,0,0,0,77.07-.2a8.859,8.859,0,0,0,3.3.585,8.124,8.124,0,0,0,4.5-1.2A7.119,7.119,0,0,0,87.63-4.8H83.88a2.676,2.676,0,0,1-1.14,1.365,3.8,3.8,0,0,1-2.22.645,3.808,3.808,0,0,1-2.76-.93A4.307,4.307,0,0,1,76.71-6.72Z" transform="translate(2552.062 1069.857)" fill="#777"/><path d="M2.07-21.42V0H17.22V-3.96H6.78V-21.42ZM23.19-7.74a9.308,9.308,0,0,1,.18-1.83,4.669,4.669,0,0,1,.615-1.59,3.454,3.454,0,0,1,1.155-1.125,3.428,3.428,0,0,1,1.8-.435,3.51,3.51,0,0,1,1.815.435,3.411,3.411,0,0,1,1.17,1.125,4.669,4.669,0,0,1,.615,1.59,9.308,9.308,0,0,1,.18,1.83,9.084,9.084,0,0,1-.18,1.815,4.835,4.835,0,0,1-.615,1.59,3.238,3.238,0,0,1-1.17,1.125,3.61,3.61,0,0,1-1.815.42,3.526,3.526,0,0,1-1.8-.42,3.276,3.276,0,0,1-1.155-1.125,4.835,4.835,0,0,1-.615-1.59A9.084,9.084,0,0,1,23.19-7.74Zm-4.26,0a9.4,9.4,0,0,0,.57,3.36,7.289,7.289,0,0,0,1.62,2.565A7.087,7.087,0,0,0,23.64-.18a9.066,9.066,0,0,0,3.3.57,9.187,9.187,0,0,0,3.315-.57A7.06,7.06,0,0,0,32.79-1.815,7.289,7.289,0,0,0,34.41-4.38a9.4,9.4,0,0,0,.57-3.36,9.521,9.521,0,0,0-.57-3.375,7.263,7.263,0,0,0-1.62-2.58,7.23,7.23,0,0,0-2.535-1.65,8.976,8.976,0,0,0-3.315-.585,8.858,8.858,0,0,0-3.3.585,7.259,7.259,0,0,0-2.52,1.65,7.263,7.263,0,0,0-1.62,2.58A9.521,9.521,0,0,0,18.93-7.74ZM48.3-10.05h4.17a5.835,5.835,0,0,0-.72-2.595,5.861,5.861,0,0,0-1.635-1.83,7.086,7.086,0,0,0-2.28-1.1,9.724,9.724,0,0,0-2.655-.36,8.46,8.46,0,0,0-3.36.63,7.071,7.071,0,0,0-2.49,1.755,7.526,7.526,0,0,0-1.545,2.67A10.333,10.333,0,0,0,37.26-7.53a8.687,8.687,0,0,0,.57,3.195,7.446,7.446,0,0,0,1.59,2.5A7.084,7.084,0,0,0,41.895-.2a8.489,8.489,0,0,0,3.2.585,7.746,7.746,0,0,0,5.07-1.62,7.028,7.028,0,0,0,2.4-4.71H48.45a4.044,4.044,0,0,1-1.035,2.3,3.121,3.121,0,0,1-2.355.855,3.009,3.009,0,0,1-1.68-.45,3.361,3.361,0,0,1-1.095-1.155A5.29,5.29,0,0,1,41.7-5.97a8.426,8.426,0,0,1-.18-1.71,8.787,8.787,0,0,1,.18-1.755,5.183,5.183,0,0,1,.615-1.62,3.7,3.7,0,0,1,1.125-1.2,2.992,2.992,0,0,1,1.71-.465A2.856,2.856,0,0,1,48.3-10.05Zm6.48-.69a4.949,4.949,0,0,1,.75-2.49,5.107,5.107,0,0,1,1.68-1.59,7.321,7.321,0,0,1,2.3-.855,13.048,13.048,0,0,1,2.565-.255,17.384,17.384,0,0,1,2.37.165,7.25,7.25,0,0,1,2.19.645,4.315,4.315,0,0,1,1.62,1.335,3.73,3.73,0,0,1,.63,2.265v8.07A16.207,16.207,0,0,0,69-1.44,3.634,3.634,0,0,0,69.42,0H65.1A6.115,6.115,0,0,1,64.9-.735a6.4,6.4,0,0,1-.1-.765A5.551,5.551,0,0,1,62.4-.03a9.633,9.633,0,0,1-2.82.42A7.619,7.619,0,0,1,57.51.12a4.741,4.741,0,0,1-1.68-.84,3.91,3.91,0,0,1-1.125-1.44A4.869,4.869,0,0,1,54.3-4.23,4.522,4.522,0,0,1,54.765-6.4a3.888,3.888,0,0,1,1.2-1.365,5.377,5.377,0,0,1,1.68-.765,17.935,17.935,0,0,1,1.9-.405q.96-.15,1.89-.24a11.366,11.366,0,0,0,1.65-.27,2.876,2.876,0,0,0,1.14-.525,1.152,1.152,0,0,0,.39-1,2.26,2.26,0,0,0-.225-1.1,1.655,1.655,0,0,0-.6-.63,2.36,2.36,0,0,0-.87-.3,7.119,7.119,0,0,0-1.065-.075,3.233,3.233,0,0,0-1.98.54,2.411,2.411,0,0,0-.84,1.8Zm9.84,3.15a1.911,1.911,0,0,1-.675.375,6.894,6.894,0,0,1-.87.225q-.465.09-.975.15t-1.02.15a7.693,7.693,0,0,0-.945.24,2.794,2.794,0,0,0-.81.405,1.925,1.925,0,0,0-.555.645,2.075,2.075,0,0,0-.21.99,2,2,0,0,0,.21.96,1.61,1.61,0,0,0,.57.615,2.406,2.406,0,0,0,.84.315,5.361,5.361,0,0,0,.99.09,3.766,3.766,0,0,0,1.95-.42,2.809,2.809,0,0,0,1.02-1.005,3.214,3.214,0,0,0,.4-1.185A8.14,8.14,0,0,0,64.62-6Zm12.96-7.92v-4.65H73.32v4.65H70.74v2.85h2.58v9.15a3.963,3.963,0,0,0,.39,1.89A2.779,2.779,0,0,0,74.775-.51a4.422,4.422,0,0,0,1.56.525A12.436,12.436,0,0,0,78.21.15q.63,0,1.29-.03A10.137,10.137,0,0,0,80.7,0V-3.3a5.968,5.968,0,0,1-.63.09q-.33.03-.69.03a2.085,2.085,0,0,1-1.44-.36,2.085,2.085,0,0,1-.36-1.44v-7.68H80.7v-2.85Zm9.54-2.4v-3.51H82.86v3.51Zm-4.26,2.4V0h4.26V-15.51Zm11.4,7.77a9.308,9.308,0,0,1,.18-1.83,4.669,4.669,0,0,1,.615-1.59,3.454,3.454,0,0,1,1.155-1.125,3.428,3.428,0,0,1,1.8-.435,3.51,3.51,0,0,1,1.815.435A3.411,3.411,0,0,1,101-11.16a4.669,4.669,0,0,1,.615,1.59,9.308,9.308,0,0,1,.18,1.83,9.084,9.084,0,0,1-.18,1.815A4.835,4.835,0,0,1,101-4.335a3.238,3.238,0,0,1-1.17,1.125,3.61,3.61,0,0,1-1.815.42,3.526,3.526,0,0,1-1.8-.42,3.276,3.276,0,0,1-1.155-1.125,4.835,4.835,0,0,1-.615-1.59A9.084,9.084,0,0,1,94.26-7.74ZM90-7.74a9.4,9.4,0,0,0,.57,3.36,7.289,7.289,0,0,0,1.62,2.565A7.087,7.087,0,0,0,94.71-.18a9.066,9.066,0,0,0,3.3.57,9.187,9.187,0,0,0,3.315-.57,7.06,7.06,0,0,0,2.535-1.635,7.289,7.289,0,0,0,1.62-2.565,9.4,9.4,0,0,0,.57-3.36,9.521,9.521,0,0,0-.57-3.375,7.263,7.263,0,0,0-1.62-2.58,7.23,7.23,0,0,0-2.535-1.65,8.976,8.976,0,0,0-3.315-.585,8.859,8.859,0,0,0-3.3.585,7.259,7.259,0,0,0-2.52,1.65,7.263,7.263,0,0,0-1.62,2.58A9.521,9.521,0,0,0,90-7.74Zm18.81-7.77V0h4.26V-8.13a5.754,5.754,0,0,1,.78-3.4,2.951,2.951,0,0,1,2.52-1.035,2.324,2.324,0,0,1,2.13.945,5.435,5.435,0,0,1,.6,2.865V0h4.26V-9.54a12.5,12.5,0,0,0-.255-2.625,4.992,4.992,0,0,0-.885-2.01,4.159,4.159,0,0,0-1.725-1.29,7.235,7.235,0,0,0-2.805-.465,6.073,6.073,0,0,0-2.64.615,4.888,4.888,0,0,0-2.1,1.965h-.09v-2.16ZM129.9-5.04h-4.05a5.215,5.215,0,0,0,.7,2.6,5.148,5.148,0,0,0,1.65,1.665,6.968,6.968,0,0,0,2.295.9,12.852,12.852,0,0,0,2.64.27,13.2,13.2,0,0,0,2.6-.255A6.579,6.579,0,0,0,138-.75a4.921,4.921,0,0,0,1.605-1.665,4.946,4.946,0,0,0,.615-2.565A3.61,3.61,0,0,0,139.8-6.8a3.845,3.845,0,0,0-1.11-1.23,5.971,5.971,0,0,0-1.575-.795,18,18,0,0,0-1.815-.51q-.9-.21-1.77-.39a13.688,13.688,0,0,1-1.545-.4,3.238,3.238,0,0,1-1.1-.585,1.168,1.168,0,0,1-.42-.93,1.149,1.149,0,0,1,.24-.765,1.575,1.575,0,0,1,.585-.435,2.6,2.6,0,0,1,.765-.195,7.354,7.354,0,0,1,.78-.045,4.251,4.251,0,0,1,1.98.435,1.864,1.864,0,0,1,.93,1.665h4.05a5.089,5.089,0,0,0-.735-2.385,4.855,4.855,0,0,0-1.545-1.515,6.467,6.467,0,0,0-2.115-.81,12.288,12.288,0,0,0-2.445-.24,13.321,13.321,0,0,0-2.46.225,6.774,6.774,0,0,0-2.16.78A4.312,4.312,0,0,0,126.8-13.41a4.666,4.666,0,0,0-.585,2.46,3.315,3.315,0,0,0,.42,1.725,3.647,3.647,0,0,0,1.11,1.17,6.2,6.2,0,0,0,1.575.75q.885.285,1.815.495a25.461,25.461,0,0,1,3.555.96q1.275.48,1.275,1.44a1.576,1.576,0,0,1-.27.945,2.046,2.046,0,0,1-.675.6,3.215,3.215,0,0,1-.9.33,4.557,4.557,0,0,1-.945.105,4.873,4.873,0,0,1-1.215-.15,3.151,3.151,0,0,1-1.035-.465,2.49,2.49,0,0,1-.735-.81A2.336,2.336,0,0,1,129.9-5.04Z" transform="translate(3591.062 1069.857)" fill="#777"/></g></g></svg>