<svg xmlns="http://www.w3.org/2000/svg" xmlns:xlink="http://www.w3.org/1999/xlink" width="2022" height="842" viewBox="0 0 2022 842"><defs><filter id="a" x="0" y="527" width="1675" height="315" filterUnits="userSpaceOnUse"><feOffset dy="3" input="SourceAlpha"/><feGaussianBlur stdDeviation="3" result="b"/><feFlood flood-opacity="0.161"/><feComposite operator="in" in2="b"/><feComposite in="SourceGraphic"/></filter><filter id="c" x="0" y="0" width="1675" height="315" filterUnits="userSpaceOnUse"><feOffset dy="3" input="SourceAlpha"/><feGaussianBlur stdDeviation="3" result="d"/><feFlood flood-opacity="0.161"/><feComposite operator="in" in2="d"/><feComposite in="SourceGraphic"/></filter><filter id="e" x="99" y="275" width="1693" height="307" filterUnits="userSpaceOnUse"><feOffset dy="6" input="SourceAlpha"/><feGaussianBlur stdDeviation="6" result="f"/><feFlood flood-opacity="0.161"/><feComposite operator="in" in2="f"/><feComposite in="SourceGraphic"/></filter><clipPath id="g"><rect width="423.514" height="156.583" fill="#b09ae5" stroke="#707070" stroke-width="1"/></clipPath></defs><g transform="translate(-101 -1508)"><g transform="matrix(1, 0, 0, 1, 101, 1508)" filter="url(#a)"><path d="M0,0H1657a0,0,0,0,1,0,0V277a20,20,0,0,1-20,20H20A20,20,0,0,1,0,277V0A0,0,0,0,1,0,0Z" transform="translate(9 533)" fill="#fff"/></g><g transform="matrix(1, 0, 0, 1, 101, 1508)" filter="url(#c)"><path d="M20,0H1637a20,20,0,0,1,20,20V297a0,0,0,0,1,0,0H0a0,0,0,0,1,0,0V20A20,20,0,0,1,20,0Z" transform="translate(9 6)" fill="#fff"/></g><g transform="translate(515.368 1615.342)"><rect width="1087" height="55" rx="27.5" transform="translate(-0.369 -0.341)" fill="#aaa"/></g><g transform="translate(224.677 1582.006)"><g transform="translate(0.324 -0.006)" fill="#fff" stroke="#e2e2e2" stroke-width="3"><rect width="192" height="188" rx="94" stroke="none"/><rect x="1.5" y="1.5" width="189" height="185" rx="92.5" fill="none"/></g><path d="M32.955,59.318A13.182,13.182,0,1,0,46.136,72.5,13.182,13.182,0,0,0,32.955,59.318Zm0,19.773A6.591,6.591,0,1,1,39.546,72.5,6.591,6.591,0,0,1,32.955,79.09ZM103.349,8.752,96.7,2.105a7.19,7.19,0,0,0-10.166,0L76.131,12.512A7.922,7.922,0,0,0,74.218,15.6l-4.4,13.206c-.08.064-.206.037-.27.111l-9.6,9.6a24.12,24.12,0,0,0-9.623-4.925,23.84,23.84,0,0,0-5.376-.632,18.231,18.231,0,0,0-13.132,5.17,17,17,0,0,0-4.169,6.894,10.419,10.419,0,0,1-8.681,7.1A20.628,20.628,0,0,0,6.083,57.977C-3.315,67.35-1.626,84.239,9.8,95.66c6.453,6.451,14.642,9.794,22.236,9.794a21.466,21.466,0,0,0,15.447-6.072,20.64,20.64,0,0,0,5.86-12.914,10.442,10.442,0,0,1,7.091-8.681,17.037,17.037,0,0,0,6.894-4.169c4.71-4.715,6.123-11.608,4.531-18.487A24.017,24.017,0,0,0,66.949,45.5l9.59-9.592c.074-.074.049-.187.111-.268l13.194-4.4a7.95,7.95,0,0,0,3.1-1.915L103.349,18.92a7.192,7.192,0,0,0,0-10.168ZM62.665,68.957a10.389,10.389,0,0,1-4.27,2.558A17,17,0,0,0,46.779,85.838a14.346,14.346,0,0,1-3.961,8.883,14.987,14.987,0,0,1-10.784,4.142C25.855,98.863,19.456,96,14.461,91s-7.87-11.421-7.87-17.6a14.958,14.958,0,0,1,4.165-10.78,14.247,14.247,0,0,1,8.834-3.94A17.009,17.009,0,0,0,33.927,47.042a10.364,10.364,0,0,1,2.558-4.253,11.773,11.773,0,0,1,8.471-3.238,17.224,17.224,0,0,1,3.882.459,17.338,17.338,0,0,1,6.408,3.213L44.39,54.082a2.472,2.472,0,0,0,0,3.5l3.5,3.5a2.472,2.472,0,0,0,3.5,0L62.249,50.226a17.282,17.282,0,0,1,3.2,6.4c1.127,4.929.115,9.427-2.787,12.333Zm36.023-54.7L88.283,24.664a1.329,1.329,0,0,1-.521.325L76.825,28.629l3.646-10.941a1.362,1.362,0,0,1,.323-.521L91.2,6.76a.579.579,0,0,1,.422-.175.587.587,0,0,1,.424.175l6.644,6.646a.6.6,0,0,1,0,.853Z" transform="translate(45.81 42.109)" fill="#777"/></g><g transform="translate(519.369 1694.016)"><rect width="646" height="36" rx="18" transform="translate(-0.369 -0.015)" fill="#e2e2e2"/></g><g transform="translate(515.368 2148.722)"><rect width="612" height="54" rx="27" transform="translate(-0.369 0.278)" fill="#aaa"/></g><g transform="translate(224.677 2098.051)"><g transform="translate(0.324 -0.051)" fill="#fff" stroke="#e2e2e2" stroke-width="3"><rect width="192" height="189" rx="94.5" stroke="none"/><rect x="1.5" y="1.5" width="189" height="186" rx="93" fill="none"/></g><path d="M90.286,42.449l15.089-28.134A10.31,10.31,0,0,0,95.846,0C93.039,0,70.71,5.306,68.05,5.306a10.558,10.558,0,0,0-6.973-2.653H45.159a10.558,10.558,0,0,0-6.964,2.653C35.528,5.306,13.238,0,10.4,0A10.31,10.31,0,0,0,.845,14.235L15.975,42.449V53.365A18.537,18.537,0,1,0,47.545,68.98H58.691a18.534,18.534,0,1,0,31.57-15.623V42.449ZM94.9,5.391a5.011,5.011,0,0,1,5.641,6.674L87.111,37.143H71.69V13.2a10.383,10.383,0,0,0-.464-2.917Zm-54.27,5.222a5.247,5.247,0,0,1,4.525-2.688H61.077A5.247,5.247,0,0,1,65.6,10.612a5.675,5.675,0,0,1,.781,2.585V37.143H39.853V13.2A5.675,5.675,0,0,1,40.634,10.612ZM6.476,7.17a5.062,5.062,0,0,1,4.742-1.8l23.795,4.9a10.36,10.36,0,0,0-.466,2.927V37.143H19.156L5.66,11.987A4.938,4.938,0,0,1,6.482,7.17Zm35.762,56.5H31.894V53.33A13.3,13.3,0,0,1,42.237,63.673Zm-15.65,0H16.244A13.3,13.3,0,0,1,26.588,53.33ZM16.244,68.98H26.588V79.323A13.3,13.3,0,0,1,16.244,68.98Zm15.65,10.344V68.98H42.237A13.3,13.3,0,0,1,31.894,79.323Zm58.1-15.65H79.649V53.33A13.3,13.3,0,0,1,89.993,63.673Zm-15.65,0H64A13.3,13.3,0,0,1,74.343,53.33ZM64,68.98H74.343V79.323A13.3,13.3,0,0,1,64,68.98Zm15.65,10.344V68.98H89.993A13.3,13.3,0,0,1,79.649,79.323Zm5.326-29.7A18.381,18.381,0,0,0,58.691,63.673H47.545A18.381,18.381,0,0,0,21.262,49.62V42.449H84.975Z" transform="translate(41.339 55.101)" fill="#777"/></g><g transform="translate(515.368 2227.395)"><rect width="1015" height="36" rx="18" transform="translate(-0.369 -0.395)" fill="#e2e2e2"/></g><path d="M14.264,32H4.755A4.755,4.755,0,0,0,0,36.755v9.51a4.755,4.755,0,0,0,4.755,4.755h9.51a4.755,4.755,0,0,0,4.755-4.755v-9.51A4.755,4.755,0,0,0,14.264,32Zm0,23.774H4.755A4.755,4.755,0,0,0,0,60.529v9.51a4.755,4.755,0,0,0,4.755,4.755h9.51a4.755,4.755,0,0,0,4.755-4.755v-9.51A4.755,4.755,0,0,0,14.264,55.774Zm0,23.774H4.755A4.755,4.755,0,0,0,0,84.3v9.509a4.755,4.755,0,0,0,4.755,4.755h9.51a4.755,4.755,0,0,0,4.755-4.755V84.3A4.755,4.755,0,0,0,14.264,79.548ZM42.793,32h-9.51a4.755,4.755,0,0,0-4.755,4.755v9.51a4.755,4.755,0,0,0,4.755,4.755h9.51a4.755,4.755,0,0,0,4.755-4.755v-9.51A4.755,4.755,0,0,0,42.793,32Zm0,23.774h-9.51a4.755,4.755,0,0,0-4.755,4.755v9.51a4.755,4.755,0,0,0,4.755,4.755h9.51a4.755,4.755,0,0,0,4.755-4.755v-9.51A4.755,4.755,0,0,0,42.793,55.774Zm0,23.774h-9.51A4.755,4.755,0,0,0,28.529,84.3v9.509a4.755,4.755,0,0,0,4.755,4.755h9.51a4.755,4.755,0,0,0,4.755-4.755V84.3A4.755,4.755,0,0,0,42.793,79.548Z" transform="translate(143.466 2138.705)" fill="#e2e2e2"/><g transform="translate(218.009 1795.358)"><g transform="matrix(1, 0, 0, 1, -117.01, -287.36)" filter="url(#e)"><rect width="1657" height="271" transform="translate(117 287)" fill="#f7f7fc"/></g><g transform="translate(114.677 44.004)"><g transform="translate(0.314 -0.362)" fill="#fff" stroke="#e2e2e2" stroke-width="3"><rect width="190" height="190" rx="95" stroke="none"/><rect x="1.5" y="1.5" width="187" height="187" rx="93.5" fill="none"/></g><path d="M129.773,104.3a5.417,5.417,0,0,0-2.264-.489,5.353,5.353,0,0,0-4.222,1.991c-.077.1-4.823,6.391-17.8,11.482C103.354,102.686,96.447,64,82.941,64a13.217,13.217,0,0,0-8.517,3.615,12.24,12.24,0,0,1-16.249,0A13.217,13.217,0,0,0,49.658,64c-13.531,0-20.423,38.742-22.537,53.282C14.26,112.239,9.478,106.015,9.3,105.808a5.26,5.26,0,0,0-4.206-2.03,5.459,5.459,0,0,0-2.233.474,4.5,4.5,0,0,0-2.6,5.637c.153.4,15.352,40.3,66.035,40.3s65.882-39.894,66.037-40.3A4.477,4.477,0,0,0,129.773,104.3ZM49.658,70.63a6.851,6.851,0,0,1,4.2,2.012,18.863,18.863,0,0,0,24.892,0,6.851,6.851,0,0,1,4.2-2.012c2.884,0,8.979,11.146,13.527,33.312A117.6,117.6,0,0,1,66.3,107.495a117.834,117.834,0,0,1-30.169-3.557C40.679,81.774,46.774,70.63,49.658,70.63ZM34.9,110.5a125.8,125.8,0,0,0,31.4,3.624,126.375,126.375,0,0,0,31.4-3.611c.5,2.853.974,5.8,1.4,8.967-8.26,2.42-19,4.187-32.808,4.187S41.752,121.9,33.49,119.474C33.925,116.314,34.393,113.354,34.9,110.5Zm31.4,33.055c-31.267,0-47.555-16.323-54.856-26.981C20.032,122.631,36.736,130.3,66.3,130.3s46.35-7.775,54.883-13.773C113.878,127.207,97.582,143.556,66.3,143.556Z" transform="translate(29.246 -12.977)" fill="#777"/></g><g transform="translate(404.035 81.34)"><rect width="980" height="54" rx="27" transform="translate(-0.044 0.302)" fill="#aaa"/></g><g transform="translate(409.369 158.68)"><rect width="546" height="37" rx="18.5" transform="translate(-0.378 -0.038)" fill="#e2e2e2"/></g></g><path d="M14.264,32H4.755A4.755,4.755,0,0,0,0,36.755v9.51a4.755,4.755,0,0,0,4.755,4.755h9.51a4.755,4.755,0,0,0,4.755-4.755v-9.51A4.755,4.755,0,0,0,14.264,32Zm0,23.774H4.755A4.755,4.755,0,0,0,0,60.529v9.51a4.755,4.755,0,0,0,4.755,4.755h9.51a4.755,4.755,0,0,0,4.755-4.755v-9.51A4.755,4.755,0,0,0,14.264,55.774Zm0,23.774H4.755A4.755,4.755,0,0,0,0,84.3v9.509a4.755,4.755,0,0,0,4.755,4.755h9.51a4.755,4.755,0,0,0,4.755-4.755V84.3A4.755,4.755,0,0,0,14.264,79.548ZM42.793,32h-9.51a4.755,4.755,0,0,0-4.755,4.755v9.51a4.755,4.755,0,0,0,4.755,4.755h9.51a4.755,4.755,0,0,0,4.755-4.755v-9.51A4.755,4.755,0,0,0,42.793,32Zm0,23.774h-9.51a4.755,4.755,0,0,0-4.755,4.755v9.51a4.755,4.755,0,0,0,4.755,4.755h9.51a4.755,4.755,0,0,0,4.755-4.755v-9.51A4.755,4.755,0,0,0,42.793,55.774Zm0,23.774h-9.51A4.755,4.755,0,0,0,28.529,84.3v9.509a4.755,4.755,0,0,0,4.755,4.755h9.51a4.755,4.755,0,0,0,4.755-4.755V84.3A4.755,4.755,0,0,0,42.793,79.548Z" transform="translate(254.837 1866.038)" fill="#e2e2e2"/><path d="M14.264,32H4.755A4.755,4.755,0,0,0,0,36.755v9.51a4.755,4.755,0,0,0,4.755,4.755h9.51a4.755,4.755,0,0,0,4.755-4.755v-9.51A4.755,4.755,0,0,0,14.264,32Zm0,23.774H4.755A4.755,4.755,0,0,0,0,60.529v9.51a4.755,4.755,0,0,0,4.755,4.755h9.51a4.755,4.755,0,0,0,4.755-4.755v-9.51A4.755,4.755,0,0,0,14.264,55.774Zm0,23.774H4.755A4.755,4.755,0,0,0,0,84.3v9.509a4.755,4.755,0,0,0,4.755,4.755h9.51a4.755,4.755,0,0,0,4.755-4.755V84.3A4.755,4.755,0,0,0,14.264,79.548ZM42.793,32h-9.51a4.755,4.755,0,0,0-4.755,4.755v9.51a4.755,4.755,0,0,0,4.755,4.755h9.51a4.755,4.755,0,0,0,4.755-4.755v-9.51A4.755,4.755,0,0,0,42.793,32Zm0,23.774h-9.51a4.755,4.755,0,0,0-4.755,4.755v9.51a4.755,4.755,0,0,0,4.755,4.755h9.51a4.755,4.755,0,0,0,4.755-4.755v-9.51A4.755,4.755,0,0,0,42.793,55.774Zm0,23.774h-9.51A4.755,4.755,0,0,0,28.529,84.3v9.509a4.755,4.755,0,0,0,4.755,4.755h9.51a4.755,4.755,0,0,0,4.755-4.755V84.3A4.755,4.755,0,0,0,42.793,79.548Z" transform="translate(143.466 1611.292)" fill="#e2e2e2"/><g transform="matrix(0.259, -0.966, 0.966, 0.259, 1862.139, 2262.677)" clip-path="url(#g)"><path d="M308.235,0H291.152a7.4,7.4,0,0,0-7.4,7.574L285.2,68.342A152.906,152.906,0,0,0,7.58,124.418a7.393,7.393,0,0,0,7.279,8.739H32.475a7.412,7.412,0,0,0,7.235-5.874,120.868,120.868,0,0,1,228.254-24.146l-77.915-1.855a7.4,7.4,0,0,0-7.574,7.4V125.76a7.4,7.4,0,0,0,7.4,7.4H308.235a7.4,7.4,0,0,0,7.4-7.4V7.4A7.4,7.4,0,0,0,308.235,0Zm-7.461,172.611H283.157a7.412,7.412,0,0,0-7.236,5.874A120.868,120.868,0,0,1,47.668,202.632l77.916,1.855a7.4,7.4,0,0,0,7.574-7.4V180.009a7.4,7.4,0,0,0-7.4-7.4H7.4a7.4,7.4,0,0,0-7.4,7.4V298.371a7.4,7.4,0,0,0,7.4,7.4H24.481a7.4,7.4,0,0,0,7.4-7.574L30.43,237.426A152.906,152.906,0,0,0,308.052,181.35,7.393,7.393,0,0,0,300.773,172.611Z" transform="translate(46.235 -162.132)" fill="#b09ae5"/></g><g transform="translate(1685.107 1947.722)"><path d="M-3330.7,9397.112l-54.516-30.482,11.144-13.616,6.645-6.11-19.109-49.023,14.145-7.072,18.2,30.021,55.671-11.6,17.885,32.693v36.841Z" transform="translate(3420.187 -9254.079)" fill="#fff"/><path d="M93.834,46.988a17.231,17.231,0,0,0-20.924-5,17.218,17.218,0,0,0-14.826-5.142V17.552a17.366,17.366,0,1,0-34.73,0V59.764A17.151,17.151,0,0,0,7.089,62.088a17.668,17.668,0,0,0-3.812,24.4l28.738,40.344a17.351,17.351,0,0,0,14.092,7.295H92.813a17.416,17.416,0,0,0,16.912-13.569l7.186-31.174a17.782,17.782,0,0,0,.453-3.983V63.4A17.409,17.409,0,0,0,93.834,46.988ZM21.216,73.273l7.106,9.976a4.2,4.2,0,0,0,7.605-2.432V17.552c0-6.581,9.581-6.591,9.581,0V63.4A4.192,4.192,0,0,0,49.7,67.589h1.8A4.192,4.192,0,0,0,55.688,63.4V54.228c0-6.581,9.581-6.591,9.581,0V63.4a4.192,4.192,0,0,0,4.192,4.192h1.8A4.192,4.192,0,0,0,75.448,63.4V57.9c0-6.581,9.581-6.591,9.581,0v5.5a4.192,4.192,0,0,0,4.192,4.192h1.8A4.192,4.192,0,0,0,95.208,63.4c0-6.581,9.581-6.591,9.581,0V85.4a5.173,5.173,0,0,1-.132,1.159l-7.186,31.175a4.816,4.816,0,0,1-4.658,3.819H46.107a4.753,4.753,0,0,1-3.85-2.016L13.515,79.2c-3.774-5.3,3.928-11.217,7.7-5.922Zm24.929,31.516V79.64a3.956,3.956,0,0,1,3.668-4.192h1.572a3.956,3.956,0,0,1,3.668,4.192v25.149a3.956,3.956,0,0,1-3.668,4.192H49.812A3.956,3.956,0,0,1,46.145,104.789Zm19.76,0V79.64a3.956,3.956,0,0,1,3.668-4.192h1.572a3.956,3.956,0,0,1,3.668,4.192v25.149a3.956,3.956,0,0,1-3.668,4.192H69.572A3.956,3.956,0,0,1,65.9,104.789Zm19.76,0V79.64a3.956,3.956,0,0,1,3.668-4.192H90.9a3.956,3.956,0,0,1,3.668,4.192v25.149a3.956,3.956,0,0,1-3.668,4.192H89.333A3.956,3.956,0,0,1,85.665,104.789Z" transform="matrix(0.914, -0.407, 0.407, 0.914, 0, 47.736)" fill="#777"/></g></g></svg>