<svg xmlns="http://www.w3.org/2000/svg" xmlns:xlink="http://www.w3.org/1999/xlink" width="735" height="374.357" viewBox="0 0 735 374.357"><defs><filter id="a" x="0" y="34.357" width="733" height="116" filterUnits="userSpaceOnUse"><feOffset dy="3" input="SourceAlpha"/><feGaussianBlur stdDeviation="3" result="b"/><feFlood flood-opacity="0.161"/><feComposite operator="in" in2="b"/><feComposite in="SourceGraphic"/></filter><filter id="c" x="0" y="258.357" width="735" height="116" filterUnits="userSpaceOnUse"><feOffset dy="3" input="SourceAlpha"/><feGaussianBlur stdDeviation="3" result="d"/><feFlood flood-opacity="0.161"/><feComposite operator="in" in2="d"/><feComposite in="SourceGraphic"/></filter><filter id="e" x="536.496" y="216.722" width="174.526" height="70.666" filterUnits="userSpaceOnUse"><feOffset dy="2" input="SourceAlpha"/><feGaussianBlur stdDeviation="1.5" result="f"/><feFlood flood-opacity="0.161"/><feComposite operator="in" in2="f"/><feComposite in="SourceGraphic"/></filter><filter id="g" x="536.496" y="0" width="174.526" height="70.666" filterUnits="userSpaceOnUse"><feOffset dy="2" input="SourceAlpha"/><feGaussianBlur stdDeviation="1.5" result="h"/><feFlood flood-opacity="0.161"/><feComposite operator="in" in2="h"/><feComposite in="SourceGraphic"/></filter></defs><g transform="translate(3898 1641.357)"><path d="M-534.652-1866s-45.674,38.2,0,74.691,0,72.187,0,72.187" transform="translate(-2995.136 357.834)" fill="none" stroke="#b09ae5" stroke-width="10"/><g transform="matrix(1, 0, 0, 1, -3898, -1641.36)" filter="url(#a)"><rect width="715" height="98" rx="10" transform="translate(9 40.36)" fill="#fff"/></g><path d="M4.312-8.646v-3.388H2.86a2.823,2.823,0,0,1,.308-1.375,1.945,1.945,0,0,1,1.144-.847v-1.452a3.56,3.56,0,0,0-1.265.407,3.579,3.579,0,0,0-1,.8A3.544,3.544,0,0,0,1.4-13.376a3.646,3.646,0,0,0-.209,1.364v3.366ZM9-8.646v-3.388H7.546a2.823,2.823,0,0,1,.308-1.375A1.945,1.945,0,0,1,9-14.256v-1.452a3.56,3.56,0,0,0-1.265.407,3.579,3.579,0,0,0-1,.8,3.544,3.544,0,0,0-.649,1.122,3.646,3.646,0,0,0-.209,1.364v3.366Zm10.714,2.97a5.983,5.983,0,0,1-.154,1.364,3.621,3.621,0,0,1-.484,1.166,2.535,2.535,0,0,1-.825.8,2.29,2.29,0,0,1-1.2.3,2.3,2.3,0,0,1-1.188-.3,2.5,2.5,0,0,1-.836-.8,3.621,3.621,0,0,1-.484-1.166,5.983,5.983,0,0,1-.154-1.364,6.082,6.082,0,0,1,.154-1.386,3.621,3.621,0,0,1,.484-1.166,2.5,2.5,0,0,1,.836-.8,2.3,2.3,0,0,1,1.188-.3,2.29,2.29,0,0,1,1.2.3,2.535,2.535,0,0,1,.825.8,3.621,3.621,0,0,1,.484,1.166A6.082,6.082,0,0,1,19.712-5.676ZM11.374-15.708V0h2.97V-1.452h.044a2.848,2.848,0,0,0,1.5,1.342,6,6,0,0,0,2.244.4,4.33,4.33,0,0,0,1.694-.352,4.337,4.337,0,0,0,1.507-1.078A5.512,5.512,0,0,0,22.418-3,7.793,7.793,0,0,0,22.836-5.7a7.793,7.793,0,0,0-.418-2.695,5.512,5.512,0,0,0-1.089-1.859,4.337,4.337,0,0,0-1.507-1.078,4.33,4.33,0,0,0-1.694-.352,5.251,5.251,0,0,0-2.035.407,3.333,3.333,0,0,0-1.551,1.287H14.5v-5.72Zm21.1,8.8H27.39a3.586,3.586,0,0,1,.143-.748,2.3,2.3,0,0,1,.418-.792,2.366,2.366,0,0,1,.792-.627,2.718,2.718,0,0,1,1.243-.253,2.194,2.194,0,0,1,1.7.616A3.611,3.611,0,0,1,32.472-6.908ZM27.39-4.928H35.6a8.03,8.03,0,0,0-.22-2.53,6.193,6.193,0,0,0-1-2.156A5.049,5.049,0,0,0,32.6-11.121a5.408,5.408,0,0,0-2.53-.561,5.891,5.891,0,0,0-2.365.462,5.592,5.592,0,0,0-1.837,1.265,5.576,5.576,0,0,0-1.188,1.9,6.634,6.634,0,0,0-.418,2.376,6.925,6.925,0,0,0,.407,2.42,5.5,5.5,0,0,0,1.155,1.892A5.032,5.032,0,0,0,27.654-.143a6.5,6.5,0,0,0,2.42.429,5.958,5.958,0,0,0,3.3-.88A5.22,5.22,0,0,0,35.4-3.52h-2.75a1.962,1.962,0,0,1-.836,1,2.785,2.785,0,0,1-1.628.473,2.793,2.793,0,0,1-2.024-.682A3.158,3.158,0,0,1,27.39-4.928ZM39.864-3.7h-2.97a3.825,3.825,0,0,0,.517,1.9,3.775,3.775,0,0,0,1.21,1.221A5.11,5.11,0,0,0,40.3.088a9.425,9.425,0,0,0,1.936.2A9.68,9.68,0,0,0,44.143.1,4.825,4.825,0,0,0,45.8-.55a3.609,3.609,0,0,0,1.177-1.221,3.627,3.627,0,0,0,.451-1.881,2.647,2.647,0,0,0-.308-1.331,2.819,2.819,0,0,0-.814-.9,4.378,4.378,0,0,0-1.155-.583,13.2,13.2,0,0,0-1.331-.374q-.66-.154-1.3-.286a10.038,10.038,0,0,1-1.133-.3,2.374,2.374,0,0,1-.8-.429.857.857,0,0,1-.308-.682.843.843,0,0,1,.176-.561,1.155,1.155,0,0,1,.429-.319,1.909,1.909,0,0,1,.561-.143,5.392,5.392,0,0,1,.572-.033,3.118,3.118,0,0,1,1.452.319,1.367,1.367,0,0,1,.682,1.221h2.97A3.732,3.732,0,0,0,46.585-9.8a3.56,3.56,0,0,0-1.133-1.111,4.743,4.743,0,0,0-1.551-.594,9.011,9.011,0,0,0-1.793-.176,9.769,9.769,0,0,0-1.8.165,4.967,4.967,0,0,0-1.584.572,3.162,3.162,0,0,0-1.133,1.111,3.422,3.422,0,0,0-.429,1.8,2.431,2.431,0,0,0,.308,1.265,2.675,2.675,0,0,0,.814.858,4.548,4.548,0,0,0,1.155.55q.649.209,1.331.363a18.672,18.672,0,0,1,2.607.7q.935.352.935,1.056a1.156,1.156,0,0,1-.2.693,1.5,1.5,0,0,1-.495.44,2.358,2.358,0,0,1-.66.242,3.341,3.341,0,0,1-.693.077,3.573,3.573,0,0,1-.891-.11,2.311,2.311,0,0,1-.759-.341,1.826,1.826,0,0,1-.539-.594A1.713,1.713,0,0,1,39.864-3.7Zm13.354-7.678v-3.41H50.094v3.41H48.2v2.09h1.892v6.71a2.906,2.906,0,0,0,.286,1.386,2.038,2.038,0,0,0,.781.814,3.243,3.243,0,0,0,1.144.385,9.12,9.12,0,0,0,1.375.1q.462,0,.946-.022A7.434,7.434,0,0,0,55.506,0V-2.42a4.377,4.377,0,0,1-.462.066q-.242.022-.506.022A1.529,1.529,0,0,1,53.482-2.6a1.529,1.529,0,0,1-.264-1.056V-9.284h2.288v-2.09Zm17.644,4H73.92a4.279,4.279,0,0,0-.528-1.9,4.3,4.3,0,0,0-1.2-1.342,5.2,5.2,0,0,0-1.672-.8,7.131,7.131,0,0,0-1.947-.264,6.2,6.2,0,0,0-2.464.462,5.186,5.186,0,0,0-1.826,1.287,5.519,5.519,0,0,0-1.133,1.958,7.577,7.577,0,0,0-.385,2.453,6.37,6.37,0,0,0,.418,2.343A5.46,5.46,0,0,0,64.35-1.342a5.2,5.2,0,0,0,1.815,1.2,6.225,6.225,0,0,0,2.343.429A5.68,5.68,0,0,0,72.226-.9a5.154,5.154,0,0,0,1.76-3.454H70.972a2.966,2.966,0,0,1-.759,1.683,2.289,2.289,0,0,1-1.727.627,2.207,2.207,0,0,1-1.232-.33,2.465,2.465,0,0,1-.8-.847,3.879,3.879,0,0,1-.429-1.155,6.178,6.178,0,0,1-.132-1.254,6.444,6.444,0,0,1,.132-1.287,3.8,3.8,0,0,1,.451-1.188,2.71,2.71,0,0,1,.825-.88,2.194,2.194,0,0,1,1.254-.341A2.1,2.1,0,0,1,70.862-7.37Zm7.656,1.694a6.826,6.826,0,0,1,.132-1.342A3.424,3.424,0,0,1,79.1-8.184a2.533,2.533,0,0,1,.847-.825,2.514,2.514,0,0,1,1.32-.319,2.574,2.574,0,0,1,1.331.319,2.5,2.5,0,0,1,.858.825,3.424,3.424,0,0,1,.451,1.166,6.826,6.826,0,0,1,.132,1.342,6.661,6.661,0,0,1-.132,1.331,3.546,3.546,0,0,1-.451,1.166,2.375,2.375,0,0,1-.858.825,2.647,2.647,0,0,1-1.331.308,2.585,2.585,0,0,1-1.32-.308,2.4,2.4,0,0,1-.847-.825,3.546,3.546,0,0,1-.451-1.166A6.661,6.661,0,0,1,78.518-5.676Zm-3.124,0a6.892,6.892,0,0,0,.418,2.464A5.345,5.345,0,0,0,77-1.331a5.2,5.2,0,0,0,1.848,1.2,6.648,6.648,0,0,0,2.42.418A6.737,6.737,0,0,0,83.7-.132a5.178,5.178,0,0,0,1.859-1.2,5.345,5.345,0,0,0,1.188-1.881,6.892,6.892,0,0,0,.418-2.464,6.982,6.982,0,0,0-.418-2.475,5.326,5.326,0,0,0-1.188-1.892,5.3,5.3,0,0,0-1.859-1.21,6.583,6.583,0,0,0-2.431-.429,6.5,6.5,0,0,0-2.42.429A5.324,5.324,0,0,0,77-10.043a5.326,5.326,0,0,0-1.188,1.892A6.982,6.982,0,0,0,75.394-5.676ZM102.19,0l3.586-11.374h-3.212l-2.09,7.7h-.044l-1.936-7.7H95.458L93.566-3.652h-.044l-2.09-7.722h-3.3L91.74,0h3.234L96.91-7.634h.044L98.978,0Zm13.244-5.676a5.983,5.983,0,0,1-.154,1.364,3.621,3.621,0,0,1-.484,1.166,2.535,2.535,0,0,1-.825.8,2.29,2.29,0,0,1-1.2.3,2.3,2.3,0,0,1-1.188-.3,2.5,2.5,0,0,1-.836-.8,3.621,3.621,0,0,1-.484-1.166,5.983,5.983,0,0,1-.154-1.364,6.082,6.082,0,0,1,.154-1.386,3.621,3.621,0,0,1,.484-1.166,2.5,2.5,0,0,1,.836-.8,2.3,2.3,0,0,1,1.188-.3,2.29,2.29,0,0,1,1.2.3,2.535,2.535,0,0,1,.825.8,3.621,3.621,0,0,1,.484,1.166A6.082,6.082,0,0,1,115.434-5.676ZM107.1-15.708V0h2.97V-1.452h.044a2.848,2.848,0,0,0,1.5,1.342,6,6,0,0,0,2.244.4,4.33,4.33,0,0,0,1.694-.352,4.337,4.337,0,0,0,1.507-1.078A5.512,5.512,0,0,0,118.14-3a7.793,7.793,0,0,0,.418-2.695,7.793,7.793,0,0,0-.418-2.695,5.512,5.512,0,0,0-1.089-1.859,4.337,4.337,0,0,0-1.507-1.078,4.33,4.33,0,0,0-1.694-.352,5.251,5.251,0,0,0-2.035.407,3.333,3.333,0,0,0-1.551,1.287h-.044v-5.72ZM123.31-5.676a6.826,6.826,0,0,1,.132-1.342,3.424,3.424,0,0,1,.451-1.166,2.533,2.533,0,0,1,.847-.825,2.514,2.514,0,0,1,1.32-.319,2.574,2.574,0,0,1,1.331.319,2.5,2.5,0,0,1,.858.825,3.424,3.424,0,0,1,.451,1.166,6.826,6.826,0,0,1,.132,1.342,6.662,6.662,0,0,1-.132,1.331,3.546,3.546,0,0,1-.451,1.166,2.375,2.375,0,0,1-.858.825,2.647,2.647,0,0,1-1.331.308,2.585,2.585,0,0,1-1.32-.308,2.4,2.4,0,0,1-.847-.825,3.546,3.546,0,0,1-.451-1.166A6.661,6.661,0,0,1,123.31-5.676Zm-3.124,0a6.892,6.892,0,0,0,.418,2.464,5.345,5.345,0,0,0,1.188,1.881,5.2,5.2,0,0,0,1.848,1.2,6.648,6.648,0,0,0,2.42.418,6.737,6.737,0,0,0,2.431-.418,5.178,5.178,0,0,0,1.859-1.2,5.345,5.345,0,0,0,1.188-1.881,6.892,6.892,0,0,0,.418-2.464,6.982,6.982,0,0,0-.418-2.475,5.327,5.327,0,0,0-1.188-1.892,5.3,5.3,0,0,0-1.859-1.21,6.583,6.583,0,0,0-2.431-.429,6.5,6.5,0,0,0-2.42.429,5.324,5.324,0,0,0-1.848,1.21A5.326,5.326,0,0,0,120.6-8.151,6.982,6.982,0,0,0,120.186-5.676Zm19.4,7.084,4.752-12.782h-3.234l-2.486,7.788h-.044L136-11.374h-3.322L136.664-.7a1.878,1.878,0,0,1,.132.7,1.56,1.56,0,0,1-.3.924,1.214,1.214,0,0,1-.913.484,6.482,6.482,0,0,1-.924-.022l-.9-.088V3.872q.484.044.957.077t.957.033a4.531,4.531,0,0,0,2.508-.594A3.847,3.847,0,0,0,139.59,1.408Zm11.924-17.116V0h3.124V-5.962a4.219,4.219,0,0,1,.572-2.5,2.164,2.164,0,0,1,1.848-.759,1.7,1.7,0,0,1,1.562.693,3.986,3.986,0,0,1,.44,2.1V0h3.124V-7A9.167,9.167,0,0,0,162-8.921a3.661,3.661,0,0,0-.649-1.474,3.05,3.05,0,0,0-1.265-.946,5.306,5.306,0,0,0-2.057-.341,4.1,4.1,0,0,0-1.8.451A3.618,3.618,0,0,0,154.7-9.79h-.066v-5.918Zm12.914,7.832a3.629,3.629,0,0,1,.55-1.826,3.745,3.745,0,0,1,1.232-1.166,5.369,5.369,0,0,1,1.683-.627,9.568,9.568,0,0,1,1.881-.187,12.748,12.748,0,0,1,1.738.121,5.317,5.317,0,0,1,1.606.473,3.164,3.164,0,0,1,1.188.979,2.736,2.736,0,0,1,.462,1.661V-2.53a11.885,11.885,0,0,0,.088,1.474A2.665,2.665,0,0,0,175.164,0H172a4.482,4.482,0,0,1-.143-.539,4.693,4.693,0,0,1-.077-.561,4.071,4.071,0,0,1-1.76,1.078,7.064,7.064,0,0,1-2.068.308,5.587,5.587,0,0,1-1.518-.2A3.476,3.476,0,0,1,165.2-.528a2.867,2.867,0,0,1-.825-1.056,3.57,3.57,0,0,1-.3-1.518,3.316,3.316,0,0,1,.341-1.6,2.851,2.851,0,0,1,.88-1,3.943,3.943,0,0,1,1.232-.561,13.153,13.153,0,0,1,1.4-.3q.7-.11,1.386-.176a8.335,8.335,0,0,0,1.21-.2,2.109,2.109,0,0,0,.836-.385.845.845,0,0,0,.286-.737,1.658,1.658,0,0,0-.165-.8,1.213,1.213,0,0,0-.44-.462,1.731,1.731,0,0,0-.638-.22,5.221,5.221,0,0,0-.781-.055,2.371,2.371,0,0,0-1.452.4,1.768,1.768,0,0,0-.616,1.32Zm7.216,2.31a1.4,1.4,0,0,1-.5.275,5.055,5.055,0,0,1-.638.165q-.341.066-.715.11t-.748.11a5.642,5.642,0,0,0-.693.176,2.049,2.049,0,0,0-.594.3,1.412,1.412,0,0,0-.407.473,1.522,1.522,0,0,0-.154.726,1.47,1.47,0,0,0,.154.7,1.181,1.181,0,0,0,.418.451,1.764,1.764,0,0,0,.616.231,3.932,3.932,0,0,0,.726.066,2.762,2.762,0,0,0,1.43-.308,2.06,2.06,0,0,0,.748-.737,2.357,2.357,0,0,0,.3-.869,5.97,5.97,0,0,0,.055-.7Zm9.5-5.808v-3.41h-3.124v3.41h-1.892v2.09h1.892v6.71a2.906,2.906,0,0,0,.286,1.386,2.038,2.038,0,0,0,.781.814,3.243,3.243,0,0,0,1.144.385,9.12,9.12,0,0,0,1.375.1q.462,0,.946-.022a7.434,7.434,0,0,0,.88-.088V-2.42a4.377,4.377,0,0,1-.462.066q-.242.022-.506.022a1.529,1.529,0,0,1-1.056-.264,1.529,1.529,0,0,1-.264-1.056V-9.284h2.288v-2.09ZM204.05,0l3.586-11.374h-3.212l-2.09,7.7h-.044l-1.936-7.7h-3.036l-1.892,7.722h-.044l-2.09-7.722h-3.3L193.6,0h3.234l1.936-7.634h.044L200.838,0Zm12.562-6.908H211.53a3.585,3.585,0,0,1,.143-.748,2.3,2.3,0,0,1,.418-.792,2.366,2.366,0,0,1,.792-.627,2.718,2.718,0,0,1,1.243-.253,2.194,2.194,0,0,1,1.705.616A3.611,3.611,0,0,1,216.612-6.908Zm-5.082,1.98h8.206a8.03,8.03,0,0,0-.22-2.53,6.193,6.193,0,0,0-1-2.156,5.049,5.049,0,0,0-1.771-1.507,5.408,5.408,0,0,0-2.53-.561,5.891,5.891,0,0,0-2.365.462,5.592,5.592,0,0,0-1.837,1.265,5.576,5.576,0,0,0-1.188,1.9,6.634,6.634,0,0,0-.418,2.376,6.925,6.925,0,0,0,.407,2.42,5.5,5.5,0,0,0,1.155,1.892,5.032,5.032,0,0,0,1.826,1.221,6.5,6.5,0,0,0,2.42.429,5.958,5.958,0,0,0,3.3-.88,5.22,5.22,0,0,0,2.024-2.926h-2.75a1.962,1.962,0,0,1-.836,1,2.785,2.785,0,0,1-1.628.473,2.793,2.793,0,0,1-2.024-.682A3.158,3.158,0,0,1,211.53-4.928Zm18.392-.748a5.983,5.983,0,0,1-.154,1.364,3.621,3.621,0,0,1-.484,1.166,2.535,2.535,0,0,1-.825.8,2.29,2.29,0,0,1-1.2.3,2.3,2.3,0,0,1-1.188-.3,2.5,2.5,0,0,1-.836-.8,3.621,3.621,0,0,1-.484-1.166,5.983,5.983,0,0,1-.154-1.364,6.082,6.082,0,0,1,.154-1.386,3.621,3.621,0,0,1,.484-1.166,2.5,2.5,0,0,1,.836-.8,2.3,2.3,0,0,1,1.188-.3,2.29,2.29,0,0,1,1.2.3,2.535,2.535,0,0,1,.825.8,3.621,3.621,0,0,1,.484,1.166A6.082,6.082,0,0,1,229.922-5.676Zm-8.338-10.032V0h2.97V-1.452h.044a2.848,2.848,0,0,0,1.5,1.342,6,6,0,0,0,2.244.4,4.33,4.33,0,0,0,1.694-.352,4.337,4.337,0,0,0,1.507-1.078A5.512,5.512,0,0,0,232.628-3a7.793,7.793,0,0,0,.418-2.695,7.793,7.793,0,0,0-.418-2.695,5.512,5.512,0,0,0-1.089-1.859,4.337,4.337,0,0,0-1.507-1.078,4.33,4.33,0,0,0-1.694-.352,5.251,5.251,0,0,0-2.035.407,3.333,3.333,0,0,0-1.551,1.287h-.044v-5.72ZM237.446-3.7h-2.97a3.825,3.825,0,0,0,.517,1.9A3.775,3.775,0,0,0,236.2-.572a5.11,5.11,0,0,0,1.683.66,9.425,9.425,0,0,0,1.936.2,9.68,9.68,0,0,0,1.9-.187,4.825,4.825,0,0,0,1.661-.649,3.609,3.609,0,0,0,1.177-1.221,3.627,3.627,0,0,0,.451-1.881,2.647,2.647,0,0,0-.308-1.331,2.819,2.819,0,0,0-.814-.9,4.378,4.378,0,0,0-1.155-.583,13.2,13.2,0,0,0-1.331-.374q-.66-.154-1.3-.286a10.038,10.038,0,0,1-1.133-.3,2.374,2.374,0,0,1-.8-.429.857.857,0,0,1-.308-.682.843.843,0,0,1,.176-.561,1.155,1.155,0,0,1,.429-.319,1.91,1.91,0,0,1,.561-.143,5.392,5.392,0,0,1,.572-.033,3.118,3.118,0,0,1,1.452.319,1.367,1.367,0,0,1,.682,1.221h2.97a3.732,3.732,0,0,0-.539-1.749,3.56,3.56,0,0,0-1.133-1.111,4.743,4.743,0,0,0-1.551-.594,9.011,9.011,0,0,0-1.793-.176,9.768,9.768,0,0,0-1.8.165,4.967,4.967,0,0,0-1.584.572,3.162,3.162,0,0,0-1.133,1.111,3.422,3.422,0,0,0-.429,1.8,2.431,2.431,0,0,0,.308,1.265,2.675,2.675,0,0,0,.814.858,4.548,4.548,0,0,0,1.155.55q.649.209,1.331.363a18.672,18.672,0,0,1,2.607.7q.935.352.935,1.056a1.156,1.156,0,0,1-.2.693,1.5,1.5,0,0,1-.5.44,2.358,2.358,0,0,1-.66.242,3.342,3.342,0,0,1-.693.077,3.573,3.573,0,0,1-.891-.11,2.311,2.311,0,0,1-.759-.341,1.826,1.826,0,0,1-.539-.594A1.713,1.713,0,0,1,237.446-3.7Zm12.606-9.438v-2.574h-3.124v2.574Zm-3.124,1.76V0h3.124V-11.374Zm9.548,0v-3.41h-3.124v3.41H251.46v2.09h1.892v6.71a2.906,2.906,0,0,0,.286,1.386,2.038,2.038,0,0,0,.781.814,3.243,3.243,0,0,0,1.144.385,9.12,9.12,0,0,0,1.375.1q.462,0,.946-.022a7.434,7.434,0,0,0,.88-.088V-2.42a4.376,4.376,0,0,1-.462.066q-.242.022-.506.022A1.529,1.529,0,0,1,256.74-2.6a1.529,1.529,0,0,1-.264-1.056V-9.284h2.288v-2.09Zm11.44,4.466h-5.082a3.587,3.587,0,0,1,.143-.748,2.3,2.3,0,0,1,.418-.792,2.367,2.367,0,0,1,.792-.627,2.718,2.718,0,0,1,1.243-.253,2.194,2.194,0,0,1,1.7.616A3.611,3.611,0,0,1,267.916-6.908Zm-5.082,1.98h8.206a8.029,8.029,0,0,0-.22-2.53,6.192,6.192,0,0,0-1-2.156,5.049,5.049,0,0,0-1.771-1.507,5.408,5.408,0,0,0-2.53-.561,5.891,5.891,0,0,0-2.365.462,5.592,5.592,0,0,0-1.837,1.265,5.576,5.576,0,0,0-1.188,1.9,6.634,6.634,0,0,0-.418,2.376,6.925,6.925,0,0,0,.407,2.42,5.5,5.5,0,0,0,1.155,1.892A5.032,5.032,0,0,0,263.1-.143a6.5,6.5,0,0,0,2.42.429,5.958,5.958,0,0,0,3.3-.88,5.22,5.22,0,0,0,2.024-2.926h-2.75a1.962,1.962,0,0,1-.836,1,2.785,2.785,0,0,1-1.628.473,2.793,2.793,0,0,1-2.024-.682A3.158,3.158,0,0,1,262.834-4.928Zm10.054-10.78v3.388h1.452a2.823,2.823,0,0,1-.308,1.375,1.945,1.945,0,0,1-1.144.847v1.452a3.56,3.56,0,0,0,1.265-.407,3.578,3.578,0,0,0,1-.8,3.544,3.544,0,0,0,.649-1.122,3.646,3.646,0,0,0,.209-1.364v-3.366Zm4.686,0v3.388h1.452a2.823,2.823,0,0,1-.308,1.375,1.945,1.945,0,0,1-1.144.847v1.452a3.56,3.56,0,0,0,1.265-.407,3.579,3.579,0,0,0,1-.8,3.544,3.544,0,0,0,.649-1.122,3.646,3.646,0,0,0,.209-1.364v-3.366Z" transform="translate(-3865 -1544)" fill="#777"/><g transform="matrix(1, 0, 0, 1, -3898, -1641.36)" filter="url(#c)"><rect width="717" height="98" rx="10" transform="translate(9 264.36)" fill="#fff"/></g><path d="M24.044,15.134a10.727,10.727,0,0,1,.746,14.321c-.478.591-.213.3-6.5,6.582a10.713,10.713,0,0,1-15.15-15.15c2.508-2.508,3.966-3.971,4.852-4.856a.918.918,0,0,1,1.568.627,13.262,13.262,0,0,0,.363,2.895.913.913,0,0,1-.245.857L6.17,23.917a6.428,6.428,0,0,0,9.091,9.09l5.753-5.754a6.429,6.429,0,0,0-1.746-10.332.92.92,0,0,1-.5-.945A3.957,3.957,0,0,1,19.9,13.651l.335-.335a.913.913,0,0,1,1.053-.176,10.652,10.652,0,0,1,2.757,1.993ZM36.038,3.14a10.706,10.706,0,0,0-15.15,0c-6.287,6.287-6.022,5.991-6.5,6.582a10.713,10.713,0,0,0,3.5,16.315.913.913,0,0,0,1.053-.176l.335-.335A3.957,3.957,0,0,0,20.412,23.2a.92.92,0,0,0-.5-.945,6.429,6.429,0,0,1-1.746-10.332l5.753-5.754a6.428,6.428,0,0,1,9.091,9.091L29.5,18.768a.913.913,0,0,0-.245.857,13.262,13.262,0,0,1,.363,2.895.918.918,0,0,0,1.568.627c.886-.884,2.344-2.348,4.852-4.856a10.706,10.706,0,0,0,0-15.15Z" transform="translate(-3293.611 -1353.335)" fill="#22baa0"/><path d="M1.188-15.708V0H4.312V-5.962a4.219,4.219,0,0,1,.572-2.5,2.164,2.164,0,0,1,1.848-.759,1.7,1.7,0,0,1,1.562.693,3.986,3.986,0,0,1,.44,2.1V0h3.124V-7a9.167,9.167,0,0,0-.187-1.925,3.661,3.661,0,0,0-.649-1.474,3.05,3.05,0,0,0-1.265-.946A5.306,5.306,0,0,0,7.7-11.682a4.1,4.1,0,0,0-1.8.451A3.618,3.618,0,0,0,4.378-9.79H4.312v-5.918Zm17.006,4.334v-3.41H15.07v3.41H13.178v2.09H15.07v6.71a2.906,2.906,0,0,0,.286,1.386,2.038,2.038,0,0,0,.781.814,3.243,3.243,0,0,0,1.144.385,9.12,9.12,0,0,0,1.375.1q.462,0,.946-.022A7.434,7.434,0,0,0,20.482,0V-2.42a4.377,4.377,0,0,1-.462.066q-.242.022-.506.022A1.529,1.529,0,0,1,18.458-2.6a1.529,1.529,0,0,1-.264-1.056V-9.284h2.288v-2.09Zm7.744,0v-3.41H22.814v3.41H20.922v2.09h1.892v6.71A2.906,2.906,0,0,0,23.1-1.188a2.038,2.038,0,0,0,.781.814,3.243,3.243,0,0,0,1.144.385A9.12,9.12,0,0,0,26.4.11q.462,0,.946-.022A7.434,7.434,0,0,0,28.226,0V-2.42a4.377,4.377,0,0,1-.462.066q-.242.022-.506.022A1.529,1.529,0,0,1,26.2-2.6a1.529,1.529,0,0,1-.264-1.056V-9.284h2.288v-2.09Zm9.526,9.328a2.491,2.491,0,0,1-1.276-.308,2.472,2.472,0,0,1-.847-.8,3.467,3.467,0,0,1-.462-1.155,6.319,6.319,0,0,1-.143-1.342,6.939,6.939,0,0,1,.132-1.364,3.424,3.424,0,0,1,.451-1.166,2.568,2.568,0,0,1,.836-.825,2.41,2.41,0,0,1,1.287-.319,2.365,2.365,0,0,1,1.265.319,2.635,2.635,0,0,1,.847.836A3.573,3.573,0,0,1,38.027-7a6.319,6.319,0,0,1,.143,1.342,6.826,6.826,0,0,1-.132,1.342,3.308,3.308,0,0,1-.451,1.155,2.5,2.5,0,0,1-.836.8A2.478,2.478,0,0,1,35.464-2.046Zm-5.742-9.328V3.982h3.124v-5.39h.044A3.685,3.685,0,0,0,34.353-.143,4.429,4.429,0,0,0,36.3.286,4.7,4.7,0,0,0,38.489-.2a4.632,4.632,0,0,0,1.562-1.3,5.6,5.6,0,0,0,.935-1.87,7.817,7.817,0,0,0,.308-2.2,8.648,8.648,0,0,0-.308-2.321,5.667,5.667,0,0,0-.946-1.947,4.769,4.769,0,0,0-1.606-1.342,4.926,4.926,0,0,0-2.31-.506,4.454,4.454,0,0,0-1.936.418,3.436,3.436,0,0,0-1.452,1.342h-.044v-1.452ZM45.584-3.7h-2.97a3.825,3.825,0,0,0,.517,1.9,3.775,3.775,0,0,0,1.21,1.221,5.11,5.11,0,0,0,1.683.66,9.425,9.425,0,0,0,1.936.2A9.68,9.68,0,0,0,49.863.1,4.825,4.825,0,0,0,51.524-.55,3.609,3.609,0,0,0,52.7-1.771a3.627,3.627,0,0,0,.451-1.881,2.647,2.647,0,0,0-.308-1.331,2.819,2.819,0,0,0-.814-.9,4.378,4.378,0,0,0-1.155-.583,13.2,13.2,0,0,0-1.331-.374q-.66-.154-1.3-.286a10.038,10.038,0,0,1-1.133-.3,2.374,2.374,0,0,1-.8-.429A.857.857,0,0,1,46-8.536a.843.843,0,0,1,.176-.561,1.155,1.155,0,0,1,.429-.319,1.909,1.909,0,0,1,.561-.143,5.392,5.392,0,0,1,.572-.033,3.118,3.118,0,0,1,1.452.319,1.367,1.367,0,0,1,.682,1.221h2.97A3.732,3.732,0,0,0,52.305-9.8a3.56,3.56,0,0,0-1.133-1.111,4.743,4.743,0,0,0-1.551-.594,9.011,9.011,0,0,0-1.793-.176,9.769,9.769,0,0,0-1.8.165,4.967,4.967,0,0,0-1.584.572,3.162,3.162,0,0,0-1.133,1.111,3.422,3.422,0,0,0-.429,1.8,2.431,2.431,0,0,0,.308,1.265A2.675,2.675,0,0,0,44-5.907a4.548,4.548,0,0,0,1.155.55q.649.209,1.331.363a18.672,18.672,0,0,1,2.607.7q.935.352.935,1.056a1.156,1.156,0,0,1-.2.693,1.5,1.5,0,0,1-.495.44,2.358,2.358,0,0,1-.66.242,3.341,3.341,0,0,1-.693.077,3.573,3.573,0,0,1-.891-.11,2.311,2.311,0,0,1-.759-.341,1.826,1.826,0,0,1-.539-.594A1.713,1.713,0,0,1,45.584-3.7Zm13-4.092v-3.388H55.132v3.388Zm-3.454,4.4V0h3.454V-3.388ZM65.8-16.082,59.686.352h2.486L68.31-16.082Zm8.162,0L67.848.352h2.486l6.138-16.434ZM90.42,0l3.586-11.374H90.794l-2.09,7.7H88.66l-1.936-7.7H83.688L81.8-3.652h-.044l-2.09-7.722h-3.3L79.97,0H83.2L85.14-7.634h.044L87.208,0Zm17.908,0,3.586-11.374H108.7l-2.09,7.7h-.044l-1.936-7.7H101.6L99.7-3.652H99.66l-2.09-7.722h-3.3L97.878,0h3.234l1.936-7.634h.044L105.116,0Zm17.908,0,3.586-11.374H126.61l-2.09,7.7h-.044l-1.936-7.7H119.5l-1.892,7.722h-.044l-2.09-7.722h-3.3L115.786,0h3.234l1.936-7.634H121L123.024,0Zm3.828-3.388V0h3.454V-3.388ZM143.792-7.37h3.058a4.279,4.279,0,0,0-.528-1.9,4.3,4.3,0,0,0-1.2-1.342,5.2,5.2,0,0,0-1.672-.8,7.131,7.131,0,0,0-1.947-.264,6.2,6.2,0,0,0-2.464.462,5.186,5.186,0,0,0-1.826,1.287,5.519,5.519,0,0,0-1.133,1.958,7.577,7.577,0,0,0-.385,2.453,6.37,6.37,0,0,0,.418,2.343,5.46,5.46,0,0,0,1.166,1.837,5.2,5.2,0,0,0,1.815,1.2,6.225,6.225,0,0,0,2.343.429A5.68,5.68,0,0,0,145.156-.9a5.154,5.154,0,0,0,1.76-3.454H143.9a2.966,2.966,0,0,1-.759,1.683,2.289,2.289,0,0,1-1.727.627,2.207,2.207,0,0,1-1.232-.33,2.465,2.465,0,0,1-.8-.847,3.879,3.879,0,0,1-.429-1.155,6.179,6.179,0,0,1-.132-1.254,6.444,6.444,0,0,1,.132-1.287,3.8,3.8,0,0,1,.451-1.188,2.71,2.71,0,0,1,.825-.88,2.194,2.194,0,0,1,1.254-.341A2.1,2.1,0,0,1,143.792-7.37Zm7.656,1.694a6.826,6.826,0,0,1,.132-1.342,3.424,3.424,0,0,1,.451-1.166,2.533,2.533,0,0,1,.847-.825,2.514,2.514,0,0,1,1.32-.319,2.574,2.574,0,0,1,1.331.319,2.5,2.5,0,0,1,.858.825,3.424,3.424,0,0,1,.451,1.166,6.826,6.826,0,0,1,.132,1.342,6.662,6.662,0,0,1-.132,1.331,3.546,3.546,0,0,1-.451,1.166,2.375,2.375,0,0,1-.858.825,2.647,2.647,0,0,1-1.331.308,2.586,2.586,0,0,1-1.32-.308,2.4,2.4,0,0,1-.847-.825,3.546,3.546,0,0,1-.451-1.166A6.662,6.662,0,0,1,151.448-5.676Zm-3.124,0a6.892,6.892,0,0,0,.418,2.464,5.345,5.345,0,0,0,1.188,1.881,5.2,5.2,0,0,0,1.848,1.2,6.649,6.649,0,0,0,2.42.418,6.737,6.737,0,0,0,2.431-.418,5.178,5.178,0,0,0,1.859-1.2,5.345,5.345,0,0,0,1.188-1.881,6.892,6.892,0,0,0,.418-2.464,6.982,6.982,0,0,0-.418-2.475,5.326,5.326,0,0,0-1.188-1.892,5.3,5.3,0,0,0-1.859-1.21,6.583,6.583,0,0,0-2.431-.429,6.5,6.5,0,0,0-2.42.429,5.324,5.324,0,0,0-1.848,1.21,5.326,5.326,0,0,0-1.188,1.892A6.982,6.982,0,0,0,148.324-5.676ZM175.12,0l3.586-11.374h-3.212l-2.09,7.7h-.044l-1.936-7.7h-3.036L166.5-3.652h-.044l-2.09-7.722h-3.3L164.67,0H167.9l1.936-7.634h.044L171.908,0Zm13.244-5.676a5.983,5.983,0,0,1-.154,1.364,3.621,3.621,0,0,1-.484,1.166,2.535,2.535,0,0,1-.825.8,2.29,2.29,0,0,1-1.2.3,2.3,2.3,0,0,1-1.188-.3,2.5,2.5,0,0,1-.836-.8,3.621,3.621,0,0,1-.484-1.166,5.983,5.983,0,0,1-.154-1.364,6.082,6.082,0,0,1,.154-1.386,3.621,3.621,0,0,1,.484-1.166,2.5,2.5,0,0,1,.836-.8,2.3,2.3,0,0,1,1.188-.3,2.29,2.29,0,0,1,1.2.3,2.535,2.535,0,0,1,.825.8,3.621,3.621,0,0,1,.484,1.166A6.082,6.082,0,0,1,188.364-5.676Zm-8.338-10.032V0H183V-1.452h.044a2.848,2.848,0,0,0,1.5,1.342,6,6,0,0,0,2.244.4,4.33,4.33,0,0,0,1.694-.352,4.337,4.337,0,0,0,1.507-1.078A5.512,5.512,0,0,0,191.07-3a7.793,7.793,0,0,0,.418-2.695,7.793,7.793,0,0,0-.418-2.695,5.512,5.512,0,0,0-1.089-1.859,4.337,4.337,0,0,0-1.507-1.078,4.33,4.33,0,0,0-1.694-.352,5.251,5.251,0,0,0-2.035.407,3.333,3.333,0,0,0-1.551,1.287h-.044v-5.72ZM196.24-5.676a6.826,6.826,0,0,1,.132-1.342,3.424,3.424,0,0,1,.451-1.166,2.533,2.533,0,0,1,.847-.825,2.514,2.514,0,0,1,1.32-.319,2.574,2.574,0,0,1,1.331.319,2.5,2.5,0,0,1,.858.825,3.424,3.424,0,0,1,.451,1.166,6.826,6.826,0,0,1,.132,1.342,6.662,6.662,0,0,1-.132,1.331,3.546,3.546,0,0,1-.451,1.166,2.375,2.375,0,0,1-.858.825,2.647,2.647,0,0,1-1.331.308,2.586,2.586,0,0,1-1.32-.308,2.4,2.4,0,0,1-.847-.825,3.546,3.546,0,0,1-.451-1.166A6.662,6.662,0,0,1,196.24-5.676Zm-3.124,0a6.892,6.892,0,0,0,.418,2.464,5.345,5.345,0,0,0,1.188,1.881,5.2,5.2,0,0,0,1.848,1.2,6.649,6.649,0,0,0,2.42.418,6.737,6.737,0,0,0,2.431-.418,5.178,5.178,0,0,0,1.859-1.2,5.345,5.345,0,0,0,1.188-1.881,6.892,6.892,0,0,0,.418-2.464,6.982,6.982,0,0,0-.418-2.475,5.326,5.326,0,0,0-1.188-1.892,5.3,5.3,0,0,0-1.859-1.21,6.583,6.583,0,0,0-2.431-.429,6.5,6.5,0,0,0-2.42.429,5.324,5.324,0,0,0-1.848,1.21,5.326,5.326,0,0,0-1.188,1.892A6.982,6.982,0,0,0,193.116-5.676Zm19.4,7.084,4.752-12.782h-3.234l-2.486,7.788h-.044l-2.574-7.788h-3.322L209.594-.7a1.878,1.878,0,0,1,.132.7,1.56,1.56,0,0,1-.3.924,1.214,1.214,0,0,1-.913.484,6.482,6.482,0,0,1-.924-.022l-.9-.088V3.872q.484.044.957.077t.957.033a4.531,4.531,0,0,0,2.508-.594A3.847,3.847,0,0,0,212.52,1.408Zm5.808-17.116V0h3.124V-5.962a4.219,4.219,0,0,1,.572-2.5,2.164,2.164,0,0,1,1.848-.759,1.7,1.7,0,0,1,1.562.693,3.986,3.986,0,0,1,.44,2.1V0H229V-7a9.167,9.167,0,0,0-.187-1.925,3.661,3.661,0,0,0-.649-1.474,3.05,3.05,0,0,0-1.265-.946,5.306,5.306,0,0,0-2.057-.341,4.1,4.1,0,0,0-1.8.451,3.618,3.618,0,0,0-1.518,1.441h-.066v-5.918Zm12.914,7.832a3.629,3.629,0,0,1,.55-1.826,3.745,3.745,0,0,1,1.232-1.166,5.369,5.369,0,0,1,1.683-.627,9.568,9.568,0,0,1,1.881-.187,12.748,12.748,0,0,1,1.738.121,5.317,5.317,0,0,1,1.606.473,3.164,3.164,0,0,1,1.188.979,2.736,2.736,0,0,1,.462,1.661V-2.53a11.885,11.885,0,0,0,.088,1.474A2.665,2.665,0,0,0,241.978,0H238.81a4.482,4.482,0,0,1-.143-.539,4.693,4.693,0,0,1-.077-.561,4.071,4.071,0,0,1-1.76,1.078,7.064,7.064,0,0,1-2.068.308,5.587,5.587,0,0,1-1.518-.2,3.476,3.476,0,0,1-1.232-.616,2.867,2.867,0,0,1-.825-1.056,3.57,3.57,0,0,1-.3-1.518,3.316,3.316,0,0,1,.341-1.6,2.851,2.851,0,0,1,.88-1,3.943,3.943,0,0,1,1.232-.561,13.153,13.153,0,0,1,1.4-.3q.7-.11,1.386-.176a8.335,8.335,0,0,0,1.21-.2,2.109,2.109,0,0,0,.836-.385.845.845,0,0,0,.286-.737,1.658,1.658,0,0,0-.165-.8,1.213,1.213,0,0,0-.44-.462,1.731,1.731,0,0,0-.638-.22,5.221,5.221,0,0,0-.781-.055,2.371,2.371,0,0,0-1.452.4,1.768,1.768,0,0,0-.616,1.32Zm7.216,2.31a1.4,1.4,0,0,1-.495.275,5.057,5.057,0,0,1-.638.165q-.341.066-.715.11t-.748.11a5.642,5.642,0,0,0-.693.176,2.049,2.049,0,0,0-.594.3,1.412,1.412,0,0,0-.407.473,1.522,1.522,0,0,0-.154.726,1.47,1.47,0,0,0,.154.7,1.181,1.181,0,0,0,.418.451,1.764,1.764,0,0,0,.616.231,3.932,3.932,0,0,0,.726.066,2.762,2.762,0,0,0,1.43-.308,2.06,2.06,0,0,0,.748-.737,2.357,2.357,0,0,0,.3-.869,5.97,5.97,0,0,0,.055-.7Zm9.5-5.808v-3.41h-3.124v3.41h-1.892v2.09h1.892v6.71a2.906,2.906,0,0,0,.286,1.386,2.038,2.038,0,0,0,.781.814,3.243,3.243,0,0,0,1.144.385,9.12,9.12,0,0,0,1.375.1q.462,0,.946-.022A7.434,7.434,0,0,0,250.25,0V-2.42a4.377,4.377,0,0,1-.462.066q-.242.022-.506.022a1.529,1.529,0,0,1-1.056-.264,1.529,1.529,0,0,1-.264-1.056V-9.284h2.288v-2.09Zm6.2,7.678H251.2a3.825,3.825,0,0,0,.517,1.9,3.775,3.775,0,0,0,1.21,1.221,5.11,5.11,0,0,0,1.683.66,9.425,9.425,0,0,0,1.936.2,9.679,9.679,0,0,0,1.9-.187,4.824,4.824,0,0,0,1.661-.649,3.609,3.609,0,0,0,1.177-1.221,3.627,3.627,0,0,0,.451-1.881,2.647,2.647,0,0,0-.308-1.331,2.819,2.819,0,0,0-.814-.9,4.379,4.379,0,0,0-1.155-.583,13.2,13.2,0,0,0-1.331-.374q-.66-.154-1.3-.286a10.039,10.039,0,0,1-1.133-.3,2.374,2.374,0,0,1-.8-.429.857.857,0,0,1-.308-.682.843.843,0,0,1,.176-.561,1.155,1.155,0,0,1,.429-.319,1.91,1.91,0,0,1,.561-.143,5.392,5.392,0,0,1,.572-.033,3.118,3.118,0,0,1,1.452.319,1.367,1.367,0,0,1,.682,1.221h2.97a3.731,3.731,0,0,0-.539-1.749,3.56,3.56,0,0,0-1.133-1.111,4.743,4.743,0,0,0-1.551-.594,9.011,9.011,0,0,0-1.793-.176,9.768,9.768,0,0,0-1.8.165,4.967,4.967,0,0,0-1.584.572,3.162,3.162,0,0,0-1.133,1.111,3.422,3.422,0,0,0-.429,1.8,2.431,2.431,0,0,0,.308,1.265,2.675,2.675,0,0,0,.814.858,4.548,4.548,0,0,0,1.155.55q.649.209,1.331.363a18.672,18.672,0,0,1,2.607.7q.935.352.935,1.056a1.156,1.156,0,0,1-.2.693,1.5,1.5,0,0,1-.495.44,2.357,2.357,0,0,1-.66.242,3.341,3.341,0,0,1-.693.077,3.573,3.573,0,0,1-.891-.11,2.311,2.311,0,0,1-.759-.341,1.826,1.826,0,0,1-.539-.594A1.713,1.713,0,0,1,254.166-3.7Zm9.526.308V0h3.454V-3.388ZM277.42-7.37h3.058a4.279,4.279,0,0,0-.528-1.9,4.3,4.3,0,0,0-1.2-1.342,5.2,5.2,0,0,0-1.672-.8,7.131,7.131,0,0,0-1.947-.264,6.2,6.2,0,0,0-2.464.462,5.186,5.186,0,0,0-1.826,1.287,5.518,5.518,0,0,0-1.133,1.958,7.577,7.577,0,0,0-.385,2.453,6.37,6.37,0,0,0,.418,2.343,5.46,5.46,0,0,0,1.166,1.837,5.2,5.2,0,0,0,1.815,1.2,6.225,6.225,0,0,0,2.343.429A5.68,5.68,0,0,0,278.784-.9a5.154,5.154,0,0,0,1.76-3.454H277.53a2.966,2.966,0,0,1-.759,1.683,2.289,2.289,0,0,1-1.727.627,2.207,2.207,0,0,1-1.232-.33,2.465,2.465,0,0,1-.8-.847,3.879,3.879,0,0,1-.429-1.155,6.178,6.178,0,0,1-.132-1.254,6.443,6.443,0,0,1,.132-1.287,3.8,3.8,0,0,1,.451-1.188,2.71,2.71,0,0,1,.825-.88,2.194,2.194,0,0,1,1.254-.341A2.1,2.1,0,0,1,277.42-7.37Zm7.656,1.694a6.825,6.825,0,0,1,.132-1.342,3.423,3.423,0,0,1,.451-1.166,2.533,2.533,0,0,1,.847-.825,2.514,2.514,0,0,1,1.32-.319,2.574,2.574,0,0,1,1.331.319,2.5,2.5,0,0,1,.858.825,3.424,3.424,0,0,1,.451,1.166,6.827,6.827,0,0,1,.132,1.342,6.663,6.663,0,0,1-.132,1.331,3.546,3.546,0,0,1-.451,1.166,2.375,2.375,0,0,1-.858.825,2.647,2.647,0,0,1-1.331.308,2.585,2.585,0,0,1-1.32-.308,2.4,2.4,0,0,1-.847-.825,3.545,3.545,0,0,1-.451-1.166A6.66,6.66,0,0,1,285.076-5.676Zm-3.124,0a6.892,6.892,0,0,0,.418,2.464,5.345,5.345,0,0,0,1.188,1.881,5.2,5.2,0,0,0,1.848,1.2,6.648,6.648,0,0,0,2.42.418,6.737,6.737,0,0,0,2.431-.418,5.178,5.178,0,0,0,1.859-1.2A5.345,5.345,0,0,0,293.3-3.212a6.892,6.892,0,0,0,.418-2.464,6.982,6.982,0,0,0-.418-2.475,5.326,5.326,0,0,0-1.188-1.892,5.3,5.3,0,0,0-1.859-1.21,6.582,6.582,0,0,0-2.431-.429,6.5,6.5,0,0,0-2.42.429,5.324,5.324,0,0,0-1.848,1.21,5.326,5.326,0,0,0-1.188,1.892A6.982,6.982,0,0,0,281.952-5.676Zm13.882-5.7V0h3.124V-6.6a3.215,3.215,0,0,1,.242-1.353,2.185,2.185,0,0,1,.583-.792,1.935,1.935,0,0,1,.7-.374,2.341,2.341,0,0,1,.583-.1,2.075,2.075,0,0,1,1.133.253,1.4,1.4,0,0,1,.55.671,2.81,2.81,0,0,1,.187.913q.022.5.022,1V0h3.124V-6.336a7.08,7.08,0,0,1,.077-1.045,2.643,2.643,0,0,1,.308-.924,1.833,1.833,0,0,1,.638-.66,2,2,0,0,1,1.067-.253,2.109,2.109,0,0,1,1.045.22,1.465,1.465,0,0,1,.583.594,2.288,2.288,0,0,1,.242.88q.044.506.044,1.078V0h3.124V-7.612a5.129,5.129,0,0,0-.308-1.881,3.225,3.225,0,0,0-.858-1.265,3.366,3.366,0,0,0-1.32-.7,6.066,6.066,0,0,0-1.672-.22A3.656,3.656,0,0,0,307-11.11a4.842,4.842,0,0,0-1.375,1.32,2.766,2.766,0,0,0-1.353-1.474,4.578,4.578,0,0,0-1.969-.418,4.023,4.023,0,0,0-1.991.484,4.449,4.449,0,0,0-1.485,1.364h-.044v-1.54Zm24.552-4.708L314.27.352h2.486l6.138-16.434ZM326.9-3.388V0h3.454V-3.388Zm-3.542-7.26h3.234a4.479,4.479,0,0,1,.132-1.111,2.672,2.672,0,0,1,.407-.9,2.041,2.041,0,0,1,.7-.616,2.129,2.129,0,0,1,1.023-.231,1.883,1.883,0,0,1,1.375.484,2.011,2.011,0,0,1,.495,1.5,1.8,1.8,0,0,1-.209.99,2.953,2.953,0,0,1-.6.726q-.374.33-.814.66a5.537,5.537,0,0,0-.836.781,4.545,4.545,0,0,0-.693,1.089,4.5,4.5,0,0,0-.363,1.584v.99h2.97v-.836a2.243,2.243,0,0,1,.429-1.1,4.374,4.374,0,0,1,.781-.781q.44-.341.935-.682a4.551,4.551,0,0,0,.9-.825A4.285,4.285,0,0,0,333.9-10.1a4.692,4.692,0,0,0,.275-1.738,3.949,3.949,0,0,0-.275-1.375,3.853,3.853,0,0,0-.913-1.375,5.066,5.066,0,0,0-1.683-1.067,6.9,6.9,0,0,0-2.607-.429,5.652,5.652,0,0,0-2.189.407,4.857,4.857,0,0,0-1.672,1.133,5.167,5.167,0,0,0-1.078,1.716A6.288,6.288,0,0,0,323.356-10.648Zm15.928-2.486v-2.574H336.16v2.574Zm-3.124,1.76V0h3.124V-11.374ZM349.822-5.72a6.941,6.941,0,0,1-.132,1.364,3.7,3.7,0,0,1-.44,1.177,2.34,2.34,0,0,1-.825.825,2.477,2.477,0,0,1-1.287.308,2.321,2.321,0,0,1-1.243-.319,2.744,2.744,0,0,1-.858-.836,3.6,3.6,0,0,1-.495-1.177,5.792,5.792,0,0,1-.154-1.32,6.271,6.271,0,0,1,.143-1.353,3.6,3.6,0,0,1,.462-1.155,2.435,2.435,0,0,1,.847-.814,2.538,2.538,0,0,1,1.3-.308,2.418,2.418,0,0,1,1.276.308,2.539,2.539,0,0,1,.825.8,3.307,3.307,0,0,1,.451,1.144A6.775,6.775,0,0,1,349.822-5.72Zm.044,4.268V0h2.97V-15.708h-3.124v5.72h-.044a3.354,3.354,0,0,0-1.441-1.265,4.472,4.472,0,0,0-1.925-.429,4.679,4.679,0,0,0-2.2.5,4.717,4.717,0,0,0-1.573,1.309A5.747,5.747,0,0,0,341.583-8a7.677,7.677,0,0,0-.319,2.211,8.173,8.173,0,0,0,.319,2.288,6.09,6.09,0,0,0,.946,1.947,4.5,4.5,0,0,0,1.6,1.342,4.863,4.863,0,0,0,2.244.5,4.792,4.792,0,0,0,2.013-.407,3.223,3.223,0,0,0,1.441-1.331Zm16.3-.572V-4.378h-11.11v2.354Zm0-4.708V-9.086h-11.11v2.354Zm2.09-1.144a3.629,3.629,0,0,1,.55-1.826,3.745,3.745,0,0,1,1.232-1.166,5.369,5.369,0,0,1,1.683-.627,9.568,9.568,0,0,1,1.881-.187,12.748,12.748,0,0,1,1.738.121,5.317,5.317,0,0,1,1.606.473,3.164,3.164,0,0,1,1.188.979,2.736,2.736,0,0,1,.462,1.661V-2.53a11.882,11.882,0,0,0,.088,1.474A2.664,2.664,0,0,0,378.994,0h-3.168a4.488,4.488,0,0,1-.143-.539,4.7,4.7,0,0,1-.077-.561,4.071,4.071,0,0,1-1.76,1.078,7.064,7.064,0,0,1-2.068.308,5.587,5.587,0,0,1-1.518-.2,3.477,3.477,0,0,1-1.232-.616,2.868,2.868,0,0,1-.825-1.056,3.57,3.57,0,0,1-.3-1.518,3.316,3.316,0,0,1,.341-1.6,2.851,2.851,0,0,1,.88-1,3.943,3.943,0,0,1,1.232-.561,13.152,13.152,0,0,1,1.4-.3q.7-.11,1.386-.176a8.334,8.334,0,0,0,1.21-.2,2.109,2.109,0,0,0,.836-.385.845.845,0,0,0,.286-.737,1.657,1.657,0,0,0-.165-.8,1.214,1.214,0,0,0-.44-.462,1.731,1.731,0,0,0-.638-.22,5.221,5.221,0,0,0-.781-.055A2.371,2.371,0,0,0,372-9.2a1.768,1.768,0,0,0-.616,1.32Zm7.216,2.31a1.4,1.4,0,0,1-.495.275,5.056,5.056,0,0,1-.638.165q-.341.066-.715.11t-.748.11a5.642,5.642,0,0,0-.693.176,2.049,2.049,0,0,0-.594.3,1.412,1.412,0,0,0-.407.473,1.522,1.522,0,0,0-.154.726,1.47,1.47,0,0,0,.154.7,1.181,1.181,0,0,0,.418.451,1.764,1.764,0,0,0,.616.231,3.932,3.932,0,0,0,.726.066,2.762,2.762,0,0,0,1.43-.308,2.06,2.06,0,0,0,.748-.737,2.358,2.358,0,0,0,.3-.869,5.973,5.973,0,0,0,.055-.7Zm12.892-3.718h-3.542V0H381.7V-9.284h-1.87v-2.09h1.87v-.88a3.408,3.408,0,0,1,.946-2.486,3.833,3.833,0,0,1,2.86-.968q.418,0,.836.033t.814.055v2.332a9.972,9.972,0,0,0-1.144-.066,1.2,1.2,0,0,0-.913.3,1.459,1.459,0,0,0-.275,1v.682h3.542v-.88a3.408,3.408,0,0,1,.946-2.486,3.833,3.833,0,0,1,2.86-.968q.418,0,.836.033t.814.055v2.332a9.972,9.972,0,0,0-1.144-.066,1.2,1.2,0,0,0-.913.3,1.459,1.459,0,0,0-.275,1v.682h2.156v2.09H391.49V0h-3.124Zm9.856-3.85H395.1v-2.574h3.124Zm-3.124,1.76h3.124V0H395.1Zm5.676-4.334V0H403.9V-15.708Zm8.8,2.574v-2.574H406.45v2.574Zm-3.124,1.76V0h3.124V-11.374Zm5.456,3.5a3.629,3.629,0,0,1,.55-1.826,3.745,3.745,0,0,1,1.232-1.166,5.369,5.369,0,0,1,1.683-.627,9.568,9.568,0,0,1,1.881-.187,12.748,12.748,0,0,1,1.738.121,5.317,5.317,0,0,1,1.606.473,3.164,3.164,0,0,1,1.188.979,2.736,2.736,0,0,1,.462,1.661V-2.53a11.882,11.882,0,0,0,.088,1.474A2.664,2.664,0,0,0,422.642,0h-3.168a4.488,4.488,0,0,1-.143-.539,4.7,4.7,0,0,1-.077-.561,4.071,4.071,0,0,1-1.76,1.078,7.064,7.064,0,0,1-2.068.308,5.587,5.587,0,0,1-1.518-.2,3.477,3.477,0,0,1-1.232-.616,2.868,2.868,0,0,1-.825-1.056,3.57,3.57,0,0,1-.3-1.518,3.316,3.316,0,0,1,.341-1.6,2.851,2.851,0,0,1,.88-1,3.943,3.943,0,0,1,1.232-.561,13.152,13.152,0,0,1,1.4-.3q.7-.11,1.386-.176a8.334,8.334,0,0,0,1.21-.2,2.109,2.109,0,0,0,.836-.385.845.845,0,0,0,.286-.737,1.657,1.657,0,0,0-.165-.8,1.214,1.214,0,0,0-.44-.462,1.731,1.731,0,0,0-.638-.22,5.221,5.221,0,0,0-.781-.055,2.371,2.371,0,0,0-1.452.4,1.768,1.768,0,0,0-.616,1.32Zm7.216,2.31a1.4,1.4,0,0,1-.495.275,5.056,5.056,0,0,1-.638.165q-.341.066-.715.11t-.748.11a5.642,5.642,0,0,0-.693.176,2.049,2.049,0,0,0-.594.3,1.412,1.412,0,0,0-.407.473,1.522,1.522,0,0,0-.154.726,1.47,1.47,0,0,0,.154.7,1.181,1.181,0,0,0,.418.451,1.764,1.764,0,0,0,.616.231,3.932,3.932,0,0,0,.726.066,2.762,2.762,0,0,0,1.43-.308,2.06,2.06,0,0,0,.748-.737,2.358,2.358,0,0,0,.3-.869,5.973,5.973,0,0,0,.055-.7Zm9.5-5.808v-3.41H425.5v3.41H423.61v2.09H425.5v6.71a2.906,2.906,0,0,0,.286,1.386,2.038,2.038,0,0,0,.781.814,3.243,3.243,0,0,0,1.144.385,9.12,9.12,0,0,0,1.375.1q.462,0,.946-.022a7.434,7.434,0,0,0,.88-.088V-2.42a4.376,4.376,0,0,1-.462.066q-.242.022-.506.022A1.529,1.529,0,0,1,428.89-2.6a1.529,1.529,0,0,1-.264-1.056V-9.284h2.288v-2.09Zm11.44,4.466h-5.082a3.587,3.587,0,0,1,.143-.748,2.3,2.3,0,0,1,.418-.792,2.367,2.367,0,0,1,.792-.627,2.718,2.718,0,0,1,1.243-.253,2.194,2.194,0,0,1,1.7.616A3.611,3.611,0,0,1,440.066-6.908Zm-5.082,1.98h8.206a8.029,8.029,0,0,0-.22-2.53,6.192,6.192,0,0,0-1-2.156,5.049,5.049,0,0,0-1.771-1.507,5.408,5.408,0,0,0-2.53-.561,5.891,5.891,0,0,0-2.365.462,5.592,5.592,0,0,0-1.837,1.265,5.576,5.576,0,0,0-1.188,1.9,6.634,6.634,0,0,0-.418,2.376,6.925,6.925,0,0,0,.407,2.42,5.5,5.5,0,0,0,1.155,1.892,5.032,5.032,0,0,0,1.826,1.221,6.5,6.5,0,0,0,2.42.429,5.958,5.958,0,0,0,3.3-.88,5.22,5.22,0,0,0,2.024-2.926h-2.75a1.962,1.962,0,0,1-.836,1,2.785,2.785,0,0,1-1.628.473,2.793,2.793,0,0,1-2.024-.682A3.158,3.158,0,0,1,434.984-4.928Z" transform="translate(-3865 -1320)" fill="#22baa0"/><g transform="translate(-3357.004 -1422.135)"><g transform="matrix(1, 0, 0, 1, -541, -219.22)" filter="url(#e)"><path d="M75.45,53.8H10a10,10,0,0,1-10-10V10A10,10,0,0,1,10,0H155.526a10,10,0,0,1,10,10V43.8a10,10,0,0,1-10,10H90.775l-7.662,7.87Z" transform="translate(541 219.22)" fill="#22baa0"/></g><text transform="translate(83.11 33.646)" fill="#fff" font-size="21" font-family="HelveticaNeue-Bold, Helvetica Neue" font-weight="700"><tspan x="-52.49" y="0">Monetized</tspan></text></g><g transform="translate(-3357.004 -1638.857)"><g transform="matrix(1, 0, 0, 1, -541, -2.5)" filter="url(#g)"><path d="M75.45,53.8H10a10,10,0,0,1-10-10V10A10,10,0,0,1,10,0H155.526a10,10,0,0,1,10,10V43.8a10,10,0,0,1-10,10H90.775l-7.662,7.87Z" transform="translate(541 2.5)" fill="#b09ae5"/></g><path d="M-44.924-15.708V0h3.454V-5.06l1.98-2L-34.76,0h4.334l-6.732-9.5,6.138-6.2h-4.312L-41.47-9.2v-6.512Zm23.21,8.8H-26.8a3.586,3.586,0,0,1,.143-.748,2.3,2.3,0,0,1,.418-.792,2.366,2.366,0,0,1,.792-.627A2.718,2.718,0,0,1-24.2-9.328a2.194,2.194,0,0,1,1.7.616A3.611,3.611,0,0,1-21.714-6.908ZM-26.8-4.928h8.206a8.03,8.03,0,0,0-.22-2.53,6.193,6.193,0,0,0-1-2.156,5.049,5.049,0,0,0-1.771-1.507,5.408,5.408,0,0,0-2.53-.561,5.891,5.891,0,0,0-2.365.462,5.592,5.592,0,0,0-1.837,1.265,5.576,5.576,0,0,0-1.188,1.9,6.634,6.634,0,0,0-.418,2.376,6.925,6.925,0,0,0,.407,2.42,5.5,5.5,0,0,0,1.155,1.892A5.032,5.032,0,0,0-26.532-.143a6.5,6.5,0,0,0,2.42.429,5.958,5.958,0,0,0,3.3-.88A5.22,5.22,0,0,0-18.788-3.52h-2.75a1.962,1.962,0,0,1-.836,1A2.785,2.785,0,0,1-24-2.046a2.793,2.793,0,0,1-2.024-.682A3.158,3.158,0,0,1-26.8-4.928Zm15.664,6.336L-6.38-11.374H-9.614L-12.1-3.586h-.044l-2.574-7.788H-18.04L-14.058-.7a1.878,1.878,0,0,1,.132.7,1.56,1.56,0,0,1-.3.924,1.214,1.214,0,0,1-.913.484,6.482,6.482,0,0,1-.924-.022l-.9-.088V3.872q.484.044.957.077t.957.033a4.531,4.531,0,0,0,2.508-.594A3.847,3.847,0,0,0-11.132,1.408ZM7.678,0l3.586-11.374H8.052l-2.09,7.7H5.918l-1.936-7.7H.946L-.946-3.652H-.99l-2.09-7.722h-3.3L-2.772,0H.462L2.4-7.634h.044L4.466,0Zm7.678-5.676a6.826,6.826,0,0,1,.132-1.342,3.424,3.424,0,0,1,.451-1.166,2.533,2.533,0,0,1,.847-.825,2.514,2.514,0,0,1,1.32-.319,2.574,2.574,0,0,1,1.331.319,2.5,2.5,0,0,1,.858.825,3.424,3.424,0,0,1,.451,1.166,6.826,6.826,0,0,1,.132,1.342,6.661,6.661,0,0,1-.132,1.331A3.546,3.546,0,0,1,20.3-3.179a2.375,2.375,0,0,1-.858.825,2.647,2.647,0,0,1-1.331.308,2.585,2.585,0,0,1-1.32-.308,2.4,2.4,0,0,1-.847-.825,3.546,3.546,0,0,1-.451-1.166A6.661,6.661,0,0,1,15.356-5.676Zm-3.124,0a6.892,6.892,0,0,0,.418,2.464,5.345,5.345,0,0,0,1.188,1.881,5.2,5.2,0,0,0,1.848,1.2,6.648,6.648,0,0,0,2.42.418,6.737,6.737,0,0,0,2.431-.418,5.178,5.178,0,0,0,1.859-1.2,5.345,5.345,0,0,0,1.188-1.881A6.892,6.892,0,0,0,24-5.676a6.982,6.982,0,0,0-.418-2.475A5.326,5.326,0,0,0,22.4-10.043a5.3,5.3,0,0,0-1.859-1.21,6.583,6.583,0,0,0-2.431-.429,6.5,6.5,0,0,0-2.42.429,5.324,5.324,0,0,0-1.848,1.21A5.326,5.326,0,0,0,12.65-8.151,6.982,6.982,0,0,0,12.232-5.676Zm13.794-5.7V0H29.15V-5.126a6.287,6.287,0,0,1,.154-1.43,3.131,3.131,0,0,1,.517-1.155,2.515,2.515,0,0,1,.957-.781,3.328,3.328,0,0,1,1.452-.286,5.579,5.579,0,0,1,.594.033q.308.033.528.077v-2.9a2.436,2.436,0,0,0-.682-.11,3.731,3.731,0,0,0-1.144.176,4.192,4.192,0,0,0-1.034.495,3.892,3.892,0,0,0-.858.77,3.842,3.842,0,0,0-.594.979H29v-2.112ZM42.262-5.72a6.939,6.939,0,0,1-.132,1.364,3.7,3.7,0,0,1-.44,1.177,2.34,2.34,0,0,1-.825.825,2.478,2.478,0,0,1-1.287.308,2.321,2.321,0,0,1-1.243-.319,2.744,2.744,0,0,1-.858-.836,3.6,3.6,0,0,1-.5-1.177,5.792,5.792,0,0,1-.154-1.32,6.271,6.271,0,0,1,.143-1.353,3.6,3.6,0,0,1,.462-1.155,2.435,2.435,0,0,1,.847-.814,2.538,2.538,0,0,1,1.3-.308,2.418,2.418,0,0,1,1.276.308,2.539,2.539,0,0,1,.825.8,3.307,3.307,0,0,1,.451,1.144A6.774,6.774,0,0,1,42.262-5.72Zm.044,4.268V0h2.97V-15.708H42.152v5.72h-.044a3.353,3.353,0,0,0-1.441-1.265,4.472,4.472,0,0,0-1.925-.429,4.679,4.679,0,0,0-2.2.5,4.717,4.717,0,0,0-1.573,1.309A5.747,5.747,0,0,0,34.023-8,7.677,7.677,0,0,0,33.7-5.786,8.173,8.173,0,0,0,34.023-3.5a6.09,6.09,0,0,0,.946,1.947A4.5,4.5,0,0,0,36.564-.209a4.863,4.863,0,0,0,2.244.5,4.792,4.792,0,0,0,2.013-.407,3.223,3.223,0,0,0,1.441-1.331Z" transform="translate(82.436 33.646)" fill="#fff"/></g><path d="M24.486,3.673A11.019,11.019,0,1,1,20.38,24.919l-3.24,3.24H14.692v3.673H11.019v3.673H3.673V28.159L13.94,17.892A11.025,11.025,0,0,1,24.486,3.673m0-3.673A14.7,14.7,0,0,0,9.932,16.706L.538,26.1A1.837,1.837,0,0,0,0,27.4v9.943a1.836,1.836,0,0,0,1.836,1.836H12.855a1.836,1.836,0,0,0,1.836-1.836V35.505h1.836a1.836,1.836,0,0,0,1.836-1.836v-1.53l3.065-3.074A14.693,14.693,0,1,0,24.486,0Zm0,11.019a3.673,3.673,0,1,0,3.673-3.673A3.673,3.673,0,0,0,24.486,11.019Z" transform="translate(-3292.028 -1568.004)" fill="#b09ae5"/></g></svg>