<svg xmlns="http://www.w3.org/2000/svg" width="216.309" height="320.042" viewBox="0 0 216.309 320.042"><defs><style>.a{fill:#fff;}</style></defs><path class="a" d="M183.237,48.937a31.606,31.606,0,0,0-32.063,31.831l.457,10.361c-.247,38.627-7.065,49.99-10.637,53.293V31.874C140.995,14.3,126.284,0,108.184,0s-32.8,14.3-32.8,31.874V146.665c-.138-.094-.283-.2-.421-.319-8.981-7.391-10.477-41.262-9.315-60.873V59.457c0-17.462-16.09-32.223-35.127-32.223C12.866,27.235.022,40.848.022,59.6L0,85.676v.182c2.97,45.561,15.639,77.595,37.654,95.282A62.34,62.34,0,0,0,75.409,195.21V223.2h-13.8a13.294,13.294,0,0,0-13.251,13.28v12.343a13.294,13.294,0,0,0,13.28,13.287h.545l4.247,33.784c.152,13.352,8.887,24.149,19.6,24.149h45.778c10.709,0,19.444-10.8,19.6-24.149l4.233-33.784h.552a13.294,13.294,0,0,0,13.272-13.28V236.487a13.294,13.294,0,0,0-13.272-13.28H141.031V194.658c28.687-2.106,50.65-20.1,63.807-52.349a170.487,170.487,0,0,0,11.472-50.774V81.072C216.309,63.349,201.476,48.937,183.237,48.937ZM140.523,295.2v.312c0,7.261-4.073,13.614-8.713,13.614H86.068c-4.64,0-8.713-6.36-8.713-13.614v-.341l-4.189-33.058h71.517Zm18.064-58.717v12.343a2.425,2.425,0,0,1-1.539,2.229l.044-.356H60.75l.044.356a2.425,2.425,0,0,1-1.539-2.229V236.479a2.425,2.425,0,0,1,2.389-2.389h94.563a2.418,2.418,0,0,1,2.381,2.389ZM205.418,91.128c-.094,1.772-1.532,24.737-10.768,47.3-12.343,30.11-32.215,45.437-59.123,45.539H130.1l.044,38.663H86.322v-39.4l-6.215.893c-.726.109-18.384,2.454-35.78-11.661C24.882,156.75,13.657,127.424,10.891,85.3l.08-25.659c0-10.346,6.121-21.484,19.6-21.484,12.909,0,24.236,9.969,24.236,21.332V85.022a254,254,0,0,0,.225,28.759c1.452,21.571,5.736,34.982,13.069,41a15.364,15.364,0,0,0,14.151,3l4.08-1.053V31.874c-.051-11.544,9.78-20.983,21.847-20.983s21.905,9.439,21.905,20.983v123.38l3.972,1.118a14.594,14.594,0,0,0,12.822-2.708c10.31-7.762,15.422-28.237,15.625-62.609v-.138l-.457-10.267c.058-11.878,9.141-20.824,21.172-20.824,12.234,0,22.181,9.526,22.181,21.245Z"/></svg>