<svg xmlns="http://www.w3.org/2000/svg" xmlns:xlink="http://www.w3.org/1999/xlink" width="500" height="500" viewBox="0 0 500 500"><defs><style>.a{clip-path:url(#b);}.b{fill:#5e36ca;}.c{fill:#00ffd3;}.d{fill:#cc4afc;}</style><clipPath id="b"><rect width="500" height="500"/></clipPath></defs><g id="a" class="a"><circle class="b" cx="249.5" cy="249.5" r="249.5" transform="translate(1 1)"/><g transform="translate(59.684 92.664)"><g transform="translate(90.918 0.437)"><path class="c" d="M177.568,52.494h0a25.365,25.365,0,0,0-25.84,25.613l.443,9.957c-.371,62.1-18.019,59.155-20.892,58.341V30.649C131.284,16.543,119.335,5,104.734,5h0C90.128,5,78.179,16.543,78.179,30.649V147.743C53.909,154.035,58.167,82.39,58.167,82.39V57.457c0-14.374-13.9-25.989-28.805-25.989h0c-14.874,0-24.29,11.759-24.29,26.133L5,82.673C12.208,193.8,78.179,183.648,78.179,183.648l.036,37.434H131.32l-.036-37.542C200.1,183.267,204.391,88.3,204.391,88.3v-9.89C204.385,64.155,192.318,52.494,177.568,52.494Z" transform="translate(-5 -5)"/><path class="d" d="M4.762,37.732c0,10.173,6.178,18.5,13.736,18.5h44.43c7.558,0,13.741-8.325,13.741-18.5L81.416,0H0Z" transform="translate(59.721 257.209)"/></g><path class="d" d="M195.564,425.8H103.779c-4.193.017-7.588,4.181-7.6,9.321v14.692c.011,5.14,3.406,9.3,7.6,9.321h91.785c4.2-.014,7.6-4.178,7.609-9.321V435.121C203.159,429.978,199.76,425.814,195.564,425.8Z" transform="translate(41.681 -205.257)"/></g></g></svg>