<svg xmlns="http://www.w3.org/2000/svg" xmlns:xlink="http://www.w3.org/1999/xlink" width="100" height="100" viewBox="0 0 100 100"><defs><clipPath id="b"><rect width="100" height="100"/></clipPath></defs><g id="a" clip-path="url(#b)"><g transform="translate(-72.918 -0.438)"><g transform="translate(90.918 0.437)"><path d="M60.056,20.152h0a8.093,8.093,0,0,0-8.244,8.172l.141,3.177c-.118,19.814-5.749,18.873-6.665,18.613V13.183A8.353,8.353,0,0,0,36.819,5h0a8.356,8.356,0,0,0-8.472,8.183V50.541c-7.743,2.007-6.385-20.85-6.385-20.85V21.736c0-4.586-4.435-8.292-9.19-8.292h0c-4.745,0-7.75,3.752-7.75,8.338l-.023,8C7.3,65.234,28.347,62,28.347,62l.011,11.943H45.3L45.29,61.962c21.954-.087,23.324-30.387,23.324-30.387V28.419A8.443,8.443,0,0,0,60.056,20.152Z" transform="translate(-5 -5)" fill="#22baa0"/><path d="M1.519,12.038c0,3.246,1.971,5.9,4.382,5.9H20.077c2.411,0,4.384-2.656,4.384-5.9L25.975,0H0Z" transform="translate(19.053 82.06)" fill="#b09ae5"/></g><path d="M127.888,425.8H98.6a2.75,2.75,0,0,0-2.424,2.974v4.687a2.75,2.75,0,0,0,2.424,2.974h29.283a2.751,2.751,0,0,0,2.428-2.974v-4.687A2.751,2.751,0,0,0,127.888,425.8Z" transform="translate(9.715 -355.14)" fill="#b09ae5"/></g></g></svg>