<svg xmlns="http://www.w3.org/2000/svg" xmlns:xlink="http://www.w3.org/1999/xlink" width="960.318" height="457.432" viewBox="0 0 960.318 457.432"><defs><style>.a{fill:#fff;}.b{fill:#00ffd3;}.c{fill:#cc4afc;}.d{filter:url(#e);}.e{filter:url(#c);}.f{filter:url(#a);}</style><filter id="a" x="193.285" y="0" width="767.032" height="457.432" filterUnits="userSpaceOnUse"><feOffset input="SourceAlpha"/><feGaussianBlur stdDeviation="25" result="b"/><feFlood flood-color="#fff" flood-opacity="0.467"/><feComposite operator="in" in2="b"/><feComposite in="SourceGraphic"/></filter><filter id="c" x="0" y="37.5" width="279.27" height="295.328" filterUnits="userSpaceOnUse"><feOffset input="SourceAlpha"/><feGaussianBlur stdDeviation="12.5" result="d"/><feFlood flood-color="#00ffd3"/><feComposite operator="in" in2="d"/><feComposite in="SourceGraphic"/></filter><filter id="e" x="45.35" y="246.808" width="189.937" height="173.388" filterUnits="userSpaceOnUse"><feOffset input="SourceAlpha"/><feGaussianBlur stdDeviation="12.5" result="f"/><feFlood flood-color="#cc4afc"/><feComposite operator="in" in2="f"/><feComposite in="SourceGraphic"/></filter></defs><g transform="translate(-291.29 -102.734)"><g transform="translate(-668.993 -558.875)"><g class="f" transform="matrix(1, 0, 0, 1, 960.28, 661.61)"><path class="a" d="M947.457,316.113c-30.76,0-65.413,30.87-77.615,69.683a212.475,212.475,0,0,1-27.391,25c0-31.556-38.635-29.927-38.635-45.163,0-14.146,15.236-24.483,23.4-24.483,4.354,0,5.444,2.719,5.444,5.438s-7.073,4.354-7.073,11.972c0,5.989,5.438,9.253,11.427,9.253,12.512,0,20.13-17.415,20.13-28.816s-10.882-20.674-22.854-20.674c-21.45,0-52.042,17.813-56.988,43.863l-.152.21c-13.062,16.871-30.472,35.915-47.342,48.427,0-31.556-38.634-29.927-38.634-45.163,0-14.146,15.236-24.483,23.4-24.483,4.354,0,5.443,2.719,5.443,5.438s-7.073,4.354-7.073,11.972c0,5.989,5.438,9.253,11.427,9.253,12.512,0,20.129-17.415,20.129-28.816s-10.882-20.674-22.854-20.674c-19.386,0-46.226,14.56-54.877,36.565-2.578,2.777-5.176,6-7.691,9.142-19.59,23.394-50.061,56.061-68.017,56.061-4.9,0-7.073-5.989-7.073-11.427,0-7.618,4.354-19.59,9.792-30.472,6.533-14.146,26.123-37.545,26.123-46.8,0-7.618-5.989-13.622-16.326-13.622-8.163,0-14.146,10.882-15.781,10.882-5.444-6.528-13.622-11.972-22.309-11.972-30.272,0-72.208,29.162-92.51,66.775-20.255,21.722-47.6,44.183-64.208,44.183-10.337,0-16.32-7.618-16.32-21.224,0-11.422,7.618-41.354,16.32-56.584C437.61,327,463.728,304.147,494.2,265.5c39.18-50.056,46.8-83.252,46.8-99.023,0-11.427-8.708-22.309-21.769-22.309-31.017,0-55.5,26.663-88.151,82.168-30.472,52.236-66.927,137.123-66.927,182.851,0,26.118,19.045,41.914,40.809,41.914,16.205,0,36.712-12.773,56.249-29.392q-.21,2.672-.21,5.407c0,14.146,11.427,23.944,18.5,23.944,24.488,0,61.488-37.005,77.269-52.781-.524,7.618-1.09,13.056-1.09,19.045,0,15.236,8.708,27.768,26.663,27.768,24.8,0,60.891-32.583,86.93-61.651,10.479,12.2,32.772,16.483,32.772,30.634,0,10.887-5.438,19.045-16.865,19.045-10.337,0-13.061-4.349-13.061-10.337s-5.439-8.163-10.338-8.163c-6.528,0-11.972,6.533-11.972,14.67,0,11.967,12.517,22.309,31.561,22.309,38.907,0,77.406-39.976,101.244-67.4,10.73,11.61,32.075,16.006,32.075,29.864,0,10.887-5.438,19.045-16.865,19.045-10.337,0-13.062-4.349-13.062-10.337s-5.438-8.163-10.337-8.163c-6.528,0-11.972,6.533-11.972,14.67,0,11.966,12.517,22.309,31.561,22.309,25.227,0,50.3-16.813,71.286-36.109.393,23.891,16.5,36.109,32.63,36.109,48.972,0,83.253-66.387,83.253-101.758C981.193,329.175,968.687,316.113,947.457,316.113ZM451.756,238.3c27.208-48.432,51.157-67.477,57.679-67.477,3.809,0,5.439,1.635,5.439,4.9,0,11.427-10.882,35.915-39.719,74.005-22.309,29.927-45.163,52.781-56.06,61.483C422.374,299.248,429.448,278.024,451.756,238.3ZM495.29,421.68c-2.719,0-4.9-1.629-4.9-4.349,0-25.033,46.253-75.095,68.022-75.095,7.073,0,11.966,4.9,11.966,10.882,0,10.337-66.942,68.556-75.09,68.556Zm445.529-27.627c-12.606,23.137-30.588,37.66-40.154,32.442s-7.115-28.193,5.491-51.345,30.582-37.66,40.154-32.442,7.115,28.235-5.491,51.34Z" transform="translate(-95.86 -69.17)"/></g></g><g transform="translate(328.79 177.735)"><g class="e" transform="matrix(1, 0, 0, 1, -37.5, -75)"><path class="b" d="M133.614,220.327H70.742V184.369a59.241,59.241,0,0,1-35.159-13.322C14.757,154.344,2.793,124.117,0,81.193V81L.067,56.582c0-17.965,12.3-31.007,29.254-31.007,18.215,0,33.608,14.141,33.608,30.882V80.914c-1.127,19,.6,48.221,7.783,55.869V30.564C70.7,13.707,84.767,0,102.106,0a31.682,31.682,0,0,1,22.155,8.9,29.957,29.957,0,0,1,9.3,21.664V134.375c3.391-4.277,8.419-16.038,8.669-48.231l-.424-9.69v-.838A30.3,30.3,0,0,1,172.626,45.89c17.445,0,31.634,13.832,31.643,30.824V86.54a160.016,160.016,0,0,1-10.8,47.826c-12.32,30.275-32.924,47.267-59.819,49.464Zm-51.323-3.49h39.744V172.521h5.78c24.929-.106,43.347-14.324,54.819-42.258,8.592-20.99,9.96-42.384,10.056-44.137V76.7c0-10.6-9.035-19.265-20.132-19.265h-.135A18.716,18.716,0,0,0,153.352,75.8v.443l.424,9.633v.144c-.193,32.462-5.076,51.843-14.931,59.25a14.333,14.333,0,0,1-12.657,2.688l-4.2-1.185V30.564a18.466,18.466,0,0,0-5.78-13.351,20.229,20.229,0,0,0-14.1-5.654c-10.923,0-19.843,8.525-19.843,19.005v117.6l-4.325,1.146a15.065,15.065,0,0,1-13.861-2.89c-14.95-12.4-13.245-56.775-12.705-66.032V56.457c0-10.3-10.307-19.323-22.049-19.323-12.156,0-17.7,10.066-17.7,19.468l-.067,24.082c2.572,39.272,13,66.59,31.007,81.213,16.077,13.052,32.385,10.9,33.069,10.808l6.589-.963V178.4Z" transform="translate(37.5 75)"/></g><g class="d" transform="matrix(1, 0, 0, 1, -37.5, -75)"><path class="c" d="M125.991,315.678H83.077c-10.4,0-18.88-10.4-19.044-23.263l-3.959-31.364c-7.167-.1-12.975-6.743-12.994-14.767V232.076c0-8.13,5.9-14.757,13.1-14.786h88.707c7.224,0,13.1,6.647,13.129,14.767v14.218c0,8.091-5.857,14.7-13.014,14.776l-3.94,31.354C144.9,305.275,136.413,315.678,125.991,315.678ZM71.759,261.321l3.853,30.314V292c0,7.128,3.94,12.089,7.485,12.089h42.894c3.545,0,7.494-4.961,7.494-12.089v-.722l3.766-29.958Zm-12.33-12.436h90.239a4.46,4.46,0,0,0,.79-2.63V232.076c0-1.994-1.108-3.227-1.6-3.227H60.238c-.462,0-1.56,1.233-1.57,3.237v14.189a4.441,4.441,0,0,0,.761,2.61Z" transform="translate(35.77 67.02)"/></g></g></g></svg>