<svg xmlns="http://www.w3.org/2000/svg" width="287.5" height="433.899" viewBox="0 0 287.5 433.899"><defs><style>.a,.b{fill:none;stroke-miterlimit:10;stroke-width:15px;}.a{stroke:#22baa0;}.b{stroke:#b199e5;}</style></defs><g transform="translate(2.501 2.5)"><path class="a" d="M240.841,69.908h0c-20.158,0-35.314,15.536-35.314,35l.605,13.608c-.507,84.876-24.626,80.844-28.552,79.732V40.054C177.587,20.775,161.256,5,141.3,5h0C121.341,5,105.01,20.775,105.01,40.054V200.081c-33.168,8.6-27.349-89.316-27.349-89.316V76.69c0-19.645-19-35.518-39.367-35.518h0c-20.327,0-33.2,16.07-33.2,35.715L5,111.153c9.85,151.866,100.01,138,100.01,138l.049,51.159h72.577L177.587,249c94.044-.373,99.912-130.167,99.912-130.167V105.32C277.492,85.844,261,69.908,240.841,69.908Z"/><path class="b" d="M42.743,122.824c-10.329,0-18.772-11.377-18.772-25.28L17.463,45.977H128.731l-6.487,51.567c0,13.9-8.451,25.28-18.779,25.28Zm85.988-77.267.085-.862H17.378l.085.862H10.384C4.654,45.534.014,39.843,0,32.819V12.74C.014,5.716,4.654.025,10.384,0H135.823c5.735.019,10.381,5.711,10.4,12.74V32.819c-.019,7.029-4.665,12.72-10.4,12.739Z" transform="translate(69.156 301.075)"/></g></svg>