<svg xmlns="http://www.w3.org/2000/svg" xmlns:xlink="http://www.w3.org/1999/xlink" width="1453" height="1061" viewBox="0 0 1453 1061"><defs><filter id="a" x="0" y="0" width="1453" height="1061" filterUnits="userSpaceOnUse"><feOffset input="SourceAlpha"/><feGaussianBlur stdDeviation="6" result="b"/><feFlood flood-opacity="0.161"/><feComposite operator="in" in2="b"/><feComposite in="SourceGraphic"/></filter></defs><g transform="translate(-2434 -1290)"><g transform="matrix(1, 0, 0, 1, 2434, 1290)" filter="url(#a)"><rect width="1417" height="1025" rx="50" transform="translate(18 18)" fill="#fff"/></g><path d="M1416.83,99.324H0V42.568C0,19.058,20.032,0,44.742,0H1372.088c24.71,0,44.742,19.058,44.742,42.568Z" transform="translate(2452 1307.895)" fill="#777"/><circle cx="21.5" cy="21.5" r="21.5" transform="translate(2508 1336)" fill="#e06470"/><ellipse cx="21" cy="21.5" rx="21" ry="21.5" transform="translate(2580 1336)" fill="#f6bd60"/><circle cx="21.5" cy="21.5" r="21.5" transform="translate(2650 1336)" fill="#22baa0"/><g transform="translate(2370 1287)"><ellipse cx="14.788" cy="14.788" rx="14.788" ry="14.788" transform="translate(592.648 276.36)" fill="#e06470"/><ellipse cx="14.788" cy="14.788" rx="14.788" ry="14.788" transform="translate(527.184 276.36)" fill="#228bc9"/><ellipse cx="14.788" cy="14.788" rx="14.788" ry="14.788" transform="translate(658.111 276.36)" fill="#5e36ca"/><rect width="448" height="13" rx="6.5" transform="translate(768 354)" fill="#e2e2e2"/><rect width="869" height="13" rx="6.5" transform="translate(350 410)" fill="#e2e2e2"/><rect width="342" height="13" rx="6.5" transform="translate(350 957)" fill="#e2e2e2"/><rect width="144" height="12" rx="6" transform="translate(347 285)" fill="#aaa"/><rect width="188" height="13" rx="6.5" transform="translate(566 354)" fill="#22baa0"/><rect width="204" height="13" rx="6.5" transform="translate(347 354)" fill="#e2e2e2"/><rect width="449" height="14" rx="7" transform="translate(796 479) rotate(180)" fill="#e2e2e2"/><rect width="188" height="14" rx="7" transform="translate(997 479) rotate(180)" fill="#22baa0"/><rect width="204" height="14" rx="7" transform="translate(1216 479) rotate(180)" fill="#e2e2e2"/><rect width="866" height="13" rx="6.5" transform="translate(350 899)" fill="#e2e2e2"/><g transform="translate(350 516)"><g fill="#fff" stroke="#b09ae5" stroke-width="3"><rect width="234" height="340" stroke="none"/><rect x="1.5" y="1.5" width="231" height="337" fill="none"/></g><g transform="translate(46.888 22.923)"><g transform="translate(0.112 0.077)" fill="none" stroke="#e2e2e2" stroke-width="3"><rect width="138" height="140" stroke="none"/><rect x="1.5" y="1.5" width="135" height="137" fill="none"/></g><path d="M28.781,51.8A11.512,11.512,0,1,0,40.293,63.316,11.512,11.512,0,0,0,28.781,51.8Zm0,17.268a5.756,5.756,0,1,1,5.756-5.756A5.756,5.756,0,0,1,28.781,69.072ZM90.258,7.643l-5.8-5.8a6.279,6.279,0,0,0-8.879,0l-9.087,9.089a6.918,6.918,0,0,0-1.671,2.7L60.978,25.159c-.07.056-.18.032-.236.1l-8.382,8.38a21.064,21.064,0,0,0-8.4-4.3,20.82,20.82,0,0,0-4.695-.552A15.922,15.922,0,0,0,27.793,33.3a14.843,14.843,0,0,0-3.641,6.02,9.1,9.1,0,0,1-7.582,6.2A18.015,18.015,0,0,0,5.312,50.633C-2.9,58.819-1.42,73.569,8.557,83.543A27.991,27.991,0,0,0,27.977,92.1a18.747,18.747,0,0,0,13.491-5.3,18.025,18.025,0,0,0,5.117-11.278,9.119,9.119,0,0,1,6.193-7.582,14.879,14.879,0,0,0,6.02-3.641c4.114-4.117,5.348-10.138,3.957-16.146a20.975,20.975,0,0,0-4.286-8.409l8.375-8.377c.065-.065.043-.164.1-.234l11.523-3.842a6.943,6.943,0,0,0,2.707-1.673l9.087-9.089a6.281,6.281,0,0,0,0-8.88ZM54.728,60.222A9.073,9.073,0,0,1,51,62.456,14.843,14.843,0,0,0,40.854,74.965a12.529,12.529,0,0,1-3.459,7.758,13.088,13.088,0,0,1-9.418,3.617A22.187,22.187,0,0,1,12.63,79.473,22.256,22.256,0,0,1,5.757,64.106a13.063,13.063,0,0,1,3.637-9.415,12.443,12.443,0,0,1,7.715-3.441A14.855,14.855,0,0,0,29.63,41.084a9.051,9.051,0,0,1,2.234-3.714,10.282,10.282,0,0,1,7.4-2.828,15.042,15.042,0,0,1,3.391.4,15.142,15.142,0,0,1,5.6,2.806l-9.481,9.483a2.159,2.159,0,0,0,0,3.058l3.058,3.058a2.159,2.159,0,0,0,3.058,0l9.481-9.483a15.093,15.093,0,0,1,2.8,5.587c.984,4.3.1,8.233-2.434,10.771Zm31.46-47.769L77.1,21.54a1.16,1.16,0,0,1-.455.284L67.094,25l3.184-9.555a1.189,1.189,0,0,1,.282-.455L79.648,5.9a.506.506,0,0,1,.369-.153.513.513,0,0,1,.371.153l5.8,5.8a.525.525,0,0,1,0,.745Z" transform="translate(22.959 24.15)" fill="#777"/></g><g transform="translate(46.888 194.848)"><rect width="144" height="17" rx="8.5" transform="translate(0.112 0.152)" fill="#5e36ca"/></g><g transform="translate(44.763 284.296)"><rect width="144" height="31" rx="15.5" transform="translate(0.237 -0.296)" fill="#22baa0"/></g><rect width="127" height="10" rx="5" transform="translate(47 254)" fill="#e2e2e2"/><rect width="144" height="12" rx="6" transform="translate(47 232)" fill="#e2e2e2"/></g><path d="M13.62-34.92V0h9.42V-34.92H35.88v-7.92H.78v7.92ZM39.9-42.84V0h8.52V-16.26q0-4.74,1.56-6.81t5.04-2.07q3.06,0,4.26,1.89a10.871,10.871,0,0,1,1.2,5.73V0H69V-19.08a25,25,0,0,0-.51-5.25,9.984,9.984,0,0,0-1.77-4.02,8.317,8.317,0,0,0-3.45-2.58,14.47,14.47,0,0,0-5.61-.93,11.174,11.174,0,0,0-4.92,1.23A9.866,9.866,0,0,0,48.6-26.7h-.18V-42.84Zm56.46,24H82.5a9.779,9.779,0,0,1,.39-2.04,6.264,6.264,0,0,1,1.14-2.16,6.454,6.454,0,0,1,2.16-1.71,7.412,7.412,0,0,1,3.39-.69,5.984,5.984,0,0,1,4.65,1.68A9.847,9.847,0,0,1,96.36-18.84ZM82.5-13.44h22.38a21.9,21.9,0,0,0-.6-6.9,16.889,16.889,0,0,0-2.73-5.88,13.771,13.771,0,0,0-4.83-4.11,14.75,14.75,0,0,0-6.9-1.53,16.066,16.066,0,0,0-6.45,1.26,15.25,15.25,0,0,0-5.01,3.45,15.207,15.207,0,0,0-3.24,5.19,18.092,18.092,0,0,0-1.14,6.48,18.887,18.887,0,0,0,1.11,6.6,14.988,14.988,0,0,0,3.15,5.16A13.723,13.723,0,0,0,83.22-.39,17.717,17.717,0,0,0,89.82.78a16.248,16.248,0,0,0,9-2.4q3.72-2.4,5.52-7.98h-7.5a5.351,5.351,0,0,1-2.28,2.73,7.6,7.6,0,0,1-4.44,1.29A7.616,7.616,0,0,1,84.6-7.44Q82.68-9.3,82.5-13.44ZM136.92-25.5V-35.52h8.82a13.734,13.734,0,0,1,2.43.21,6.07,6.07,0,0,1,2.07.75,4,4,0,0,1,1.44,1.5,4.979,4.979,0,0,1,.54,2.46,4.533,4.533,0,0,1-1.62,3.9,6.773,6.773,0,0,1-4.14,1.2ZM127.5-42.84V0h20.76a21.906,21.906,0,0,0,5.61-.72,15,15,0,0,0,4.86-2.22,10.933,10.933,0,0,0,3.39-3.87,11.79,11.79,0,0,0,1.26-5.61,11.871,11.871,0,0,0-1.95-6.87,10.3,10.3,0,0,0-5.91-3.99,10.678,10.678,0,0,0,4.35-3.54,9.384,9.384,0,0,0,1.47-5.4,11.491,11.491,0,0,0-.99-5.04,8.232,8.232,0,0,0-2.79-3.27,12.048,12.048,0,0,0-4.32-1.77,26.68,26.68,0,0,0-5.58-.54Zm9.42,35.52V-19.08h10.26a7.938,7.938,0,0,1,4.92,1.41q1.86,1.41,1.86,4.71a5.889,5.889,0,0,1-.57,2.76,4.529,4.529,0,0,1-1.53,1.71,6.479,6.479,0,0,1-2.22.9,12.571,12.571,0,0,1-2.64.27Zm52.8-11.52H175.86a9.781,9.781,0,0,1,.39-2.04,6.264,6.264,0,0,1,1.14-2.16,6.454,6.454,0,0,1,2.16-1.71,7.412,7.412,0,0,1,3.39-.69,5.984,5.984,0,0,1,4.65,1.68A9.847,9.847,0,0,1,189.72-18.84Zm-13.86,5.4h22.38a21.9,21.9,0,0,0-.6-6.9,16.889,16.889,0,0,0-2.73-5.88,13.771,13.771,0,0,0-4.83-4.11,14.75,14.75,0,0,0-6.9-1.53,16.066,16.066,0,0,0-6.45,1.26,15.25,15.25,0,0,0-5.01,3.45,15.207,15.207,0,0,0-3.24,5.19,18.092,18.092,0,0,0-1.14,6.48,18.887,18.887,0,0,0,1.11,6.6,14.988,14.988,0,0,0,3.15,5.16,13.723,13.723,0,0,0,4.98,3.33,17.717,17.717,0,0,0,6.6,1.17,16.248,16.248,0,0,0,9-2.4q3.72-2.4,5.52-7.98h-7.5a5.351,5.351,0,0,1-2.28,2.73,7.6,7.6,0,0,1-4.44,1.29,7.616,7.616,0,0,1-5.52-1.86Q176.04-9.3,175.86-13.44Zm34.02,3.36h-8.1a10.431,10.431,0,0,0,1.41,5.19,10.3,10.3,0,0,0,3.3,3.33,13.937,13.937,0,0,0,4.59,1.8,25.7,25.7,0,0,0,5.28.54,26.4,26.4,0,0,0,5.19-.51,13.158,13.158,0,0,0,4.53-1.77,9.843,9.843,0,0,0,3.21-3.33,9.892,9.892,0,0,0,1.23-5.13,7.22,7.22,0,0,0-.84-3.63,7.689,7.689,0,0,0-2.22-2.46,11.941,11.941,0,0,0-3.15-1.59,35.993,35.993,0,0,0-3.63-1.02q-1.8-.42-3.54-.78a27.378,27.378,0,0,1-3.09-.81,6.476,6.476,0,0,1-2.19-1.17,2.336,2.336,0,0,1-.84-1.86,2.3,2.3,0,0,1,.48-1.53,3.151,3.151,0,0,1,1.17-.87,5.207,5.207,0,0,1,1.53-.39,14.707,14.707,0,0,1,1.56-.09,8.5,8.5,0,0,1,3.96.87,3.727,3.727,0,0,1,1.86,3.33h8.1a10.177,10.177,0,0,0-1.47-4.77,9.71,9.71,0,0,0-3.09-3.03,12.934,12.934,0,0,0-4.23-1.62,24.576,24.576,0,0,0-4.89-.48,26.642,26.642,0,0,0-4.92.45,13.548,13.548,0,0,0-4.32,1.56,8.624,8.624,0,0,0-3.09,3.03,9.333,9.333,0,0,0-1.17,4.92,6.631,6.631,0,0,0,.84,3.45,7.294,7.294,0,0,0,2.22,2.34,12.4,12.4,0,0,0,3.15,1.5q1.77.57,3.63.99a50.923,50.923,0,0,1,7.11,1.92q2.55.96,2.55,2.88a3.153,3.153,0,0,1-.54,1.89,4.092,4.092,0,0,1-1.35,1.2,6.43,6.43,0,0,1-1.8.66,9.113,9.113,0,0,1-1.89.21,9.745,9.745,0,0,1-2.43-.3,6.3,6.3,0,0,1-2.07-.93,4.98,4.98,0,0,1-1.47-1.62A4.673,4.673,0,0,1,209.88-10.08ZM246.3-31.02v-9.3h-8.52v9.3h-5.16v5.7h5.16v18.3a7.926,7.926,0,0,0,.78,3.78,5.559,5.559,0,0,0,2.13,2.22A8.844,8.844,0,0,0,243.81.03a24.872,24.872,0,0,0,3.75.27q1.26,0,2.58-.06a20.274,20.274,0,0,0,2.4-.24V-6.6a11.936,11.936,0,0,1-1.26.18q-.66.06-1.38.06a4.169,4.169,0,0,1-2.88-.72,4.17,4.17,0,0,1-.72-2.88V-25.32h6.24v-5.7Zm56.46,2.58h9.12a17.267,17.267,0,0,0-2.04-6.6,16.05,16.05,0,0,0-4.11-4.83,18.111,18.111,0,0,0-5.64-2.97,21.585,21.585,0,0,0-6.69-1.02,21.638,21.638,0,0,0-8.85,1.74,18.93,18.93,0,0,0-6.63,4.8,21.4,21.4,0,0,0-4.14,7.17,26.768,26.768,0,0,0-1.44,8.91,25.874,25.874,0,0,0,1.44,8.73,20.85,20.85,0,0,0,4.14,7.05,18.964,18.964,0,0,0,6.63,4.71A21.967,21.967,0,0,0,293.4.96a21.1,21.1,0,0,0,7.26-1.2,16.833,16.833,0,0,0,5.76-3.48,17.389,17.389,0,0,0,3.96-5.52,21.778,21.778,0,0,0,1.86-7.26h-9.12a12.209,12.209,0,0,1-2.97,6.96A8.717,8.717,0,0,1,293.4-6.9,11,11,0,0,1,288-8.13a10.3,10.3,0,0,1-3.6-3.27,14.188,14.188,0,0,1-2.01-4.59,21.809,21.809,0,0,1-.63-5.25,23.443,23.443,0,0,1,.63-5.46,14.46,14.46,0,0,1,2.01-4.71,10.2,10.2,0,0,1,3.6-3.3,11,11,0,0,1,5.4-1.23,9.793,9.793,0,0,1,3.33.57,9.685,9.685,0,0,1,2.85,1.59,9.469,9.469,0,0,1,2.1,2.37A7.692,7.692,0,0,1,302.76-28.44Zm22.56,12.96a18.615,18.615,0,0,1,.36-3.66,9.338,9.338,0,0,1,1.23-3.18,6.909,6.909,0,0,1,2.31-2.25,6.856,6.856,0,0,1,3.6-.87,7.019,7.019,0,0,1,3.63.87,6.822,6.822,0,0,1,2.34,2.25,9.339,9.339,0,0,1,1.23,3.18,18.615,18.615,0,0,1,.36,3.66,18.166,18.166,0,0,1-.36,3.63,9.671,9.671,0,0,1-1.23,3.18,6.476,6.476,0,0,1-2.34,2.25,7.22,7.22,0,0,1-3.63.84,7.051,7.051,0,0,1-3.6-.84,6.552,6.552,0,0,1-2.31-2.25,9.67,9.67,0,0,1-1.23-3.18A18.166,18.166,0,0,1,325.32-15.48Zm-8.52,0a18.8,18.8,0,0,0,1.14,6.72,14.578,14.578,0,0,0,3.24,5.13,14.173,14.173,0,0,0,5.04,3.27,18.132,18.132,0,0,0,6.6,1.14,18.374,18.374,0,0,0,6.63-1.14,14.121,14.121,0,0,0,5.07-3.27,14.578,14.578,0,0,0,3.24-5.13,18.8,18.8,0,0,0,1.14-6.72,19.042,19.042,0,0,0-1.14-6.75,14.526,14.526,0,0,0-3.24-5.16,14.46,14.46,0,0,0-5.07-3.3,17.952,17.952,0,0,0-6.63-1.17,17.717,17.717,0,0,0-6.6,1.17,14.519,14.519,0,0,0-5.04,3.3,14.526,14.526,0,0,0-3.24,5.16A19.042,19.042,0,0,0,316.8-15.48ZM389.88,0l9.78-31.02H390.9l-5.7,21h-.12l-5.28-21h-8.28L366.36-9.96h-.12l-5.7-21.06h-9L361.38,0h8.82l5.28-20.82h.12L381.12,0ZM426-15.48a16.318,16.318,0,0,1-.42,3.72,9.875,9.875,0,0,1-1.32,3.18,6.914,6.914,0,0,1-2.25,2.19,6.245,6.245,0,0,1-3.27.81,6.284,6.284,0,0,1-3.24-.81,6.813,6.813,0,0,1-2.28-2.19,9.875,9.875,0,0,1-1.32-3.18,16.318,16.318,0,0,1-.42-3.72,16.588,16.588,0,0,1,.42-3.78,9.875,9.875,0,0,1,1.32-3.18,6.813,6.813,0,0,1,2.28-2.19,6.284,6.284,0,0,1,3.24-.81,6.245,6.245,0,0,1,3.27.81,6.914,6.914,0,0,1,2.25,2.19,9.875,9.875,0,0,1,1.32,3.18A16.588,16.588,0,0,1,426-15.48ZM403.26-42.84V0h8.1V-3.96h.12A7.768,7.768,0,0,0,415.56-.3,16.366,16.366,0,0,0,421.68.78a11.809,11.809,0,0,0,4.62-.96,11.829,11.829,0,0,0,4.11-2.94,15.033,15.033,0,0,0,2.97-5.07,21.255,21.255,0,0,0,1.14-7.35,21.255,21.255,0,0,0-1.14-7.35,15.033,15.033,0,0,0-2.97-5.07,11.829,11.829,0,0,0-4.11-2.94,11.809,11.809,0,0,0-4.62-.96,14.32,14.32,0,0,0-5.55,1.11,9.091,9.091,0,0,0-4.23,3.51h-.12v-15.6Zm44.22,27.36a18.615,18.615,0,0,1,.36-3.66,9.337,9.337,0,0,1,1.23-3.18,6.909,6.909,0,0,1,2.31-2.25,6.856,6.856,0,0,1,3.6-.87,7.019,7.019,0,0,1,3.63.87,6.822,6.822,0,0,1,2.34,2.25,9.337,9.337,0,0,1,1.23,3.18,18.617,18.617,0,0,1,.36,3.66,18.168,18.168,0,0,1-.36,3.63,9.67,9.67,0,0,1-1.23,3.18,6.476,6.476,0,0,1-2.34,2.25,7.22,7.22,0,0,1-3.63.84,7.051,7.051,0,0,1-3.6-.84,6.551,6.551,0,0,1-2.31-2.25,9.67,9.67,0,0,1-1.23-3.18A18.166,18.166,0,0,1,447.48-15.48Zm-8.52,0a18.8,18.8,0,0,0,1.14,6.72,14.578,14.578,0,0,0,3.24,5.13,14.173,14.173,0,0,0,5.04,3.27,18.132,18.132,0,0,0,6.6,1.14,18.374,18.374,0,0,0,6.63-1.14,14.121,14.121,0,0,0,5.07-3.27,14.578,14.578,0,0,0,3.24-5.13,18.8,18.8,0,0,0,1.14-6.72,19.042,19.042,0,0,0-1.14-6.75,14.526,14.526,0,0,0-3.24-5.16,14.46,14.46,0,0,0-5.07-3.3,17.952,17.952,0,0,0-6.63-1.17,17.717,17.717,0,0,0-6.6,1.17,14.519,14.519,0,0,0-5.04,3.3,14.526,14.526,0,0,0-3.24,5.16A19.042,19.042,0,0,0,438.96-15.48ZM491.88,3.84l12.96-34.86h-8.82L489.24-9.78h-.12L482.1-31.02h-9.06L483.9-1.92A5.121,5.121,0,0,1,484.26,0a4.253,4.253,0,0,1-.81,2.52,3.31,3.31,0,0,1-2.49,1.32,17.677,17.677,0,0,1-2.52-.06q-1.26-.12-2.46-.24v7.02q1.32.12,2.61.21t2.61.09a12.357,12.357,0,0,0,6.84-1.62A10.492,10.492,0,0,0,491.88,3.84Zm44.22-20.4,5.58-15.72h.12l5.4,15.72Zm.9-26.28L520.8,0h9.48l3.36-9.54h16.02L552.9,0h9.78L546.66-42.84ZM586.62-20.1h8.34a11.67,11.67,0,0,0-1.44-5.19,11.722,11.722,0,0,0-3.27-3.66,14.173,14.173,0,0,0-4.56-2.19,19.448,19.448,0,0,0-5.31-.72,16.919,16.919,0,0,0-6.72,1.26,14.143,14.143,0,0,0-4.98,3.51,15.052,15.052,0,0,0-3.09,5.34,20.665,20.665,0,0,0-1.05,6.69,17.374,17.374,0,0,0,1.14,6.39,14.892,14.892,0,0,0,3.18,5.01,14.169,14.169,0,0,0,4.95,3.27A16.978,16.978,0,0,0,580.2.78a15.491,15.491,0,0,0,10.14-3.24q3.96-3.24,4.8-9.42h-8.22a8.089,8.089,0,0,1-2.07,4.59,6.242,6.242,0,0,1-4.71,1.71,6.019,6.019,0,0,1-3.36-.9,6.722,6.722,0,0,1-2.19-2.31,10.582,10.582,0,0,1-1.17-3.15,16.852,16.852,0,0,1-.36-3.42,17.575,17.575,0,0,1,.36-3.51,10.368,10.368,0,0,1,1.23-3.24,7.391,7.391,0,0,1,2.25-2.4,5.983,5.983,0,0,1,3.42-.93Q585.78-25.44,586.62-20.1Zm34.44,0h8.34a11.67,11.67,0,0,0-1.44-5.19,11.722,11.722,0,0,0-3.27-3.66,14.173,14.173,0,0,0-4.56-2.19,19.448,19.448,0,0,0-5.31-.72,16.919,16.919,0,0,0-6.72,1.26,14.143,14.143,0,0,0-4.98,3.51,15.052,15.052,0,0,0-3.09,5.34,20.665,20.665,0,0,0-1.05,6.69,17.374,17.374,0,0,0,1.14,6.39,14.892,14.892,0,0,0,3.18,5.01,14.169,14.169,0,0,0,4.95,3.27A16.978,16.978,0,0,0,614.64.78a15.491,15.491,0,0,0,10.14-3.24q3.96-3.24,4.8-9.42h-8.22a8.089,8.089,0,0,1-2.07,4.59,6.242,6.242,0,0,1-4.71,1.71,6.019,6.019,0,0,1-3.36-.9,6.722,6.722,0,0,1-2.19-2.31,10.582,10.582,0,0,1-1.17-3.15,16.852,16.852,0,0,1-.36-3.42,17.575,17.575,0,0,1,.36-3.51,10.368,10.368,0,0,1,1.23-3.24,7.391,7.391,0,0,1,2.25-2.4,5.983,5.983,0,0,1,3.42-.93Q620.22-25.44,621.06-20.1Zm34.2,1.26H641.4a9.776,9.776,0,0,1,.39-2.04,6.263,6.263,0,0,1,1.14-2.16,6.454,6.454,0,0,1,2.16-1.71,7.412,7.412,0,0,1,3.39-.69,5.983,5.983,0,0,1,4.65,1.68A9.847,9.847,0,0,1,655.26-18.84Zm-13.86,5.4h22.38a21.9,21.9,0,0,0-.6-6.9,16.889,16.889,0,0,0-2.73-5.88,13.771,13.771,0,0,0-4.83-4.11,14.75,14.75,0,0,0-6.9-1.53,16.066,16.066,0,0,0-6.45,1.26,15.25,15.25,0,0,0-5.01,3.45,15.207,15.207,0,0,0-3.24,5.19,18.092,18.092,0,0,0-1.14,6.48,18.887,18.887,0,0,0,1.11,6.6,14.989,14.989,0,0,0,3.15,5.16,13.723,13.723,0,0,0,4.98,3.33,17.717,17.717,0,0,0,6.6,1.17,16.249,16.249,0,0,0,9-2.4q3.72-2.4,5.52-7.98h-7.5a5.351,5.351,0,0,1-2.28,2.73,7.6,7.6,0,0,1-4.44,1.29,7.617,7.617,0,0,1-5.52-1.86Q641.58-9.3,641.4-13.44Zm34.02,3.36h-8.1a10.43,10.43,0,0,0,1.41,5.19,10.3,10.3,0,0,0,3.3,3.33,13.937,13.937,0,0,0,4.59,1.8,25.705,25.705,0,0,0,5.28.54,26.4,26.4,0,0,0,5.19-.51,13.158,13.158,0,0,0,4.53-1.77,9.843,9.843,0,0,0,3.21-3.33,9.891,9.891,0,0,0,1.23-5.13,7.22,7.22,0,0,0-.84-3.63A7.689,7.689,0,0,0,693-16.05a11.941,11.941,0,0,0-3.15-1.59,35.993,35.993,0,0,0-3.63-1.02q-1.8-.42-3.54-.78a27.376,27.376,0,0,1-3.09-.81,6.475,6.475,0,0,1-2.19-1.17,2.336,2.336,0,0,1-.84-1.86,2.3,2.3,0,0,1,.48-1.53,3.151,3.151,0,0,1,1.17-.87,5.208,5.208,0,0,1,1.53-.39,14.707,14.707,0,0,1,1.56-.09,8.5,8.5,0,0,1,3.96.87,3.727,3.727,0,0,1,1.86,3.33h8.1a10.177,10.177,0,0,0-1.47-4.77,9.71,9.71,0,0,0-3.09-3.03,12.935,12.935,0,0,0-4.23-1.62,24.576,24.576,0,0,0-4.89-.48,26.642,26.642,0,0,0-4.92.45,13.548,13.548,0,0,0-4.32,1.56,8.624,8.624,0,0,0-3.09,3.03,9.333,9.333,0,0,0-1.17,4.92,6.631,6.631,0,0,0,.84,3.45,7.294,7.294,0,0,0,2.22,2.34,12.4,12.4,0,0,0,3.15,1.5q1.77.57,3.63.99a50.923,50.923,0,0,1,7.11,1.92q2.55.96,2.55,2.88A3.152,3.152,0,0,1,687-6.93a4.092,4.092,0,0,1-1.35,1.2,6.43,6.43,0,0,1-1.8.66,9.114,9.114,0,0,1-1.89.21,9.745,9.745,0,0,1-2.43-.3,6.3,6.3,0,0,1-2.07-.93,4.98,4.98,0,0,1-1.47-1.62A4.673,4.673,0,0,1,675.42-10.08Zm32.22,0h-8.1a10.43,10.43,0,0,0,1.41,5.19,10.3,10.3,0,0,0,3.3,3.33,13.937,13.937,0,0,0,4.59,1.8,25.705,25.705,0,0,0,5.28.54,26.4,26.4,0,0,0,5.19-.51,13.158,13.158,0,0,0,4.53-1.77,9.843,9.843,0,0,0,3.21-3.33,9.891,9.891,0,0,0,1.23-5.13,7.22,7.22,0,0,0-.84-3.63,7.689,7.689,0,0,0-2.22-2.46,11.941,11.941,0,0,0-3.15-1.59,35.993,35.993,0,0,0-3.63-1.02q-1.8-.42-3.54-.78a27.376,27.376,0,0,1-3.09-.81,6.475,6.475,0,0,1-2.19-1.17,2.336,2.336,0,0,1-.84-1.86,2.3,2.3,0,0,1,.48-1.53,3.151,3.151,0,0,1,1.17-.87,5.208,5.208,0,0,1,1.53-.39,14.707,14.707,0,0,1,1.56-.09,8.5,8.5,0,0,1,3.96.87,3.727,3.727,0,0,1,1.86,3.33h8.1a10.177,10.177,0,0,0-1.47-4.77,9.71,9.71,0,0,0-3.09-3.03,12.935,12.935,0,0,0-4.23-1.62,24.576,24.576,0,0,0-4.89-.48,26.642,26.642,0,0,0-4.92.45,13.548,13.548,0,0,0-4.32,1.56,8.624,8.624,0,0,0-3.09,3.03,9.333,9.333,0,0,0-1.17,4.92,6.631,6.631,0,0,0,.84,3.45,7.294,7.294,0,0,0,2.22,2.34,12.4,12.4,0,0,0,3.15,1.5q1.77.57,3.63.99a50.923,50.923,0,0,1,7.11,1.92q2.55.96,2.55,2.88a3.152,3.152,0,0,1-.54,1.89,4.092,4.092,0,0,1-1.35,1.2,6.43,6.43,0,0,1-1.8.66,9.114,9.114,0,0,1-1.89.21,9.745,9.745,0,0,1-2.43-.3,6.3,6.3,0,0,1-2.07-.93,4.98,4.98,0,0,1-1.47-1.62A4.673,4.673,0,0,1,707.64-10.08Zm33.18-5.4a18.617,18.617,0,0,1,.36-3.66,9.339,9.339,0,0,1,1.23-3.18,6.909,6.909,0,0,1,2.31-2.25,6.856,6.856,0,0,1,3.6-.87,7.019,7.019,0,0,1,3.63.87,6.822,6.822,0,0,1,2.34,2.25,9.337,9.337,0,0,1,1.23,3.18,18.617,18.617,0,0,1,.36,3.66,18.168,18.168,0,0,1-.36,3.63,9.67,9.67,0,0,1-1.23,3.18,6.476,6.476,0,0,1-2.34,2.25,7.22,7.22,0,0,1-3.63.84,7.051,7.051,0,0,1-3.6-.84,6.551,6.551,0,0,1-2.31-2.25,9.671,9.671,0,0,1-1.23-3.18A18.168,18.168,0,0,1,740.82-15.48Zm-8.52,0a18.8,18.8,0,0,0,1.14,6.72,14.578,14.578,0,0,0,3.24,5.13,14.174,14.174,0,0,0,5.04,3.27,18.132,18.132,0,0,0,6.6,1.14,18.374,18.374,0,0,0,6.63-1.14,14.12,14.12,0,0,0,5.07-3.27,14.578,14.578,0,0,0,3.24-5.13,18.8,18.8,0,0,0,1.14-6.72,19.042,19.042,0,0,0-1.14-6.75,14.527,14.527,0,0,0-3.24-5.16,14.459,14.459,0,0,0-5.07-3.3,17.952,17.952,0,0,0-6.63-1.17,17.717,17.717,0,0,0-6.6,1.17,14.519,14.519,0,0,0-5.04,3.3,14.527,14.527,0,0,0-3.24,5.16A19.044,19.044,0,0,0,732.3-15.48Zm37.62-15.54V0h8.52V-13.98a17.147,17.147,0,0,1,.42-3.9,8.539,8.539,0,0,1,1.41-3.15,6.858,6.858,0,0,1,2.61-2.13,9.077,9.077,0,0,1,3.96-.78,15.217,15.217,0,0,1,1.62.09q.84.09,1.44.21v-7.92a6.644,6.644,0,0,0-1.86-.3,10.174,10.174,0,0,0-3.12.48,11.433,11.433,0,0,0-2.82,1.35,10.613,10.613,0,0,0-2.34,2.1,10.477,10.477,0,0,0-1.62,2.67h-.12v-5.76Zm32.1-4.8v-7.02H793.5v7.02Zm-8.52,4.8V0h8.52V-31.02Zm36.12,12.18H815.76a9.776,9.776,0,0,1,.39-2.04,6.263,6.263,0,0,1,1.14-2.16,6.454,6.454,0,0,1,2.16-1.71,7.412,7.412,0,0,1,3.39-.69,5.983,5.983,0,0,1,4.65,1.68A9.847,9.847,0,0,1,829.62-18.84Zm-13.86,5.4h22.38a21.9,21.9,0,0,0-.6-6.9,16.889,16.889,0,0,0-2.73-5.88,13.771,13.771,0,0,0-4.83-4.11,14.75,14.75,0,0,0-6.9-1.53,16.066,16.066,0,0,0-6.45,1.26,15.25,15.25,0,0,0-5.01,3.45,15.207,15.207,0,0,0-3.24,5.19,18.092,18.092,0,0,0-1.14,6.48,18.887,18.887,0,0,0,1.11,6.6,14.989,14.989,0,0,0,3.15,5.16,13.723,13.723,0,0,0,4.98,3.33,17.717,17.717,0,0,0,6.6,1.17,16.249,16.249,0,0,0,9-2.4q3.72-2.4,5.52-7.98h-7.5a5.351,5.351,0,0,1-2.28,2.73,7.6,7.6,0,0,1-4.44,1.29,7.617,7.617,0,0,1-5.52-1.86Q815.94-9.3,815.76-13.44Zm34.02,3.36h-8.1a10.43,10.43,0,0,0,1.41,5.19,10.3,10.3,0,0,0,3.3,3.33,13.937,13.937,0,0,0,4.59,1.8,25.705,25.705,0,0,0,5.28.54,26.4,26.4,0,0,0,5.19-.51,13.158,13.158,0,0,0,4.53-1.77,9.843,9.843,0,0,0,3.21-3.33,9.891,9.891,0,0,0,1.23-5.13,7.22,7.22,0,0,0-.84-3.63,7.689,7.689,0,0,0-2.22-2.46,11.941,11.941,0,0,0-3.15-1.59,35.993,35.993,0,0,0-3.63-1.02q-1.8-.42-3.54-.78a27.376,27.376,0,0,1-3.09-.81,6.475,6.475,0,0,1-2.19-1.17,2.336,2.336,0,0,1-.84-1.86,2.3,2.3,0,0,1,.48-1.53,3.151,3.151,0,0,1,1.17-.87,5.208,5.208,0,0,1,1.53-.39,14.707,14.707,0,0,1,1.56-.09,8.5,8.5,0,0,1,3.96.87,3.727,3.727,0,0,1,1.86,3.33h8.1a10.177,10.177,0,0,0-1.47-4.77,9.71,9.71,0,0,0-3.09-3.03,12.935,12.935,0,0,0-4.23-1.62,24.576,24.576,0,0,0-4.89-.48,26.642,26.642,0,0,0-4.92.45,13.548,13.548,0,0,0-4.32,1.56,8.624,8.624,0,0,0-3.09,3.03,9.333,9.333,0,0,0-1.17,4.92,6.631,6.631,0,0,0,.84,3.45,7.294,7.294,0,0,0,2.22,2.34,12.4,12.4,0,0,0,3.15,1.5q1.77.57,3.63.99a50.923,50.923,0,0,1,7.11,1.92q2.55.96,2.55,2.88a3.152,3.152,0,0,1-.54,1.89,4.092,4.092,0,0,1-1.35,1.2,6.43,6.43,0,0,1-1.8.66,9.114,9.114,0,0,1-1.89.21,9.745,9.745,0,0,1-2.43-.3,6.3,6.3,0,0,1-2.07-.93,4.98,4.98,0,0,1-1.47-1.62A4.673,4.673,0,0,1,849.78-10.08Z" transform="translate(347 233)" fill="#777"/><g transform="translate(667.8 516)"><g transform="translate(0.2)" fill="#fff" stroke="#b09ae5" stroke-width="3"><rect width="233" height="340" stroke="none"/><rect x="1.5" y="1.5" width="230" height="337" fill="none"/></g><g transform="translate(46.888 22.923)"><g transform="translate(0.312 0.077)" fill="none" stroke="#e2e2e2" stroke-width="3"><rect width="138" height="140" stroke="none"/><rect x="1.5" y="1.5" width="135" height="137" fill="none"/></g><path d="M104.539,96.488a4.361,4.361,0,0,0-1.824-.394,4.311,4.311,0,0,0-3.4,1.605c-.062.08-3.885,5.152-14.343,9.256C83.257,95.187,77.693,64,66.813,64a10.643,10.643,0,0,0-6.861,2.914,9.854,9.854,0,0,1-13.089,0A10.643,10.643,0,0,0,40,64C29.1,64,23.55,95.232,21.848,106.953,11.487,102.888,7.635,97.871,7.5,97.7a4.236,4.236,0,0,0-3.388-1.637,4.395,4.395,0,0,0-1.8.382,3.627,3.627,0,0,0-2.1,4.545c.123.324,12.367,32.485,53.195,32.485s53.071-32.161,53.2-32.485A3.61,3.61,0,0,0,104.539,96.488ZM40,69.344a5.517,5.517,0,0,1,3.38,1.622,15.187,15.187,0,0,0,20.052,0,5.517,5.517,0,0,1,3.38-1.622c2.323,0,7.233,8.985,10.9,26.854a94.669,94.669,0,0,1-24.3,2.864,94.854,94.854,0,0,1-24.3-2.868C32.769,78.328,37.679,69.344,40,69.344ZM28.113,101.487a101.266,101.266,0,0,0,25.3,2.921A101.731,101.731,0,0,0,78.7,101.5c.4,2.3.784,4.676,1.132,7.228A93.781,93.781,0,0,1,53.407,112.1a93.705,93.705,0,0,1-26.429-3.38C27.329,106.173,27.706,103.787,28.113,101.487Zm25.294,26.647c-25.187,0-38.308-13.159-44.189-21.751,6.919,4.882,20.376,11.061,44.189,11.061s37.337-6.268,44.211-11.1C91.735,114.955,78.608,128.134,53.407,128.134Z" transform="translate(16.424 -29.711)" fill="#777"/></g><g transform="translate(46.888 194.848)"><rect width="142" height="17" rx="8.5" transform="translate(0.312 0.152)" fill="#5e36ca"/></g><g transform="translate(44.763 284.296)"><rect width="142" height="31" rx="15.5" transform="translate(0.438 -0.296)" fill="#22baa0"/></g><rect width="126" height="10" rx="5" transform="translate(47.2 254)" fill="#e2e2e2"/><rect width="142" height="12" rx="6" transform="translate(47.2 232)" fill="#e2e2e2"/></g><g transform="translate(984.558 516)"><g transform="translate(0.442)" fill="#fff" stroke="#b09ae5" stroke-width="3"><rect width="234" height="341" stroke="none"/><rect x="1.5" y="1.5" width="231" height="338" fill="none"/></g><g transform="translate(46.888 22.923)"><g transform="translate(-0.446 0.077)" fill="none" stroke="#e2e2e2" stroke-width="3"><rect width="140" height="140" stroke="none"/><rect x="1.5" y="1.5" width="137" height="137" fill="none"/></g><path d="M80.067,37.641l13.38-24.947A9.143,9.143,0,0,0,85,0C82.508,0,62.708,4.7,60.35,4.7a9.362,9.362,0,0,0-6.183-2.353H40.052A9.362,9.362,0,0,0,33.876,4.7C31.512,4.7,11.746,0,9.232,0A9.143,9.143,0,0,0,.757,12.623L14.174,37.641V47.32A16.438,16.438,0,1,0,42.167,61.166h9.884A16.435,16.435,0,1,0,80.045,47.313V37.641ZM84.162,4.78a4.443,4.443,0,0,1,5,5.918L77.251,32.936H63.577V11.7a9.207,9.207,0,0,0-.412-2.586ZM36.039,9.41a4.652,4.652,0,0,1,4.013-2.383H54.167A4.652,4.652,0,0,1,58.18,9.41a5.033,5.033,0,0,1,.693,2.292V32.936H35.347V11.7A5.032,5.032,0,0,1,36.039,9.41ZM5.75,6.358a4.489,4.489,0,0,1,4.205-1.6l21.1,4.346a9.187,9.187,0,0,0-.413,2.6V32.936H16.994L5.026,10.629a4.379,4.379,0,0,1,.729-4.271Zm31.711,50.1H28.289V47.289a11.8,11.8,0,0,1,9.172,9.172Zm-13.877,0H14.412a11.8,11.8,0,0,1,9.172-9.172Zm-9.172,4.705h9.172v9.172a11.8,11.8,0,0,1-9.172-9.172Zm13.877,9.172V61.166h9.172A11.8,11.8,0,0,1,28.289,70.338ZM79.807,56.461H70.635V47.289a11.8,11.8,0,0,1,9.172,9.172Zm-13.877,0H56.758a11.8,11.8,0,0,1,9.172-9.172Zm-9.172,4.705H65.93v9.172A11.8,11.8,0,0,1,56.758,61.166Zm13.877,9.172V61.166h9.172a11.8,11.8,0,0,1-9.172,9.172ZM75.358,44A16.3,16.3,0,0,0,52.051,56.461H42.167A16.3,16.3,0,0,0,18.861,44V37.641h56.5Z" transform="translate(22.28 32.593)" fill="#777"/></g><g transform="translate(46.888 194.848)"><rect width="144" height="17" rx="8.5" transform="translate(-0.446 0.152)" fill="#5e36ca"/></g><g transform="translate(45.763 284.296)"><rect width="144" height="31" rx="15.5" transform="translate(-0.32 -0.296)" fill="#22baa0"/></g><rect width="128" height="10" rx="5" transform="translate(46.442 254)" fill="#e2e2e2"/><rect width="144" height="12" rx="6" transform="translate(46.442 232)" fill="#e2e2e2"/></g></g></g></svg>